<svg display="none" xmlns="http://www.w3.org/2000/svg">
  <symbol id="phone" width="16" height="16" viewBox="0 0 16 16">
    <path fill-rule="evenodd" clip-rule="evenodd" d="M1.88541 0.510194C2.06038 0.335474 2.27048 0.199938 2.50179 0.112565C2.7331 0.0251932 2.98033 -0.0120195 3.22711 0.00339337C3.47389 0.0188063 3.71457 0.0864929 3.93321 0.201968C4.15185 0.317442 4.34346 0.478068 4.49533 0.673201L6.29027 2.97931C6.61926 3.40233 6.73526 3.95335 6.60526 4.47338L6.05828 6.66348C6.03 6.77691 6.03153 6.89573 6.06272 7.0084C6.0939 7.12107 6.15369 7.22376 6.23628 7.30651L8.6932 9.76362C8.77603 9.84638 8.87889 9.90627 8.99174 9.93746C9.1046 9.96866 9.2236 9.97009 9.33718 9.94163L11.5261 9.3946C11.7827 9.33044 12.0506 9.32545 12.3094 9.38003C12.5682 9.4346 12.8112 9.5473 13.0201 9.70962L15.326 11.5037C16.155 12.1487 16.231 13.3738 15.489 14.1148L14.455 15.1489C13.715 15.8889 12.6091 16.2139 11.5781 15.8509C8.93937 14.9224 6.54354 13.4116 4.56833 11.4307C2.58768 9.45562 1.07705 7.05995 0.148466 4.42137C-0.213522 3.39133 0.111467 2.28428 0.851444 1.54424L1.88541 0.510194Z" fill="#008139" />
  </symbol>
  <symbol id="burger" width="24" height="24" viewBox="0 0 24 24">
  <g clip-path="url(#clip0_105_1724)"><path d="M3 6.00098H21M3 12.001H21M3 18.001H21" stroke="#008139" stroke-linecap="round" stroke-linejoin="round" stroke-width="2"/></g><defs><clipPath id="clip0_105_1724"><rect fill="white" height="24" transform="translate(0 0.000976562)" width="24"/></clipPath></defs>
  </symbol>

<symbol id="cross" width="14" height="14" viewBox="0 0 14 14">
  <rect width="17" height="1" transform="matrix(-0.707107 -0.707107 0.707103 -0.707111 13.0005 13)" fill="white" />
  <rect width="17" height="1" transform="matrix(-0.707107 0.707107 -0.707103 -0.707111 14 1)" fill="white" /> 
</symbol>
</svg> 

