<?xml version="1.0" standalone="no"?>
<!DOCTYPE svg PUBLIC "-//W3C//DTD SVG 1.1//EN" "http://www.w3.org/Graphics/SVG/1.1/DTD/svg11.dtd" >
<svg xmlns="http://www.w3.org/2000/svg" xmlns:xlink="http://www.w3.org/1999/xlink" version="1.1">
<metadata>
Created by FontForge 20201107 at Fri Jun  7 12:44:43 2024
 By 
Copyright 2011 The Philosopher Project Authors (https://github.com/alexeiva/philosopher)
</metadata>
<defs>
<font id="Philosopher-Regular" horiz-adv-x="530" >
  <font-face 
    font-family="Philosopher"
    font-weight="400"
    font-stretch="normal"
    units-per-em="1000"
    panose-1="0 0 0 0 0 0 0 0 0 0"
    ascent="800"
    descent="-200"
    x-height="470"
    cap-height="660"
    bbox="-85 -325 982 975"
    underline-thickness="50"
    underline-position="-125"
    unicode-range="U+000D-2215"
  />
<missing-glyph horiz-adv-x="500" 
d="M50 -220v1084h400v-1084h-400zM100 -170h300v984h-300v-984z" />
    <glyph glyph-name=".notdef" horiz-adv-x="500" 
d="M50 -220v1084h400v-1084h-400zM100 -170h300v984h-300v-984z" />
    <glyph glyph-name=".null" horiz-adv-x="0" 
 />
    <glyph glyph-name="nonmarkingreturn" horiz-adv-x="333" 
 />
    <glyph glyph-name="NULL" horiz-adv-x="0" 
 />
    <glyph glyph-name="NULL" horiz-adv-x="0" 
 />
    <glyph glyph-name="CR" unicode="&#xd;" horiz-adv-x="250" 
 />
    <glyph glyph-name="space" unicode=" " horiz-adv-x="250" 
 />
    <glyph glyph-name="exclam" unicode="!" horiz-adv-x="234" 
d="M88 155l-18 505h94l-18 -505h-58zM117 -14q-22 0 -38 16t-16 39q0 22 16 37.5t38 15.5t38 -15.5t16 -37.5q0 -23 -16 -39t-38 -16z" />
    <glyph glyph-name="quotedbl" unicode="&#x22;" horiz-adv-x="366" 
d="M243 390l-30 270h100l-30 -270h-40zM83 390l-30 270h100l-30 -270h-40z" />
    <glyph glyph-name="numbersign" unicode="#" horiz-adv-x="668" 
d="M126 0l35 175h-130v60h144l36 180h-120v60h133l42 200h65l-42 -200h145l42 200h65l-42 -200h137v-60h-150l-37 -180h127v-60h-140l-35 -175h-65l35 175h-145l-35 -175h-65zM239 235h146l36 180h-145z" />
    <glyph glyph-name="dollar" unicode="$" horiz-adv-x="526" 
d="M236 -80v65q-48 6 -90.5 21.5t-69.5 40.5t-27 58v107h18q15 -91 57 -135.5t112 -52.5v270l-70 42q-64 38 -90.5 77t-26.5 95q0 76 51.5 122t135.5 48v57h40v-59q45 -4 87 -19t69 -40t27 -59v-107h-18q-15 91 -55.5 134t-109.5 51v-253l85 -50q64 -38 94 -73.5t30 -91.5
q0 -85 -55.5 -135t-153.5 -50v-63h-40zM236 407v231q-43 -2 -76 -29.5t-33 -71.5t27.5 -71t81.5 -59zM276 23q49 2 86 28t37 74q0 44 -27.5 75t-82.5 63l-13 7v-247z" />
    <glyph glyph-name="percent" unicode="%" horiz-adv-x="674" 
d="M177 395q-68 0 -106.5 35.5t-38.5 99.5t38.5 99.5t106.5 35.5t106.5 -35.5t38.5 -99.5t-38.5 -99.5t-106.5 -35.5zM72 0l455 660h75l-455 -660h-75zM177 430q85 0 85 100t-85 100t-85 -100t85 -100zM497 -5q-68 0 -106.5 35.5t-38.5 99.5t38.5 99.5t106.5 35.5
t106.5 -35.5t38.5 -99.5t-38.5 -99.5t-106.5 -35.5zM497 30q85 0 85 100t-85 100t-85 -100t85 -100z" />
    <glyph glyph-name="ampersand" unicode="&#x26;" horiz-adv-x="616" 
d="M252 -20q-105 0 -157.5 46.5t-52.5 113.5q0 42 20.5 74t53.5 58.5t69 53.5q-14 13 -27.5 26.5t-24.5 29.5q-20 26 -35.5 62.5t-15.5 79.5q0 72 48.5 114t131.5 42q79 0 122 -40t43 -100q0 -46 -20.5 -81t-53.5 -63.5t-72 -55.5l201 -220q21 23 37.5 45t28.5 40
q7 11 13 20.5t11 19.5l20 -15q-4 -10 -9.5 -20.5t-12.5 -21.5q-11 -19 -28 -43t-39 -48l89 -97h-110l-40 43q-36 -27 -83 -45t-107 -18zM250 375q38 32 65 68.5t27 86.5q0 43 -12.5 68t-31 36t-36.5 11q-20 0 -39.5 -11.5t-32.5 -37.5t-13 -72q0 -30 10 -56t24 -46.5
t25 -32.5t14 -14zM271 15q46 0 83 14t67 37l-206 225q-34 -29 -56 -62.5t-22 -78.5q0 -135 134 -135z" />
    <glyph glyph-name="quotesingle" unicode="'" horiz-adv-x="206" 
d="M83 390l-30 270h100l-30 -270h-40z" />
    <glyph glyph-name="parenleft" unicode="(" horiz-adv-x="309" 
d="M284 -210q-80 60 -136 126t-85 145t-29 179t29 179t85 145t136 126l10 -15q-65 -57 -102 -127.5t-52.5 -149t-15.5 -158.5t15.5 -158.5t52.5 -149t102 -127.5z" />
    <glyph glyph-name="parenright" unicode=")" horiz-adv-x="309" 
d="M25 -210l-10 15q65 57 102 127.5t52.5 149t15.5 158.5t-15.5 158.5t-52.5 149t-102 127.5l10 15q80 -60 136 -126t85 -145t29 -179t-29 -179t-85 -145t-136 -126z" />
    <glyph glyph-name="asterisk" unicode="*" horiz-adv-x="424" 
d="M172 330l30 150l-115 -105l-40 70l145 50l-145 50l40 70l115 -105l-30 150h80l-30 -150l115 105l40 -70l-145 -50l145 -50l-40 -70l-115 105l30 -150h-80z" />
    <glyph glyph-name="plus" unicode="+" 
d="M235 100v200h-200v60h200v200h60v-200h200v-60h-200v-200h-60z" />
    <glyph glyph-name="comma" unicode="," horiz-adv-x="237" 
d="M71 -155l-10 15q38 26 59 58t21 77l-30 -10q-23 0 -39 16t-16 39q0 26 17 43t43 17q30 0 47.5 -18t17.5 -52q0 -64 -28.5 -109.5t-81.5 -75.5z" />
    <glyph glyph-name="hyphen" unicode="-" horiz-adv-x="387" 
d="M66 230v70h255v-70h-255z" />
    <glyph glyph-name="period" unicode="." horiz-adv-x="220" 
d="M110 -14q-22 0 -38 16t-16 39q0 22 16 38t38 16q23 0 38.5 -16t15.5 -38q0 -23 -16 -39t-38 -16z" />
    <glyph glyph-name="slash" unicode="/" horiz-adv-x="440" 
d="M23 0l321 660h73l-321 -660h-73z" />
    <glyph glyph-name="zero" unicode="0" horiz-adv-x="584" 
d="M292 -20q-87 0 -140 43.5t-76.5 122.5t-23.5 184q0 106 23.5 184.5t76.5 122t140 43.5q88 0 140.5 -43.5t76 -122t23.5 -184.5q0 -105 -23.5 -184t-76 -122.5t-140.5 -43.5zM292 20q82 0 111 76.5t29 233.5q0 158 -29 234t-111 76t-111 -76t-29 -234q0 -157 29 -233.5
t111 -76.5z" />
    <glyph glyph-name="one" unicode="1" horiz-adv-x="305" 
d="M129 0v560l-97 -63l-18 23l155 140h50v-660h-90z" />
    <glyph glyph-name="two" unicode="2" 
d="M41 0v50q79 77 139.5 134.5t102 106t62.5 96t21 103.5q0 75 -39 112.5t-91 37.5q-60 0 -105 -43.5t-60 -126.5h-20q0 38 3 72.5t21 57.5q27 33 79 56.5t112 23.5q30 0 64.5 -7.5t65.5 -27.5t50.5 -57.5t19.5 -97.5q0 -64 -29 -118t-79 -105t-114 -106t-133 -121h225
q60 0 92.5 26t32.5 79h20v-65q0 -20 -7 -38.5t-25 -30t-53 -11.5h-355z" />
    <glyph glyph-name="three" unicode="3" 
d="M266 -20q-75 0 -129.5 29t-96.5 78l16 18q38 -42 83 -63.5t102 -21.5q40 0 74 17.5t55 53.5t21 94q0 53 -20 87t-50 51t-60 17t-48 -1.5t-33.5 -4.5t-38.5 -9l-26 42l271 253h-185q-60 0 -92.5 -26t-32.5 -79h-20v65q0 20 7 38.5t25.5 30t52.5 11.5h318v-40l-268 -250
q26 7 53.5 8.5t36.5 1.5q22 0 57 -7.5t70 -28.5t59 -59t24 -100q0 -66 -24 -106.5t-60.5 -62t-74.5 -29t-66 -7.5z" />
    <glyph glyph-name="four" unicode="4" horiz-adv-x="546" 
d="M338 0v170h-320v40l330 450h80v-450h90v-40h-90v-170h-90zM78 210h260v354z" />
    <glyph glyph-name="five" unicode="5" 
d="M257 -20q-75 0 -124.5 28t-90.5 77l19 17q75 -82 181 -82q40 0 74 17.5t55 53.5t21 94q0 79 -42.5 117t-117.5 38q-23 0 -45 -1.5t-40 -3.5l-40 -5l-40 40l10 290h375v-40h-293l-9 -245l32 2q14 1 32.5 2t37.5 1q38 0 79.5 -8t78 -29.5t59.5 -59.5t23 -98
q0 -64 -24.5 -104.5t-61.5 -62t-77 -30t-72 -8.5z" />
    <glyph glyph-name="six" unicode="6" horiz-adv-x="537" 
d="M282 -20q-120 0 -175 88.5t-55 261.5q0 174 61 262t189 88q49 0 87 -9.5t68 -20.5l-5 -20q-23 4 -57.5 7t-72.5 3q-90 0 -132.5 -69.5t-42.5 -185.5q26 19 61.5 32t88.5 13q105 0 152.5 -61.5t47.5 -163.5q0 -57 -23.5 -108.5t-71 -84t-120.5 -32.5zM282 20q38 0 65 26.5
t41 69t14 89.5q0 86 -32 135.5t-103 49.5q-38 0 -66 -13.5t-54 -36.5q0 -115 17 -185.5t47.5 -102.5t70.5 -32z" />
    <glyph glyph-name="seven" unicode="7" horiz-adv-x="474" 
d="M121 0l250 620h-200q-60 0 -92.5 -26t-32.5 -79h-20v65q0 20 7 38.5t25.5 30t52.5 11.5h350v-40l-250 -620h-90z" />
    <glyph glyph-name="eight" unicode="8" horiz-adv-x="554" 
d="M277 -20q-62 0 -114.5 17.5t-84 55t-31.5 97.5q0 50 23 85t60 59t77 41q-35 21 -66 44t-50 55t-19 76q0 65 28.5 102t75 52.5t101.5 15.5t101.5 -15t75 -50t28.5 -95q0 -40 -18 -71t-46.5 -54.5t-60.5 -39.5q38 -22 72 -48t56 -61t22 -86q0 -65 -31.5 -104.5t-84 -57.5
t-114.5 -18zM312 380q30 22 52.5 53t22.5 87q0 48 -17 74t-42 36t-51 10q-25 0 -50.5 -10t-42.5 -33.5t-17 -66.5q0 -32 20.5 -59.5t54 -50t70.5 -40.5zM277 20q35 0 65.5 13.5t50 40t19.5 66.5q0 43 -22.5 74t-58.5 55t-79 46q-29 -14 -54.5 -34.5t-40.5 -51.5t-15 -79
q0 -45 19 -74t50 -42.5t66 -13.5z" />
    <glyph glyph-name="nine" unicode="9" horiz-adv-x="536" 
d="M234 -20q-49 0 -87 9.5t-68 20.5l5 20q23 -4 57.5 -7t72.5 -3q90 0 132.5 69.5t42.5 185.5q-26 -19 -61.5 -32t-88.5 -13q-105 0 -152.5 61.5t-47.5 163.5q0 58 23.5 109t71.5 83.5t120 32.5q120 0 175 -89t55 -261q0 -174 -61 -262t-189 -88zM269 270q38 0 66 13.5
t54 36.5q0 115 -17 185.5t-47.5 102.5t-70.5 32q-38 0 -65 -26.5t-41 -68.5t-14 -90q0 -86 32 -135.5t103 -49.5z" />
    <glyph glyph-name="colon" unicode=":" horiz-adv-x="241" 
d="M121 353q-22 0 -38 15.5t-16 38.5q0 22 16 38t38 16q23 0 38.5 -16t15.5 -38q0 -23 -15.5 -38.5t-38.5 -15.5zM120 -14q-22 0 -38 16t-16 39q0 22 16 38t38 16q23 0 39 -16t16 -38q0 -23 -16 -39t-39 -16z" />
    <glyph glyph-name="semicolon" unicode=";" horiz-adv-x="258" 
d="M131 354q-23 0 -39 15.5t-16 38.5q0 22 16 37.5t39 15.5q22 0 38 -15.5t16 -37.5q0 -23 -16 -38.5t-38 -15.5zM81 -154l-11 14q38 30 59.5 60.5t21.5 79.5q-4 -4 -12 -9.5t-23 -5.5q-23 0 -36.5 16t-13.5 39q0 22 17.5 41t47.5 19q26 0 43 -21t17 -59q0 -53 -25 -93
t-85 -81z" />
    <glyph glyph-name="less" unicode="&#x3c;" horiz-adv-x="618" 
d="M550 95l-520 225v30l520 225v-60l-417 -180l417 -180v-60z" />
    <glyph glyph-name="equal" unicode="=" horiz-adv-x="657" 
d="M66 390v60h525v-60h-525zM66 210v60h525v-60h-525z" />
    <glyph glyph-name="greater" unicode="&#x3e;" horiz-adv-x="618" 
d="M68 95v60l417 180l-417 180v60l520 -225v-30z" />
    <glyph glyph-name="question" unicode="?" horiz-adv-x="478" 
d="M206 156q1 50 15.5 84.5t35.5 61.5t41 53t34 58t14 77q0 75 -39 112.5t-91 37.5q-60 0 -105.5 -43.5t-60.5 -126.5h-20q0 38 3 72.5t22 57.5q27 33 79 56.5t112 23.5q30 0 64.5 -7.5t65.5 -27.5t50.5 -57.5t19.5 -97.5q0 -50 -20 -86.5t-49 -65.5t-59 -55.5t-50.5 -56.5
t-21.5 -70h-40zM226 -13q-23 0 -38.5 16t-15.5 38q0 23 15.5 39t38.5 16t39 -16t16 -39q0 -22 -16.5 -38t-38.5 -16z" />
    <glyph glyph-name="at" unicode="@" horiz-adv-x="856" 
d="M430 -180q-115 0 -203 49t-137.5 145t-49.5 236t49.5 236t137.5 145t203 49t203 -48.5t137.5 -140t49.5 -221.5q0 -120 -47 -192.5t-148 -72.5q-42 0 -68 14.5t-37 40.5h-5q-15 -19 -49 -37t-91 -18q-21 0 -45.5 6.5t-47.5 22.5t-37.5 43t-14.5 68q0 55 35.5 85t94 42.5
t125.5 12.5h30q0 70 -14 106.5t-37.5 50t-53.5 13.5q-42 0 -70.5 -18t-39.5 -67h-45q0 26 3 48.5t22 41.5t62 27t88 8q34 0 65.5 -8t56 -29.5t39 -63t14.5 -109.5v-180q0 -23 12 -41.5t38 -18.5q33 0 61.5 27t46 77.5t17.5 120.5q0 120 -43.5 202.5t-122 125t-184.5 42.5
q-105 0 -184 -43.5t-122.5 -130t-43.5 -216.5t43.5 -216.5t122.5 -130t184 -43.5q98 0 174 21.5t136 63.5l20 -30q-60 -42 -140.5 -68.5t-189.5 -26.5zM420 50q37 0 58.5 18.5t36.5 41.5v135h-30q-75 0 -117.5 -27.5t-42.5 -72.5q0 -49 29 -72t66 -23z" />
    <glyph glyph-name="A" unicode="A" horiz-adv-x="635" 
d="M622 -5q-22 0 -54 8.5t-63 36t-53 85.5l-25 65h-280l-80 -190h-45l280 660h30l220 -535q24 -56 46 -78.5t64 -26.5v-20q-18 -5 -40 -5zM162 230h245l-120 290z" />
    <glyph glyph-name="B" unicode="B" horiz-adv-x="622" 
d="M106 0v540q0 45 -12.5 72.5t-57.5 27.5h-20v20h260q39 0 85.5 -6t88.5 -23.5t69 -52.5t27 -93q0 -45 -31 -83.5t-99 -61.5q65 -10 101 -32.5t50 -54.5t14 -73q0 -56 -25 -91.5t-65.5 -54.5t-89 -26.5t-95.5 -7.5h-200zM196 355h95q40 0 76.5 15t60 45t23.5 75
q0 48 -28.5 78t-70 43.5t-81.5 13.5q-19 0 -39.5 -3t-35.5 -7v-260zM291 35q91 0 140.5 36t49.5 104t-48 104t-142 36h-95v-266q48 -14 95 -14z" />
    <glyph glyph-name="C" unicode="C" horiz-adv-x="665" 
d="M354 -20q-95 0 -164.5 45.5t-107.5 123t-38 171.5q0 75 24 140.5t67 114.5t99 77t120 28q83 0 143 -23.5t87 -56.5q19 -23 22 -64t3 -86h-20q-19 98 -70.5 144t-134.5 46q-65 0 -120 -30t-87.5 -100t-32.5 -190q0 -56 13.5 -109.5t42.5 -96.5t74.5 -68.5t109.5 -25.5
q75 0 129 36t96 104l20 -15q-48 -94 -117 -129.5t-158 -35.5z" />
    <glyph glyph-name="D" unicode="D" horiz-adv-x="715" 
d="M106 0v540q0 45 -12.5 72.5t-57.5 27.5h-20v20h262q198 0 295.5 -88t97.5 -238q0 -97 -41.5 -172.5t-123 -118.5t-202.5 -43h-198zM301 35q74 0 133 36t93.5 102.5t34.5 156.5q0 89 -34 155t-93 103t-136 37q-22 0 -47.5 -4t-52.5 -12v-561q29 -7 54.5 -10t47.5 -3z" />
    <glyph glyph-name="E" unicode="E" horiz-adv-x="590" 
d="M106 0v540q0 45 -12.5 72.5t-57.5 27.5h-20v20h426q35 0 53 -11.5t25 -30t7 -38.5v-75h-20q0 60 -32.5 87.5t-92.5 27.5h-186v-260h270v-40h-270v-280h175q68 0 107.5 25t62.5 85l20 -5l-35 -95q-8 -23 -26.5 -36.5t-48.5 -13.5h-345z" />
    <glyph glyph-name="F" unicode="F" horiz-adv-x="527" 
d="M106 0v540q0 45 -12.5 72.5t-57.5 27.5h-20v20h399q35 0 53 -11.5t25 -30t7 -38.5v-75h-20q0 60 -32.5 87.5t-92.5 27.5h-159v-265h226v-40h-226v-315h-90z" />
    <glyph glyph-name="G" unicode="G" horiz-adv-x="720" 
d="M384 -20q-75 0 -137.5 28t-107.5 77t-70 114.5t-25 140.5q0 95 38 172t107.5 122.5t164.5 45.5q91 0 152 -23.5t88 -56.5q19 -23 22 -62t3 -73h-20q-19 87 -71.5 131t-143.5 44q-64 0 -109.5 -25.5t-74.5 -68.5t-42.5 -96.5t-13.5 -109.5q0 -120 32.5 -190t87.5 -100
t120 -30q54 0 90 9.5t65 25.5v174q0 21 5 41.5t21.5 37.5t49.5 27.5t89 10.5v-20q-49 0 -62 -25.5t-13 -69.5v-188q-54 -33 -113 -48t-132 -15z" />
    <glyph glyph-name="H" unicode="H" horiz-adv-x="693" 
d="M106 0v540q0 45 -12.5 72.5t-57.5 27.5h-20v20h90q35 0 54.5 -9t27.5 -35t8 -76v-180h300v300h90v-540q0 -45 12.5 -72.5t57.5 -27.5h20v-20h-90q-35 0 -54.5 9t-27.5 35t-8 76v200h-300v-320h-90z" />
    <glyph glyph-name="I" unicode="I" horiz-adv-x="285" 
d="M179 0q-35 0 -54.5 9t-27.5 35t-8 76v540h90v-540q0 -45 12.5 -72.5t57.5 -27.5h20v-20h-90z" />
    <glyph glyph-name="J" unicode="J" horiz-adv-x="261" 
d="M-9 -137v20q49 0 72 52t23 143v582h90v-582q0 -75 -16 -122.5t-56 -70t-113 -22.5z" />
    <glyph glyph-name="K" unicode="K" horiz-adv-x="677" 
d="M621 -10q-27 0 -59 9t-70 35t-86 76l-210 220v-330h-90v540q0 45 -12.5 72.5t-57.5 27.5h-20v20h90q35 0 54.5 -9t27.5 -35t8 -76v-195l210 210l49 49t52.5 40t68.5 16h50v-25q-41 0 -72.5 -14.5t-72.5 -55.5l-195 -195l230 -240q41 -43 86.5 -74.5t83.5 -36.5v-19
q-11 -4 -26.5 -7t-38.5 -3z" />
    <glyph glyph-name="L" unicode="L" horiz-adv-x="558" 
d="M106 0v540q0 45 -12.5 72.5t-57.5 27.5h-20v20h90q35 0 54.5 -9t27.5 -35t8 -76v-500h355v-40h-445z" />
    <glyph glyph-name="M" unicode="M" horiz-adv-x="855" 
d="M841 -45q-72 0 -112.5 22.5t-56.5 70t-16 122.5v385l-250 -555h-20l-260 565v-565h-40v660h95l240 -520l235 520h90v-490q0 -91 23 -143t72 -52v-20z" />
    <glyph glyph-name="N" unicode="N" horiz-adv-x="685" 
d="M580 -10l-430 535v-525h-40v540q0 45 -19 72.5t-71 27.5h-10v20h65q49 0 80.5 -16t54.5 -44l350 -435v495h40v-670h-20z" />
    <glyph glyph-name="O" unicode="O" horiz-adv-x="712" 
d="M356 -20q-95 0 -164.5 46.5t-107.5 126t-38 177.5t38 177.5t107.5 126t164.5 46.5t164.5 -46.5t107.5 -126t38 -177.5t-38 -177.5t-107.5 -126t-164.5 -46.5zM356 20q66 0 113 38t72 107.5t25 164.5t-25 164.5t-72 107.5t-113 38q-65 0 -112.5 -38t-72.5 -107.5
t-25 -164.5t25 -164.5t72.5 -107.5t112.5 -38z" />
    <glyph glyph-name="P" unicode="P" horiz-adv-x="552" 
d="M106 0v540q0 45 -12.5 72.5t-57.5 27.5h-20v20h260q26 0 58.5 -3.5t66 -15t62 -33.5t46 -58t17.5 -90q0 -51 -17 -85.5t-44.5 -55.5t-57.5 -31.5t-57 -14t-44 -3.5h-110v-270h-90zM271 305q21 0 47 8t51 27t41 49.5t16 75.5t-16 75.5t-41 49.5t-51 27t-47 8
q-19 0 -39.5 -3t-35.5 -7v-300q15 -4 35.5 -7t39.5 -3z" />
    <glyph glyph-name="Q" unicode="Q" horiz-adv-x="714" 
d="M677 -205q-73 0 -144 17.5t-137.5 61t-128.5 119.5q-68 20 -117.5 68.5t-76 118t-26.5 150.5q0 98 38 177.5t107.5 126t164.5 46.5t164.5 -46.5t107.5 -126t38 -177.5q0 -83 -27.5 -153t-78.5 -118.5t-122 -67.5q12 -37 38.5 -69.5t60.5 -56t70.5 -37t68.5 -13.5v-20z
M357 20q66 0 113 38t72 107.5t25 164.5t-25 164.5t-72 107.5t-113 38q-65 0 -112.5 -38t-72.5 -107.5t-25 -164.5t25 -164.5t72.5 -107.5t112.5 -38z" />
    <glyph glyph-name="R" unicode="R" horiz-adv-x="595" 
d="M546 -10q-35 0 -63.5 13.5t-56 45t-60.5 86.5l-100 170h-70v-305h-90v540q0 45 -12.5 72.5t-57.5 27.5h-20v20h260q26 0 58.5 -3.5t66 -14t62 -30t46 -52t17.5 -80.5q0 -58 -25.5 -92.5t-62.5 -52t-72 -25.5l105 -175q38 -64 68 -87.5t67 -27.5v-20q-8 -4 -24.5 -7
t-35.5 -3zM271 340q21 0 47 8t51 24.5t41 43.5t16 64q0 39 -16 67t-41 45t-51 25t-47 8q-19 0 -39.5 -3t-35.5 -7v-265q15 -4 35.5 -7t39.5 -3z" />
    <glyph glyph-name="S" unicode="S" horiz-adv-x="533" 
d="M282 -17q-40 0 -80.5 8.5t-74 24.5t-53.5 38.5t-20 50.5v107h18q17 -101 66.5 -145t134.5 -44q34 0 64 11.5t48.5 34.5t18.5 56q0 44 -27.5 75t-82.5 63l-123 73q-64 38 -90.5 77t-26.5 95q0 77 53.5 123.5t140.5 46.5q37 0 75 -8t70 -23.5t51.5 -37.5t19.5 -51v-107h-18
q-17 101 -65 144t-133 43q-29 0 -56 -12.5t-43.5 -35t-16.5 -53.5q0 -43 28 -71t83 -60l123 -73q64 -38 94 -73.5t30 -91.5q0 -84 -56 -134.5t-152 -50.5z" />
    <glyph glyph-name="T" unicode="T" horiz-adv-x="583" 
d="M256 0v620h-90q-60 0 -92.5 -27.5t-32.5 -87.5h-20v75q0 20 7 38.5t25.5 30t52.5 11.5h465v-40h-225v-620h-90z" />
    <glyph glyph-name="U" unicode="U" horiz-adv-x="687" 
d="M354 -10q-97 0 -153 33t-79 98.5t-23 163.5v255q0 45 -12.5 72.5t-57.5 27.5h-20v20h90q35 0 54.5 -9t27.5 -35t8 -76v-285q0 -105 39 -165t138 -60q77 0 121 27t63 83.5t19 144.5v375h40v-375q0 -98 -21 -163.5t-76 -98.5t-158 -33z" />
    <glyph glyph-name="V" unicode="V" horiz-adv-x="640" 
d="M313 -10l-232 553q-24 56 -46 78.5t-64 26.5v20q4 0 15.5 1t18.5 1q25 0 56 -8t62.5 -35t55.5 -84l171 -403q29 66 46 106.5t28 65t18.5 42.5t16 38t21.5 51.5t34.5 83t55.5 133.5h48l-287 -670h-18z" />
    <glyph glyph-name="W" unicode="W" horiz-adv-x="866" 
d="M272 -10l-194 553q-20 57 -42.5 79t-67.5 26v20q4 0 15.5 1t18.5 1q28 0 60 -7.5t61.5 -34.5t49.5 -85l134 -386l107 317l-24 69q-20 57 -42.5 79t-67.5 26v20q4 0 15.5 1t18.5 1q28 0 60 -7.5t61.5 -34.5t49.5 -85l134 -386l171 503h43l-229 -670h-20l-148 421
l-144 -421h-20z" />
    <glyph glyph-name="X" unicode="X" horiz-adv-x="667" 
d="M41 0l250 325l-140 205q-17 25 -37 49.5t-49 41.5t-74 19v20h120q33 0 58 -17t45 -42.5t37 -50.5l100 -150l200 260h50l-225 -295l160 -235q17 -25 38.5 -49.5t48 -41t58.5 -19.5v-20h-105q-32 0 -57.5 17t-46 42.5t-36.5 50.5l-120 180l-225 -290h-50z" />
    <glyph glyph-name="Y" unicode="Y" horiz-adv-x="628" 
d="M290 0v273l-170 257q-31 44 -61.5 75t-83.5 35v20h90q37 0 64.5 -16t48 -41t37.5 -53l145 -225l209 335h45l-234 -380v-280h-90z" />
    <glyph glyph-name="Z" unicode="Z" horiz-adv-x="591" 
d="M24 0v20l415 600h-240q-60 0 -92.5 -27.5t-32.5 -87.5h-20v75q0 20 7 38.5t25.5 30t52.5 11.5h435l-425 -620h410v-40h-535z" />
    <glyph glyph-name="bracketleft" unicode="[" horiz-adv-x="316" 
d="M75 -200v880h215v-40h-135v-800h135v-40h-215z" />
    <glyph glyph-name="backslash" unicode="\" horiz-adv-x="440" 
d="M344 0l-321 660h73l321 -660h-73z" />
    <glyph glyph-name="bracketright" unicode="]" horiz-adv-x="316" 
d="M26 -200v40h135v800h-135v40h215v-880h-215z" />
    <glyph glyph-name="asciicircum" unicode="^" horiz-adv-x="490" 
d="M20 330l215 350h20l215 -350h-67l-158 257l-158 -257h-67z" />
    <glyph glyph-name="underscore" unicode="_" horiz-adv-x="432" 
d="M16 -60v60h400v-60h-400z" />
    <glyph glyph-name="grave" unicode="`" horiz-adv-x="200" 
d="M130 480l-110 200h100l60 -200h-50z" />
    <glyph glyph-name="a" unicode="a" horiz-adv-x="481" 
d="M184 -10q-21 0 -45.5 6.5t-47.5 22.5t-37.5 43t-14.5 68q0 55 35.5 85t94 42.5t125.5 12.5h30q0 70 -14 106.5t-37.5 50t-53.5 13.5q-42 0 -70.5 -18t-39.5 -67h-45q0 26 3 48.5t22 41.5t62 27t88 8q34 0 65.5 -8t56 -29.5t39 -63t14.5 -109.5v-270h-50l-35 45h-5
q-15 -19 -49 -37t-91 -18zM229 35q37 0 58.5 18.5t36.5 41.5v135h-30q-75 0 -117.5 -27.5t-42.5 -72.5q0 -49 29 -72t66 -23z" />
    <glyph glyph-name="b" unicode="b" horiz-adv-x="523" 
d="M297 -10q-56 0 -88 18t-47 37h-5l-35 -45h-50v540q0 45 -12.5 72.5t-57.5 27.5h-20v20h90q35 0 54.5 -9t27.5 -35t8 -76v-90q23 11 53 20.5t72 9.5q65 0 107 -33t62.5 -88.5t20.5 -123.5q0 -67 -20 -123t-60 -89t-100 -33zM267 30q40 0 65.5 27.5t37.5 74t12 103.5
q0 58 -12.5 104t-40 73.5t-72.5 27.5q-23 0 -47.5 -9.5t-47.5 -20.5v-320q15 -23 39.5 -41.5t65.5 -18.5z" />
    <glyph glyph-name="c" unicode="c" horiz-adv-x="483" 
d="M265 -10q-74 0 -123 33t-73 89t-24 123q0 68 24 123.5t73 88.5t123 33q53 0 89.5 -8t55.5 -27t22 -46.5t3 -83.5h-20q-4 64 -40.5 94.5t-89.5 30.5q-50 0 -82 -27.5t-47.5 -73.5t-15.5 -104q0 -57 15.5 -103.5t47.5 -74t82 -27.5q53 0 86 21t59 59l20 -15
q-34 -57 -79.5 -81t-105.5 -24z" />
    <glyph glyph-name="d" unicode="d" horiz-adv-x="524" 
d="M227 -10q-60 0 -100 33t-60 89t-20 123q0 68 20.5 123.5t62.5 88.5t107 33q42 0 72 -9.5t53 -20.5v90q0 45 -12.5 72.5t-57.5 27.5h-20v20h90q35 0 54.5 -9t27.5 -35t8 -76v-540h-50l-35 45h-5q-16 -19 -45 -37t-90 -18zM257 30q46 0 67.5 19t37.5 41v320
q-23 11 -47.5 20.5t-47.5 9.5q-45 0 -72.5 -27.5t-40 -73.5t-12.5 -104q0 -57 12 -103.5t37.5 -74t65.5 -27.5z" />
    <glyph glyph-name="e" unicode="e" horiz-adv-x="488" 
d="M255 -10q-70 0 -116.5 33t-70 89t-23.5 123q0 68 24 123.5t69 88.5t107 33q102 0 151 -57t49 -163l-2 -40h-303q0 -82 35.5 -136t99.5 -54q49 0 81.5 21t58.5 59l20 -15q-34 -57 -78.5 -81t-101.5 -24zM140 260h210q0 87 -26 133.5t-79 46.5q-30 0 -53.5 -23.5t-37.5 -64
t-14 -92.5z" />
    <glyph glyph-name="f" unicode="f" horiz-adv-x="337" 
d="M91 0v430h-70v40h70v30q0 70 26 106.5t66.5 50t82.5 13.5q63 0 85 -15q11 -8 19 -19t16 -26l-30 -25q-30 45 -95 45q-34 0 -57 -28t-23 -102v-30h140v-40h-140v-430h-90z" />
    <glyph glyph-name="g" unicode="g" horiz-adv-x="492" 
d="M246 -200q-62 0 -112 15t-79 49t-29 91q0 49 32.5 82t77.5 48q-15 8 -27.5 22.5t-12.5 37.5t12 35t23 20q-30 15 -52.5 48t-22.5 82q0 58 25.5 90.5t69 46t95.5 13.5h185v-25l-65 -10v-5q30 -15 50 -43.5t20 -66.5q0 -57 -25.5 -90t-68.5 -46.5t-96 -13.5
q-105 0 -105 -35t105 -35q60 0 110 -16t80 -50t30 -89q0 -57 -29 -91t-79 -49t-112 -15zM246 215q41 0 70.5 25.5t29.5 89.5q0 60 -29 87.5t-71 27.5q-41 0 -70.5 -25.5t-29.5 -89.5t29.5 -89.5t70.5 -25.5zM246 -160q57 0 93.5 27.5t36.5 87.5q0 100 -120 115l-55 5
q-38 -15 -61.5 -43t-23.5 -77q0 -60 36.5 -87.5t93.5 -27.5z" />
    <glyph glyph-name="h" unicode="h" horiz-adv-x="529" 
d="M72 0v540q0 45 -12.5 72.5t-57.5 27.5h-20v20h90q35 0 54.5 -9t27.5 -35t8 -76v-110q19 19 52 34.5t78 15.5q43 0 81.5 -15t63.5 -53.5t25 -111.5v-300h-90v300q0 50 -16 79.5t-41 42.5t-53 13q-30 0 -55.5 -16t-44.5 -37v-382h-90z" />
    <glyph glyph-name="i" unicode="i" horiz-adv-x="246" 
d="M125 530q-23 0 -39.5 19t-16.5 45q0 21 12.5 33t33.5 12q23 0 39.5 -19t16.5 -45q0 -21 -12.5 -33t-33.5 -12zM87 0v350q0 45 -12.5 72.5t-57.5 27.5h-20v20h90q35 0 54.5 -9t27.5 -35t8 -76v-350h-90z" />
    <glyph glyph-name="j" unicode="j" horiz-adv-x="246" 
d="M125 530q-23 0 -39.5 19t-16.5 45q0 21 12.5 33t33.5 12q23 0 39.5 -19t16.5 -45q0 -21 -12.5 -33t-33.5 -12zM-8 -190v20q49 0 72 52t23 143v325q0 45 -12.5 72.5t-57.5 27.5h-20v20h90q35 0 54.5 -9t27.5 -35t8 -76v-325q0 -75 -16 -122.5t-56 -70t-113 -22.5z" />
    <glyph glyph-name="k" unicode="k" horiz-adv-x="485" 
d="M427 -10q-38 0 -74.5 17.5t-70.5 62.5l-120 160v-230h-90v540q0 45 -12.5 72.5t-57.5 27.5h-20v20h90q35 0 54.5 -9t27.5 -35t8 -76v-295l125 160q23 29 52 47t78 18h30v-25q-26 0 -51 -11t-44 -34l-110 -140l125 -160q29 -38 54.5 -57t55.5 -24v-19q-8 -4 -21.5 -7
t-28.5 -3z" />
    <glyph glyph-name="l" unicode="l" horiz-adv-x="242" 
d="M76 0v540q0 45 -12.5 72.5t-57.5 27.5h-20v20h90q35 0 54.5 -9t27.5 -35t8 -76v-540h-90z" />
    <glyph glyph-name="m" unicode="m" horiz-adv-x="785" 
d="M87 0v350q0 45 -12.5 72.5t-57.5 27.5h-20v20h90q38 0 57.5 -10.5t27.5 -29.5h5q19 19 52 34.5t78 15.5q38 0 69.5 -14t50.5 -56q26 34 67 52t83 18q38 0 69.5 -15t51 -53.5t19.5 -111.5v-300h-90v300q0 75 -21 105t-59 30q-29 0 -60 -21t-45 -44q4 -11 4.5 -33t0.5 -37
v-300h-90v300q0 75 -21 105t-59 30q-30 0 -55.5 -16t-44.5 -37v-382h-90z" />
    <glyph glyph-name="n" unicode="n" horiz-adv-x="544" 
d="M87 0v350q0 45 -12.5 72.5t-57.5 27.5h-20v20h90q38 0 57.5 -10.5t27.5 -29.5h5q19 19 52 34.5t78 15.5q43 0 81.5 -15t63.5 -53.5t25 -111.5v-300h-90v300q0 50 -16 79.5t-41 42.5t-53 13q-30 0 -55.5 -16t-44.5 -37v-382h-90z" />
    <glyph glyph-name="o" unicode="o" 
d="M265 -10q-70 0 -119 33t-75 89t-26 123q0 68 26 123.5t75 88.5t119 33t119 -33t75 -88.5t26 -123.5q0 -67 -26 -123t-75 -89t-119 -33zM265 30q38 0 66 27.5t43.5 74t15.5 103.5q0 58 -15.5 104t-43.5 73.5t-66 27.5q-37 0 -65.5 -27.5t-44 -73.5t-15.5 -104
q0 -57 15.5 -103.5t44 -74t65.5 -27.5z" />
    <glyph glyph-name="p" unicode="p" horiz-adv-x="538" 
d="M87 -190v540q0 45 -12.5 72.5t-57.5 27.5h-20v20h90q38 0 57.5 -11t27.5 -34h5q15 19 47 37t88 18q60 0 100 -33t60 -88.5t20 -123.5q0 -67 -20.5 -123t-62.5 -89t-107 -33q-42 0 -72 9.5t-53 20.5v-210h-90zM272 30q45 0 72.5 27.5t40 74t12.5 103.5q0 58 -12 104
t-37.5 73.5t-65.5 27.5q-41 0 -66 -18.5t-39 -41.5v-320q23 -11 47.5 -20.5t47.5 -9.5z" />
    <glyph glyph-name="q" unicode="q" horiz-adv-x="524" 
d="M362 -190v210q-23 -11 -53 -20.5t-72 -9.5q-65 0 -107 33t-62.5 89t-20.5 123q0 68 20 123.5t60 88.5t100 33q56 0 88 -18t47 -37h5l35 45h50v-660h-90zM267 30q23 0 47.5 9.5t47.5 20.5v320q-16 23 -39.5 41.5t-65.5 18.5q-40 0 -65.5 -27.5t-37.5 -73.5t-12 -104
q0 -57 12.5 -103.5t40 -74t72.5 -27.5z" />
    <glyph glyph-name="r" unicode="r" horiz-adv-x="397" 
d="M80 0v350q0 45 -12.5 72.5t-57.5 27.5h-10v20h80q38 0 57.5 -11t27.5 -34h5q15 19 45 37t75 18q15 0 32 -3.5t28 -11.5t19 -19t16 -26l-40 -30q-11 15 -32.5 22.5t-47.5 7.5q-30 0 -55 -13.5t-40 -36.5v-370h-90z" />
    <glyph glyph-name="s" unicode="s" horiz-adv-x="446" 
d="M229 -10q-60 0 -98 10.5t-57 29.5t-22 43t-3 62h20q8 -49 42 -77t98 -28q57 0 83.5 20t26.5 50t-22.5 50.5t-67.5 39.5l-60 25q-57 23 -88.5 54.5t-31.5 80.5q0 63 47 96.5t118 33.5q57 0 94 -10.5t56 -29.5t22 -43t3 -62h-20q-8 49 -41.5 77t-93.5 28q-49 0 -74.5 -20
t-25.5 -50q0 -26 21 -47.5t59 -37.5l60 -25q64 -26 97 -57t33 -83q0 -63 -50 -96.5t-125 -33.5z" />
    <glyph glyph-name="t" unicode="t" horiz-adv-x="338" 
d="M211 -10q-53 0 -86.5 31t-33.5 99v310h-70v40h70v90l50 60h40v-150h120v-40h-120v-310q0 -90 70 -90q26 0 43 6t32 14l10 -20q-16 -12 -44 -26t-81 -14z" />
    <glyph glyph-name="u" unicode="u" horiz-adv-x="535" 
d="M243 -10q-42 0 -81 15t-64 54t-25 111v180q0 45 -12.5 72.5t-57.5 27.5h-10v20h80q35 0 54.5 -9t27.5 -35t8 -76v-180q0 -50 16 -79.5t41.5 -42.5t52.5 -13q30 0 55.5 16t44.5 37v382h90v-470h-50l-35 40h-5q-19 -19 -52 -34.5t-78 -15.5z" />
    <glyph glyph-name="v" unicode="v" horiz-adv-x="497" 
d="M254 -10l-155 365q-24 56 -46 78.5t-58 24.5v20q4 0 15.5 1t18.5 1q31 0 61.5 -9.5t58.5 -36.5t50 -79l90 -215l140 330h50l-205 -480h-20z" />
    <glyph glyph-name="w" unicode="w" horiz-adv-x="749" 
d="M245 -10l-145 365q-23 56 -45.5 78.5t-59.5 24.5v20q4 0 16 1t19 1q49 0 92 -25t73 -100l85 -210l85 215q-23 52 -44.5 74t-55.5 24v20q4 0 16 1t19 1q49 0 92 -25t73 -100l85 -210l130 325h50l-195 -480h-20l-125 310l-125 -310h-20z" />
    <glyph glyph-name="x" unicode="x" horiz-adv-x="488" 
d="M38 0l160 225l-87 145q-42 73 -103 80v20h85q34 0 62.5 -21.5t50.5 -58.5l62 -105l130 185h50l-160 -225l87 -145q41 -72 108 -80v-20h-90q-34 0 -62.5 21.5t-50.5 58.5l-62 105l-130 -185h-50z" />
    <glyph glyph-name="y" unicode="y" horiz-adv-x="514" 
d="M105 -200v30q46 0 78.5 20.5t56.5 84.5l20 55l-160 390q-15 38 -43.5 57t-66.5 23v20h85q45 0 74.5 -21t45.5 -59l114 -277l126 347h50l-195 -535q-20 -55 -42.5 -84t-50 -40t-62.5 -11h-30z" />
    <glyph glyph-name="z" unicode="z" horiz-adv-x="466" 
d="M44 0v19l260 411h-115q-64 0 -94.5 -24t-30.5 -66h-20v50q0 20 7 38.5t25.5 30t52.5 11.5h305l-270 -430h270v-40h-390z" />
    <glyph glyph-name="braceleft" unicode="{" horiz-adv-x="304" 
d="M276 -210q-90 22 -127.5 67t-37.5 113v140q0 42 -22 74.5t-78 40.5v30q56 8 78 40.5t22 74.5v140q0 67 37.5 112t127.5 68v-30q-52 -16 -68.5 -40t-16.5 -70v-170q0 -60 -26 -92.5t-79 -47.5q53 -15 79 -47.5t26 -92.5v-170q0 -44 16.5 -70t68.5 -40v-30z" />
    <glyph glyph-name="bar" unicode="|" horiz-adv-x="240" 
d="M75 -190v870h90v-870h-90z" />
    <glyph glyph-name="braceright" unicode="}" horiz-adv-x="304" 
d="M28 -210v30q52 14 68.5 40t16.5 70v170q0 60 26 92.5t79 47.5q-53 15 -79 47.5t-26 92.5v170q0 46 -16.5 70t-68.5 40v30q90 -23 127.5 -68t37.5 -112v-140q0 -42 22 -74.5t78 -40.5v-30q-56 -8 -78 -40.5t-22 -74.5v-140q0 -68 -37.5 -113t-127.5 -67z" />
    <glyph glyph-name="asciitilde" unicode="~" horiz-adv-x="629" 
d="M450 180q-38 0 -73.5 12t-69 28t-65.5 28t-62 12q-38 0 -59 -20t-21 -50h-40q0 50 17.5 81t45 45t57.5 14q38 0 73.5 -12t69 -28t65.5 -28t62 -12q38 0 59 20t21 50h40q0 -50 -17.5 -81t-45 -45t-57.5 -14z" />
    <glyph glyph-name="uni00A0" unicode="&#xa0;" horiz-adv-x="250" 
 />
    <glyph glyph-name="exclamdown" unicode="&#xa1;" horiz-adv-x="220" 
d="M110 372q-22 0 -38 15.5t-16 37.5q0 23 16 39t38 16t38 -16t16 -39q0 -22 -16 -37.5t-38 -15.5zM63 -194l18 505h58l18 -505h-94z" />
    <glyph glyph-name="cent" unicode="&#xa2;" horiz-adv-x="483" 
d="M240 -50v40q-67 6 -111.5 39.5t-66.5 87.5t-22 118q0 65 22 118.5t66.5 87.5t111.5 39v40h40v-40q42 0 75 -9t50 -26q19 -19 22 -46.5t3 -83.5h-20q-4 64 -40.5 94.5t-89.5 30.5v-410q53 0 86 21t59 59l20 -15q-31 -52 -71.5 -76.5t-93.5 -28.5v-40h-40zM240 35v400
q-52 -16 -78.5 -70.5t-26.5 -129.5q0 -73 26.5 -129.5t78.5 -70.5z" />
    <glyph glyph-name="sterling" unicode="&#xa3;" horiz-adv-x="528" 
d="M32 0v25q41 12 63 54.5t22 140.5v100h-70v40h70v100q0 68 14.5 109.5t39 63t56 29.5t65.5 8q45 0 88 -8t62 -27t22 -41.5t3 -48.5h-45q-11 49 -39.5 67t-70.5 18q-30 0 -53.5 -13.5t-37.5 -50t-14 -106.5v-100h140v-40h-140v-100q0 -72 -14.5 -114.5t-40.5 -65.5h185
q60 0 92.5 27.5t32.5 87.5h20v-75q0 -20 -7 -38.5t-25 -30t-53 -11.5h-365z" />
    <glyph glyph-name="currency" unicode="&#xa4;" horiz-adv-x="576" 
d="M124 0v200h-60v40h60v50h-60v40h60v210q0 45 -12.5 72.5t-57.5 27.5h-20v20h260q65 0 122 -16.5t92.5 -56t35.5 -107.5q0 -72 -35.5 -113.5t-92.5 -59t-122 -17.5h-80v-50h260v-40h-260v-200h-90zM214 330h80q42 2 76 17.5t54 48t20 84.5q0 50 -21 82t-56.5 47.5
t-77.5 15.5q-19 0 -39.5 -3t-35.5 -7v-285z" />
    <glyph glyph-name="yen" unicode="&#xa5;" horiz-adv-x="687" 
d="M339 0v145h-95v40h95v40h-95v40h95v8l-170 257q-31 44 -61.5 75t-83.5 35v20h90q37 0 64.5 -16t48 -41t37.5 -53l145 -225l209 335h45l-234 -380v-15h95v-40h-95v-40h95v-40h-95v-145h-90z" />
    <glyph glyph-name="brokenbar" unicode="&#xa6;" horiz-adv-x="246" 
d="M78 330v350h90v-350h-90zM78 -190v350h90v-350h-90z" />
    <glyph glyph-name="section" unicode="&#xa7;" horiz-adv-x="432" 
d="M211 -200q-42 0 -76.5 10.5t-53.5 29.5t-22 43t-3 62h20q8 -49 35.5 -77t69.5 -28q45 0 72.5 22.5t27.5 67.5q0 35 -16.5 60t-43 44.5t-55.5 37.5t-55.5 39t-43 48.5t-16.5 65.5q0 57 28 91.5t77 53.5q-38 25 -64 61.5t-26 88.5q0 53 21.5 86t56.5 48.5t77 15.5
t76.5 -10.5t53.5 -29.5t22 -43t3 -62h-20q-8 49 -35.5 77t-69.5 28q-45 0 -72.5 -22.5t-27.5 -67.5q0 -35 16.5 -60t43 -44.5t55.5 -37.5t55.5 -39t43 -48t16.5 -66q0 -58 -28 -92t-78 -53q38 -26 64.5 -62t26.5 -88t-21 -85.5t-56.5 -49t-77.5 -15.5zM237 123q29 9 49 29.5
t20 62.5t-30.5 73t-80.5 59q-29 -9 -49 -29.5t-20 -62.5t30.5 -73t80.5 -59z" />
    <glyph glyph-name="dieresis" unicode="&#xa8;" horiz-adv-x="310" 
d="M240 690q-23 0 -36.5 13.5t-13.5 36.5t13.5 36.5t36.5 13.5t36.5 -13.5t13.5 -36.5t-13.5 -36.5t-36.5 -13.5zM70 690q-23 0 -36.5 13.5t-13.5 36.5t13.5 36.5t36.5 13.5t36.5 -13.5t13.5 -36.5t-13.5 -36.5t-36.5 -13.5z" />
    <glyph glyph-name="copyright" unicode="&#xa9;" horiz-adv-x="790" 
d="M395 -25q-77 0 -142 26.5t-112.5 74t-74 112.5t-26.5 142t26.5 142t74 112.5t112.5 74t142 26.5t142 -26.5t112.5 -74t74 -112.5t26.5 -142t-26.5 -142t-74 -112.5t-112.5 -74t-142 -26.5zM395 15q93 0 164 40t111 111t40 164t-40 164t-111 111t-164 40q-92 0 -163.5 -40
t-111.5 -111t-40 -164t40 -164t111.5 -111t163.5 -40zM395 105q-61 0 -106 29.5t-69.5 80t-24.5 112.5q0 66 27.5 119t73 84.5t99.5 31.5t93 -15.5t56 -36.5q13 -15 15 -42t2 -56h-13q-12 64 -45.5 94t-87.5 30q-42 0 -77.5 -19.5t-57 -65t-21.5 -124.5q0 -49 16.5 -94
t51 -73t88.5 -28q49 0 84 23t62 68l13 -10q-32 -61 -76 -84.5t-103 -23.5z" />
    <glyph glyph-name="ordfeminine" unicode="&#xaa;" horiz-adv-x="321" 
d="M130 396q-15 0 -33.5 5t-32 20t-13.5 45t19.5 48t51 25.5t67.5 7.5h16q0 57 -16.5 74t-39.5 17t-38 -9.5t-21 -35.5h-25q0 14 1.5 25.5t12.5 22.5q10 11 33 15t47 4q25 0 47 -8t36.5 -32t14.5 -73v-146h-30l-19 25h-3q-8 -11 -26.5 -20.5t-48.5 -9.5zM149 418
q20 0 34 11.5t22 23.5v72h-16q-41 0 -63.5 -17t-22.5 -42q0 -26 13 -37t33 -11z" />
    <glyph glyph-name="guillemotleft" unicode="&#xab;" horiz-adv-x="372" 
d="M190 30l-155 195l155 195h40l-95 -195l95 -195h-40zM275 80l-100 145l100 145h40l-60 -145l60 -145h-40z" />
    <glyph glyph-name="logicalnot" unicode="&#xac;" horiz-adv-x="654" 
d="M528 130v100h-460v60h520v-160h-60z" />
    <glyph glyph-name="uni00AD" unicode="&#xad;" horiz-adv-x="387" 
d="M66 230v70h255v-70h-255z" />
    <glyph glyph-name="registered" unicode="&#xae;" horiz-adv-x="790" 
d="M395 -25q-77 0 -142 26.5t-112.5 74t-74 112.5t-26.5 142t26.5 142t74 112.5t112.5 74t142 26.5t142 -26.5t112.5 -74t74 -112.5t26.5 -142t-26.5 -142t-74 -112.5t-112.5 -74t-142 -26.5zM395 15q93 0 164 40t111 111t40 164t-40 164t-111 111t-164 40q-92 0 -163.5 -40
t-111.5 -111t-40 -164t40 -164t111.5 -111t163.5 -40zM553 118q-31 0 -55 20.5t-56 72.5l-67 112h-48v-198h-58v349q0 29 -8 47t-37 18h-13v13h168q21 0 48.5 -4t53.5 -15.5t43 -35.5t17 -63q0 -36 -16 -58t-40 -33.5t-47 -15.5l72 -116q25 -40 43 -55.5t42 -18.5v-12
q-10 -7 -42 -7zM376 345q18 0 41.5 9.5t41 30t17.5 53.5q0 34 -17.5 54t-41 29t-41.5 9q-12 0 -25.5 -2.5t-23.5 -4.5v-171q10 -2 23.5 -4.5t25.5 -2.5z" />
    <glyph glyph-name="macron" unicode="&#xaf;" horiz-adv-x="455" 
d="M100 560v60h255v-60h-255z" />
    <glyph glyph-name="degree" unicode="&#xb0;" horiz-adv-x="412" 
d="M206 360q-45 0 -81 21.5t-57.5 57.5t-21.5 81t21.5 81.5t57.5 57.5t81 21t81.5 -21t57.5 -57.5t21 -81.5t-21 -81t-57.5 -57.5t-81.5 -21.5zM206 415q41 0 70.5 30t29.5 75t-29.5 75t-70.5 30t-70.5 -30t-29.5 -75t29.5 -75t70.5 -30z" />
    <glyph glyph-name="plusminus" unicode="&#xb1;" horiz-adv-x="574" 
d="M57 60v60h200v180h-200v60h200v200h60v-200h200v-60h-200v-180h200v-60h-460z" />
    <glyph glyph-name="uni00B2" unicode="&#xb2;" horiz-adv-x="321" 
d="M61 377v23q48 47 80 79t48 60.5t16 62.5q0 35 -16 50t-39 15q-28 0 -47 -18t-26 -56h-12q0 17 1.5 33t9.5 27q13 15 36.5 25.5t50.5 10.5q19 0 40.5 -6t37.5 -24.5t16 -56.5q0 -39 -21.5 -70t-57 -61.5t-77.5 -71.5h91q28 0 42.5 10t14.5 34h12v-30q0 -14 -7.5 -25
t-31.5 -11h-161z" />
    <glyph glyph-name="uni00B3" unicode="&#xb3;" horiz-adv-x="311" 
d="M151 367q-35 0 -57 13t-41 36l10 9q33 -36 84 -36q27 0 45.5 18t18.5 55q0 36 -19 51.5t-39 15.5q-11 0 -25 -1t-28 -5l-14 24l123 111h-84q-27 0 -42 -10t-15 -35h-9v30q0 14 7.5 25.5t31.5 11.5h151v-18l-128 -115q12 3 24 3.5t17 0.5q21 0 44.5 -8t40 -27.5
t16.5 -53.5q0 -40 -20 -60.5t-46.5 -27.5t-45.5 -7z" />
    <glyph glyph-name="acute" unicode="&#xb4;" horiz-adv-x="175" 
d="M20 700l40 130h95l-95 -130h-40z" />
    <glyph glyph-name="uni00B5" unicode="&#xb5;" horiz-adv-x="529" 
d="M74 -190v660h90v-235q0 -57 12 -103.5t37.5 -74t65.5 -27.5q41 0 65.5 18.5t39.5 41.5v380h90v-470h-50l-35 45h-5q-16 -18 -40.5 -36.5t-74.5 -18.5q-60 0 -105 45v-225h-90z" />
    <glyph glyph-name="paragraph" unicode="&#xb6;" horiz-adv-x="601" 
d="M258 -190v480q-65 0 -117.5 22t-82.5 63.5t-30 99.5t30 99.5t82.5 63.5t117.5 22h300v-40h-55v-810h-90v810h-65v-810h-90z" />
    <glyph glyph-name="periodcentered" unicode="&#xb7;" horiz-adv-x="230" 
d="M115 276q-22 0 -38 16t-16 39q0 22 16 38t38 16q23 0 38.5 -16t15.5 -38q0 -23 -16 -39t-38 -16z" />
    <glyph glyph-name="cedilla" unicode="&#xb8;" horiz-adv-x="180" 
d="M40 -196v41h50q40 0 40 32q0 33 -40 33h-45v90h45v-50h10q34 0 57 -18.5t23 -54.5q0 -35 -23 -54t-57 -19h-60z" />
    <glyph glyph-name="uni00B9" unicode="&#xb9;" horiz-adv-x="212" 
d="M90 377v247l-41 -24l-11 16l65 64h39v-303h-52z" />
    <glyph glyph-name="ordmasculine" unicode="&#xba;" horiz-adv-x="335" 
d="M167 367q-60 0 -87.5 44.5t-27.5 116.5q0 73 27.5 117t87.5 44t88 -44t28 -117q0 -72 -28 -116.5t-88 -44.5zM167 389q32 0 48 33.5t16 105.5q0 73 -16.5 106t-47.5 33q-30 0 -46.5 -33t-16.5 -106q0 -72 16.5 -105.5t46.5 -33.5z" />
    <glyph glyph-name="guillemotright" unicode="&#xbb;" horiz-adv-x="372" 
d="M142 30l95 195l-95 195h40l155 -195l-155 -195h-40zM57 80l60 145l-60 145h40l100 -145l-100 -145h-40z" />
    <glyph glyph-name="onequarter" unicode="&#xbc;" horiz-adv-x="596" 
d="M106 377v247l-41 -24l-11 16l65 64h39v-303h-52zM29 0l455 660h65l-455 -660h-65zM460 0v78h-152v19l157 207h47v-204h41v-22h-41v-78h-52zM342 100h118v155z" />
    <glyph glyph-name="onehalf" unicode="&#xbd;" horiz-adv-x="613" 
d="M106 377v247l-41 -24l-11 16l65 64h39v-303h-52zM29 0l455 660h65l-455 -660h-65zM363 0v23q48 47 80 79t48 60.5t16 62.5q0 35 -16 50t-39 15q-28 0 -47 -18t-26 -56h-12q0 17 1.5 33t9.5 27q13 15 36.5 25.5t50.5 10.5q19 0 40.5 -6t37.5 -24.5t16 -56.5
q0 -39 -21.5 -70t-57 -61.5t-77.5 -71.5h91q28 0 42.5 10t14.5 34h12v-30q0 -14 -7.5 -25t-31.5 -11h-161z" />
    <glyph glyph-name="threequarters" unicode="&#xbe;" horiz-adv-x="614" 
d="M140 367q-35 0 -57 13t-41 36l10 9q33 -36 84 -36q27 0 45.5 18t18.5 55q0 36 -19 51.5t-39 15.5q-11 0 -25 -1t-28 -5l-14 24l123 111h-84q-27 0 -42 -10t-15 -35h-9v30q0 14 7.5 25.5t31.5 11.5h151v-18l-128 -115q12 3 24 3.5t17 0.5q21 0 44.5 -8t40 -27.5
t16.5 -53.5q0 -40 -20 -60.5t-46.5 -27.5t-45.5 -7zM58 0l455 660h65l-455 -660h-65zM478 0v78h-152v19l157 207h47v-204h41v-22h-41v-78h-52zM360 100h118v155z" />
    <glyph glyph-name="questiondown" unicode="&#xbf;" horiz-adv-x="473" 
d="M259 372q-23 0 -39 16t-16 39q0 22 16.5 38t38.5 16q23 0 38.5 -16t15.5 -38q0 -23 -15.5 -39t-38.5 -16zM229 -212q-30 0 -64.5 7.5t-65.5 27.5t-50.5 57.5t-19.5 97.5q0 51 21 87.5t51.5 65t62 55t53 56.5t22.5 70h40q-1 -49 -16.5 -83.5t-38 -62t-44 -53.5t-36.5 -58
t-15 -77q0 -75 39 -112.5t91 -37.5q60 0 105.5 43.5t60.5 126.5h20q0 -38 -3 -72.5t-22 -57.5q-27 -33 -79 -56.5t-112 -23.5z" />
    <glyph glyph-name="Agrave" unicode="&#xc0;" horiz-adv-x="635" 
d="M622 -5q-22 0 -54 8.5t-63 36t-53 85.5l-25 65h-280l-80 -190h-45l280 660h30l220 -535q24 -56 46 -78.5t64 -26.5v-20q-18 -5 -40 -5zM162 230h245l-120 290zM308 705l-95 130h95l40 -130h-40z" />
    <glyph glyph-name="Aacute" unicode="&#xc1;" horiz-adv-x="635" 
d="M622 -5q-22 0 -54 8.5t-63 36t-53 85.5l-25 65h-280l-80 -190h-45l280 660h30l220 -535q24 -56 46 -78.5t64 -26.5v-20q-18 -5 -40 -5zM162 230h245l-120 290zM302 700l40 130h95l-95 -130h-40z" />
    <glyph glyph-name="Acircumflex" unicode="&#xc2;" horiz-adv-x="635" 
d="M622 -5q-22 0 -54 8.5t-63 36t-53 85.5l-25 65h-280l-80 -190h-45l280 660h30l220 -535q24 -56 46 -78.5t64 -26.5v-20q-18 -5 -40 -5zM162 230h245l-120 290zM182 685l80 115h110l80 -115h-50l-85 80l-85 -80h-50z" />
    <glyph glyph-name="Atilde" unicode="&#xc3;" horiz-adv-x="635" 
d="M622 -5q-22 0 -54 8.5t-63 36t-53 85.5l-25 65h-280l-80 -190h-45l280 660h30l220 -535q24 -56 46 -78.5t64 -26.5v-20q-18 -5 -40 -5zM162 230h245l-120 290zM209 700q0 53 15 74t45 21q22 0 38 -10l32 -20t35 -10q11 0 20.5 14.5t9.5 25.5h30q0 -53 -15 -74t-45 -21
q-21 0 -37 10l-32 20t-36 10q-11 0 -20.5 -14.5t-9.5 -25.5h-30z" />
    <glyph glyph-name="Adieresis" unicode="&#xc4;" horiz-adv-x="635" 
d="M622 -5q-22 0 -54 8.5t-63 36t-53 85.5l-25 65h-280l-80 -190h-45l280 660h30l220 -535q24 -56 46 -78.5t64 -26.5v-20q-18 -5 -40 -5zM162 230h245l-120 290zM402 690q-23 0 -36.5 13.5t-13.5 36.5t13.5 36.5t36.5 13.5t36.5 -13.5t13.5 -36.5t-13.5 -36.5t-36.5 -13.5z
M232 690q-23 0 -36.5 13.5t-13.5 36.5t13.5 36.5t36.5 13.5t36.5 -13.5t13.5 -36.5t-13.5 -36.5t-36.5 -13.5z" />
    <glyph glyph-name="Aring" unicode="&#xc5;" horiz-adv-x="636" 
d="M622 -5q-22 0 -54 8.5t-63 36t-53 85.5l-25 65h-280l-80 -190h-45l265 625q-19 8 -37 27t-18 53t25.5 59.5t59.5 25.5t59.5 -25.5t25.5 -59.5t-18 -53t-37 -27l205 -500q24 -56 46 -78.5t64 -26.5v-20q-18 -5 -40 -5zM297 660h40q11 8 18 19t7 26q0 23 -13 36.5t-32 13.5
t-32 -13.5t-13 -36.5q0 -15 7 -26t18 -19zM162 230h245l-120 290z" />
    <glyph glyph-name="AE" unicode="&#xc6;" horiz-adv-x="865" 
d="M-14 0l370 660h361q35 0 53 -11.5t25 -30t7 -38.5v-75h-20q0 60 -32.5 87.5t-92.5 27.5h-186v-260h270v-40h-270v-280h175q68 0 107.5 25t62.5 85l20 -5l-35 -95q-8 -23 -26.5 -36.5t-48.5 -13.5h-345v190h-240l-105 -190h-50zM166 230h215v385z" />
    <glyph glyph-name="Ccedilla" unicode="&#xc7;" horiz-adv-x="665" 
d="M324 -196v41h50q40 0 40 32q0 33 -40 33h-45v70q-87 6 -151 52t-99 121t-35 167q0 75 24 140.5t67 114.5t99 77t120 28q83 0 143 -23.5t87 -56.5q19 -23 22 -64t3 -86h-20q-19 98 -70.5 144t-134.5 46q-65 0 -120 -30t-87.5 -100t-32.5 -190q0 -56 13.5 -109.5
t42.5 -96.5t74.5 -68.5t109.5 -25.5q75 0 129 36t96 104l20 -15q-46 -88 -109 -124.5t-146 -40.5v-30h10q34 0 57 -18.5t23 -54.5q0 -35 -23 -54t-57 -19h-60z" />
    <glyph glyph-name="Egrave" unicode="&#xc8;" horiz-adv-x="590" 
d="M106 0v540q0 45 -12.5 72.5t-57.5 27.5h-20v20h426q35 0 53 -11.5t25 -30t7 -38.5v-75h-20q0 60 -32.5 87.5t-92.5 27.5h-186v-260h270v-40h-270v-280h175q68 0 107.5 25t62.5 85l20 -5l-35 -95q-8 -23 -26.5 -36.5t-48.5 -13.5h-345zM285 705l-95 130h95l40 -130h-40z
" />
    <glyph glyph-name="Eacute" unicode="&#xc9;" horiz-adv-x="590" 
d="M106 0v540q0 45 -12.5 72.5t-57.5 27.5h-20v20h426q35 0 53 -11.5t25 -30t7 -38.5v-75h-20q0 60 -32.5 87.5t-92.5 27.5h-186v-260h270v-40h-270v-280h175q68 0 107.5 25t62.5 85l20 -5l-35 -95q-8 -23 -26.5 -36.5t-48.5 -13.5h-345zM276 700l40 130h95l-95 -130h-40z
" />
    <glyph glyph-name="Ecircumflex" unicode="&#xca;" horiz-adv-x="590" 
d="M106 0v540q0 45 -12.5 72.5t-57.5 27.5h-20v20h426q35 0 53 -11.5t25 -30t7 -38.5v-75h-20q0 60 -32.5 87.5t-92.5 27.5h-186v-260h270v-40h-270v-280h175q68 0 107.5 25t62.5 85l20 -5l-35 -95q-8 -23 -26.5 -36.5t-48.5 -13.5h-345zM166 721l80 115h110l80 -115h-50
l-85 80l-85 -80h-50z" />
    <glyph glyph-name="Edieresis" unicode="&#xcb;" horiz-adv-x="590" 
d="M106 0v540q0 45 -12.5 72.5t-57.5 27.5h-20v20h426q35 0 53 -11.5t25 -30t7 -38.5v-75h-20q0 60 -32.5 87.5t-92.5 27.5h-186v-260h270v-40h-270v-280h175q68 0 107.5 25t62.5 85l20 -5l-35 -95q-8 -23 -26.5 -36.5t-48.5 -13.5h-345zM376 730q-23 0 -36.5 13.5
t-13.5 36.5t13.5 36.5t36.5 13.5t36.5 -13.5t13.5 -36.5t-13.5 -36.5t-36.5 -13.5zM206 730q-23 0 -36.5 13.5t-13.5 36.5t13.5 36.5t36.5 13.5t36.5 -13.5t13.5 -36.5t-13.5 -36.5t-36.5 -13.5z" />
    <glyph glyph-name="Igrave" unicode="&#xcc;" horiz-adv-x="285" 
d="M179 0q-35 0 -54.5 9t-27.5 35t-8 76v540h90v-540q0 -45 12.5 -72.5t57.5 -27.5h20v-20h-90zM133 705l-95 130h95l40 -130h-40z" />
    <glyph glyph-name="Iacute" unicode="&#xcd;" horiz-adv-x="285" 
d="M179 0q-35 0 -54.5 9t-27.5 35t-8 76v540h90v-540q0 -45 12.5 -72.5t57.5 -27.5h20v-20h-90zM109 700l40 130h95l-95 -130h-40z" />
    <glyph glyph-name="Icircumflex" unicode="&#xce;" horiz-adv-x="285" 
d="M179 0q-35 0 -54.5 9t-27.5 35t-8 76v540h90v-540q0 -45 12.5 -72.5t57.5 -27.5h20v-20h-90zM0 695l80 115h110l80 -115h-50l-85 80l-85 -80h-50z" />
    <glyph glyph-name="Idieresis" unicode="&#xcf;" horiz-adv-x="285" 
d="M57 715q-23 0 -36.5 13.5t-13.5 36.5t13.5 36.5t36.5 13.5t36.5 -13.5t13.5 -36.5t-13.5 -36.5t-36.5 -13.5zM211 715q-23 0 -36.5 13.5t-13.5 36.5t13.5 36.5t36.5 13.5t36.5 -13.5t13.5 -36.5t-13.5 -36.5t-36.5 -13.5zM179 0q-35 0 -54.5 9t-27.5 35t-8 76v540h90
v-540q0 -45 12.5 -72.5t57.5 -27.5h20v-20h-90z" />
    <glyph glyph-name="Eth" unicode="&#xd0;" horiz-adv-x="715" 
d="M106 0v310h-75v40h75v190q0 45 -12.5 72.5t-57.5 27.5h-20v20h262q198 0 295.5 -88t97.5 -238q0 -97 -41.5 -172.5t-123 -118.5t-202.5 -43h-198zM301 35q74 0 133 36t93.5 102.5t34.5 156.5q0 89 -34 155t-93 103t-136 37q-22 0 -47.5 -4t-52.5 -12v-259h87v-40h-87
v-262q29 -7 54.5 -10t47.5 -3z" />
    <glyph glyph-name="Ntilde" unicode="&#xd1;" horiz-adv-x="685" 
d="M580 -10l-430 535v-525h-40v540q0 45 -19 72.5t-71 27.5h-10v20h65q49 0 80.5 -16t54.5 -44l350 -435v495h40v-670h-20zM237 694q0 53 15 74t45 21q22 0 38 -10l32 -20t35 -10q11 0 20.5 14.5t9.5 25.5h30q0 -53 -15 -74t-45 -21q-21 0 -37 10l-32 20t-36 10
q-11 0 -20.5 -14.5t-9.5 -25.5h-30z" />
    <glyph glyph-name="Ograve" unicode="&#xd2;" horiz-adv-x="712" 
d="M356 -20q-95 0 -164.5 46.5t-107.5 126t-38 177.5t38 177.5t107.5 126t164.5 46.5t164.5 -46.5t107.5 -126t38 -177.5t-38 -177.5t-107.5 -126t-164.5 -46.5zM356 20q66 0 113 38t72 107.5t25 164.5t-25 164.5t-72 107.5t-113 38q-65 0 -112.5 -38t-72.5 -107.5
t-25 -164.5t25 -164.5t72.5 -107.5t112.5 -38zM346 705l-95 130h95l40 -130h-40z" />
    <glyph glyph-name="Oacute" unicode="&#xd3;" horiz-adv-x="712" 
d="M356 -20q-95 0 -164.5 46.5t-107.5 126t-38 177.5t38 177.5t107.5 126t164.5 46.5t164.5 -46.5t107.5 -126t38 -177.5t-38 -177.5t-107.5 -126t-164.5 -46.5zM356 20q66 0 113 38t72 107.5t25 164.5t-25 164.5t-72 107.5t-113 38q-65 0 -112.5 -38t-72.5 -107.5
t-25 -164.5t25 -164.5t72.5 -107.5t112.5 -38zM335 720l40 130h95l-95 -130h-40z" />
    <glyph glyph-name="Ocircumflex" unicode="&#xd4;" horiz-adv-x="712" 
d="M356 -20q-95 0 -164.5 46.5t-107.5 126t-38 177.5t38 177.5t107.5 126t164.5 46.5t164.5 -46.5t107.5 -126t38 -177.5t-38 -177.5t-107.5 -126t-164.5 -46.5zM356 20q66 0 113 38t72 107.5t25 164.5t-25 164.5t-72 107.5t-113 38q-65 0 -112.5 -38t-72.5 -107.5
t-25 -164.5t25 -164.5t72.5 -107.5t112.5 -38zM216 720l80 115h110l80 -115h-50l-85 80l-85 -80h-50z" />
    <glyph glyph-name="Otilde" unicode="&#xd5;" horiz-adv-x="712" 
d="M356 -20q-95 0 -164.5 46.5t-107.5 126t-38 177.5t38 177.5t107.5 126t164.5 46.5t164.5 -46.5t107.5 -126t38 -177.5t-38 -177.5t-107.5 -126t-164.5 -46.5zM356 20q66 0 113 38t72 107.5t25 164.5t-25 164.5t-72 107.5t-113 38q-65 0 -112.5 -38t-72.5 -107.5
t-25 -164.5t25 -164.5t72.5 -107.5t112.5 -38zM242 738q0 53 15 74t45 21q22 0 38 -10l32 -20t35 -10q11 0 20.5 14.5t9.5 25.5h30q0 -53 -15 -74t-45 -21q-21 0 -37 10l-32 20t-36 10q-11 0 -20.5 -14.5t-9.5 -25.5h-30z" />
    <glyph glyph-name="Odieresis" unicode="&#xd6;" horiz-adv-x="712" 
d="M356 -20q-95 0 -164.5 46.5t-107.5 126t-38 177.5t38 177.5t107.5 126t164.5 46.5t164.5 -46.5t107.5 -126t38 -177.5t-38 -177.5t-107.5 -126t-164.5 -46.5zM356 20q66 0 113 38t72 107.5t25 164.5t-25 164.5t-72 107.5t-113 38q-65 0 -112.5 -38t-72.5 -107.5
t-25 -164.5t25 -164.5t72.5 -107.5t112.5 -38zM441 735q-23 0 -36.5 13.5t-13.5 36.5t13.5 36.5t36.5 13.5t36.5 -13.5t13.5 -36.5t-13.5 -36.5t-36.5 -13.5zM271 735q-23 0 -36.5 13.5t-13.5 36.5t13.5 36.5t36.5 13.5t36.5 -13.5t13.5 -36.5t-13.5 -36.5t-36.5 -13.5z" />
    <glyph glyph-name="multiply" unicode="&#xd7;" horiz-adv-x="469" 
d="M93 149l-42 43l141 141l-141 142l42 42l142 -142l141 142l42 -43l-141 -141l141 -142l-42 -42l-142 142z" />
    <glyph glyph-name="Oslash" unicode="&#xd8;" horiz-adv-x="712" 
d="M126 -20l37 68q-56 48 -86.5 121t-30.5 161q0 98 38 177.5t107.5 126t164.5 46.5q38 0 71.5 -8t62.5 -22l17 30h73l-36 -65q58 -48 90 -121.5t32 -163.5q0 -98 -38 -177.5t-107.5 -126t-164.5 -46.5q-78 0 -140 32l-17 -32h-73zM197 111l268 493q-46 36 -109 36
q-65 0 -112.5 -38t-72.5 -107.5t-25 -164.5q0 -137 51 -219zM356 20q66 0 113 38t72 107.5t25 164.5q0 70 -14.5 126.5t-40.5 97.5l-269 -495q50 -39 114 -39z" />
    <glyph glyph-name="Ugrave" unicode="&#xd9;" horiz-adv-x="687" 
d="M354 -10q-97 0 -153 33t-79 98.5t-23 163.5v255q0 45 -12.5 72.5t-57.5 27.5h-20v20h90q35 0 54.5 -9t27.5 -35t8 -76v-285q0 -105 39 -165t138 -60q77 0 121 27t63 83.5t19 144.5v375h40v-375q0 -98 -21 -163.5t-76 -98.5t-158 -33zM334 705l-95 130h95l40 -130h-40z
" />
    <glyph glyph-name="Uacute" unicode="&#xda;" horiz-adv-x="687" 
d="M354 -10q-97 0 -153 33t-79 98.5t-23 163.5v255q0 45 -12.5 72.5t-57.5 27.5h-20v20h90q35 0 54.5 -9t27.5 -35t8 -76v-285q0 -105 39 -165t138 -60q77 0 121 27t63 83.5t19 144.5v375h40v-375q0 -98 -21 -163.5t-76 -98.5t-158 -33zM329 681l40 130h95l-95 -130h-40z
" />
    <glyph glyph-name="Ucircumflex" unicode="&#xdb;" horiz-adv-x="687" 
d="M354 -10q-97 0 -153 33t-79 98.5t-23 163.5v255q0 45 -12.5 72.5t-57.5 27.5h-20v20h90q35 0 54.5 -9t27.5 -35t8 -76v-285q0 -105 39 -165t138 -60q77 0 121 27t63 83.5t19 144.5v375h40v-375q0 -98 -21 -163.5t-76 -98.5t-158 -33zM239 671l80 115h110l80 -115h-50
l-85 80l-85 -80h-50z" />
    <glyph glyph-name="Udieresis" unicode="&#xdc;" horiz-adv-x="687" 
d="M354 -10q-97 0 -153 33t-79 98.5t-23 163.5v255q0 45 -12.5 72.5t-57.5 27.5h-20v20h90q35 0 54.5 -9t27.5 -35t8 -76v-285q0 -105 39 -165t138 -60q77 0 121 27t63 83.5t19 144.5v375h40v-375q0 -98 -21 -163.5t-76 -98.5t-158 -33zM454 681q-23 0 -36.5 13.5
t-13.5 36.5t13.5 36.5t36.5 13.5t36.5 -13.5t13.5 -36.5t-13.5 -36.5t-36.5 -13.5zM284 681q-23 0 -36.5 13.5t-13.5 36.5t13.5 36.5t36.5 13.5t36.5 -13.5t13.5 -36.5t-13.5 -36.5t-36.5 -13.5z" />
    <glyph glyph-name="Yacute" unicode="&#xdd;" horiz-adv-x="628" 
d="M290 0v273l-170 257q-31 44 -61.5 75t-83.5 35v20h90q37 0 64.5 -16t48 -41t37.5 -53l145 -225l209 335h45l-234 -380v-280h-90zM315 671l40 130h95l-95 -130h-40z" />
    <glyph glyph-name="Thorn" unicode="&#xde;" horiz-adv-x="535" 
d="M109 -30v630q0 38 -16 54t-54 16h-20v20h90q52 0 71 -19t19 -71v-50q151 0 230.5 -59t79.5 -176t-79.5 -176t-230.5 -59v-110h-90zM199 120q75 0 121 25t67.5 69t21.5 101q0 58 -21.5 101.5t-67.5 68.5t-121 25v-390z" />
    <glyph glyph-name="germandbls" unicode="&#xdf;" horiz-adv-x="554" 
d="M382 -10q-38 0 -72 10.5t-53 29.5t-22 40t-3 40h20q4 -30 34.5 -55t75.5 -25q38 0 59 20t21 50q0 33 -20.5 55.5t-51 41t-61.5 38.5t-51.5 47.5t-20.5 67.5q0 33 11.5 54.5t28.5 37t34.5 30t29 33t11.5 45.5q0 38 -22.5 59t-67.5 21q-49 0 -74.5 -27.5t-25.5 -102.5v-500
h-90v500q0 70 27 106.5t71.5 50t96.5 13.5q83 0 126.5 -27.5t43.5 -72.5q0 -33 -11.5 -54.5t-28.5 -37t-34.5 -30t-29 -33t-11.5 -45.5q0 -33 20.5 -55.5t51.5 -41t61.5 -38.5t51 -47t20.5 -68q0 -68 -40.5 -99t-104.5 -31z" />
    <glyph glyph-name="agrave" unicode="&#xe0;" horiz-adv-x="481" 
d="M184 -10q-21 0 -45.5 6.5t-47.5 22.5t-37.5 43t-14.5 68q0 55 35.5 85t94 42.5t125.5 12.5h30q0 70 -14 106.5t-37.5 50t-53.5 13.5q-42 0 -70.5 -18t-39.5 -67h-45q0 26 3 48.5t22 41.5t62 27t88 8q34 0 65.5 -8t56 -29.5t39 -63t14.5 -109.5v-270h-50l-35 45h-5
q-15 -19 -49 -37t-91 -18zM229 35q37 0 58.5 18.5t36.5 41.5v135h-30q-75 0 -117.5 -27.5t-42.5 -72.5q0 -49 29 -72t66 -23zM231 515l-95 130h95l40 -130h-40z" />
    <glyph glyph-name="aacute" unicode="&#xe1;" horiz-adv-x="481" 
d="M184 -10q-21 0 -45.5 6.5t-47.5 22.5t-37.5 43t-14.5 68q0 55 35.5 85t94 42.5t125.5 12.5h30q0 70 -14 106.5t-37.5 50t-53.5 13.5q-42 0 -70.5 -18t-39.5 -67h-45q0 26 3 48.5t22 41.5t62 27t88 8q34 0 65.5 -8t56 -29.5t39 -63t14.5 -109.5v-270h-50l-35 45h-5
q-15 -19 -49 -37t-91 -18zM229 35q37 0 58.5 18.5t36.5 41.5v135h-30q-75 0 -117.5 -27.5t-42.5 -72.5q0 -49 29 -72t66 -23zM213 515l40 130h95l-95 -130h-40z" />
    <glyph glyph-name="acircumflex" unicode="&#xe2;" horiz-adv-x="481" 
d="M184 -10q-21 0 -45.5 6.5t-47.5 22.5t-37.5 43t-14.5 68q0 55 35.5 85t94 42.5t125.5 12.5h30q0 70 -14 106.5t-37.5 50t-53.5 13.5q-42 0 -70.5 -18t-39.5 -67h-45q0 26 3 48.5t22 41.5t62 27t88 8q34 0 65.5 -8t56 -29.5t39 -63t14.5 -109.5v-270h-50l-35 45h-5
q-15 -19 -49 -37t-91 -18zM229 35q37 0 58.5 18.5t36.5 41.5v135h-30q-75 0 -117.5 -27.5t-42.5 -72.5q0 -49 29 -72t66 -23zM106 520l80 115h110l80 -115h-50l-85 80l-85 -80h-50z" />
    <glyph glyph-name="atilde" unicode="&#xe3;" horiz-adv-x="481" 
d="M184 -10q-21 0 -45.5 6.5t-47.5 22.5t-37.5 43t-14.5 68q0 55 35.5 85t94 42.5t125.5 12.5h30q0 70 -14 106.5t-37.5 50t-53.5 13.5q-42 0 -70.5 -18t-39.5 -67h-45q0 26 3 48.5t22 41.5t62 27t88 8q34 0 65.5 -8t56 -29.5t39 -63t14.5 -109.5v-270h-50l-35 45h-5
q-15 -19 -49 -37t-91 -18zM229 35q37 0 58.5 18.5t36.5 41.5v135h-30q-75 0 -117.5 -27.5t-42.5 -72.5q0 -49 29 -72t66 -23zM123 536q0 53 15 74t45 21q22 0 38 -10l32 -20t35 -10q11 0 20.5 14.5t9.5 25.5h30q0 -53 -15 -74t-45 -21q-21 0 -37 10l-32 20t-36 10
q-11 0 -20.5 -14.5t-9.5 -25.5h-30z" />
    <glyph glyph-name="adieresis" unicode="&#xe4;" horiz-adv-x="481" 
d="M184 -10q-21 0 -45.5 6.5t-47.5 22.5t-37.5 43t-14.5 68q0 55 35.5 85t94 42.5t125.5 12.5h30q0 70 -14 106.5t-37.5 50t-53.5 13.5q-42 0 -70.5 -18t-39.5 -67h-45q0 26 3 48.5t22 41.5t62 27t88 8q34 0 65.5 -8t56 -29.5t39 -63t14.5 -109.5v-270h-50l-35 45h-5
q-15 -19 -49 -37t-91 -18zM229 35q37 0 58.5 18.5t36.5 41.5v135h-30q-75 0 -117.5 -27.5t-42.5 -72.5q0 -49 29 -72t66 -23zM326 525q-19 0 -32 13t-13 32t13 32t32 13t32 -13t13 -32t-13 -32t-32 -13zM156 525q-19 0 -32 13t-13 32t13 32t32 13t32 -13t13 -32t-13 -32
t-32 -13z" />
    <glyph glyph-name="aring" unicode="&#xe5;" horiz-adv-x="481" 
d="M184 -10q-21 0 -45.5 6.5t-47.5 22.5t-37.5 43t-14.5 68q0 55 35.5 85t94 42.5t125.5 12.5h30q0 70 -14 106.5t-37.5 50t-53.5 13.5q-42 0 -70.5 -18t-39.5 -67h-45q0 26 3 48.5t22 41.5t62 27t88 8q34 0 65.5 -8t56 -29.5t39 -63t14.5 -109.5v-270h-50l-35 45h-5
q-15 -19 -49 -37t-91 -18zM229 35q37 0 58.5 18.5t36.5 41.5v135h-30q-75 0 -117.5 -27.5t-42.5 -72.5q0 -49 29 -72t66 -23zM234 530q-34 0 -59.5 25.5t-25.5 59.5t25.5 59.5t59.5 25.5t59.5 -25.5t25.5 -59.5t-25.5 -59.5t-59.5 -25.5zM234 565q19 0 32 13.5t13 36.5
t-13 36.5t-32 13.5t-32 -13.5t-13 -36.5t13 -36.5t32 -13.5z" />
    <glyph glyph-name="ae" unicode="&#xe6;" horiz-adv-x="759" 
d="M199 -10q-35 0 -72 12t-62.5 41.5t-25.5 81.5t35.5 81.5t94 41.5t125.5 12h30q0 75 -14 114t-37.5 52.5t-53.5 13.5q-42 0 -70.5 -18t-39.5 -67h-45q0 26 3 48.5t22 41.5t62 27t88 8q53 0 89 -26t51 -64q15 38 50.5 64t84.5 26q102 0 151 -57t49 -163l-2 -40h-298
q0 -82 35.5 -136t99.5 -54q49 0 81.5 21t58.5 59l20 -15q-34 -57 -78.5 -81t-101.5 -24q-117 0 -170 85q-22 -41 -58.5 -63t-101.5 -22zM414 260h210q0 83 -26 129t-79 46q-30 0 -53.5 -23t-37.5 -62.5t-14 -89.5zM229 35q37 0 58.5 18.5t36.5 41.5v125h-30
q-75 0 -117.5 -26.5t-42.5 -68.5q0 -45 28.5 -67.5t66.5 -22.5z" />
    <glyph glyph-name="ccedilla" unicode="&#xe7;" horiz-adv-x="483" 
d="M231 -196v41h50q40 0 40 32q0 33 -40 33h-45v80q-65 8 -107.5 42.5t-63 87t-20.5 115.5q0 68 24 123.5t73 88.5t123 33q53 0 89.5 -8t55.5 -27t22 -46.5t3 -83.5h-20q-4 64 -40.5 94.5t-89.5 30.5q-50 0 -82 -27.5t-47.5 -73.5t-15.5 -104q0 -57 15.5 -103.5t47.5 -74
t82 -27.5q53 0 86 21t59 59l20 -15q-31 -54 -75 -78q-20 -11 -44 -17.5t-50 -8.5v-41h10q34 0 57 -18.5t23 -54.5q0 -35 -23 -54t-57 -19h-60z" />
    <glyph glyph-name="egrave" unicode="&#xe8;" horiz-adv-x="488" 
d="M255 -10q-70 0 -116.5 33t-70 89t-23.5 123q0 68 24 123.5t69 88.5t107 33q102 0 151 -57t49 -163l-2 -40h-303q0 -82 35.5 -136t99.5 -54q49 0 81.5 21t58.5 59l20 -15q-34 -57 -78.5 -81t-101.5 -24zM140 260h210q0 87 -26 133.5t-79 46.5q-30 0 -53.5 -23.5t-37.5 -64
t-14 -92.5zM234 515l-95 130h95l40 -130h-40z" />
    <glyph glyph-name="eacute" unicode="&#xe9;" horiz-adv-x="488" 
d="M255 -10q-70 0 -116.5 33t-70 89t-23.5 123q0 68 24 123.5t69 88.5t107 33q102 0 151 -57t49 -163l-2 -40h-303q0 -82 35.5 -136t99.5 -54q49 0 81.5 21t58.5 59l20 -15q-34 -57 -78.5 -81t-101.5 -24zM140 260h210q0 87 -26 133.5t-79 46.5q-30 0 -53.5 -23.5t-37.5 -64
t-14 -92.5zM216 515l40 130h95l-95 -130h-40z" />
    <glyph glyph-name="ecircumflex" unicode="&#xea;" horiz-adv-x="488" 
d="M255 -10q-70 0 -116.5 33t-70 89t-23.5 123q0 68 24 123.5t69 88.5t107 33q102 0 151 -57t49 -163l-2 -40h-303q0 -82 35.5 -136t99.5 -54q49 0 81.5 21t58.5 59l20 -15q-34 -57 -78.5 -81t-101.5 -24zM140 260h210q0 87 -26 133.5t-79 46.5q-30 0 -53.5 -23.5t-37.5 -64
t-14 -92.5zM109 520l80 115h110l80 -115h-50l-85 80l-85 -80h-50z" />
    <glyph glyph-name="edieresis" unicode="&#xeb;" horiz-adv-x="488" 
d="M255 -10q-70 0 -116.5 33t-70 89t-23.5 123q0 68 24 123.5t69 88.5t107 33q102 0 151 -57t49 -163l-2 -40h-303q0 -82 35.5 -136t99.5 -54q49 0 81.5 21t58.5 59l20 -15q-34 -57 -78.5 -81t-101.5 -24zM140 260h210q0 87 -26 133.5t-79 46.5q-30 0 -53.5 -23.5t-37.5 -64
t-14 -92.5zM334 545q-19 0 -32 13t-13 32t13 32t32 13t32 -13t13 -32t-13 -32t-32 -13zM164 545q-19 0 -32 13t-13 32t13 32t32 13t32 -13t13 -32t-13 -32t-32 -13z" />
    <glyph glyph-name="igrave" unicode="&#xec;" horiz-adv-x="246" 
d="M87 0v350q0 45 -12.5 72.5t-57.5 27.5h-20v20h90q35 0 54.5 -9t27.5 -35t8 -76v-350h-90zM113 515l-95 130h95l40 -130h-40z" />
    <glyph glyph-name="iacute" unicode="&#xed;" horiz-adv-x="246" 
d="M87 0v350q0 45 -12.5 72.5t-57.5 27.5h-20v20h90q35 0 54.5 -9t27.5 -35t8 -76v-350h-90zM95 515l40 130h95l-95 -130h-40z" />
    <glyph glyph-name="icircumflex" unicode="&#xee;" horiz-adv-x="246" 
d="M87 0v350q0 45 -12.5 72.5t-57.5 27.5h-20v20h90q35 0 54.5 -9t27.5 -35t8 -76v-350h-90zM-38 530l80 115h110l80 -115h-50l-85 80l-85 -80h-50z" />
    <glyph glyph-name="idieresis" unicode="&#xef;" horiz-adv-x="246" 
d="M87 0v350q0 45 -12.5 72.5t-57.5 27.5h-20v20h90q35 0 54.5 -9t27.5 -35t8 -76v-350h-90zM200 535q-19 0 -32 13t-13 32t13 32t32 13t32 -13t13 -32t-13 -32t-32 -13zM30 535q-19 0 -32 13t-13 32t13 32t32 13t32 -13t13 -32t-13 -32t-32 -13z" />
    <glyph glyph-name="eth" unicode="&#xf0;" horiz-adv-x="537" 
d="M264 -10q-70 0 -119 33t-75 89t-26 123q0 68 26 123.5t75 88.5t119 33q42 0 76.5 -21t53.5 -59q-11 53 -27.5 91.5t-42.5 68.5l-40 -40l-30 30l40 40q-23 23 -47.5 34t-62.5 11q-28 0 -44 -6l-8 19q20 14 43 18t49 4q30 0 59.5 -10.5t55.5 -29.5l35 40l30 -30l-35 -35
q53 -53 84 -137.5t31 -197.5q0 -127 -57.5 -203.5t-162.5 -76.5zM264 30q38 0 66 27.5t43.5 74t15.5 103.5q0 58 -15.5 104t-43.5 73.5t-66 27.5q-37 0 -65.5 -27.5t-44 -73.5t-15.5 -104q0 -57 15.5 -103.5t44 -74t65.5 -27.5z" />
    <glyph glyph-name="ntilde" unicode="&#xf1;" horiz-adv-x="544" 
d="M87 0v350q0 45 -12.5 72.5t-57.5 27.5h-20v20h90q38 0 57.5 -10.5t27.5 -29.5h5q19 19 52 34.5t78 15.5q43 0 81.5 -15t63.5 -53.5t25 -111.5v-300h-90v300q0 50 -16 79.5t-41 42.5t-53 13q-30 0 -55.5 -16t-44.5 -37v-382h-90zM169 545q0 53 15 74t45 21q22 0 38 -10
l32 -20t35 -10q11 0 20.5 14.5t9.5 25.5h30q0 -53 -15 -74t-45 -21q-21 0 -37 10l-32 20t-36 10q-11 0 -20.5 -14.5t-9.5 -25.5h-30z" />
    <glyph glyph-name="ograve" unicode="&#xf2;" 
d="M265 -10q-70 0 -119 33t-75 89t-26 123q0 68 26 123.5t75 88.5t119 33t119 -33t75 -88.5t26 -123.5q0 -67 -26 -123t-75 -89t-119 -33zM265 30q38 0 66 27.5t43.5 74t15.5 103.5q0 58 -15.5 104t-43.5 73.5t-66 27.5q-37 0 -65.5 -27.5t-44 -73.5t-15.5 -104
q0 -57 15.5 -103.5t44 -74t65.5 -27.5zM255 515l-95 130h95l40 -130h-40z" />
    <glyph glyph-name="oacute" unicode="&#xf3;" 
d="M265 -10q-70 0 -119 33t-75 89t-26 123q0 68 26 123.5t75 88.5t119 33t119 -33t75 -88.5t26 -123.5q0 -67 -26 -123t-75 -89t-119 -33zM265 30q38 0 66 27.5t43.5 74t15.5 103.5q0 58 -15.5 104t-43.5 73.5t-66 27.5q-37 0 -65.5 -27.5t-44 -73.5t-15.5 -104
q0 -57 15.5 -103.5t44 -74t65.5 -27.5zM237 515l40 130h95l-95 -130h-40z" />
    <glyph glyph-name="ocircumflex" unicode="&#xf4;" 
d="M265 -10q-70 0 -119 33t-75 89t-26 123q0 68 26 123.5t75 88.5t119 33t119 -33t75 -88.5t26 -123.5q0 -67 -26 -123t-75 -89t-119 -33zM265 30q38 0 66 27.5t43.5 74t15.5 103.5q0 58 -15.5 104t-43.5 73.5t-66 27.5q-37 0 -65.5 -27.5t-44 -73.5t-15.5 -104
q0 -57 15.5 -103.5t44 -74t65.5 -27.5zM130 520l80 115h110l80 -115h-50l-85 80l-85 -80h-50z" />
    <glyph glyph-name="otilde" unicode="&#xf5;" 
d="M265 -10q-70 0 -119 33t-75 89t-26 123q0 68 26 123.5t75 88.5t119 33t119 -33t75 -88.5t26 -123.5q0 -67 -26 -123t-75 -89t-119 -33zM265 30q38 0 66 27.5t43.5 74t15.5 103.5q0 58 -15.5 104t-43.5 73.5t-66 27.5q-37 0 -65.5 -27.5t-44 -73.5t-15.5 -104
q0 -57 15.5 -103.5t44 -74t65.5 -27.5zM153 536q0 53 15 74t45 21q22 0 38 -10l32 -20t35 -10q11 0 20.5 14.5t9.5 25.5h30q0 -53 -15 -74t-45 -21q-21 0 -37 10l-32 20t-36 10q-11 0 -20.5 -14.5t-9.5 -25.5h-30z" />
    <glyph glyph-name="odieresis" unicode="&#xf6;" 
d="M265 -10q-70 0 -119 33t-75 89t-26 123q0 68 26 123.5t75 88.5t119 33t119 -33t75 -88.5t26 -123.5q0 -67 -26 -123t-75 -89t-119 -33zM265 30q38 0 66 27.5t43.5 74t15.5 103.5q0 58 -15.5 104t-43.5 73.5t-66 27.5q-37 0 -65.5 -27.5t-44 -73.5t-15.5 -104
q0 -57 15.5 -103.5t44 -74t65.5 -27.5zM350 525q-19 0 -32 13t-13 32t13 32t32 13t32 -13t13 -32t-13 -32t-32 -13zM180 525q-19 0 -32 13t-13 32t13 32t32 13t32 -13t13 -32t-13 -32t-32 -13z" />
    <glyph glyph-name="divide" unicode="&#xf7;" horiz-adv-x="564" 
d="M282 425q-19 0 -32 13t-13 32t13 32t32 13t32 -13t13 -32t-13 -32t-32 -13zM62 300v60h440v-60h-440zM282 145q-19 0 -32 13t-13 32t13 32t32 13t32 -13t13 -32t-13 -32t-32 -13z" />
    <glyph glyph-name="oslash" unicode="&#xf8;" 
d="M265 -10q-33 0 -61.5 8t-52.5 22l-13 -20h-73l40 58q-60 69 -60 177q0 68 26 123.5t75 88.5t119 33q33 0 61.5 -8t51.5 -22l14 20h73l-41 -59q61 -69 61 -176q0 -67 -26 -123t-75 -89t-119 -33zM156 131l187 268q-33 41 -78 41q-37 0 -65.5 -27.5t-44 -73.5t-15.5 -104
q0 -59 16 -104zM265 30q38 0 66 27.5t43.5 74t15.5 103.5q0 59 -16 104l-187 -268q32 -41 78 -41z" />
    <glyph glyph-name="ugrave" unicode="&#xf9;" horiz-adv-x="535" 
d="M243 -10q-42 0 -81 15t-64 54t-25 111v180q0 45 -12.5 72.5t-57.5 27.5h-10v20h80q35 0 54.5 -9t27.5 -35t8 -76v-180q0 -50 16 -79.5t41.5 -42.5t52.5 -13q30 0 55.5 16t44.5 37v382h90v-470h-50l-35 40h-5q-19 -19 -52 -34.5t-78 -15.5zM258 515l-95 130h95l40 -130
h-40z" />
    <glyph glyph-name="uacute" unicode="&#xfa;" horiz-adv-x="535" 
d="M243 -10q-42 0 -81 15t-64 54t-25 111v180q0 45 -12.5 72.5t-57.5 27.5h-10v20h80q35 0 54.5 -9t27.5 -35t8 -76v-180q0 -50 16 -79.5t41.5 -42.5t52.5 -13q30 0 55.5 16t44.5 37v382h90v-470h-50l-35 40h-5q-19 -19 -52 -34.5t-78 -15.5zM240 515l40 130h95l-95 -130
h-40z" />
    <glyph glyph-name="ucircumflex" unicode="&#xfb;" horiz-adv-x="535" 
d="M243 -10q-42 0 -81 15t-64 54t-25 111v180q0 45 -12.5 72.5t-57.5 27.5h-10v20h80q35 0 54.5 -9t27.5 -35t8 -76v-180q0 -50 16 -79.5t41.5 -42.5t52.5 -13q30 0 55.5 16t44.5 37v382h90v-470h-50l-35 40h-5q-19 -19 -52 -34.5t-78 -15.5zM133 520l80 115h110l80 -115
h-50l-85 80l-85 -80h-50z" />
    <glyph glyph-name="udieresis" unicode="&#xfc;" horiz-adv-x="535" 
d="M243 -10q-42 0 -81 15t-64 54t-25 111v180q0 45 -12.5 72.5t-57.5 27.5h-10v20h80q35 0 54.5 -9t27.5 -35t8 -76v-180q0 -50 16 -79.5t41.5 -42.5t52.5 -13q30 0 55.5 16t44.5 37v382h90v-470h-50l-35 40h-5q-19 -19 -52 -34.5t-78 -15.5zM353 525q-19 0 -32 13t-13 32
t13 32t32 13t32 -13t13 -32t-13 -32t-32 -13zM183 525q-19 0 -32 13t-13 32t13 32t32 13t32 -13t13 -32t-13 -32t-32 -13z" />
    <glyph glyph-name="yacute" unicode="&#xfd;" horiz-adv-x="514" 
d="M105 -200v30q46 0 78.5 20.5t56.5 84.5l20 55l-160 390q-15 38 -43.5 57t-66.5 23v20h85q45 0 74.5 -21t45.5 -59l114 -277l126 347h50l-195 -535q-20 -55 -42.5 -84t-50 -40t-62.5 -11h-30zM229 515l40 130h95l-95 -130h-40z" />
    <glyph glyph-name="thorn" unicode="&#xfe;" horiz-adv-x="523" 
d="M72 -190v730q0 45 -12.5 72.5t-57.5 27.5h-15v20h85q35 0 54.5 -9t27.5 -35t8 -76v-115q15 19 47 37t88 18q60 0 100 -33t60 -88.5t20 -123.5q0 -67 -20.5 -123t-62.5 -89t-107 -33q-42 0 -72 9.5t-53 20.5v-210h-90zM257 30q45 0 72.5 27.5t40 74t12.5 103.5
q0 58 -12 104t-37.5 73.5t-65.5 27.5q-41 0 -66 -18.5t-39 -41.5v-320q23 -11 47.5 -20.5t47.5 -9.5z" />
    <glyph glyph-name="ydieresis" unicode="&#xff;" horiz-adv-x="514" 
d="M105 -200v30q46 0 78.5 20.5t56.5 84.5l20 55l-160 390q-15 38 -43.5 57t-66.5 23v20h85q45 0 74.5 -21t45.5 -59l114 -277l126 347h50l-195 -535q-20 -55 -42.5 -84t-50 -40t-62.5 -11h-30zM475 521q-19 0 -32 13t-13 32t13 32t32 13t32 -13t13 -32t-13 -32t-32 -13z
M305 521q-19 0 -32 13t-13 32t13 32t32 13t32 -13t13 -32t-13 -32t-32 -13z" />
    <glyph glyph-name="Abreve" unicode="&#x102;" horiz-adv-x="635" 
d="M622 -5q-22 0 -54 8.5t-63 36t-53 85.5l-25 65h-280l-80 -190h-45l280 660h30l220 -535q24 -56 46 -78.5t64 -26.5v-20q-18 -5 -40 -5zM162 230h245l-120 290zM318 701q-49 0 -80 23t-50 57l20 15q19 -19 43.5 -29.5t66.5 -10.5t66.5 10.5t43.5 29.5l20 -15
q-19 -34 -50 -57t-80 -23z" />
    <glyph glyph-name="abreve" unicode="&#x103;" horiz-adv-x="481" 
d="M184 -10q-21 0 -45.5 6.5t-47.5 22.5t-37.5 43t-14.5 68q0 55 35.5 85t94 42.5t125.5 12.5h30q0 70 -14 106.5t-37.5 50t-53.5 13.5q-42 0 -70.5 -18t-39.5 -67h-45q0 26 3 48.5t22 41.5t62 27t88 8q34 0 65.5 -8t56 -29.5t39 -63t14.5 -109.5v-270h-50l-35 45h-5
q-15 -19 -49 -37t-91 -18zM229 35q37 0 58.5 18.5t36.5 41.5v135h-30q-75 0 -117.5 -27.5t-42.5 -72.5q0 -49 29 -72t66 -23zM241 511q-49 0 -80 23t-50 57l20 15q19 -19 43.5 -29.5t66.5 -10.5t66.5 10.5t43.5 29.5l20 -15q-19 -34 -50 -57t-80 -23z" />
    <glyph glyph-name="Dcroat" unicode="&#x110;" horiz-adv-x="715" 
d="M106 0v310h-75v40h75v190q0 45 -12.5 72.5t-57.5 27.5h-20v20h262q198 0 295.5 -88t97.5 -238q0 -97 -41.5 -172.5t-123 -118.5t-202.5 -43h-198zM301 35q74 0 133 36t93.5 102.5t34.5 156.5q0 89 -34 155t-93 103t-136 37q-22 0 -47.5 -4t-52.5 -12v-259h87v-40h-87
v-262q29 -7 54.5 -10t47.5 -3z" />
    <glyph glyph-name="dcroat" unicode="&#x111;" horiz-adv-x="524" 
d="M227 -10q-60 0 -100 33t-60 89t-20 123q0 68 20.5 123.5t62.5 88.5t107 33q42 0 72 -9.5t53 -20.5v90q0 45 -12.5 72.5t-57.5 27.5h-20v20h90q35 0 54.5 -9t27.5 -35t8 -76v-540h-50l-35 45h-5q-16 -19 -45 -37t-90 -18zM257 30q46 0 67.5 19t37.5 41v320
q-23 11 -47.5 20.5t-47.5 9.5q-45 0 -72.5 -27.5t-40 -73.5t-12.5 -104q0 -57 12 -103.5t37.5 -74t65.5 -27.5zM213 516v40h280v-40h-280z" />
    <glyph glyph-name="Gbreve" unicode="&#x11e;" horiz-adv-x="720" 
d="M384 -20q-75 0 -137.5 28t-107.5 77t-70 114.5t-25 140.5q0 95 38 172t107.5 122.5t164.5 45.5q91 0 152 -23.5t88 -56.5q19 -23 22 -62t3 -73h-20q-19 87 -71.5 131t-143.5 44q-64 0 -109.5 -25.5t-74.5 -68.5t-42.5 -96.5t-13.5 -109.5q0 -120 32.5 -190t87.5 -100
t120 -30q54 0 90 9.5t65 25.5v174q0 21 5 41.5t21.5 37.5t49.5 27.5t89 10.5v-20q-49 0 -62 -25.5t-13 -69.5v-188q-54 -33 -113 -48t-132 -15zM365 730q-49 0 -80 24t-50 66l20 15q15 -19 41.5 -32t68.5 -13t68.5 13t41.5 32l20 -15q-19 -42 -50 -66t-80 -24z" />
    <glyph glyph-name="gbreve" unicode="&#x11f;" horiz-adv-x="492" 
d="M246 -200q-62 0 -112 15t-79 49t-29 91q0 49 32.5 82t77.5 48q-15 8 -27.5 22.5t-12.5 37.5t12 35t23 20q-30 15 -52.5 48t-22.5 82q0 58 25.5 90.5t69 46t95.5 13.5h185v-25l-65 -10v-5q30 -15 50 -43.5t20 -66.5q0 -57 -25.5 -90t-68.5 -46.5t-96 -13.5
q-105 0 -105 -35t105 -35q60 0 110 -16t80 -50t30 -89q0 -57 -29 -91t-79 -49t-112 -15zM246 215q41 0 70.5 25.5t29.5 89.5q0 60 -29 87.5t-71 27.5q-41 0 -70.5 -25.5t-29.5 -89.5t29.5 -89.5t70.5 -25.5zM246 -160q57 0 93.5 27.5t36.5 87.5q0 100 -120 115l-55 5
q-38 -15 -61.5 -43t-23.5 -77q0 -60 36.5 -87.5t93.5 -27.5zM246 531q-49 0 -80 24t-50 66l20 15q15 -19 41.5 -32t68.5 -13t68.5 13t41.5 32l20 -15q-19 -42 -50 -66t-80 -24z" />
    <glyph glyph-name="Itilde" unicode="&#x128;" horiz-adv-x="285" 
d="M179 0q-35 0 -54.5 9t-27.5 35t-8 76v540h90v-540q0 -45 12.5 -72.5t57.5 -27.5h20v-20h-90zM30 746q0 53 15 74t45 21q22 0 38 -10l32 -20t35 -10q11 0 20.5 14.5t9.5 25.5h30q0 -53 -15 -74t-45 -21q-21 0 -37 10l-32 20t-36 10q-11 0 -20.5 -14.5t-9.5 -25.5h-30z" />
    <glyph glyph-name="itilde" unicode="&#x129;" horiz-adv-x="246" 
d="M87 0v350q0 45 -12.5 72.5t-57.5 27.5h-20v20h90q35 0 54.5 -9t27.5 -35t8 -76v-350h-90zM10 556q0 53 15 74t45 21q22 0 38 -10l32 -20t35 -10q11 0 20.5 14.5t9.5 25.5h30q0 -53 -15 -74t-45 -21q-21 0 -37 10l-32 20t-36 10q-11 0 -20.5 -14.5t-9.5 -25.5h-30z" />
    <glyph glyph-name="Idotaccent" unicode="&#x130;" horiz-adv-x="285" 
d="M133 710q-22 0 -38 16t-16 39q0 22 16 38t38 16q23 0 38.5 -16t15.5 -38q0 -23 -16 -39t-38 -16zM179 0q-35 0 -54.5 9t-27.5 35t-8 76v540h90v-540q0 -45 12.5 -72.5t57.5 -27.5h20v-20h-90z" />
    <glyph glyph-name="dotlessi" unicode="&#x131;" horiz-adv-x="246" 
d="M87 0v350q0 45 -12.5 72.5t-57.5 27.5h-20v20h90q35 0 54.5 -9t27.5 -35t8 -76v-350h-90z" />
    <glyph glyph-name="OE" unicode="&#x152;" horiz-adv-x="945" 
d="M356 -20q-95 0 -164.5 46.5t-107.5 126t-38 177.5t38 177.5t107.5 126t164.5 46.5q30 0 57 -4.5t53 -15.5h331q35 0 53 -11.5t25 -30t7 -38.5v-75h-20q0 60 -32.5 87.5t-92.5 27.5h-186v-260h270v-40h-270v-280h175q68 0 107.5 25t62.5 85l20 -5l-35 -95
q-8 -23 -26.5 -36.5t-48.5 -13.5h-340q-26 -11 -53 -15.5t-57 -4.5zM356 20q61 0 105 32v558q-45 30 -105 30q-65 0 -112.5 -38t-72.5 -107.5t-25 -164.5t25 -164.5t72.5 -107.5t112.5 -38z" />
    <glyph glyph-name="oe" unicode="&#x153;" horiz-adv-x="795" 
d="M265 -10q-70 0 -119 33t-75 89t-26 123q0 68 26 123.5t75 88.5t119 33q97 0 151 -59q24 28 57.5 43.5t76.5 15.5q102 0 151 -57t49 -163l-2 -40h-298q0 -82 35.5 -136t99.5 -54q49 0 81.5 21t58.5 59l20 -15q-34 -57 -78.5 -81t-101.5 -24q-49 0 -86.5 17t-63.5 43
q-26 -26 -63.5 -43t-86.5 -17zM265 30q38 0 64.5 25t45.5 70q-8 19 -14 47.5t-6 62.5t6 62.5t14 47.5q-15 42 -43.5 68.5t-66.5 26.5q-37 0 -65.5 -27.5t-44 -73.5t-15.5 -104q0 -57 15.5 -103.5t44 -74t65.5 -27.5zM450 260h210q0 83 -26 129t-79 46q-30 0 -53.5 -23
t-37.5 -62.5t-14 -89.5z" />
    <glyph glyph-name="Scedilla" unicode="&#x15e;" horiz-adv-x="533" 
d="M232 -186v41h50q40 0 40 32q0 33 -40 33h-45v66q-48 6 -89.5 21.5t-67.5 40.5t-26 57v107h18q17 -101 66.5 -145t134.5 -44q34 0 64 11.5t48.5 34.5t18.5 56q0 44 -27.5 75t-82.5 63l-123 73q-64 38 -90.5 77t-26.5 95q0 77 53.5 123.5t140.5 46.5q37 0 75 -8t70 -23.5
t51.5 -37.5t19.5 -51v-107h-18q-17 101 -65 144t-133 43q-29 0 -56 -12.5t-43.5 -35t-16.5 -53.5q0 -43 28 -71t83 -60l123 -73q64 -38 94 -73.5t30 -91.5q0 -84 -56 -134.5t-152 -50.5v-23h10q34 0 57 -18.5t23 -54.5q0 -35 -23 -54t-57 -19h-60z" />
    <glyph glyph-name="scedilla" unicode="&#x15f;" horiz-adv-x="448" 
d="M187 -176v41h50q40 0 40 32q0 33 -40 33h-45v61q-85 6 -117 39q-19 19 -22 43t-3 62h20q8 -49 42 -77t98 -28q57 0 83.5 20t26.5 50t-22.5 50.5t-67.5 39.5l-60 25q-57 23 -88.5 54.5t-31.5 80.5q0 63 47 96.5t118 33.5q57 0 94 -10.5t56 -29.5t22 -43t3 -62h-20
q-8 49 -41.5 77t-93.5 28q-49 0 -74.5 -20t-25.5 -50q0 -26 21 -47.5t59 -37.5l60 -25q64 -26 97 -57t33 -83q0 -63 -48.5 -95.5t-119.5 -34.5v-20h10q34 0 57 -18.5t23 -54.5q0 -35 -23 -54t-57 -19h-60z" />
    <glyph glyph-name="Scaron" unicode="&#x160;" horiz-adv-x="533" 
d="M282 -17q-40 0 -80.5 8.5t-74 24.5t-53.5 38.5t-20 50.5v107h18q17 -101 66.5 -145t134.5 -44q34 0 64 11.5t48.5 34.5t18.5 56q0 44 -27.5 75t-82.5 63l-123 73q-64 38 -90.5 77t-26.5 95q0 77 53.5 123.5t140.5 46.5q37 0 75 -8t70 -23.5t51.5 -37.5t19.5 -51v-107h-18
q-17 101 -65 144t-133 43q-29 0 -56 -12.5t-43.5 -35t-16.5 -53.5q0 -43 28 -71t83 -60l123 -73q64 -38 94 -73.5t30 -91.5q0 -84 -56 -134.5t-152 -50.5zM199 720l-80 115h50l85 -80l85 80h50l-80 -115h-110z" />
    <glyph glyph-name="scaron" unicode="&#x161;" horiz-adv-x="446" 
d="M229 -10q-60 0 -98 10.5t-57 29.5t-22 43t-3 62h20q8 -49 42 -77t98 -28q57 0 83.5 20t26.5 50t-22.5 50.5t-67.5 39.5l-60 25q-57 23 -88.5 54.5t-31.5 80.5q0 63 47 96.5t118 33.5q57 0 94 -10.5t56 -29.5t22 -43t3 -62h-20q-8 49 -41.5 77t-93.5 28q-49 0 -74.5 -20
t-25.5 -50q0 -26 21 -47.5t59 -37.5l60 -25q64 -26 97 -57t33 -83q0 -63 -50 -96.5t-125 -33.5zM159 520l-80 115h50l85 -80l85 80h50l-80 -115h-110z" />
    <glyph glyph-name="Utilde" unicode="&#x168;" horiz-adv-x="687" 
d="M354 -10q-97 0 -153 33t-79 98.5t-23 163.5v255q0 45 -12.5 72.5t-57.5 27.5h-20v20h90q35 0 54.5 -9t27.5 -35t8 -76v-285q0 -105 39 -165t138 -60q77 0 121 27t63 83.5t19 144.5v375h40v-375q0 -98 -21 -163.5t-76 -98.5t-158 -33zM231 746q0 53 15 74t45 21
q22 0 38 -10l32 -20t35 -10q11 0 20.5 14.5t9.5 25.5h30q0 -53 -15 -74t-45 -21q-21 0 -37 10l-32 20t-36 10q-11 0 -20.5 -14.5t-9.5 -25.5h-30z" />
    <glyph glyph-name="utilde" unicode="&#x169;" horiz-adv-x="535" 
d="M243 -10q-42 0 -81 15t-64 54t-25 111v180q0 45 -12.5 72.5t-57.5 27.5h-10v20h80q35 0 54.5 -9t27.5 -35t8 -76v-180q0 -50 16 -79.5t41.5 -42.5t52.5 -13q30 0 55.5 16t44.5 37v382h90v-470h-50l-35 40h-5q-19 -19 -52 -34.5t-78 -15.5zM155 556q0 53 15 74t45 21
q22 0 38 -10l32 -20t35 -10q11 0 20.5 14.5t9.5 25.5h30q0 -53 -15 -74t-45 -21q-21 0 -37 10l-32 20t-36 10q-11 0 -20.5 -14.5t-9.5 -25.5h-30z" />
    <glyph glyph-name="Ydieresis" unicode="&#x178;" horiz-adv-x="628" 
d="M290 0v273l-170 257q-31 44 -61.5 75t-83.5 35v20h90q37 0 64.5 -16t48 -41t37.5 -53l145 -225l209 335h45l-234 -380v-280h-90zM435 690q-23 0 -36.5 13.5t-13.5 36.5t13.5 36.5t36.5 13.5t36.5 -13.5t13.5 -36.5t-13.5 -36.5t-36.5 -13.5zM265 690q-23 0 -36.5 13.5
t-13.5 36.5t13.5 36.5t36.5 13.5t36.5 -13.5t13.5 -36.5t-13.5 -36.5t-36.5 -13.5z" />
    <glyph glyph-name="Zcaron" unicode="&#x17d;" horiz-adv-x="591" 
d="M24 0v20l415 600h-240q-60 0 -92.5 -27.5t-32.5 -87.5h-20v75q0 20 7 38.5t25.5 30t52.5 11.5h435l-425 -620h410v-40h-535zM253 710l-80 115h50l85 -80l85 80h50l-80 -115h-110z" />
    <glyph glyph-name="zcaron" unicode="&#x17e;" horiz-adv-x="466" 
d="M44 0v19l260 411h-115q-64 0 -94.5 -24t-30.5 -66h-20v50q0 20 7 38.5t25.5 30t52.5 11.5h305l-270 -430h270v-40h-390zM188 520l-80 115h50l85 -80l85 80h50l-80 -115h-110z" />
    <glyph glyph-name="florin" unicode="&#x192;" horiz-adv-x="405" 
d="M-85 -190l4 20q48 0 80 52t48 143l71 405h-70l7 40h70l6 30q14 70 46.5 106.5t74.5 50t84 13.5q63 0 82 -15q18 -13 27 -45l-34 -25q-22 45 -87 45q-34 0 -61 -28t-42 -102l-6 -30h140l-7 -40h-140l-71 -405q-13 -75 -38 -122.5t-68.5 -70t-115.5 -22.5z" />
    <glyph glyph-name="Ohorn" unicode="&#x1a0;" horiz-adv-x="712" 
d="M356 -20q-95 0 -164.5 46.5t-107.5 126t-38 177.5t38 177.5t107.5 126t164.5 46.5t164.5 -46.5t107.5 -126t38 -177.5t-38 -177.5t-107.5 -126t-164.5 -46.5zM356 20q66 0 113 38t72 107.5t25 164.5t-25 164.5t-72 107.5t-113 38q-65 0 -112.5 -38t-72.5 -107.5
t-25 -164.5t25 -164.5t72.5 -107.5t112.5 -38zM459 634v26q36 0 58 16t32 40t10 48h57q0 -34 -13.5 -64t-47.5 -48t-96 -18z" />
    <glyph glyph-name="ohorn" unicode="&#x1a1;" 
d="M265 -10q-70 0 -119 33t-75 89t-26 123q0 68 26 123.5t75 88.5t119 33t119 -33t75 -88.5t26 -123.5q0 -67 -26 -123t-75 -89t-119 -33zM265 30q38 0 66 27.5t43.5 74t15.5 103.5q0 58 -15.5 104t-43.5 73.5t-66 27.5q-37 0 -65.5 -27.5t-44 -73.5t-15.5 -104
q0 -57 15.5 -103.5t44 -74t65.5 -27.5zM333 444v26q36 0 58 16t32 40t10 48h57q0 -34 -13.5 -64t-47.5 -48t-96 -18z" />
    <glyph glyph-name="Uhorn" unicode="&#x1af;" horiz-adv-x="687" 
d="M354 -10q-97 0 -153 33t-79 98.5t-23 163.5v255q0 45 -12.5 72.5t-57.5 27.5h-20v20h90q35 0 54.5 -9t27.5 -35t8 -76v-285q0 -105 39 -165t138 -60q77 0 121 27t63 83.5t19 144.5v375h40v-375q0 -98 -21 -163.5t-76 -98.5t-158 -33zM576 634v26q36 0 58 16t32 40t10 48
h57q0 -34 -13.5 -64t-47.5 -48t-96 -18z" />
    <glyph glyph-name="uhorn" unicode="&#x1b0;" horiz-adv-x="535" 
d="M243 -10q-42 0 -81 15t-64 54t-25 111v180q0 45 -12.5 72.5t-57.5 27.5h-10v20h80q35 0 54.5 -9t27.5 -35t8 -76v-180q0 -50 16 -79.5t41.5 -42.5t52.5 -13q30 0 55.5 16t44.5 37v382h90v-470h-50l-35 40h-5q-19 -19 -52 -34.5t-78 -15.5zM442 444v26q36 0 58 16t32 40
t10 48h57q0 -34 -13.5 -64t-47.5 -48t-96 -18z" />
    <glyph glyph-name="uni02BC" unicode="&#x2bc;" horiz-adv-x="325" 
d="M115 515l-10 15q38 26 59 58t21 77l-30 -10q-23 0 -39 16t-16 39q0 26 17 43t43 17q30 0 47.5 -18t17.5 -52q0 -64 -28.5 -109.5t-81.5 -75.5z" />
    <glyph glyph-name="circumflex" unicode="&#x2c6;" horiz-adv-x="310" 
d="M20 660l80 115h110l80 -115h-50l-85 80l-85 -80h-50z" />
    <glyph glyph-name="caron" unicode="&#x2c7;" horiz-adv-x="270" 
d="M80 520l-80 115h50l85 -80l85 80h50l-80 -115h-110z" />
    <glyph glyph-name="breve" unicode="&#x2d8;" horiz-adv-x="260" 
d="M130 521q-49 0 -80 23t-50 57l20 15q19 -19 43.5 -29.5t66.5 -10.5t66.5 10.5t43.5 29.5l20 -15q-19 -34 -50 -57t-80 -23z" />
    <glyph glyph-name="ring" unicode="&#x2da;" horiz-adv-x="170" 
d="M85 530q-34 0 -59.5 25.5t-25.5 59.5t25.5 59.5t59.5 25.5t59.5 -25.5t25.5 -59.5t-25.5 -59.5t-59.5 -25.5zM85 565q19 0 32 13.5t13 36.5t-13 36.5t-32 13.5t-32 -13.5t-13 -36.5t13 -36.5t32 -13.5z" />
    <glyph glyph-name="tilde" unicode="&#x2dc;" horiz-adv-x="265" 
d="M20 680q0 53 15 74t45 21q22 0 38 -10l32 -20t35 -10q11 0 20.5 14.5t9.5 25.5h30q0 -53 -15 -74t-45 -21q-21 0 -37 10l-32 20t-36 10q-11 0 -20.5 -14.5t-9.5 -25.5h-30z" />
    <glyph glyph-name="gravecomb" unicode="&#x300;" horiz-adv-x="0" 
d="M195 525l-95 130h95l40 -130h-40z" />
    <glyph glyph-name="acutecomb" unicode="&#x301;" horiz-adv-x="0" 
d="M100 525l40 130h95l-95 -130h-40z" />
    <glyph glyph-name="uni0302" unicode="&#x302;" horiz-adv-x="0" 
d="M100 530l80 115h110l80 -115h-50l-85 80l-85 -80h-50z" />
    <glyph glyph-name="tildecomb" unicode="&#x303;" horiz-adv-x="0" 
d="M100 566q0 53 15 74t45 21q22 0 38 -10l32 -20t35 -10q11 0 20.5 14.5t9.5 25.5h30q0 -53 -15 -74t-45 -21q-21 0 -37 10l-32 20t-36 10q-11 0 -20.5 -14.5t-9.5 -25.5h-30z" />
    <glyph glyph-name="uni0304" unicode="&#x304;" horiz-adv-x="0" 
d="M100 560v60h255v-60h-255z" />
    <glyph glyph-name="uni0306" unicode="&#x306;" horiz-adv-x="0" 
d="M230 521q-49 0 -80 23t-50 57l20 15q19 -19 43.5 -29.5t66.5 -10.5t66.5 10.5t43.5 29.5l20 -15q-19 -34 -50 -57t-80 -23z" />
    <glyph glyph-name="uni0308" unicode="&#x308;" horiz-adv-x="0" 
d="M315 535q-19 0 -32 13t-13 32t13 32t32 13t32 -13t13 -32t-13 -32t-32 -13zM145 535q-19 0 -32 13t-13 32t13 32t32 13t32 -13t13 -32t-13 -32t-32 -13z" />
    <glyph glyph-name="hookabovecomb" unicode="&#x309;" horiz-adv-x="0" 
d="M284 521q1 26 9.5 43t17 30.5t8.5 26.5q0 30 -33 30q-19 0 -31 -10.5t-17 -39.5l-42 1q0 40 24.5 63t65.5 23q29 0 56.5 -13.5t27.5 -43.5q0 -21 -13 -35.5t-26.5 -30.5t-15.5 -44h-31z" />
    <glyph glyph-name="uni030A" unicode="&#x30a;" horiz-adv-x="0" 
d="M185 530q-34 0 -59.5 25.5t-25.5 59.5t25.5 59.5t59.5 25.5t59.5 -25.5t25.5 -59.5t-25.5 -59.5t-59.5 -25.5zM185 565q19 0 32 13.5t13 36.5t-13 36.5t-32 13.5t-32 -13.5t-13 -36.5t13 -36.5t32 -13.5z" />
    <glyph glyph-name="uni030B" unicode="&#x30b;" horiz-adv-x="0" 
d="M200 525l40 130h65l-75 -130h-30zM100 525l40 130h65l-75 -130h-30z" />
    <glyph glyph-name="uni030C" unicode="&#x30c;" horiz-adv-x="0" 
d="M180 520l-80 115h50l85 -80l85 80h50l-80 -115h-110z" />
    <glyph glyph-name="uni031B" unicode="&#x31b;" horiz-adv-x="0" 
d="M50 444v26q36 0 58 16t32 40t10 48h57q0 -34 -13.5 -64t-47.5 -48t-96 -18z" />
    <glyph glyph-name="dotbelowcomb" unicode="&#x323;" horiz-adv-x="0" 
d="M110 -157q-18 0 -31.5 13.5t-13.5 32.5q0 18 13.5 31t31.5 13q19 0 31.5 -13t12.5 -31q0 -19 -13 -32.5t-31 -13.5z" />
    <glyph glyph-name="uni0326" unicode="&#x326;" horiz-adv-x="0" 
d="M115 -325l-10 15q38 26 59 58t21 77l-30 -10q-23 0 -39 16t-16 39q0 26 17 43t43 17q30 0 47.5 -18t17.5 -52q0 -64 -28.5 -109.5t-81.5 -75.5z" />
    <glyph glyph-name="uni0327" unicode="&#x327;" horiz-adv-x="0" 
d="M100 -196v41h50q40 0 40 32q0 33 -40 33h-45v90h45v-50h10q34 0 57 -18.5t23 -54.5q0 -35 -23 -54t-57 -19h-60z" />
    <glyph glyph-name="uni0335" unicode="&#x335;" horiz-adv-x="0" 
d="M100 225v40h280v-40h-280z" />
    <glyph glyph-name="uni0400" unicode="&#x400;" horiz-adv-x="590" 
d="M106 0v540q0 45 -12.5 72.5t-57.5 27.5h-20v20h426q35 0 53 -11.5t25 -30t7 -38.5v-75h-20q0 60 -32.5 87.5t-92.5 27.5h-186v-260h270v-40h-270v-280h175q68 0 107.5 25t62.5 85l20 -5l-35 -95q-8 -23 -26.5 -36.5t-48.5 -13.5h-345zM285 705l-95 130h95l40 -130h-40z
" />
    <glyph glyph-name="uni0401" unicode="&#x401;" horiz-adv-x="590" 
d="M106 0v540q0 45 -12.5 72.5t-57.5 27.5h-20v20h426q35 0 53 -11.5t25 -30t7 -38.5v-75h-20q0 60 -32.5 87.5t-92.5 27.5h-186v-260h270v-40h-270v-280h175q68 0 107.5 25t62.5 85l20 -5l-35 -95q-8 -23 -26.5 -36.5t-48.5 -13.5h-345zM375 730q-23 0 -36.5 13.5
t-13.5 36.5t13.5 36.5t36.5 13.5t36.5 -13.5t13.5 -36.5t-13.5 -36.5t-36.5 -13.5zM205 730q-23 0 -36.5 13.5t-13.5 36.5t13.5 36.5t36.5 13.5t36.5 -13.5t13.5 -36.5t-13.5 -36.5t-36.5 -13.5z" />
    <glyph glyph-name="uni0402" unicode="&#x402;" horiz-adv-x="674" 
d="M454 -40v20q95 0 95 220q0 75 -19.5 115t-51 55t-69.5 15t-77.5 -12.5t-62.5 -27.5v-345h-90v620h-13q-60 0 -92.5 -27.5t-32.5 -87.5h-20v75q0 20 7 38.5t25.5 30t52.5 11.5h445v-40h-282v-230q23 15 70 27.5t100 12.5q39 0 75 -9t64 -33t44.5 -69.5t16.5 -118.5
q0 -88 -16 -140.5t-56 -76t-113 -23.5z" />
    <glyph glyph-name="uni0403" unicode="&#x403;" horiz-adv-x="537" 
d="M236 700l70 115h85l-105 -115h-50zM106 0v540q0 45 -12.5 72.5t-57.5 27.5h-20v20h415q35 0 53 -11.5t25 -30t7 -38.5v-75h-20q0 60 -32.5 87.5t-92.5 27.5h-175v-620h-90z" />
    <glyph glyph-name="uni0404" unicode="&#x404;" horiz-adv-x="665" 
d="M354 -20q-95 0 -164.5 45.5t-107.5 123t-38 171.5q0 75 24 140.5t67 114.5t99 77t120 28q83 0 143 -23.5t87 -56.5q19 -23 22 -64t3 -86h-20q-19 98 -70.5 144t-134.5 46q-62 0 -114.5 -27.5t-86 -91t-39.5 -171.5h331v-40h-331q2 -54 16.5 -106t43.5 -93.5t73.5 -66
t106.5 -24.5q75 0 129 36t96 104l20 -15q-48 -94 -117 -129.5t-158 -35.5z" />
    <glyph glyph-name="uni0405" unicode="&#x405;" horiz-adv-x="533" 
d="M282 -17q-40 0 -80.5 8.5t-74 24.5t-53.5 38.5t-20 50.5v107h18q17 -101 66.5 -145t134.5 -44q34 0 64 11.5t48.5 34.5t18.5 56q0 44 -27.5 75t-82.5 63l-123 73q-64 38 -90.5 77t-26.5 95q0 77 53.5 123.5t140.5 46.5q37 0 75 -8t70 -23.5t51.5 -37.5t19.5 -51v-107h-18
q-17 101 -65 144t-133 43q-29 0 -56 -12.5t-43.5 -35t-16.5 -53.5q0 -43 28 -71t83 -60l123 -73q64 -38 94 -73.5t30 -91.5q0 -84 -56 -134.5t-152 -50.5z" />
    <glyph glyph-name="uni0406" unicode="&#x406;" horiz-adv-x="285" 
d="M179 0q-35 0 -54.5 9t-27.5 35t-8 76v540h90v-540q0 -45 12.5 -72.5t57.5 -27.5h20v-20h-90z" />
    <glyph glyph-name="uni0407" unicode="&#x407;" horiz-adv-x="285" 
d="M57 715q-23 0 -36.5 13.5t-13.5 36.5t13.5 36.5t36.5 13.5t36.5 -13.5t13.5 -36.5t-13.5 -36.5t-36.5 -13.5zM211 715q-23 0 -36.5 13.5t-13.5 36.5t13.5 36.5t36.5 13.5t36.5 -13.5t13.5 -36.5t-13.5 -36.5t-36.5 -13.5zM179 0q-35 0 -54.5 9t-27.5 35t-8 76v540h90
v-540q0 -45 12.5 -72.5t57.5 -27.5h20v-20h-90z" />
    <glyph glyph-name="uni0408" unicode="&#x408;" horiz-adv-x="261" 
d="M-9 -137v20q49 0 72 52t23 143v582h90v-582q0 -75 -16 -122.5t-56 -70t-113 -22.5z" />
    <glyph glyph-name="uni0409" unicode="&#x409;" horiz-adv-x="964" 
d="M44 -10q-11 0 -25 2.5t-25 6.5v25q26 1 50.5 13.5t45.5 44t36.5 89t24 148t8.5 221.5q0 45 -12.5 72.5t-57.5 27.5h-10v20h485v-280h110q44 0 90 -7.5t86 -27.5t64.5 -57.5t24.5 -97.5t-24.5 -97.5t-64.5 -57.5t-86 -27.5t-90 -7.5h-200v620h-240v-80q0 -136 -10 -232
t-28 -158t-42 -97t-52 -49t-58 -14zM659 35q84 0 132 38t48 117t-48 117t-132 38q-23 0 -47.5 -3.5t-47.5 -11.5v-280q23 -8 47.5 -11.5t47.5 -3.5z" />
    <glyph glyph-name="uni040A" unicode="&#x40a;" horiz-adv-x="974" 
d="M106 0v540q0 45 -12.5 72.5t-57.5 27.5h-20v20h90q35 0 54.5 -9t27.5 -35t8 -76v-180h290v300h90v-300h110q44 0 90 -7.5t86 -26.5t64.5 -54.5t24.5 -91.5t-24.5 -91.5t-64.5 -54.5t-86 -26.5t-90 -7.5h-200v320h-290v-320h-90zM671 35q83 0 131.5 36.5t48.5 108.5
t-48.5 108.5t-131.5 36.5q-23 0 -47.5 -3.5t-47.5 -11.5v-260q23 -8 47.5 -11.5t47.5 -3.5z" />
    <glyph glyph-name="uni040B" unicode="&#x40b;" horiz-adv-x="690" 
d="M180 0v620h-14q-60 0 -92.5 -27.5t-32.5 -87.5h-20v75q0 20 7 38.5t25.5 30t52.5 11.5h445v-40h-281v-230q23 15 70 27.5t100 12.5t98.5 -15t73.5 -53.5t28 -111.5v-250h-90v250q0 50 -19.5 79.5t-51 42.5t-69.5 13t-77.5 -12.5t-62.5 -27.5v-345h-90z" />
    <glyph glyph-name="uni040C" unicode="&#x40c;" horiz-adv-x="677" 
d="M276 675l70 115h85l-105 -115h-50zM621 -10q-27 0 -59 9t-70 35t-86 76l-210 220v-330h-90v540q0 45 -12.5 72.5t-57.5 27.5h-20v20h90q35 0 54.5 -9t27.5 -35t8 -76v-195l210 210l49 49t52.5 40t68.5 16h50v-25q-41 0 -72.5 -14.5t-72.5 -55.5l-195 -195l230 -240
q43 -43 87 -74t83 -37v-19q-11 -4 -26.5 -7t-38.5 -3z" />
    <glyph glyph-name="uni040D" unicode="&#x40d;" horiz-adv-x="692" 
d="M106 0v540q0 45 -12.5 72.5t-57.5 27.5h-20v20h90q35 0 54.5 -9t27.5 -35t8 -76v-450l320 570h90v-660h-90v570l-320 -570h-90zM336 705l-95 130h95l40 -130h-40z" />
    <glyph glyph-name="uni040E" unicode="&#x40e;" horiz-adv-x="607" 
d="M132 -10v30q30 0 60 6.5t54 22.5t36 46l10 25l-185 410q-12 28 -26 52t-39 40t-70 18v20h120q32 0 54.5 -16t38 -41t27.5 -53l135 -300l180 410h60l-246 -565q-21 -49 -60 -77t-99 -28h-50zM316 710q-49 0 -80 24t-50 66l20 15q15 -19 41.5 -32t68.5 -13t68.5 13t41.5 32
l20 -15q-19 -42 -50 -66t-80 -24z" />
    <glyph glyph-name="uni040F" unicode="&#x40f;" horiz-adv-x="672" 
d="M321 -175l-15 175h-200v540q0 45 -12.5 72.5t-57.5 27.5h-20v20h90q35 0 54.5 -9t27.5 -35t8 -76v-500h300v620h90v-660h-200l-15 -175h-50z" />
    <glyph glyph-name="uni0410" unicode="&#x410;" horiz-adv-x="635" 
d="M622 -5q-22 0 -54 8.5t-63 36t-53 85.5l-25 65h-280l-80 -190h-45l280 660h30l220 -535q24 -56 46 -78.5t64 -26.5v-20q-18 -5 -40 -5zM162 230h245l-120 290z" />
    <glyph glyph-name="uni0411" unicode="&#x411;" horiz-adv-x="608" 
d="M106 0v540q0 45 -12.5 72.5t-57.5 27.5h-20v20h421q35 0 53 -11.5t25 -30t7 -38.5v-75h-20q0 60 -32.5 87.5t-92.5 27.5h-181v-240h110q44 0 90 -7.5t86 -27.5t64.5 -57.5t24.5 -97.5t-24.5 -97.5t-64.5 -57.5t-86 -27.5t-90 -7.5h-200zM291 35q83 0 131.5 38t48.5 117
t-48.5 117t-131.5 38q-47 0 -95 -14v-282q48 -14 95 -14z" />
    <glyph glyph-name="uni0412" unicode="&#x412;" horiz-adv-x="622" 
d="M106 0v540q0 45 -12.5 72.5t-57.5 27.5h-20v20h260q39 0 85.5 -6t88.5 -23.5t69 -52.5t27 -93q0 -45 -31 -83.5t-99 -61.5q65 -10 101 -32.5t50 -54.5t14 -73q0 -56 -25 -91.5t-65.5 -54.5t-89 -26.5t-95.5 -7.5h-200zM196 355h95q40 0 76.5 15t60 45t23.5 75
q0 48 -28.5 78t-70 43.5t-81.5 13.5q-19 0 -39.5 -3t-35.5 -7v-260zM291 35q91 0 140.5 36t49.5 104t-48 104t-142 36h-95v-266q48 -14 95 -14z" />
    <glyph glyph-name="uni0413" unicode="&#x413;" horiz-adv-x="537" 
d="M106 0v540q0 45 -12.5 72.5t-57.5 27.5h-20v20h415q35 0 53 -11.5t25 -30t7 -38.5v-75h-20q0 60 -32.5 87.5t-92.5 27.5h-175v-620h-90z" />
    <glyph glyph-name="uni0414" unicode="&#x414;" horiz-adv-x="687" 
d="M3 -180v185q0 15 10 25t25 10h40q49 106 67 231.5t18 268.5q0 45 -12.5 72.5t-57.5 27.5h-15v20h500v-620h55q15 0 25 -10t10 -25v-185h-45q-12 102 -42 141t-83 39h-325q-53 0 -83 -39t-42 -141h-45zM148 40h340v580h-260q0 -136 -7.5 -241t-25 -187.5t-47.5 -151.5z
" />
    <glyph glyph-name="uni0415" unicode="&#x415;" horiz-adv-x="590" 
d="M106 0v540q0 45 -12.5 72.5t-57.5 27.5h-20v20h426q35 0 53 -11.5t25 -30t7 -38.5v-75h-20q0 60 -32.5 87.5t-92.5 27.5h-186v-260h270v-40h-270v-280h175q68 0 107.5 25t62.5 85l20 -5l-35 -95q-8 -23 -26.5 -36.5t-48.5 -13.5h-345z" />
    <glyph glyph-name="uni0416" unicode="&#x416;" horiz-adv-x="949" 
d="M56 -10q-23 0 -38.5 3t-26.5 7v19q35 4 79.5 35.5t80.5 75.5l190 240l-155 195q-34 43 -67.5 56.5t-67.5 13.5v25h50q53 0 89.5 -31.5t70.5 -73.5l170 -210v315h87v-315l170 210q32 42 70.5 73.5t89.5 31.5h50v-25q-34 0 -67.5 -13.5t-67.5 -56.5l-155 -195l190 -240
q36 -44 81 -75.5t79 -35.5v-19q-11 -4 -26.5 -7t-38.5 -3q-22 0 -55 8.5t-71.5 34.5t-78.5 77l-170 220v-330h-87v330l-170 -220q-40 -51 -78.5 -77t-71 -34.5t-55.5 -8.5z" />
    <glyph glyph-name="uni0417" unicode="&#x417;" horiz-adv-x="570" 
d="M270 -20q-75 0 -135 27t-105 98l20 15q34 -45 83.5 -72.5t121.5 -27.5q79 0 127 38t48 107q0 72 -48 111t-142 39h-75v40h75q45 0 84 16.5t62.5 49t23.5 79.5q0 48 -22 79t-56 46t-72 15q-72 0 -121.5 -42.5t-68.5 -117.5h-20q0 45 3 76t22 54q18 22 49.5 37.5t69 24
t71.5 8.5q38 0 79.5 -6.5t78 -26t59.5 -56t23 -96.5q0 -49 -34 -90.5t-106 -64.5q94 -18 129.5 -62.5t35.5 -107.5q0 -58 -24.5 -95t-64 -58t-85 -29t-86.5 -8z" />
    <glyph glyph-name="uni0418" unicode="&#x418;" horiz-adv-x="692" 
d="M106 0v540q0 45 -12.5 72.5t-57.5 27.5h-20v20h90q35 0 54.5 -9t27.5 -35t8 -76v-450l320 570h90v-660h-90v570l-320 -570h-90z" />
    <glyph glyph-name="uni0419" unicode="&#x419;" horiz-adv-x="692" 
d="M106 0v540q0 45 -12.5 72.5t-57.5 27.5h-20v20h90q35 0 54.5 -9t27.5 -35t8 -76v-450l320 570h90v-660h-90v570l-320 -570h-90zM346 700q-49 0 -80 24t-50 66l20 15q15 -19 41.5 -32t68.5 -13t68.5 13t41.5 32l20 -15q-19 -42 -50 -66t-80 -24z" />
    <glyph glyph-name="uni041A" unicode="&#x41a;" horiz-adv-x="677" 
d="M621 -10q-27 0 -59 9t-70 35t-86 76l-210 220v-330h-90v540q0 45 -12.5 72.5t-57.5 27.5h-20v20h90q35 0 54.5 -9t27.5 -35t8 -76v-195l210 210l49 49t52.5 40t68.5 16h50v-25q-41 0 -72.5 -14.5t-72.5 -55.5l-195 -195l230 -240q41 -43 86.5 -74.5t83.5 -36.5v-19
q-11 -4 -26.5 -7t-38.5 -3z" />
    <glyph glyph-name="uni041B" unicode="&#x41b;" horiz-adv-x="660" 
d="M44 -10q-11 0 -25 2.5t-25 6.5v25q26 1 50.5 13.5t45.5 44t36.5 89t24 148t8.5 221.5q0 45 -12.5 72.5t-57.5 27.5h-10v20h495v-660h-90v620h-250v-80q0 -136 -10 -232t-28 -158t-42 -97t-52 -49t-58 -14z" />
    <glyph glyph-name="uni041C" unicode="&#x41c;" horiz-adv-x="855" 
d="M841 -45q-72 0 -112.5 22.5t-56.5 70t-16 122.5v385l-250 -555h-20l-260 565v-565h-40v660h95l240 -520l235 520h90v-490q0 -91 23 -143t72 -52v-20z" />
    <glyph glyph-name="uni041D" unicode="&#x41d;" horiz-adv-x="693" 
d="M106 0v540q0 45 -12.5 72.5t-57.5 27.5h-20v20h90q35 0 54.5 -9t27.5 -35t8 -76v-180h300v300h90v-540q0 -45 12.5 -72.5t57.5 -27.5h20v-20h-90q-35 0 -54.5 9t-27.5 35t-8 76v200h-300v-320h-90z" />
    <glyph glyph-name="uni041E" unicode="&#x41e;" horiz-adv-x="712" 
d="M356 -20q-95 0 -164.5 46.5t-107.5 126t-38 177.5t38 177.5t107.5 126t164.5 46.5t164.5 -46.5t107.5 -126t38 -177.5t-38 -177.5t-107.5 -126t-164.5 -46.5zM356 20q66 0 113 38t72 107.5t25 164.5t-25 164.5t-72 107.5t-113 38q-65 0 -112.5 -38t-72.5 -107.5
t-25 -164.5t25 -164.5t72.5 -107.5t112.5 -38z" />
    <glyph glyph-name="uni041F" unicode="&#x41f;" horiz-adv-x="672" 
d="M106 0v540q0 45 -12.5 72.5t-57.5 27.5h-20v20h570v-660h-90v620h-300v-620h-90z" />
    <glyph glyph-name="uni0420" unicode="&#x420;" horiz-adv-x="552" 
d="M106 0v540q0 45 -12.5 72.5t-57.5 27.5h-20v20h260q26 0 58.5 -3.5t66 -15t62 -33.5t46 -58t17.5 -90q0 -51 -17 -85.5t-44.5 -55.5t-57.5 -31.5t-57 -14t-44 -3.5h-110v-270h-90zM271 305q21 0 47 8t51 27t41 49.5t16 75.5t-16 75.5t-41 49.5t-51 27t-47 8
q-19 0 -39.5 -3t-35.5 -7v-300q15 -4 35.5 -7t39.5 -3z" />
    <glyph glyph-name="uni0421" unicode="&#x421;" horiz-adv-x="665" 
d="M354 -20q-95 0 -164.5 45.5t-107.5 123t-38 171.5q0 75 24 140.5t67 114.5t99 77t120 28q83 0 143 -23.5t87 -56.5q19 -23 22 -64t3 -86h-20q-19 98 -70.5 144t-134.5 46q-65 0 -120 -30t-87.5 -100t-32.5 -190q0 -56 13.5 -109.5t42.5 -96.5t74.5 -68.5t109.5 -25.5
q75 0 129 36t96 104l20 -15q-48 -94 -117 -129.5t-158 -35.5z" />
    <glyph glyph-name="uni0422" unicode="&#x422;" horiz-adv-x="583" 
d="M256 0v620h-90q-60 0 -92.5 -27.5t-32.5 -87.5h-20v75q0 20 7 38.5t25.5 30t52.5 11.5h465v-40h-225v-620h-90z" />
    <glyph glyph-name="uni0423" unicode="&#x423;" horiz-adv-x="607" 
d="M132 -10v30q30 0 60 6.5t54 22.5t36 46l10 25l-185 410q-12 28 -26 52t-39 40t-70 18v20h120q32 0 54.5 -16t38 -41t27.5 -53l135 -300l180 410h60l-246 -565q-21 -49 -60 -77t-99 -28h-50z" />
    <glyph glyph-name="uni0424" unicode="&#x424;" horiz-adv-x="780" 
d="M345 -30v65q-157 0 -233.5 76.5t-76.5 203.5q0 128 76.5 204t233.5 76v5q0 38 -16 54t-54 16h-20v20h90q52 0 71 -19t19 -71v-5q158 0 234 -76t76 -204q0 -127 -76 -203.5t-234 -76.5v-65h-90zM345 75v480q-80 0 -126 -32.5t-65 -87t-19 -120.5t19 -120.5t65 -87
t126 -32.5zM435 75q80 0 126 32.5t65 87t19 120.5t-19 120.5t-65 87t-126 32.5v-480z" />
    <glyph glyph-name="uni0425" unicode="&#x425;" horiz-adv-x="667" 
d="M41 0l250 325l-140 205q-17 25 -37 49.5t-49 41.5t-74 19v20h120q33 0 58 -17t45 -42.5t37 -50.5l100 -150l200 260h50l-225 -295l160 -235q17 -25 38.5 -49.5t48 -41t58.5 -19.5v-20h-105q-32 0 -57.5 17t-46 42.5t-36.5 50.5l-120 180l-225 -290h-50z" />
    <glyph glyph-name="uni0426" unicode="&#x426;" horiz-adv-x="695" 
d="M631 -180q-12 102 -42 141t-83 39h-400v540q0 45 -12.5 72.5t-57.5 27.5h-20v20h90q35 0 54.5 -9t27.5 -35t8 -76v-500h300v620h90v-620h55q15 0 25 -10t10 -25v-185h-45z" />
    <glyph glyph-name="uni0427" unicode="&#x427;" horiz-adv-x="640" 
d="M464 0v270q-25 -12 -65.5 -16t-69.5 -4q-51 0 -95 8t-78 29.5t-53 63.5t-19 109v80q0 45 -12.5 72.5t-57.5 27.5h-10v20h90q35 0 54.5 -9t27.5 -35t8 -76v-90q0 -65 16.5 -100t50 -47.5t83.5 -12.5q30 0 67 4.5t63 15.5v350h90v-660h-90z" />
    <glyph glyph-name="uni0428" unicode="&#x428;" horiz-adv-x="932" 
d="M106 0v540q0 45 -12.5 72.5t-57.5 27.5h-20v20h90q35 0 54.5 -9t27.5 -35t8 -76v-500h235v620h90v-620h235v620h90v-660h-740z" />
    <glyph glyph-name="uni0429" unicode="&#x429;" horiz-adv-x="955" 
d="M891 -180q-12 102 -42 141t-83 39h-660v540q0 45 -12.5 72.5t-57.5 27.5h-20v20h90q35 0 54.5 -9t27.5 -35t8 -76v-500h235v620h90v-620h235v620h90v-620h55q15 0 25 -10t10 -25v-185h-45z" />
    <glyph glyph-name="uni042A" unicode="&#x42a;" horiz-adv-x="704" 
d="M214 0v620h-30q-64 0 -92.5 -32t-32.5 -118h-30v155q0 15 10 25t25 10h240v-280h110q44 0 90 -7.5t86 -27.5t64.5 -57.5t24.5 -97.5t-24.5 -97.5t-64.5 -57.5t-86 -27.5t-90 -7.5h-200zM399 35q83 0 131.5 38t48.5 117t-48.5 117t-131.5 38q-47 0 -95 -14v-282
q48 -14 95 -14z" />
    <glyph glyph-name="uni042B" unicode="&#x42b;" horiz-adv-x="832" 
d="M106 0v540q0 45 -12.5 72.5t-57.5 27.5h-20v20h90q35 0 54.5 -9t27.5 -35t8 -76v-160h110q38 0 81 -7.5t81.5 -27.5t63 -57.5t24.5 -97.5t-24.5 -97.5t-63 -57.5t-81.5 -27.5t-81 -7.5h-200zM726 0q-35 0 -54.5 9t-27.5 35t-8 76v540h90v-540q0 -45 12.5 -72.5
t57.5 -27.5h20v-20h-90zM291 35q71 0 118 38t47 117t-47 117t-118 38q-47 0 -95 -14v-282q48 -14 95 -14z" />
    <glyph glyph-name="uni042C" unicode="&#x42c;" horiz-adv-x="596" 
d="M106 0v540q0 45 -12.5 72.5t-57.5 27.5h-20v20h90q35 0 54.5 -9t27.5 -35t8 -76v-160h110q44 0 90 -7.5t86 -27.5t64.5 -57.5t24.5 -97.5t-24.5 -97.5t-64.5 -57.5t-86 -27.5t-90 -7.5h-200zM291 35q83 0 131.5 38t48.5 117t-48.5 117t-131.5 38q-47 0 -95 -14v-282
q48 -14 95 -14z" />
    <glyph glyph-name="uni042D" unicode="&#x42d;" horiz-adv-x="665" 
d="M310 -20q-89 0 -158 35.5t-117 129.5l20 15q42 -68 96 -104t129 -36q62 0 106.5 24.5t73.5 66t43.5 93.5t16.5 106h-331v40h331q-5 108 -39 171.5t-86.5 91t-114.5 27.5q-83 0 -134.5 -46t-70.5 -144h-20q0 45 3 86t22 64q27 33 87 56.5t143 23.5q64 0 120 -28t99 -77
t67 -114.5t24 -140.5q0 -94 -38 -171.5t-107.5 -123t-164.5 -45.5z" />
    <glyph glyph-name="uni042E" unicode="&#x42e;" horiz-adv-x="873" 
d="M546 -20q-79 0 -141.5 42.5t-99 119t-39.5 178.5h-70v-320h-90v540q0 45 -12.5 72.5t-57.5 27.5h-20v20h90q35 0 54.5 -9t27.5 -35t8 -76v-180h71q7 98 44.5 169.5t98 111t136.5 39.5q80 0 143 -43.5t100 -122t37 -184.5q0 -105 -37 -184t-100 -122.5t-143 -43.5zM546 20
q50 0 91 36t65 105t24 169t-24 169t-65 105t-91 36t-91 -36t-65 -105t-24 -169t24 -169t65 -105t91 -36z" />
    <glyph glyph-name="uni042F" unicode="&#x42f;" horiz-adv-x="608" 
d="M74 -10q-15 0 -32 3.5t-28 7.5v19q38 4 64 25t46 55l105 180q-32 8 -66 27.5t-56.5 56t-22.5 96.5q0 54 17.5 90t46 58t62 33.5t66.5 15t58 3.5h250v-20h-10q-45 0 -57.5 -27.5t-12.5 -72.5v-540h-90v270h-97l-105 -190q-29 -53 -61.5 -71.5t-76.5 -18.5zM339 305
q19 0 39.5 3t35.5 7v300q-15 4 -35.5 7t-39.5 3q-21 0 -47 -8t-51 -27t-41 -49.5t-16 -75.5t16 -75.5t41 -49.5t51 -27t47 -8z" />
    <glyph glyph-name="uni0430" unicode="&#x430;" horiz-adv-x="481" 
d="M184 -10q-21 0 -45.5 6.5t-47.5 22.5t-37.5 43t-14.5 68q0 55 35.5 85t94 42.5t125.5 12.5h30q0 70 -14 106.5t-37.5 50t-53.5 13.5q-42 0 -70.5 -18t-39.5 -67h-45q0 26 3 48.5t22 41.5t62 27t88 8q34 0 65.5 -8t56 -29.5t39 -63t14.5 -109.5v-270h-50l-35 45h-5
q-15 -19 -49 -37t-91 -18zM229 35q37 0 58.5 18.5t36.5 41.5v135h-30q-75 0 -117.5 -27.5t-42.5 -72.5q0 -49 29 -72t66 -23z" />
    <glyph glyph-name="uni0431" unicode="&#x431;" horiz-adv-x="528" 
d="M270 -10q-60 0 -107.5 24.5t-75 77.5t-27.5 138v40q0 92 8 152t25 96t45 54.5t67 27.5l150 35q34 8 52.5 17t22.5 28h20v-65q0 -37 -30 -45l-175 -40q-43 -11 -72 -33t-45.5 -68t-22.5 -129h5q19 75 62 107.5t118 32.5q50 0 93.5 -24t70 -73.5t26.5 -127.5
q0 -77 -27.5 -127t-75 -74t-107.5 -24zM270 30q30 0 56 16t42.5 56.5t16.5 112.5q0 70 -16.5 110.5t-42.5 57.5t-56 17t-56 -17t-42.5 -57.5t-16.5 -110.5q0 -72 16.5 -112.5t42.5 -56.5t56 -16z" />
    <glyph glyph-name="uni0432" unicode="&#x432;" horiz-adv-x="501" 
d="M82 0v350q0 45 -12.5 72.5t-57.5 27.5h-10v20h245q50 0 93.5 -11t70 -37t26.5 -72q0 -42 -23.5 -68t-76.5 -37q57 -11 88.5 -40.5t31.5 -74.5q0 -50 -27.5 -78.5t-75 -40t-107.5 -11.5h-165zM172 265h55q53 0 84 21.5t31 63.5t-30 63.5t-75 21.5q-15 0 -34.5 -3t-30.5 -7
v-160zM237 35q60 0 92.5 23t32.5 72q0 95 -135 95h-55v-180q11 -4 30.5 -7t34.5 -3z" />
    <glyph glyph-name="uni0433" unicode="&#x433;" horiz-adv-x="435" 
d="M82 0v350q0 45 -12.5 72.5t-57.5 27.5h-10v20h330q45 0 60 -25t15 -55v-60h-20q0 49 -30 74.5t-75 25.5h-110v-430h-90z" />
    <glyph glyph-name="uni0434" unicode="&#x434;" horiz-adv-x="570" 
d="M16 -155v160q0 15 10 25t25 10h30q23 50 36 104.5t18.5 107.5t5.5 98t-12.5 72.5t-57.5 27.5v20h400v-430h40q15 0 25 -10t10 -25v-160h-40q-8 83 -32 119t-73 36h-240q-49 0 -73 -36t-32 -119h-40zM151 40h230v390h-175q0 -128 -12.5 -221.5t-42.5 -168.5z" />
    <glyph glyph-name="uni0435" unicode="&#x435;" horiz-adv-x="488" 
d="M255 -10q-70 0 -116.5 33t-70 89t-23.5 123q0 68 24 123.5t69 88.5t107 33q102 0 151 -57t49 -163l-2 -40h-303q0 -82 35.5 -136t99.5 -54q49 0 81.5 21t58.5 59l20 -15q-34 -57 -78.5 -81t-101.5 -24zM140 260h210q0 87 -26 133.5t-79 46.5q-30 0 -53.5 -23.5t-37.5 -64
t-14 -92.5z" />
    <glyph glyph-name="uni0436" unicode="&#x436;" horiz-adv-x="686" 
d="M58 -10q-15 0 -28.5 3t-21.5 7v19q64 10 115 81l105 145l-95 155q-14 23 -39.5 34t-55.5 11v25h25q49 0 80 -17t50 -48l105 -175v240h90v-240l105 175q19 31 50 48t80 17h25v-25q-30 0 -55.5 -11t-39.5 -34l-95 -155l105 -145q51 -71 115 -81v-19q-8 -4 -21.5 -7
t-28.5 -3q-38 0 -71.5 19t-63.5 61l-105 145v-215h-90v215l-105 -145q-30 -42 -63.5 -61t-71.5 -19z" />
    <glyph glyph-name="uni0437" unicode="&#x437;" horiz-adv-x="455" 
d="M211 -10q-67 0 -108 23t-67 57l20 15q19 -19 49.5 -37t85.5 -18q60 0 92.5 23t32.5 72q0 95 -140 95h-45v40h45q60 0 92.5 22.5t32.5 67.5t-29 67.5t-71 22.5q-54 0 -90.5 -28t-39.5 -77h-20q0 42 3 66.5t22 43.5t55 27t85 8q45 0 86 -12t67.5 -40t26.5 -78
q0 -45 -27.5 -72t-72.5 -38q54 -11 84.5 -40.5t30.5 -74.5q0 -52 -27.5 -81.5t-72.5 -41.5t-100 -12z" />
    <glyph glyph-name="uni0438" unicode="&#x438;" horiz-adv-x="548" 
d="M86 0v350q0 45 -12.5 72.5t-57.5 27.5h-15v20h85q35 0 54.5 -9t27.5 -35t8 -76v-260l210 380h90v-470h-90v380l-210 -380h-90z" />
    <glyph glyph-name="uni0439" unicode="&#x439;" horiz-adv-x="548" 
d="M86 0v350q0 45 -12.5 72.5t-57.5 27.5h-15v20h85q35 0 54.5 -9t27.5 -35t8 -76v-260l210 380h90v-470h-90v380l-210 -380h-90zM281 521q-49 0 -80 23t-50 57l20 15q19 -19 43.5 -29.5t66.5 -10.5t66.5 10.5t43.5 29.5l20 -15q-19 -34 -50 -57t-80 -23z" />
    <glyph glyph-name="uni043A" unicode="&#x43a;" horiz-adv-x="497" 
d="M439 -10q-38 0 -74.5 19t-70.5 61l-115 145v-215h-90v350q0 45 -12.5 72.5t-57.5 27.5h-20v20h90q35 0 54.5 -9t27.5 -35t8 -76v-120l125 175q22 30 51.5 47.5t78.5 17.5h25v-25q-23 0 -47 -9.5t-43 -35.5l-110 -155l115 -145q26 -34 53.5 -55t61.5 -26v-19
q-8 -4 -21.5 -7t-28.5 -3z" />
    <glyph glyph-name="uni043B" unicode="&#x43b;" horiz-adv-x="546" 
d="M58 -10q-8 0 -24.5 3t-24.5 6v25q24 0 47.5 12.5t42 47t29.5 99t11 167.5q0 45 -12.5 72.5t-58.5 27.5v20h406v-470h-90v430h-176v-80q0 -112 -12.5 -183t-34 -109.5t-48.5 -53t-55 -14.5z" />
    <glyph glyph-name="uni043C" unicode="&#x43c;" horiz-adv-x="649" 
d="M632 -20q-94 0 -129.5 46t-35.5 124v215l-165 -365h-20l-170 375v-375h-40v470h95l150 -330l150 330h90v-320q0 -37 9.5 -71.5t26.5 -56.5t39 -22v-20z" />
    <glyph glyph-name="uni043D" unicode="&#x43d;" horiz-adv-x="553" 
d="M86 0v350q0 45 -12.5 72.5t-57.5 27.5h-15v20h85q35 0 54.5 -9t27.5 -35t8 -76v-95h200v215h90v-350q0 -45 12.5 -72.5t57.5 -27.5h15v-20h-85q-35 0 -54.5 9t-27.5 35t-8 76v95h-200v-215h-90z" />
    <glyph glyph-name="uni043E" unicode="&#x43e;" 
d="M265 -10q-70 0 -119 33t-75 89t-26 123q0 68 26 123.5t75 88.5t119 33t119 -33t75 -88.5t26 -123.5q0 -67 -26 -123t-75 -89t-119 -33zM265 30q38 0 66 27.5t43.5 74t15.5 103.5q0 58 -15.5 104t-43.5 73.5t-66 27.5q-37 0 -65.5 -27.5t-44 -73.5t-15.5 -104
q0 -57 15.5 -103.5t44 -74t65.5 -27.5z" />
    <glyph glyph-name="uni043F" unicode="&#x43f;" horiz-adv-x="534" 
d="M82 0v350q0 45 -12.5 72.5t-57.5 27.5h-10v20h460v-470h-90v430h-200v-430h-90z" />
    <glyph glyph-name="uni0440" unicode="&#x440;" horiz-adv-x="538" 
d="M87 -190v540q0 45 -12.5 72.5t-57.5 27.5h-20v20h90q38 0 57.5 -11t27.5 -34h5q15 19 47 37t88 18q60 0 100 -33t60 -88.5t20 -123.5q0 -67 -20.5 -123t-62.5 -89t-107 -33q-42 0 -72 9.5t-53 20.5v-210h-90zM272 30q45 0 72.5 27.5t40 74t12.5 103.5q0 58 -12 104
t-37.5 73.5t-65.5 27.5q-41 0 -66 -18.5t-39 -41.5v-320q23 -11 47.5 -20.5t47.5 -9.5z" />
    <glyph glyph-name="uni0441" unicode="&#x441;" horiz-adv-x="483" 
d="M265 -10q-74 0 -123 33t-73 89t-24 123q0 68 24 123.5t73 88.5t123 33q53 0 89.5 -8t55.5 -27t22 -46.5t3 -83.5h-20q-4 64 -40.5 94.5t-89.5 30.5q-50 0 -82 -27.5t-47.5 -73.5t-15.5 -104q0 -57 15.5 -103.5t47.5 -74t82 -27.5q53 0 86 21t59 59l20 -15
q-34 -57 -79.5 -81t-105.5 -24z" />
    <glyph glyph-name="uni0442" unicode="&#x442;" horiz-adv-x="474" 
d="M204 0v430h-50q-45 0 -75 -25.5t-30 -74.5h-20v60q0 30 15 55t60 25h355v-40h-165v-430h-90z" />
    <glyph glyph-name="uni0443" unicode="&#x443;" horiz-adv-x="514" 
d="M105 -200v30q46 0 78.5 20.5t56.5 84.5l20 55l-160 390q-15 38 -43.5 57t-66.5 23v20h85q45 0 74.5 -21t45.5 -59l114 -277l126 347h50l-195 -535q-20 -55 -42.5 -84t-50 -40t-62.5 -11h-30z" />
    <glyph glyph-name="uni0444" unicode="&#x444;" horiz-adv-x="662" 
d="M286 -190v180q-80 2 -133.5 35t-80 88t-26.5 122q0 68 26.5 122.5t80 87.5t133.5 35v60q0 45 -12.5 72.5t-57.5 27.5h-15v20h85q35 0 54.5 -9t27.5 -35t8 -76v-60q80 -2 133.5 -35t80 -87.5t26.5 -122.5q0 -67 -26.5 -122t-80 -88t-133.5 -35v-180h-90zM287 25v420
q-76 -8 -111 -63.5t-35 -146.5t35 -146.5t111 -63.5zM375 25q76 8 111 63.5t35 146.5t-35 146.5t-111 63.5v-420z" />
    <glyph glyph-name="uni0445" unicode="&#x445;" horiz-adv-x="488" 
d="M38 0l160 225l-87 145q-42 73 -103 80v20h85q34 0 62.5 -21.5t50.5 -58.5l62 -105l130 185h50l-160 -225l87 -145q41 -72 108 -80v-20h-90q-34 0 -62.5 21.5t-50.5 58.5l-62 105l-130 -185h-50z" />
    <glyph glyph-name="uni0446" unicode="&#x446;" horiz-adv-x="565" 
d="M501 -155q-8 83 -32 119t-73 36h-310v350q0 45 -12.5 72.5t-57.5 27.5h-15v20h85q35 0 54.5 -9t27.5 -35t8 -76v-310h200v430h90v-430h40q15 0 25 -10t10 -25v-160h-40z" />
    <glyph glyph-name="uni0447" unicode="&#x447;" horiz-adv-x="533" 
d="M371 0v193q-15 -6 -40.5 -12t-59.5 -6q-42 0 -83.5 11t-69 42.5t-27.5 91.5v30q0 45 -12.5 72.5t-57.5 27.5h-10v20h85q35 0 54.5 -9t27.5 -35t8 -76v-40q0 -52 28 -73.5t62 -21.5q30 0 55 6t40 12v237h90v-470h-90z" />
    <glyph glyph-name="uni0448" unicode="&#x448;" horiz-adv-x="738" 
d="M86 0v350q0 45 -12.5 72.5t-57.5 27.5h-15v20h85q35 0 54.5 -9t27.5 -35t8 -76v-310h155v430h90v-430h155v430h90v-470h-580z" />
    <glyph glyph-name="uni0449" unicode="&#x449;" horiz-adv-x="765" 
d="M701 -155q-8 83 -32 119t-73 36h-510v350q0 45 -12.5 72.5t-57.5 27.5h-15v20h85q35 0 54.5 -9t27.5 -35t8 -76v-310h155v430h90v-430h155v430h90v-430h40q15 0 25 -10t10 -25v-160h-40z" />
    <glyph glyph-name="uni044A" unicode="&#x44a;" horiz-adv-x="584" 
d="M185 0v430h-10q-53 0 -82 -31t-33 -99h-25v135q0 15 10 25t25 10h205v-190h75q58 0 104 -12.5t73.5 -42.5t27.5 -85q0 -54 -27.5 -84.5t-73.5 -43t-104 -12.5h-165zM340 35q57 0 88.5 24t31.5 81t-31.5 81t-88.5 24q-15 0 -34.5 -3t-30.5 -7v-190q11 -4 30.5 -7t34.5 -3z
" />
    <glyph glyph-name="uni044B" unicode="&#x44b;" horiz-adv-x="688" 
d="M86 0v350q0 45 -12.5 72.5t-57.5 27.5h-15v20h85q35 0 54.5 -9t27.5 -35t8 -76v-70h75q53 0 97 -12.5t71 -42.5t27 -85q0 -54 -27 -84.5t-71 -43t-97 -12.5h-165zM601 0q-35 0 -54.5 9t-27.5 35t-8 76v350h90v-350q0 -45 12.5 -72.5t57.5 -27.5h15v-20h-85zM241 35
q49 0 79.5 24t30.5 81t-30.5 81t-79.5 24q-15 0 -34.5 -3t-30.5 -7v-190q11 -4 30.5 -7t34.5 -3z" />
    <glyph glyph-name="uni044C" unicode="&#x44c;" horiz-adv-x="481" 
d="M86 0v350q0 45 -12.5 72.5t-57.5 27.5h-15v20h85q35 0 54.5 -9t27.5 -35t8 -76v-70h75q58 0 104 -12.5t73.5 -42.5t27.5 -85q0 -54 -27.5 -84.5t-73.5 -43t-104 -12.5h-165zM241 35q57 0 88.5 24t31.5 81t-31.5 81t-88.5 24q-15 0 -34.5 -3t-30.5 -7v-190q11 -4 30.5 -7
t34.5 -3z" />
    <glyph glyph-name="uni044D" unicode="&#x44d;" horiz-adv-x="489" 
d="M224 -10q-60 0 -105.5 24t-79.5 81l20 15q26 -38 59 -59t86 -21q69 0 105 51t40 129h-210v40h210q-2 53 -18.5 96t-47.5 68.5t-79 25.5q-53 0 -89.5 -30.5t-40.5 -94.5h-20q0 56 3 83.5t22 46.5t55.5 27t89.5 8q75 0 123.5 -33t72.5 -88.5t24 -123.5q0 -67 -24 -123
t-72.5 -89t-123.5 -33z" />
    <glyph glyph-name="uni044E" unicode="&#x44e;" horiz-adv-x="691" 
d="M441 -10q-59 0 -104.5 28t-71.5 78.5t-29 118.5h-60v-215h-90v350q0 45 -12.5 72.5t-57.5 27.5h-15v20h85q35 0 54.5 -9t27.5 -35t8 -76v-95h60q3 68 29 118.5t71.5 78.5t104.5 28q63 0 109 -31t71 -86t25 -128q0 -72 -25 -127.5t-71 -86.5t-109 -31zM441 30
q49 0 79.5 51.5t30.5 153.5t-30.5 153.5t-79.5 51.5t-79.5 -51.5t-30.5 -153.5t30.5 -153.5t79.5 -51.5z" />
    <glyph glyph-name="uni044F" unicode="&#x44f;" horiz-adv-x="510" 
d="M72 -10q-15 0 -29.5 3t-25.5 7v20q35 4 57 29t38 51l60 105q-45 8 -80 41t-35 89q0 52 27.5 81.5t73 41.5t99.5 12h235v-20q-45 0 -57.5 -27.5t-12.5 -72.5v-350h-90v200h-78l-60 -120q-23 -45 -51 -67.5t-71 -22.5zM267 235q15 0 34.5 3t30.5 7v180q-11 4 -30.5 7
t-34.5 3q-53 0 -84 -23.5t-31 -76.5t31 -76.5t84 -23.5z" />
    <glyph glyph-name="uni0450" unicode="&#x450;" horiz-adv-x="488" 
d="M255 -10q-70 0 -116.5 33t-70 89t-23.5 123q0 68 24 123.5t69 88.5t107 33q102 0 151 -57t49 -163l-2 -40h-303q0 -82 35.5 -136t99.5 -54q49 0 81.5 21t58.5 59l20 -15q-34 -57 -78.5 -81t-101.5 -24zM140 260h210q0 87 -26 133.5t-79 46.5q-30 0 -53.5 -23.5t-37.5 -64
t-14 -92.5zM234 515l-95 130h95l40 -130h-40z" />
    <glyph glyph-name="uni0451" unicode="&#x451;" horiz-adv-x="488" 
d="M255 -10q-70 0 -116.5 33t-70 89t-23.5 123q0 68 24 123.5t69 88.5t107 33q102 0 151 -57t49 -163l-2 -40h-303q0 -82 35.5 -136t99.5 -54q49 0 81.5 21t58.5 59l20 -15q-34 -57 -78.5 -81t-101.5 -24zM140 260h210q0 87 -26 133.5t-79 46.5q-30 0 -53.5 -23.5t-37.5 -64
t-14 -92.5zM329 525q-19 0 -32 13t-13 32t13 32t32 13t32 -13t13 -32t-13 -32t-32 -13zM159 525q-19 0 -32 13t-13 32t13 32t32 13t32 -13t13 -32t-13 -32t-32 -13z" />
    <glyph glyph-name="uni0452" unicode="&#x452;" 
d="M277 -140v20q49 0 72 52t23 143v175q0 50 -16 79.5t-41 42.5t-53 13q-30 0 -55.5 -16t-44.5 -37v-332h-90v500h-70v40h70v60l50 60h40v-120h170v-40h-170v-120q19 19 52 34.5t78 15.5q43 0 81.5 -15t63.5 -53.5t25 -111.5v-175q0 -75 -16 -122.5t-56 -70t-113 -22.5z" />
    <glyph glyph-name="uni0453" unicode="&#x453;" horiz-adv-x="435" 
d="M82 0v350q0 45 -12.5 72.5t-57.5 27.5h-10v20h330q45 0 60 -25t15 -55v-60h-20q0 49 -30 74.5t-75 25.5h-110v-430h-90zM220 515l40 130h95l-95 -130h-40z" />
    <glyph glyph-name="uni0454" unicode="&#x454;" horiz-adv-x="489" 
d="M265 -10q-74 0 -123 33t-73 89t-24 123q0 68 24 123.5t73 88.5t123 33q53 0 89.5 -8t55.5 -27t22 -46.5t3 -83.5h-20q-4 64 -40.5 94.5t-89.5 30.5q-47 0 -78.5 -25.5t-47.5 -68.5t-19 -96h210v-40h-210q4 -78 40 -129t105 -51q53 0 86 21t59 59l20 -15
q-34 -57 -79.5 -81t-105.5 -24z" />
    <glyph glyph-name="uni0455" unicode="&#x455;" horiz-adv-x="446" 
d="M229 -10q-60 0 -98 10.5t-57 29.5t-22 43t-3 62h20q8 -49 42 -77t98 -28q57 0 83.5 20t26.5 50t-22.5 50.5t-67.5 39.5l-60 25q-57 23 -88.5 54.5t-31.5 80.5q0 63 47 96.5t118 33.5q57 0 94 -10.5t56 -29.5t22 -43t3 -62h-20q-8 49 -41.5 77t-93.5 28q-49 0 -74.5 -20
t-25.5 -50q0 -26 21 -47.5t59 -37.5l60 -25q64 -26 97 -57t33 -83q0 -63 -50 -96.5t-125 -33.5z" />
    <glyph glyph-name="uni0456" unicode="&#x456;" horiz-adv-x="246" 
d="M125 530q-23 0 -39.5 19t-16.5 45q0 21 12.5 33t33.5 12q23 0 39.5 -19t16.5 -45q0 -21 -12.5 -33t-33.5 -12zM87 0v350q0 45 -12.5 72.5t-57.5 27.5h-20v20h90q35 0 54.5 -9t27.5 -35t8 -76v-350h-90z" />
    <glyph glyph-name="uni0457" unicode="&#x457;" horiz-adv-x="246" 
d="M87 0v350q0 45 -12.5 72.5t-57.5 27.5h-20v20h90q35 0 54.5 -9t27.5 -35t8 -76v-350h-90zM200 535q-19 0 -32 13t-13 32t13 32t32 13t32 -13t13 -32t-13 -32t-32 -13zM30 535q-19 0 -32 13t-13 32t13 32t32 13t32 -13t13 -32t-13 -32t-32 -13z" />
    <glyph glyph-name="uni0458" unicode="&#x458;" horiz-adv-x="246" 
d="M125 530q-23 0 -39.5 19t-16.5 45q0 21 12.5 33t33.5 12q23 0 39.5 -19t16.5 -45q0 -21 -12.5 -33t-33.5 -12zM-8 -190v20q49 0 72 52t23 143v325q0 45 -12.5 72.5t-57.5 27.5h-20v20h90q35 0 54.5 -9t27.5 -35t8 -76v-325q0 -75 -16 -122.5t-56 -70t-113 -22.5z" />
    <glyph glyph-name="uni0459" unicode="&#x459;" horiz-adv-x="772" 
d="M58 -10q-8 0 -24.5 3t-24.5 6v25q24 0 47.5 12.5t42 47t29.5 99t11 167.5q0 45 -12.5 72.5t-58.5 27.5v20h395v-190h75q58 0 104 -12.5t73.5 -42.5t27.5 -85q0 -54 -27.5 -84.5t-73.5 -43t-104 -12.5h-165v430h-165v-80q0 -112 -12.5 -183t-34 -109.5t-48.5 -53
t-55 -14.5zM528 35q57 0 88.5 24t31.5 81t-31.5 81t-88.5 24q-15 0 -34.5 -3t-30.5 -7v-190q11 -4 30.5 -7t34.5 -3z" />
    <glyph glyph-name="uni045A" unicode="&#x45a;" horiz-adv-x="763" 
d="M86 0v350q0 45 -12.5 72.5t-57.5 27.5h-15v20h85q35 0 54.5 -9t27.5 -35t8 -76v-90h190v210h90v-210h75q58 0 104 -12t73.5 -40t27.5 -78t-27.5 -78.5t-73.5 -40t-104 -11.5h-165v220h-190v-220h-90zM521 35q57 0 88.5 23t31.5 72t-31.5 72t-88.5 23q-15 0 -34.5 -3
t-30.5 -7v-170q11 -4 30.5 -7t34.5 -3z" />
    <glyph glyph-name="uni045B" unicode="&#x45b;" 
d="M72 0v500h-70v40h70v60l50 60h40v-120h120v-40h-120v-120q19 19 52 34.5t78 15.5q43 0 81.5 -15t63.5 -53.5t25 -111.5v-250h-90v250q0 50 -16 79.5t-41 42.5t-53 13q-30 0 -55.5 -16t-44.5 -37v-332h-90z" />
    <glyph glyph-name="uni045C" unicode="&#x45c;" horiz-adv-x="497" 
d="M439 -10q-38 0 -74.5 19t-70.5 61l-115 145v-215h-90v350q0 45 -12.5 72.5t-57.5 27.5h-20v20h90q35 0 54.5 -9t27.5 -35t8 -76v-120l125 175q22 30 51.5 47.5t78.5 17.5h25v-25q-23 0 -47 -9.5t-43 -35.5l-110 -155l115 -145q26 -34 53.5 -55t61.5 -26v-19
q-8 -4 -21.5 -7t-28.5 -3zM221 515l40 130h95l-95 -130h-40z" />
    <glyph glyph-name="uni045D" unicode="&#x45d;" horiz-adv-x="548" 
d="M86 0v350q0 45 -12.5 72.5t-57.5 27.5h-15v20h85q35 0 54.5 -9t27.5 -35t8 -76v-260l210 380h90v-470h-90v380l-210 -380h-90zM264 515l-95 130h95l40 -130h-40z" />
    <glyph glyph-name="uni045E" unicode="&#x45e;" horiz-adv-x="514" 
d="M105 -200v30q46 0 78.5 20.5t56.5 84.5l20 55l-160 390q-15 38 -43.5 57t-66.5 23v20h85q45 0 74.5 -21t45.5 -59l114 -277l126 347h50l-195 -535q-20 -55 -42.5 -84t-50 -40t-62.5 -11h-30zM300 512q-49 0 -80 23t-50 57l20 15q19 -19 43.5 -29.5t66.5 -10.5t66.5 10.5
t43.5 29.5l20 -15q-19 -34 -50 -57t-80 -23z" />
    <glyph glyph-name="uni045F" unicode="&#x45f;" horiz-adv-x="538" 
d="M256 -150l-15 150h-155v350q0 45 -12.5 72.5t-57.5 27.5h-15v20h85q35 0 54.5 -9t27.5 -35t8 -76v-310h200v430h90v-470h-155l-15 -150h-40z" />
    <glyph glyph-name="uni0462" unicode="&#x462;" horiz-adv-x="666" 
d="M176 0v520h-10q-60 0 -92.5 -27.5t-32.5 -87.5h-20v75q0 20 7 38.5t25.5 30t52.5 11.5h70q-2 37 -16 58.5t-54 21.5h-20v20h90q49 0 68.5 -19t21.5 -81h225v-40h-225v-140h110q44 0 90 -7.5t86 -27.5t64.5 -57.5t24.5 -97.5t-24.5 -97.5t-64.5 -57.5t-86 -27.5t-90 -7.5
h-200zM361 35q83 0 131.5 38t48.5 117t-48.5 117t-131.5 38q-47 0 -95 -14v-282q48 -14 95 -14z" />
    <glyph glyph-name="uni0463" unicode="&#x463;" horiz-adv-x="569" 
d="M174 0v430h-20q-45 0 -75 -25.5t-30 -74.5h-20v60q0 30 15 55t60 25h70v70q0 45 -12.5 72.5t-57.5 27.5h-15v20h85q35 0 54.5 -9t27.5 -35t8 -76v-70h175v-40h-175v-150h75q58 0 104 -12.5t73.5 -42.5t27.5 -85q0 -54 -27.5 -84.5t-73.5 -43t-104 -12.5h-165zM329 35
q57 0 88.5 24t31.5 81t-31.5 81t-88.5 24q-15 0 -34.5 -3t-30.5 -7v-190q11 -4 30.5 -7t34.5 -3z" />
    <glyph glyph-name="uni046A" unicode="&#x46a;" horiz-adv-x="949" 
d="M56 -10q-23 0 -38.5 3t-26.5 7v19q35 4 80.5 35t79.5 76l134 170q23 29 47.5 42t67.5 16l-174 206q-38 39 -69.5 55t-65.5 16v25h737v-25q-34 0 -63.5 -16.5t-70.5 -53.5l-163 -205q84 0 121 -44l146 -186q37 -44 81.5 -75.5t78.5 -35.5v-19q-11 -4 -26.5 -7t-38.5 -3
q-22 0 -55 8.5t-71.5 34.5t-78.5 77l-170 220v-330h-87v330l-170 -220q-40 -51 -78.5 -77t-71 -34.5t-55.5 -8.5zM469 350l214 270h-443z" />
    <glyph glyph-name="uni046B" unicode="&#x46b;" horiz-adv-x="687" 
d="M58 -10q-15 0 -28 3t-21 7l-1 19q65 10 116 81l71 100q20 27 36.5 40.5t47.5 14.5l-125 145q-18 21 -42 33t-54 12l1 25h570l-1 -25q-30 0 -53.5 -12t-40.5 -33l-124 -145h7q18 0 38.5 -15t46.5 -55l50 -75q26 -37 59.5 -61.5t66.5 -29.5l1 -19q-9 -4 -22.5 -7t-28.5 -3
q-38 0 -71.5 19t-63.5 61l-104 145v-215h-90v215l-106 -145q-30 -42 -63.5 -61t-71.5 -19zM345 251l153 179h-303z" />
    <glyph glyph-name="uni0472" unicode="&#x472;" horiz-adv-x="712" 
d="M356 -20q-95 0 -164.5 46.5t-107.5 126t-38 177.5t38 177.5t107.5 126t164.5 46.5t164.5 -46.5t107.5 -126t38 -177.5t-38 -177.5t-107.5 -126t-164.5 -46.5zM356 640q-93 0 -148 -75.5t-61 -204.5h418q-6 129 -61 204.5t-148 75.5zM356 20q96 0 152 81t58 219h-420
q2 -138 58 -219t152 -81z" />
    <glyph glyph-name="uni0473" unicode="&#x473;" horiz-adv-x="600" 
d="M265 -10q-70 0 -119 33t-75 89t-26 123q0 68 26 123.5t75 88.5t119 33t119 -33t75 -88.5t26 -123.5q0 -67 -26 -123t-75 -89t-119 -33zM265 30q38 0 66 27.5t43.5 74t15.5 103.5q0 58 -15.5 104t-43.5 73.5t-66 27.5q-37 0 -65.5 -27.5t-44 -73.5t-15.5 -104
q0 -57 15.5 -103.5t44 -74t65.5 -27.5zM100 225v40h280v-40h-280z" />
    <glyph glyph-name="uni0474" unicode="&#x474;" horiz-adv-x="671" 
d="M313 -10l-232 553q-24 56 -46 78.5t-64 26.5v20q4 0 15.5 1t18.5 1q25 0 56 -8t62.5 -35t55.5 -84l170 -399l144 391q21 55 42.5 82t42 36t37.5 9q10 0 18.5 -0.5t15.5 -1.5v-20q-42 -4 -65 -25.5t-45 -79.5l-208 -545h-18z" />
    <glyph glyph-name="uni0475" unicode="&#x475;" horiz-adv-x="541" 
d="M254 -10l-155 365q-24 56 -46 78.5t-58 24.5v20q4 0 15.5 1t18.5 1q31 0 61.5 -9.5t58.5 -36.5t50 -79l86 -208l78 193q21 53 39 81t35.5 39t38.5 11h17.5t16.5 -1l1 -20q-35 -4 -55 -27.5t-43 -80.5l-139 -351z" />
    <glyph glyph-name="uni0490" unicode="&#x490;" horiz-adv-x="535" 
d="M106 0v540q0 45 -12.5 72.5t-57.5 27.5h-20v20h355q60 0 92.5 27.5t32.5 87.5h20v-110q0 -19 -13 -32t-32 -13h-275v-620h-90z" />
    <glyph glyph-name="uni0491" unicode="&#x491;" horiz-adv-x="432" 
d="M82 0v350q0 45 -12.5 72.5t-57.5 27.5h-10v20h280q45 0 75 25.5t30 74.5h20v-100q0 -40 -40 -40h-195v-430h-90z" />
    <glyph glyph-name="uni0492" unicode="&#x492;" horiz-adv-x="537" 
d="M106 0v540q0 45 -12.5 72.5t-57.5 27.5h-20v20h415q35 0 53 -11.5t25 -30t7 -38.5v-75h-20q0 60 -32.5 87.5t-92.5 27.5h-175v-620h-90zM39 310v40h280v-40h-280z" />
    <glyph glyph-name="uni0493" unicode="&#x493;" horiz-adv-x="435" 
d="M82 0v350q0 45 -12.5 72.5t-57.5 27.5h-10v20h330q45 0 60 -25t15 -55v-60h-20q0 49 -30 74.5t-75 25.5h-110v-430h-90zM17 215v40h280v-40h-280z" />
    <glyph glyph-name="uni0494" unicode="&#x494;" horiz-adv-x="600" 
d="M106 0v540q0 45 -12.5 72.5t-57.5 27.5h-20v20h415q35 0 53 -11.5t25 -30t7 -38.5v-75h-20q0 60 -32.5 87.5t-92.5 27.5h-175v-226q23 12 64.5 24t94.5 12t101 -21t78.5 -71t30.5 -138t-27.5 -157t-91.5 -112.5t-175 -57.5v20q76 15 120.5 58t64 107.5t19.5 141.5
q0 94 -43.5 139t-109.5 45q-59 0 -126 -31v-353h-90z" />
    <glyph glyph-name="uni0495" unicode="&#x495;" horiz-adv-x="477" 
d="M82 0v350q0 45 -12.5 72.5t-57.5 27.5h-10v20h330q45 0 60 -25t15 -55v-60h-20q0 49 -30 74.5t-75 25.5h-110v-147q44 8 85 8q95 0 145 -54t50 -162q0 -60 -27 -108.5t-80.5 -77.5t-132.5 -29v20q51 0 84.5 30t49.5 75t16 90q0 87 -30 128t-103 41q-27 0 -57 -5v-239h-90
z" />
    <glyph glyph-name="uni0496" unicode="&#x496;" horiz-adv-x="962" 
d="M56 -10q-23 0 -38.5 3t-26.5 7v19q35 4 79.5 35.5t80.5 75.5l190 240l-155 195q-34 43 -67.5 56.5t-67.5 13.5v25h50q53 0 89.5 -31.5t70.5 -73.5l170 -210v315h87v-315l170 210q32 42 70.5 73.5t89.5 31.5h50v-25q-34 0 -67.5 -13.5t-67.5 -56.5l-155 -195l190 -240
q35 -43 77 -73q17 -11 33.5 -14t38.5 -3q15 0 25 -10t10 -25v-185h-45q-10 85 -32 125t-58 51q-33 8 -74.5 33.5t-84.5 80.5l-170 220v-330h-87v330l-170 -220q-40 -51 -78.5 -77t-71 -34.5t-55.5 -8.5z" />
    <glyph glyph-name="uni0497" unicode="&#x497;" horiz-adv-x="699" 
d="M58 -10q-15 0 -28.5 3t-21.5 7v19q64 10 115 81l105 145l-95 155q-14 23 -39.5 34t-55.5 11v25h25q49 0 80 -17t50 -48l105 -175v240h90v-240l105 175q19 31 50 48t80 17h25v-25q-30 0 -55.5 -11t-39.5 -34l-95 -155l105 -145q15 -20 29 -35q17 -16 33.5 -20.5t38.5 -4.5
q15 0 25 -10t10 -25v-160h-40q-6 66 -22.5 102t-46.5 48q-54 14 -97 75l-105 145v-215h-90v215l-105 -145q-30 -42 -63.5 -61t-71.5 -19z" />
    <glyph glyph-name="uni0498" unicode="&#x498;" horiz-adv-x="570" 
d="M275 -180q-4 70 -10 107t-17 54q-67 3 -121.5 30.5t-96.5 93.5l20 15q34 -45 83.5 -72.5t121.5 -27.5q79 0 127 38t48 107q0 72 -48 111t-142 39h-75v40h75q45 0 84 16.5t62.5 49t23.5 79.5q0 48 -22 79t-56 46t-72 15q-72 0 -121.5 -42.5t-68.5 -117.5h-20q0 45 3 76
t22 54q18 22 49.5 37.5t69 24t71.5 8.5q38 0 79.5 -6.5t78 -26t59.5 -56t23 -96.5q0 -49 -34 -90.5t-106 -64.5q94 -18 129.5 -62.5t35.5 -107.5q0 -50 -18.5 -84t-49 -55.5t-67.5 -33t-75 -15.5v-162h-45z" />
    <glyph glyph-name="uni0499" unicode="&#x499;" horiz-adv-x="455" 
d="M230 -155q-5 61 -10 96t-17 49q-64 2 -103 24.5t-64 55.5l20 15q19 -19 49.5 -37t85.5 -18q60 0 92.5 23t32.5 72q0 95 -140 95h-45v40h45q60 0 92.5 22.5t32.5 67.5t-29 67.5t-71 22.5q-54 0 -90.5 -28t-39.5 -77h-20q0 42 3 66.5t22 43.5t55 27t85 8q45 0 86 -12
t67.5 -40t26.5 -78q0 -45 -27.5 -72t-72.5 -38q54 -11 84.5 -40.5t30.5 -74.5q0 -63 -40 -93t-101 -38v-149h-40z" />
    <glyph glyph-name="uni049A" unicode="&#x49a;" horiz-adv-x="688" 
d="M663 -180q-10 85 -32 125.5t-59 50.5v0q-34 9 -74.5 34.5t-91.5 79.5l-210 220v-330h-90v540q0 45 -12.5 72.5t-57.5 27.5h-20v20h90q35 0 54.5 -9t27.5 -35t8 -76v-195l210 210l49 49t52.5 40t68.5 16h50v-25q-41 0 -72.5 -14.5t-72.5 -55.5l-195 -195l230 -240
q38 -39 75 -66v0q20 -16 38.5 -20t43.5 -4q15 0 25 -10t10 -25v-185h-45z" />
    <glyph glyph-name="uni049B" unicode="&#x49b;" horiz-adv-x="512" 
d="M472 -155q-7 67 -23.5 103t-47.5 47q-28 7 -55 25t-52 50l-115 145v-215h-90v350q0 45 -12.5 72.5t-57.5 27.5h-20v20h90q35 0 54.5 -9t27.5 -35t8 -76v-120l125 175q22 30 51.5 47.5t78.5 17.5h25v-25q-23 0 -47 -9.5t-43 -35.5l-110 -155l115 -145q12 -15 23 -27v0
q20 -21 37.5 -27t42.5 -6q15 0 25 -10t10 -25v-160h-40z" />
    <glyph glyph-name="uni049C" unicode="&#x49c;" horiz-adv-x="727" 
d="M106 0v540q0 45 -12.5 72.5t-57.5 27.5h-20v20h90q35 0 54.5 -9t27.5 -35t8 -76v-183h31v104h43v-92l186 186l49 49t52.5 40t68.5 16h50v-25q-41 0 -72.5 -14.5t-72.5 -55.5l-195 -195l230 -240q41 -43 86.5 -74.5t83.5 -36.5v-19q-11 -4 -26.5 -7t-38.5 -3q-27 0 -59 9
t-70 35t-86 76l-186 195v-99h-43v111h-31v-317h-90z" />
    <glyph glyph-name="uni049D" unicode="&#x49d;" horiz-adv-x="557" 
d="M89 0v350q0 45 -12.5 72.5t-57.5 27.5h-20v20h90q35 0 54.5 -9t27.5 -35t8 -76v-107h34v96h40v-89l111 155q22 30 51.5 47.5t78.5 17.5h25v-25q-23 0 -47 -9.5t-43 -35.5l-110 -155l115 -145q26 -34 53.5 -55t61.5 -26v-19q-8 -4 -21.5 -7t-28.5 -3q-38 0 -74.5 19
t-70.5 61l-101 127v-93h-40v99h-34v-203h-90z" />
    <glyph glyph-name="uni04A0" unicode="&#x4a0;" horiz-adv-x="782" 
d="M21 505v75q0 20 7 38.5t25.5 30t52.5 11.5h195v-315l210 210l49 49t52.5 40t68.5 16h50v-25q-41 0 -72.5 -14.5t-72.5 -55.5l-195 -195l230 -240q41 -43 86.5 -74.5t83.5 -36.5v-19q-11 -4 -26.5 -7t-38.5 -3q-27 0 -59 9t-70 35t-86 76l-210 220v-330h-90v620h-45
q-60 0 -92.5 -27.5t-32.5 -87.5h-20z" />
    <glyph glyph-name="uni04A1" unicode="&#x4a1;" horiz-adv-x="590" 
d="M532 -10q-38 0 -74.5 19t-70.5 61l-115 145v-215h-90v430h-28q-45 0 -75 -25.5t-30 -74.5h-20v60q0 30 15 55t60 25h168v-240l125 175q22 30 51.5 47.5t78.5 17.5h25v-25q-23 0 -47 -9.5t-43 -35.5l-110 -155l115 -145q26 -34 53.5 -55t61.5 -26v-19q-8 -4 -21.5 -7
t-28.5 -3z" />
    <glyph glyph-name="uni04A2" unicode="&#x4a2;" horiz-adv-x="695" 
d="M631 -180q-12 102 -42 141t-83 39h-10v320h-300v-320h-90v540q0 45 -12.5 72.5t-57.5 27.5h-20v20h90q35 0 54.5 -9t27.5 -35t8 -76v-180h300v300h90v-620h55q15 0 25 -10t10 -25v-185h-45z" />
    <glyph glyph-name="uni04A3" unicode="&#x4a3;" horiz-adv-x="565" 
d="M501 -155q-8 83 -32 119t-73 36h-20v215h-200v-215h-90v350q0 45 -12.5 72.5t-57.5 27.5h-15v20h85q35 0 54.5 -9t27.5 -35t8 -76v-95h200v215h90v-430h40q15 0 25 -10t10 -25v-160h-40z" />
    <glyph glyph-name="uni04A4" unicode="&#x4a4;" horiz-adv-x="927" 
d="M106 0v540q0 45 -12.5 72.5t-57.5 27.5h-20v20h90q35 0 54.5 -9t27.5 -35t8 -76v-180h300v180q0 45 -12.5 72.5t-57.5 27.5h-20v20h415q35 0 53 -11.5t25 -30t7 -38.5v-75h-20q0 60 -32.5 87.5t-92.5 27.5h-175v-500q0 -45 12.5 -72.5t57.5 -27.5h20v-20h-90
q-35 0 -54.5 9t-27.5 35t-8 76v200h-300v-320h-90z" />
    <glyph glyph-name="uni04A5" unicode="&#x4a5;" horiz-adv-x="729" 
d="M86 0v350q0 45 -12.5 72.5t-57.5 27.5h-15v20h85q35 0 54.5 -9t27.5 -35t8 -76v-95h200v95q0 45 -12.5 72.5t-57.5 27.5h-10v20h330q45 0 60 -25t15 -55v-60h-20q0 49 -30 74.5t-75 25.5h-110v-310q0 -45 12.5 -72.5t57.5 -27.5h15v-20h-85q-35 0 -54.5 9t-27.5 35t-8 76
v95h-200v-215h-90z" />
    <glyph glyph-name="uni04AA" unicode="&#x4aa;" horiz-adv-x="665" 
d="M365 -180q-4 70 -10 106.5t-17 53.5q-90 4 -156 50.5t-102 122t-36 167.5q0 75 24 140.5t67 114.5t99 77t120 28q83 0 143 -23.5t87 -56.5q19 -23 22 -64t3 -86h-20q-19 98 -70.5 144t-134.5 46q-65 0 -120 -30t-87.5 -100t-32.5 -190q0 -56 13.5 -109.5t42.5 -96.5
t74.5 -68.5t109.5 -25.5q75 0 129 36t96 104l20 -15q-40 -78 -95 -115.5t-124 -46.5v-163h-45z" />
    <glyph glyph-name="uni04AB" unicode="&#x4ab;" horiz-adv-x="483" 
d="M270 -155q-6 62 -11 97.5t-17 48.5q-66 5 -110 39t-65.5 87.5t-21.5 117.5q0 68 24 123.5t73 88.5t123 33q53 0 89.5 -8t55.5 -27t22 -46.5t3 -83.5h-20q-4 64 -40.5 94.5t-89.5 30.5q-50 0 -82 -27.5t-47.5 -73.5t-15.5 -104q0 -57 15.5 -103.5t47.5 -74t82 -27.5
q53 0 86 21t59 59l20 -15q-27 -46 -61.5 -70t-78.5 -31v-149h-40z" />
    <glyph glyph-name="uni04AE" unicode="&#x4ae;" horiz-adv-x="628" 
d="M290 0v273l-170 257q-31 44 -61.5 75t-83.5 35v20h90q37 0 64.5 -16t48 -41t37.5 -53l145 -225l209 335h45l-234 -380v-280h-90z" />
    <glyph glyph-name="uni04AF" unicode="&#x4af;" horiz-adv-x="497" 
d="M223 -190v190l-124 355q-24 56 -46 78.5t-58 24.5v20q4 0 15.5 1t18.5 1q31 0 61.5 -9.5t58.5 -36.5t50 -79l90 -278l140 393h50l-166 -452v-208h-90z" />
    <glyph glyph-name="uni04B0" unicode="&#x4b0;" horiz-adv-x="628" 
d="M290 0v273l-170 257q-31 44 -61.5 75t-83.5 35v20h90q37 0 64.5 -16t48 -41t37.5 -53l145 -225l209 335h45l-234 -380v-280h-90zM195 242v40h280v-40h-280z" />
    <glyph glyph-name="uni04B1" unicode="&#x4b1;" horiz-adv-x="497" 
d="M223 -190v190l-124 355q-24 56 -46 78.5t-58 24.5v20q4 0 15.5 1t18.5 1q31 0 61.5 -9.5t58.5 -36.5t50 -79l90 -278l140 393h50l-166 -452v-208h-90zM126 -20v40h280v-40h-280z" />
    <glyph glyph-name="uni04B6" unicode="&#x4b6;" horiz-adv-x="640" 
d="M464 0v270q-25 -12 -65.5 -16t-69.5 -4q-51 0 -95 8t-78 29.5t-53 63.5t-19 109v80q0 45 -12.5 72.5t-57.5 27.5h-10v20h90q35 0 54.5 -9t27.5 -35t8 -76v-90q0 -65 16.5 -100t50 -47.5t83.5 -12.5q30 0 67 4.5t63 15.5v350h90v-660h-90zM599 -180q-12 102 -42 141
t-83 39h-10v41l90 -1h55q15 0 25 -10t10 -25v-185h-45z" />
    <glyph glyph-name="uni04B7" unicode="&#x4b7;" horiz-adv-x="533" 
d="M371 0v193q-15 -6 -40.5 -12t-59.5 -6q-42 0 -83.5 11t-69 42.5t-27.5 91.5v30q0 45 -12.5 72.5t-57.5 27.5h-10v20h85q35 0 54.5 -9t27.5 -35t8 -76v-40q0 -52 28 -73.5t62 -21.5q30 0 55 6t40 12v237h90v-470h-90zM495 -155q-8 83 -32 119t-73 36h-20v40h130
q15 0 25 -10t10 -25v-160h-40z" />
    <glyph glyph-name="uni04B8" unicode="&#x4b8;" horiz-adv-x="640" 
d="M464 0v270q-25 -12 -65.5 -16t-69.5 -4q-51 0 -95 8t-78 29.5t-53 63.5t-19 109v80q0 45 -12.5 72.5t-57.5 27.5h-10v20h90q35 0 54.5 -9t27.5 -35t8 -76v-90q0 -65 16.5 -100t50 -47.5t83.5 -12.5q30 0 67 4.5t63 15.5v350h90v-660h-90zM320 142v255h43v-255h-43z" />
    <glyph glyph-name="uni04B9" unicode="&#x4b9;" horiz-adv-x="533" 
d="M371 0v193q-15 -6 -40.5 -12t-59.5 -6q-42 0 -83.5 11t-69 42.5t-27.5 91.5v30q0 45 -12.5 72.5t-57.5 27.5h-10v20h85q35 0 54.5 -9t27.5 -35t8 -76v-40q0 -52 28 -73.5t62 -21.5q30 0 55 6t40 12v237h90v-470h-90zM265 79v235h40v-235h-40z" />
    <glyph glyph-name="uni04BA" unicode="&#x4ba;" horiz-adv-x="640" 
d="M176 660v-270q26 12 66 16t69 4q51 0 95 -8t78 -29.5t53 -63t19 -109.5v-80q0 -45 12.5 -72.5t57.5 -27.5h10v-20h-90q-35 0 -54.5 9t-27.5 35t-8 76v90q0 66 -16.5 100.5t-50 47t-83.5 12.5q-30 0 -67 -4.5t-63 -15.5v-350h-90v660h90z" />
    <glyph glyph-name="uni04BB" unicode="&#x4bb;" horiz-adv-x="529" 
d="M72 0v540q0 45 -12.5 72.5t-57.5 27.5h-20v20h90q35 0 54.5 -9t27.5 -35t8 -76v-110q19 19 52 34.5t78 15.5q43 0 81.5 -15t63.5 -53.5t25 -111.5v-300h-90v300q0 50 -16 79.5t-41 42.5t-53 13q-30 0 -55.5 -16t-44.5 -37v-382h-90z" />
    <glyph glyph-name="uni04C0" unicode="&#x4c0;" horiz-adv-x="285" 
d="M179 0q-35 0 -54.5 9t-27.5 35t-8 76v540h90v-540q0 -45 12.5 -72.5t57.5 -27.5h20v-20h-90z" />
    <glyph glyph-name="uni04C1" unicode="&#x4c1;" horiz-adv-x="949" 
d="M56 -10q-23 0 -38.5 3t-26.5 7v19q35 4 79.5 35.5t80.5 75.5l190 240l-155 195q-34 43 -67.5 56.5t-67.5 13.5v25h50q53 0 89.5 -31.5t70.5 -73.5l170 -210v315h87v-315l170 210q32 42 70.5 73.5t89.5 31.5h50v-25q-34 0 -67.5 -13.5t-67.5 -56.5l-155 -195l190 -240
q36 -44 81 -75.5t79 -35.5v-19q-11 -4 -26.5 -7t-38.5 -3q-22 0 -55 8.5t-71.5 34.5t-78.5 77l-170 220v-330h-87v330l-170 -220q-40 -51 -78.5 -77t-71 -34.5t-55.5 -8.5zM475 710q-49 0 -80 24t-50 66l20 15q15 -19 41.5 -32t68.5 -13t68.5 13t41.5 32l20 -15
q-19 -42 -50 -66t-80 -24z" />
    <glyph glyph-name="uni04C2" unicode="&#x4c2;" horiz-adv-x="686" 
d="M58 -10q-15 0 -28.5 3t-21.5 7v19q64 10 115 81l105 145l-95 155q-14 23 -39.5 34t-55.5 11v25h25q49 0 80 -17t50 -48l105 -175v240h90v-240l105 175q19 31 50 48t80 17h25v-25q-30 0 -55.5 -11t-39.5 -34l-95 -155l105 -145q51 -71 115 -81v-19q-8 -4 -21.5 -7
t-28.5 -3q-38 0 -71.5 19t-63.5 61l-105 145v-215h-90v215l-105 -145q-30 -42 -63.5 -61t-71.5 -19zM343 511q-49 0 -80 23t-50 57l20 15q19 -19 43.5 -29.5t66.5 -10.5t66.5 10.5t43.5 29.5l20 -15q-19 -34 -50 -57t-80 -23z" />
    <glyph glyph-name="uni04CB" unicode="&#x4cb;" horiz-adv-x="614" 
d="M374 -180v185q0 15 10 25t25 10h55v230q-25 -12 -65.5 -16t-69.5 -4q-51 0 -95 8t-78 29.5t-53 63.5t-19 109v80q0 45 -12.5 72.5t-57.5 27.5h-10v20h90q35 0 54.5 -9t27.5 -35t8 -76v-90q0 -65 16.5 -100t50 -47.5t83.5 -12.5q30 0 67 4.5t63 15.5v350h90v-660h-10
q-53 0 -83 -39t-42 -141h-45z" />
    <glyph glyph-name="uni04CC" unicode="&#x4cc;" horiz-adv-x="511" 
d="M296 -155v160q0 15 10 25t25 10h40v153q-15 -6 -40.5 -12t-59.5 -6q-42 0 -83.5 11t-69 42.5t-27.5 91.5v30q0 45 -12.5 72.5t-57.5 27.5h-10v20h85q35 0 54.5 -9t27.5 -35t8 -76v-40q0 -52 28 -73.5t62 -21.5q30 0 55 6t40 12v237h90v-470h-20q-49 0 -73 -36t-32 -119
h-40z" />
    <glyph glyph-name="uni04CF" unicode="&#x4cf;" horiz-adv-x="242" 
d="M76 0v540q0 45 -12.5 72.5t-57.5 27.5h-20v20h90q35 0 54.5 -9t27.5 -35t8 -76v-540h-90z" />
    <glyph glyph-name="uni04D0" unicode="&#x4d0;" horiz-adv-x="635" 
d="M622 -5q-22 0 -54 8.5t-63 36t-53 85.5l-25 65h-280l-80 -190h-45l280 660h30l220 -535q24 -56 46 -78.5t64 -26.5v-20q-18 -5 -40 -5zM162 230h245l-120 290zM318 710q-49 0 -80 24t-50 66l20 15q15 -19 41.5 -32t68.5 -13t68.5 13t41.5 32l20 -15q-19 -42 -50 -66
t-80 -24z" />
    <glyph glyph-name="uni04D1" unicode="&#x4d1;" horiz-adv-x="481" 
d="M184 -10q-21 0 -45.5 6.5t-47.5 22.5t-37.5 43t-14.5 68q0 55 35.5 85t94 42.5t125.5 12.5h30q0 70 -14 106.5t-37.5 50t-53.5 13.5q-42 0 -70.5 -18t-39.5 -67h-45q0 26 3 48.5t22 41.5t62 27t88 8q34 0 65.5 -8t56 -29.5t39 -63t14.5 -109.5v-270h-50l-35 45h-5
q-15 -19 -49 -37t-91 -18zM229 35q37 0 58.5 18.5t36.5 41.5v135h-30q-75 0 -117.5 -27.5t-42.5 -72.5q0 -49 29 -72t66 -23zM241 511q-49 0 -80 23t-50 57l20 15q19 -19 43.5 -29.5t66.5 -10.5t66.5 10.5t43.5 29.5l20 -15q-19 -34 -50 -57t-80 -23z" />
    <glyph glyph-name="uni04D2" unicode="&#x4d2;" horiz-adv-x="635" 
d="M622 -5q-22 0 -54 8.5t-63 36t-53 85.5l-25 65h-280l-80 -190h-45l280 660h30l220 -535q24 -56 46 -78.5t64 -26.5v-20q-18 -5 -40 -5zM162 230h245l-120 290zM403 715q-19 0 -32 13t-13 32t13 32t32 13t32 -13t13 -32t-13 -32t-32 -13zM233 715q-19 0 -32 13t-13 32
t13 32t32 13t32 -13t13 -32t-13 -32t-32 -13z" />
    <glyph glyph-name="uni04D3" unicode="&#x4d3;" horiz-adv-x="481" 
d="M184 -10q-21 0 -45.5 6.5t-47.5 22.5t-37.5 43t-14.5 68q0 55 35.5 85t94 42.5t125.5 12.5h30q0 70 -14 106.5t-37.5 50t-53.5 13.5q-42 0 -70.5 -18t-39.5 -67h-45q0 26 3 48.5t22 41.5t62 27t88 8q34 0 65.5 -8t56 -29.5t39 -63t14.5 -109.5v-270h-50l-35 45h-5
q-15 -19 -49 -37t-91 -18zM229 35q37 0 58.5 18.5t36.5 41.5v135h-30q-75 0 -117.5 -27.5t-42.5 -72.5q0 -49 29 -72t66 -23zM326 525q-19 0 -32 13t-13 32t13 32t32 13t32 -13t13 -32t-13 -32t-32 -13zM156 525q-19 0 -32 13t-13 32t13 32t32 13t32 -13t13 -32t-13 -32
t-32 -13z" />
    <glyph glyph-name="uni04D4" unicode="&#x4d4;" horiz-adv-x="865" 
d="M-14 0l370 660h361q35 0 53 -11.5t25 -30t7 -38.5v-75h-20q0 60 -32.5 87.5t-92.5 27.5h-186v-260h270v-40h-270v-280h175q68 0 107.5 25t62.5 85l20 -5l-35 -95q-8 -23 -26.5 -36.5t-48.5 -13.5h-345v190h-240l-105 -190h-50zM166 230h215v385z" />
    <glyph glyph-name="uni04D5" unicode="&#x4d5;" horiz-adv-x="759" 
d="M199 -10q-35 0 -72 12t-62.5 41.5t-25.5 81.5t35.5 81.5t94 41.5t125.5 12h30q0 75 -14 114t-37.5 52.5t-53.5 13.5q-42 0 -70.5 -18t-39.5 -67h-45q0 26 3 48.5t22 41.5t62 27t88 8q53 0 89 -26t51 -64q15 38 50.5 64t84.5 26q102 0 151 -57t49 -163l-2 -40h-298
q0 -82 35.5 -136t99.5 -54q49 0 81.5 21t58.5 59l20 -15q-34 -57 -78.5 -81t-101.5 -24q-117 0 -170 85q-22 -41 -58.5 -63t-101.5 -22zM414 260h210q0 83 -26 129t-79 46q-30 0 -53.5 -23t-37.5 -62.5t-14 -89.5zM229 35q37 0 58.5 18.5t36.5 41.5v125h-30
q-75 0 -117.5 -26.5t-42.5 -68.5q0 -45 28.5 -67.5t66.5 -22.5z" />
    <glyph glyph-name="uni04D6" unicode="&#x4d6;" horiz-adv-x="590" 
d="M106 0v540q0 45 -12.5 72.5t-57.5 27.5h-20v20h426q35 0 53 -11.5t25 -30t7 -38.5v-75h-20q0 60 -32.5 87.5t-92.5 27.5h-186v-260h270v-40h-270v-280h175q68 0 107.5 25t62.5 85l20 -5l-35 -95q-8 -23 -26.5 -36.5t-48.5 -13.5h-345zM295 710q-49 0 -80 24t-50 66l20 15
q15 -19 41.5 -32t68.5 -13t68.5 13t41.5 32l20 -15q-19 -42 -50 -66t-80 -24z" />
    <glyph glyph-name="uni04D7" unicode="&#x4d7;" horiz-adv-x="488" 
d="M255 -10q-70 0 -116.5 33t-70 89t-23.5 123q0 68 24 123.5t69 88.5t107 33q102 0 151 -57t49 -163l-2 -40h-303q0 -82 35.5 -136t99.5 -54q49 0 81.5 21t58.5 59l20 -15q-34 -57 -78.5 -81t-101.5 -24zM140 260h210q0 87 -26 133.5t-79 46.5q-30 0 -53.5 -23.5t-37.5 -64
t-14 -92.5zM244 511q-49 0 -80 23t-50 57l20 15q19 -19 43.5 -29.5t66.5 -10.5t66.5 10.5t43.5 29.5l20 -15q-19 -34 -50 -57t-80 -23z" />
    <glyph glyph-name="uni04D8" unicode="&#x4d8;" horiz-adv-x="671" 
d="M329 -20q-144 0 -213.5 81t-69.5 230l3 56h477q0 84 -27 149.5t-76 103t-116 37.5q-81 0 -130.5 -34.5t-88.5 -99.5l-27 22q47 84 110.5 119.5t143.5 35.5q104 0 172.5 -48t103 -128t34.5 -177q0 -96 -35.5 -174.5t-101.5 -125.5t-159 -47zM329 20q57 0 101.5 35t70 96.5
t25.5 139.5h-389q0 -130 48 -200.5t144 -70.5z" />
    <glyph glyph-name="uni04D9" unicode="&#x4d9;" horiz-adv-x="488" 
d="M233 480q70 0 116.5 -33t70 -88.5t23.5 -123.5q0 -67 -24 -123t-68.5 -89t-107.5 -33q-102 0 -151 57t-49 163l2 40h303q0 83 -35.5 136.5t-99.5 53.5q-49 0 -81.5 -21t-58.5 -59l-20 15q34 57 78.5 81t101.5 24zM348 210h-210q0 -87 26 -133.5t79 -46.5q30 0 53.5 23.5
t37.5 64t14 92.5z" />
    <glyph glyph-name="uni04DC" unicode="&#x4dc;" horiz-adv-x="949" 
d="M56 -10q-23 0 -38.5 3t-26.5 7v19q35 4 79.5 35.5t80.5 75.5l190 240l-155 195q-34 43 -67.5 56.5t-67.5 13.5v25h50q53 0 89.5 -31.5t70.5 -73.5l170 -210v315h87v-315l170 210q32 42 70.5 73.5t89.5 31.5h50v-25q-34 0 -67.5 -13.5t-67.5 -56.5l-155 -195l190 -240
q36 -44 81 -75.5t79 -35.5v-19q-11 -4 -26.5 -7t-38.5 -3q-22 0 -55 8.5t-71.5 34.5t-78.5 77l-170 220v-330h-87v330l-170 -220q-40 -51 -78.5 -77t-71 -34.5t-55.5 -8.5zM560 715q-19 0 -32 13t-13 32t13 32t32 13t32 -13t13 -32t-13 -32t-32 -13zM390 715q-19 0 -32 13
t-13 32t13 32t32 13t32 -13t13 -32t-13 -32t-32 -13z" />
    <glyph glyph-name="uni04DD" unicode="&#x4dd;" horiz-adv-x="686" 
d="M58 -10q-15 0 -28.5 3t-21.5 7v19q64 10 115 81l105 145l-95 155q-14 23 -39.5 34t-55.5 11v25h25q49 0 80 -17t50 -48l105 -175v240h90v-240l105 175q19 31 50 48t80 17h25v-25q-30 0 -55.5 -11t-39.5 -34l-95 -155l105 -145q51 -71 115 -81v-19q-8 -4 -21.5 -7
t-28.5 -3q-38 0 -71.5 19t-63.5 61l-105 145v-215h-90v215l-105 -145q-30 -42 -63.5 -61t-71.5 -19zM428 525q-19 0 -32 13t-13 32t13 32t32 13t32 -13t13 -32t-13 -32t-32 -13zM258 525q-19 0 -32 13t-13 32t13 32t32 13t32 -13t13 -32t-13 -32t-32 -13z" />
    <glyph glyph-name="uni04DE" unicode="&#x4de;" horiz-adv-x="570" 
d="M270 -20q-75 0 -135 27t-105 98l20 15q34 -45 83.5 -72.5t121.5 -27.5q79 0 127 38t48 107q0 72 -48 111t-142 39h-75v40h75q45 0 84 16.5t62.5 49t23.5 79.5q0 48 -22 79t-56 46t-72 15q-72 0 -121.5 -42.5t-68.5 -117.5h-20q0 45 3 76t22 54q18 22 49.5 37.5t69 24
t71.5 8.5q38 0 79.5 -6.5t78 -26t59.5 -56t23 -96.5q0 -49 -34 -90.5t-106 -64.5q94 -18 129.5 -62.5t35.5 -107.5q0 -58 -24.5 -95t-64 -58t-85 -29t-86.5 -8zM350 715q-19 0 -32 13t-13 32t13 32t32 13t32 -13t13 -32t-13 -32t-32 -13zM180 715q-19 0 -32 13t-13 32t13 32
t32 13t32 -13t13 -32t-13 -32t-32 -13z" />
    <glyph glyph-name="uni04DF" unicode="&#x4df;" horiz-adv-x="455" 
d="M211 -10q-67 0 -108 23t-67 57l20 15q19 -19 49.5 -37t85.5 -18q60 0 92.5 23t32.5 72q0 95 -140 95h-45v40h45q60 0 92.5 22.5t32.5 67.5t-29 67.5t-71 22.5q-54 0 -90.5 -28t-39.5 -77h-20q0 42 3 66.5t22 43.5t55 27t85 8q45 0 86 -12t67.5 -40t26.5 -78
q0 -45 -27.5 -72t-72.5 -38q54 -11 84.5 -40.5t30.5 -74.5q0 -52 -27.5 -81.5t-72.5 -41.5t-100 -12zM293 525q-19 0 -32 13t-13 32t13 32t32 13t32 -13t13 -32t-13 -32t-32 -13zM123 525q-19 0 -32 13t-13 32t13 32t32 13t32 -13t13 -32t-13 -32t-32 -13z" />
    <glyph glyph-name="uni04E2" unicode="&#x4e2;" horiz-adv-x="692" 
d="M106 0v540q0 45 -12.5 72.5t-57.5 27.5h-20v20h90q35 0 54.5 -9t27.5 -35t8 -76v-450l320 570h90v-660h-90v570l-320 -570h-90zM218 740v60h255v-60h-255z" />
    <glyph glyph-name="uni04E3" unicode="&#x4e3;" horiz-adv-x="548" 
d="M86 0v350q0 45 -12.5 72.5t-57.5 27.5h-15v20h85q35 0 54.5 -9t27.5 -35t8 -76v-260l210 380h90v-470h-90v380l-210 -380h-90zM146 550v60h255v-60h-255z" />
    <glyph glyph-name="uni04E4" unicode="&#x4e4;" horiz-adv-x="692" 
d="M106 0v540q0 45 -12.5 72.5t-57.5 27.5h-20v20h90q35 0 54.5 -9t27.5 -35t8 -76v-450l320 570h90v-660h-90v570l-320 -570h-90zM431 715q-19 0 -32 13t-13 32t13 32t32 13t32 -13t13 -32t-13 -32t-32 -13zM261 715q-19 0 -32 13t-13 32t13 32t32 13t32 -13t13 -32
t-13 -32t-32 -13z" />
    <glyph glyph-name="uni04E5" unicode="&#x4e5;" horiz-adv-x="548" 
d="M86 0v350q0 45 -12.5 72.5t-57.5 27.5h-15v20h85q35 0 54.5 -9t27.5 -35t8 -76v-260l210 380h90v-470h-90v380l-210 -380h-90zM359 525q-19 0 -32 13t-13 32t13 32t32 13t32 -13t13 -32t-13 -32t-32 -13zM189 525q-19 0 -32 13t-13 32t13 32t32 13t32 -13t13 -32t-13 -32
t-32 -13z" />
    <glyph glyph-name="uni04E6" unicode="&#x4e6;" horiz-adv-x="712" 
d="M356 -20q-95 0 -164.5 46.5t-107.5 126t-38 177.5t38 177.5t107.5 126t164.5 46.5t164.5 -46.5t107.5 -126t38 -177.5t-38 -177.5t-107.5 -126t-164.5 -46.5zM356 20q66 0 113 38t72 107.5t25 164.5t-25 164.5t-72 107.5t-113 38q-65 0 -112.5 -38t-72.5 -107.5
t-25 -164.5t25 -164.5t72.5 -107.5t112.5 -38zM441 715q-19 0 -32 13t-13 32t13 32t32 13t32 -13t13 -32t-13 -32t-32 -13zM271 715q-19 0 -32 13t-13 32t13 32t32 13t32 -13t13 -32t-13 -32t-32 -13z" />
    <glyph glyph-name="uni04E7" unicode="&#x4e7;" 
d="M265 -10q-70 0 -119 33t-75 89t-26 123q0 68 26 123.5t75 88.5t119 33t119 -33t75 -88.5t26 -123.5q0 -67 -26 -123t-75 -89t-119 -33zM265 30q38 0 66 27.5t43.5 74t15.5 103.5q0 58 -15.5 104t-43.5 73.5t-66 27.5q-37 0 -65.5 -27.5t-44 -73.5t-15.5 -104
q0 -57 15.5 -103.5t44 -74t65.5 -27.5zM350 525q-19 0 -32 13t-13 32t13 32t32 13t32 -13t13 -32t-13 -32t-32 -13zM180 525q-19 0 -32 13t-13 32t13 32t32 13t32 -13t13 -32t-13 -32t-32 -13z" />
    <glyph glyph-name="uni04E8" unicode="&#x4e8;" horiz-adv-x="712" 
d="M356 -20q-95 0 -164.5 46.5t-107.5 126t-38 177.5t38 177.5t107.5 126t164.5 46.5t164.5 -46.5t107.5 -126t38 -177.5t-38 -177.5t-107.5 -126t-164.5 -46.5zM356 640q-93 0 -148 -75.5t-61 -204.5h418q-6 129 -61 204.5t-148 75.5zM356 20q96 0 152 81t58 219h-420
q2 -138 58 -219t152 -81z" />
    <glyph glyph-name="uni04E9" unicode="&#x4e9;" 
d="M265 -10q-70 0 -119 33t-75 89t-26 123q0 68 26 123.5t75 88.5t119 33t119 -33t75 -88.5t26 -123.5q0 -67 -26 -123t-75 -89t-119 -33zM265 30q38 0 66 27.5t43.5 74t15.5 103.5q0 58 -15.5 104t-43.5 73.5t-66 27.5q-37 0 -65.5 -27.5t-44 -73.5t-15.5 -104
q0 -57 15.5 -103.5t44 -74t65.5 -27.5zM125 215v40h280v-40h-280z" />
    <glyph glyph-name="uni04EE" unicode="&#x4ee;" horiz-adv-x="607" 
d="M132 -10v30q30 0 60 6.5t54 22.5t36 46l10 25l-185 410q-12 28 -26 52t-39 40t-70 18v20h120q32 0 54.5 -16t38 -41t27.5 -53l135 -300l180 410h60l-246 -565q-21 -49 -60 -77t-99 -28h-50zM188 740v60h255v-60h-255z" />
    <glyph glyph-name="uni04EF" unicode="&#x4ef;" horiz-adv-x="514" 
d="M105 -200v30q46 0 78.5 20.5t56.5 84.5l20 55l-160 390q-15 38 -43.5 57t-66.5 23v20h85q45 0 74.5 -21t45.5 -59l114 -277l126 347h50l-195 -535q-20 -55 -42.5 -84t-50 -40t-62.5 -11h-30zM157 550v60h255v-60h-255z" />
    <glyph glyph-name="uni04F0" unicode="&#x4f0;" horiz-adv-x="607" 
d="M132 -10v30q30 0 60 6.5t54 22.5t36 46l10 25l-185 410q-12 28 -26 52t-39 40t-70 18v20h120q32 0 54.5 -16t38 -41t27.5 -53l135 -300l180 410h60l-246 -565q-21 -49 -60 -77t-99 -28h-50zM401 715q-19 0 -32 13t-13 32t13 32t32 13t32 -13t13 -32t-13 -32t-32 -13z
M231 715q-19 0 -32 13t-13 32t13 32t32 13t32 -13t13 -32t-13 -32t-32 -13z" />
    <glyph glyph-name="uni04F1" unicode="&#x4f1;" horiz-adv-x="514" 
d="M105 -200v30q46 0 78.5 20.5t56.5 84.5l20 55l-160 390q-15 38 -43.5 57t-66.5 23v20h85q45 0 74.5 -21t45.5 -59l114 -277l126 347h50l-195 -535q-20 -55 -42.5 -84t-50 -40t-62.5 -11h-30zM370 525q-19 0 -32 13t-13 32t13 32t32 13t32 -13t13 -32t-13 -32t-32 -13z
M200 525q-19 0 -32 13t-13 32t13 32t32 13t32 -13t13 -32t-13 -32t-32 -13z" />
    <glyph glyph-name="uni04F2" unicode="&#x4f2;" horiz-adv-x="607" 
d="M132 -10v30q30 0 60 6.5t54 22.5t36 46l10 25l-185 410q-12 28 -26 52t-39 40t-70 18v20h120q32 0 54.5 -16t38 -41t27.5 -53l135 -300l180 410h60l-246 -565q-21 -49 -60 -77t-99 -28h-50zM350 705l40 130h65l-75 -130h-30zM250 705l40 130h65l-75 -130h-30z" />
    <glyph glyph-name="uni04F3" unicode="&#x4f3;" horiz-adv-x="514" 
d="M105 -200v30q46 0 78.5 20.5t56.5 84.5l20 55l-160 390q-15 38 -43.5 57t-66.5 23v20h85q45 0 74.5 -21t45.5 -59l114 -277l126 347h50l-195 -535q-20 -55 -42.5 -84t-50 -40t-62.5 -11h-30zM319 515l40 130h65l-75 -130h-30zM219 515l40 130h65l-75 -130h-30z" />
    <glyph glyph-name="uni04F4" unicode="&#x4f4;" horiz-adv-x="640" 
d="M464 0v270q-25 -12 -65.5 -16t-69.5 -4q-51 0 -95 8t-78 29.5t-53 63.5t-19 109v80q0 45 -12.5 72.5t-57.5 27.5h-10v20h90q35 0 54.5 -9t27.5 -35t8 -76v-90q0 -65 16.5 -100t50 -47.5t83.5 -12.5q30 0 67 4.5t63 15.5v350h90v-660h-90zM405 715q-19 0 -32 13t-13 32
t13 32t32 13t32 -13t13 -32t-13 -32t-32 -13zM235 715q-19 0 -32 13t-13 32t13 32t32 13t32 -13t13 -32t-13 -32t-32 -13z" />
    <glyph glyph-name="uni04F5" unicode="&#x4f5;" horiz-adv-x="533" 
d="M371 0v193q-15 -6 -40.5 -12t-59.5 -6q-42 0 -83.5 11t-69 42.5t-27.5 91.5v30q0 45 -12.5 72.5t-57.5 27.5h-10v20h85q35 0 54.5 -9t27.5 -35t8 -76v-40q0 -52 28 -73.5t62 -21.5q30 0 55 6t40 12v237h90v-470h-90zM352 525q-19 0 -32 13t-13 32t13 32t32 13t32 -13
t13 -32t-13 -32t-32 -13zM182 525q-19 0 -32 13t-13 32t13 32t32 13t32 -13t13 -32t-13 -32t-32 -13z" />
    <glyph glyph-name="uni04F6" unicode="&#x4f6;" horiz-adv-x="537" 
d="M106 0v540q0 45 -12.5 72.5t-57.5 27.5h-20v20h415q35 0 53 -11.5t25 -30t7 -38.5v-75h-20q0 60 -32.5 87.5t-92.5 27.5h-175v-620h-90zM241 -180q-12 102 -42 141t-83 39h-10v41l90 -1h55q15 0 25 -10t10 -25v-185h-45z" />
    <glyph glyph-name="uni04F7" unicode="&#x4f7;" horiz-adv-x="435" 
d="M82 0v350q0 45 -12.5 72.5t-57.5 27.5h-10v20h330q45 0 60 -25t15 -55v-60h-20q0 49 -30 74.5t-75 25.5h-110v-430h-90zM207 -155q-8 83 -32 119t-73 36h-20v40h130q15 0 25 -10t10 -25v-160h-40z" />
    <glyph glyph-name="uni04F8" unicode="&#x4f8;" horiz-adv-x="832" 
d="M106 0v540q0 45 -12.5 72.5t-57.5 27.5h-20v20h90q35 0 54.5 -9t27.5 -35t8 -76v-160h110q38 0 81 -7.5t81.5 -27.5t63 -57.5t24.5 -97.5t-24.5 -97.5t-63 -57.5t-81.5 -27.5t-81 -7.5h-200zM726 0q-35 0 -54.5 9t-27.5 35t-8 76v540h90v-540q0 -45 12.5 -72.5
t57.5 -27.5h20v-20h-90zM291 35q71 0 118 38t47 117t-47 117t-118 38q-47 0 -95 -14v-282q48 -14 95 -14zM501 715q-19 0 -32 13t-13 32t13 32t32 13t32 -13t13 -32t-13 -32t-32 -13zM331 715q-19 0 -32 13t-13 32t13 32t32 13t32 -13t13 -32t-13 -32t-32 -13z" />
    <glyph glyph-name="uni04F9" unicode="&#x4f9;" horiz-adv-x="688" 
d="M86 0v350q0 45 -12.5 72.5t-57.5 27.5h-15v20h85q35 0 54.5 -9t27.5 -35t8 -76v-70h75q53 0 97 -12.5t71 -42.5t27 -85q0 -54 -27 -84.5t-71 -43t-97 -12.5h-165zM601 0q-35 0 -54.5 9t-27.5 35t-8 76v350h90v-350q0 -45 12.5 -72.5t57.5 -27.5h15v-20h-85zM241 35
q49 0 79.5 24t30.5 81t-30.5 81t-79.5 24q-15 0 -34.5 -3t-30.5 -7v-190q11 -4 30.5 -7t34.5 -3zM429 525q-19 0 -32 13t-13 32t13 32t32 13t32 -13t13 -32t-13 -32t-32 -13zM259 525q-19 0 -32 13t-13 32t13 32t32 13t32 -13t13 -32t-13 -32t-32 -13z" />
    <glyph glyph-name="uni051A" unicode="&#x51a;" horiz-adv-x="714" 
d="M677 -205q-73 0 -144 17.5t-137.5 61t-128.5 119.5q-68 20 -117.5 68.5t-76 118t-26.5 150.5q0 98 38 177.5t107.5 126t164.5 46.5t164.5 -46.5t107.5 -126t38 -177.5q0 -83 -27.5 -153t-78.5 -118.5t-122 -67.5q12 -37 38.5 -69.5t60.5 -56t70.5 -37t68.5 -13.5v-20z
M357 20q66 0 113 38t72 107.5t25 164.5t-25 164.5t-72 107.5t-113 38q-65 0 -112.5 -38t-72.5 -107.5t-25 -164.5t25 -164.5t72.5 -107.5t112.5 -38z" />
    <glyph glyph-name="uni051B" unicode="&#x51b;" horiz-adv-x="524" 
d="M362 -190v210q-23 -11 -53 -20.5t-72 -9.5q-65 0 -107 33t-62.5 89t-20.5 123q0 68 20 123.5t60 88.5t100 33q56 0 88 -18t47 -37h5l35 45h50v-660h-90zM267 30q23 0 47.5 9.5t47.5 20.5v320q-16 23 -39.5 41.5t-65.5 18.5q-40 0 -65.5 -27.5t-37.5 -73.5t-12 -104
q0 -57 12.5 -103.5t40 -74t72.5 -27.5z" />
    <glyph glyph-name="uni051C" unicode="&#x51c;" horiz-adv-x="866" 
d="M272 -10l-194 553q-20 57 -42.5 79t-67.5 26v20q4 0 15.5 1t18.5 1q28 0 60 -7.5t61.5 -34.5t49.5 -85l134 -386l107 317l-24 69q-20 57 -42.5 79t-67.5 26v20q4 0 15.5 1t18.5 1q28 0 60 -7.5t61.5 -34.5t49.5 -85l134 -386l171 503h43l-229 -670h-20l-148 421
l-144 -421h-20z" />
    <glyph glyph-name="uni051D" unicode="&#x51d;" horiz-adv-x="749" 
d="M245 -10l-145 365q-23 56 -45.5 78.5t-59.5 24.5v20q4 0 16 1t19 1q49 0 92 -25t73 -100l85 -210l85 215q-23 52 -44.5 74t-55.5 24v20q4 0 16 1t19 1q49 0 92 -25t73 -100l85 -210l130 325h50l-195 -480h-20l-125 310l-125 -310h-20z" />
    <glyph glyph-name="uni0524" unicode="&#x524;" horiz-adv-x="695" 
d="M106 0v540q0 45 -12.5 72.5t-57.5 27.5h-20v20h570v-660h-90v620h-300v-620h-90zM631 -180q-12 102 -42 141t-83 39h-10v41l90 -1h55q15 0 25 -10t10 -25v-185h-45z" />
    <glyph glyph-name="uni0525" unicode="&#x525;" horiz-adv-x="561" 
d="M82 0v350q0 45 -12.5 72.5t-57.5 27.5h-10v20h460v-470h-90v430h-200v-430h-90zM497 -155q-8 83 -32 119t-73 36h-20v40h130q15 0 25 -10t10 -25v-160h-40z" />
    <glyph glyph-name="uni1EA0" unicode="&#x1ea0;" horiz-adv-x="635" 
d="M622 -5q-22 0 -54 8.5t-63 36t-53 85.5l-25 65h-280l-80 -190h-45l280 660h30l220 -535q24 -56 46 -78.5t64 -26.5v-20q-18 -5 -40 -5zM162 230h245l-120 290zM318 -157q-18 0 -31.5 13.5t-13.5 32.5q0 18 13.5 31t31.5 13q19 0 31.5 -13t12.5 -31q0 -19 -13 -32.5
t-31 -13.5z" />
    <glyph glyph-name="uni1EA1" unicode="&#x1ea1;" horiz-adv-x="481" 
d="M184 -10q-21 0 -45.5 6.5t-47.5 22.5t-37.5 43t-14.5 68q0 55 35.5 85t94 42.5t125.5 12.5h30q0 70 -14 106.5t-37.5 50t-53.5 13.5q-42 0 -70.5 -18t-39.5 -67h-45q0 26 3 48.5t22 41.5t62 27t88 8q34 0 65.5 -8t56 -29.5t39 -63t14.5 -109.5v-270h-50l-35 45h-5
q-15 -19 -49 -37t-91 -18zM229 35q37 0 58.5 18.5t36.5 41.5v135h-30q-75 0 -117.5 -27.5t-42.5 -72.5q0 -49 29 -72t66 -23zM241 -157q-18 0 -31.5 13.5t-13.5 32.5q0 18 13.5 31t31.5 13q19 0 31.5 -13t12.5 -31q0 -19 -13 -32.5t-31 -13.5z" />
    <glyph glyph-name="uni1EA2" unicode="&#x1ea2;" horiz-adv-x="635" 
d="M622 -5q-22 0 -54 8.5t-63 36t-53 85.5l-25 65h-280l-80 -190h-45l280 660h30l220 -535q24 -56 46 -78.5t64 -26.5v-20q-18 -5 -40 -5zM162 230h245l-120 290zM319 711q1 26 9.5 43t17 30.5t8.5 26.5q0 30 -33 30q-19 0 -31 -10.5t-17 -39.5l-42 1q0 40 24.5 63t65.5 23
q29 0 56.5 -13.5t27.5 -43.5q0 -21 -13 -35.5t-26.5 -30.5t-15.5 -44h-31z" />
    <glyph glyph-name="uni1EA3" unicode="&#x1ea3;" horiz-adv-x="481" 
d="M184 -10q-21 0 -45.5 6.5t-47.5 22.5t-37.5 43t-14.5 68q0 55 35.5 85t94 42.5t125.5 12.5h30q0 70 -14 106.5t-37.5 50t-53.5 13.5q-42 0 -70.5 -18t-39.5 -67h-45q0 26 3 48.5t22 41.5t62 27t88 8q34 0 65.5 -8t56 -29.5t39 -63t14.5 -109.5v-270h-50l-35 45h-5
q-15 -19 -49 -37t-91 -18zM229 35q37 0 58.5 18.5t36.5 41.5v135h-30q-75 0 -117.5 -27.5t-42.5 -72.5q0 -49 29 -72t66 -23zM242 521q1 26 9.5 43t17 30.5t8.5 26.5q0 30 -33 30q-19 0 -31 -10.5t-17 -39.5l-42 1q0 40 24.5 63t65.5 23q29 0 56.5 -13.5t27.5 -43.5
q0 -21 -13 -35.5t-26.5 -30.5t-15.5 -44h-31z" />
    <glyph glyph-name="uni1EA4" unicode="&#x1ea4;" horiz-adv-x="635" 
d="M622 -5q-22 0 -54 8.5t-63 36t-53 85.5l-25 65h-280l-80 -190h-45l280 660h30l220 -535q24 -56 46 -78.5t64 -26.5v-20q-18 -5 -40 -5zM162 230h245l-120 290zM183 710l80 115h110l80 -115h-50l-85 80l-85 -80h-50zM443 767l40 130h95l-95 -130h-40z" />
    <glyph glyph-name="uni1EA5" unicode="&#x1ea5;" horiz-adv-x="481" 
d="M184 -10q-21 0 -45.5 6.5t-47.5 22.5t-37.5 43t-14.5 68q0 55 35.5 85t94 42.5t125.5 12.5h30q0 70 -14 106.5t-37.5 50t-53.5 13.5q-42 0 -70.5 -18t-39.5 -67h-45q0 26 3 48.5t22 41.5t62 27t88 8q34 0 65.5 -8t56 -29.5t39 -63t14.5 -109.5v-270h-50l-35 45h-5
q-15 -19 -49 -37t-91 -18zM229 35q37 0 58.5 18.5t36.5 41.5v135h-30q-75 0 -117.5 -27.5t-42.5 -72.5q0 -49 29 -72t66 -23zM106 520l80 115h110l80 -115h-50l-85 80l-85 -80h-50zM366 577l40 130h95l-95 -130h-40z" />
    <glyph glyph-name="uni1EA6" unicode="&#x1ea6;" horiz-adv-x="635" 
d="M622 -5q-22 0 -54 8.5t-63 36t-53 85.5l-25 65h-280l-80 -190h-45l280 660h30l220 -535q24 -56 46 -78.5t64 -26.5v-20q-18 -5 -40 -5zM162 230h245l-120 290zM183 710l80 115h110l80 -115h-50l-85 80l-85 -80h-50zM446 793l-95 130h95l40 -130h-40z" />
    <glyph glyph-name="uni1EA7" unicode="&#x1ea7;" horiz-adv-x="481" 
d="M184 -10q-21 0 -45.5 6.5t-47.5 22.5t-37.5 43t-14.5 68q0 55 35.5 85t94 42.5t125.5 12.5h30q0 70 -14 106.5t-37.5 50t-53.5 13.5q-42 0 -70.5 -18t-39.5 -67h-45q0 26 3 48.5t22 41.5t62 27t88 8q34 0 65.5 -8t56 -29.5t39 -63t14.5 -109.5v-270h-50l-35 45h-5
q-15 -19 -49 -37t-91 -18zM229 35q37 0 58.5 18.5t36.5 41.5v135h-30q-75 0 -117.5 -27.5t-42.5 -72.5q0 -49 29 -72t66 -23zM106 520l80 115h110l80 -115h-50l-85 80l-85 -80h-50zM369 603l-95 130h95l40 -130h-40z" />
    <glyph glyph-name="uni1EA8" unicode="&#x1ea8;" horiz-adv-x="635" 
d="M622 -5q-22 0 -54 8.5t-63 36t-53 85.5l-25 65h-280l-80 -190h-45l280 660h30l220 -535q24 -56 46 -78.5t64 -26.5v-20q-18 -5 -40 -5zM162 230h245l-120 290zM183 710l80 115h110l80 -115h-50l-85 80l-85 -80h-50zM434 798q1 26 9.5 43t17 30.5t8.5 26.5q0 30 -33 30
q-19 0 -31 -10.5t-17 -39.5l-42 1q0 40 24.5 63t65.5 23q29 0 56.5 -13.5t27.5 -43.5q0 -21 -13 -35.5t-26.5 -30.5t-15.5 -44h-31z" />
    <glyph glyph-name="uni1EA9" unicode="&#x1ea9;" horiz-adv-x="481" 
d="M184 -10q-21 0 -45.5 6.5t-47.5 22.5t-37.5 43t-14.5 68q0 55 35.5 85t94 42.5t125.5 12.5h30q0 70 -14 106.5t-37.5 50t-53.5 13.5q-42 0 -70.5 -18t-39.5 -67h-45q0 26 3 48.5t22 41.5t62 27t88 8q34 0 65.5 -8t56 -29.5t39 -63t14.5 -109.5v-270h-50l-35 45h-5
q-15 -19 -49 -37t-91 -18zM229 35q37 0 58.5 18.5t36.5 41.5v135h-30q-75 0 -117.5 -27.5t-42.5 -72.5q0 -49 29 -72t66 -23zM106 520l80 115h110l80 -115h-50l-85 80l-85 -80h-50zM357 608q1 26 9.5 43t17 30.5t8.5 26.5q0 30 -33 30q-19 0 -31 -10.5t-17 -39.5l-42 1
q0 40 24.5 63t65.5 23q29 0 56.5 -13.5t27.5 -43.5q0 -21 -13 -35.5t-26.5 -30.5t-15.5 -44h-31z" />
    <glyph glyph-name="uni1EAA" unicode="&#x1eaa;" horiz-adv-x="635" 
d="M622 -5q-22 0 -54 8.5t-63 36t-53 85.5l-25 65h-280l-80 -190h-45l280 660h30l220 -535q24 -56 46 -78.5t64 -26.5v-20q-18 -5 -40 -5zM162 230h245l-120 290zM183 710l80 115h110l80 -115h-50l-85 80l-85 -80h-50zM205 858q0 53 15 74t45 21q22 0 38 -10l32 -20t35 -10
q11 0 20.5 14.5t9.5 25.5h30q0 -53 -15 -74t-45 -21q-21 0 -37 10l-32 20t-36 10q-11 0 -20.5 -14.5t-9.5 -25.5h-30z" />
    <glyph glyph-name="uni1EAB" unicode="&#x1eab;" horiz-adv-x="481" 
d="M184 -10q-21 0 -45.5 6.5t-47.5 22.5t-37.5 43t-14.5 68q0 55 35.5 85t94 42.5t125.5 12.5h30q0 70 -14 106.5t-37.5 50t-53.5 13.5q-42 0 -70.5 -18t-39.5 -67h-45q0 26 3 48.5t22 41.5t62 27t88 8q34 0 65.5 -8t56 -29.5t39 -63t14.5 -109.5v-270h-50l-35 45h-5
q-15 -19 -49 -37t-91 -18zM229 35q37 0 58.5 18.5t36.5 41.5v135h-30q-75 0 -117.5 -27.5t-42.5 -72.5q0 -49 29 -72t66 -23zM106 520l80 115h110l80 -115h-50l-85 80l-85 -80h-50zM128 668q0 53 15 74t45 21q22 0 38 -10l32 -20t35 -10q11 0 20.5 14.5t9.5 25.5h30
q0 -53 -15 -74t-45 -21q-21 0 -37 10l-32 20t-36 10q-11 0 -20.5 -14.5t-9.5 -25.5h-30z" />
    <glyph glyph-name="uni1EAC" unicode="&#x1eac;" horiz-adv-x="635" 
d="M622 -5q-22 0 -54 8.5t-63 36t-53 85.5l-25 65h-280l-80 -190h-45l280 660h30l220 -535q24 -56 46 -78.5t64 -26.5v-20q-18 -5 -40 -5zM162 230h245l-120 290zM318 -157q-18 0 -31.5 13.5t-13.5 32.5q0 18 13.5 31t31.5 13q19 0 31.5 -13t12.5 -31q0 -19 -13 -32.5
t-31 -13.5zM183 710l80 115h110l80 -115h-50l-85 80l-85 -80h-50z" />
    <glyph glyph-name="uni1EAD" unicode="&#x1ead;" horiz-adv-x="481" 
d="M184 -10q-21 0 -45.5 6.5t-47.5 22.5t-37.5 43t-14.5 68q0 55 35.5 85t94 42.5t125.5 12.5h30q0 70 -14 106.5t-37.5 50t-53.5 13.5q-42 0 -70.5 -18t-39.5 -67h-45q0 26 3 48.5t22 41.5t62 27t88 8q34 0 65.5 -8t56 -29.5t39 -63t14.5 -109.5v-270h-50l-35 45h-5
q-15 -19 -49 -37t-91 -18zM229 35q37 0 58.5 18.5t36.5 41.5v135h-30q-75 0 -117.5 -27.5t-42.5 -72.5q0 -49 29 -72t66 -23zM241 -157q-18 0 -31.5 13.5t-13.5 32.5q0 18 13.5 31t31.5 13q19 0 31.5 -13t12.5 -31q0 -19 -13 -32.5t-31 -13.5zM106 520l80 115h110l80 -115
h-50l-85 80l-85 -80h-50z" />
    <glyph glyph-name="uni1EAE" unicode="&#x1eae;" horiz-adv-x="635" 
d="M622 -5q-22 0 -54 8.5t-63 36t-53 85.5l-25 65h-280l-80 -190h-45l280 660h30l220 -535q24 -56 46 -78.5t64 -26.5v-20q-18 -5 -40 -5zM162 230h245l-120 290zM318 701q-49 0 -80 23t-50 57l20 15q19 -19 43.5 -29.5t66.5 -10.5t66.5 10.5t43.5 29.5l20 -15
q-19 -34 -50 -57t-80 -23zM290 841l40 130h95l-95 -130h-40z" />
    <glyph glyph-name="uni1EAF" unicode="&#x1eaf;" horiz-adv-x="481" 
d="M184 -10q-21 0 -45.5 6.5t-47.5 22.5t-37.5 43t-14.5 68q0 55 35.5 85t94 42.5t125.5 12.5h30q0 70 -14 106.5t-37.5 50t-53.5 13.5q-42 0 -70.5 -18t-39.5 -67h-45q0 26 3 48.5t22 41.5t62 27t88 8q34 0 65.5 -8t56 -29.5t39 -63t14.5 -109.5v-270h-50l-35 45h-5
q-15 -19 -49 -37t-91 -18zM229 35q37 0 58.5 18.5t36.5 41.5v135h-30q-75 0 -117.5 -27.5t-42.5 -72.5q0 -49 29 -72t66 -23zM241 511q-49 0 -80 23t-50 57l20 15q19 -19 43.5 -29.5t66.5 -10.5t66.5 10.5t43.5 29.5l20 -15q-19 -34 -50 -57t-80 -23zM213 651l40 130h95
l-95 -130h-40z" />
    <glyph glyph-name="uni1EB0" unicode="&#x1eb0;" horiz-adv-x="635" 
d="M622 -5q-22 0 -54 8.5t-63 36t-53 85.5l-25 65h-280l-80 -190h-45l280 660h30l220 -535q24 -56 46 -78.5t64 -26.5v-20q-18 -5 -40 -5zM162 230h245l-120 290zM318 701q-49 0 -80 23t-50 57l20 15q19 -19 43.5 -29.5t66.5 -10.5t66.5 10.5t43.5 29.5l20 -15
q-19 -34 -50 -57t-80 -23zM308 841l-95 130h95l40 -130h-40z" />
    <glyph glyph-name="uni1EB1" unicode="&#x1eb1;" horiz-adv-x="481" 
d="M184 -10q-21 0 -45.5 6.5t-47.5 22.5t-37.5 43t-14.5 68q0 55 35.5 85t94 42.5t125.5 12.5h30q0 70 -14 106.5t-37.5 50t-53.5 13.5q-42 0 -70.5 -18t-39.5 -67h-45q0 26 3 48.5t22 41.5t62 27t88 8q34 0 65.5 -8t56 -29.5t39 -63t14.5 -109.5v-270h-50l-35 45h-5
q-15 -19 -49 -37t-91 -18zM229 35q37 0 58.5 18.5t36.5 41.5v135h-30q-75 0 -117.5 -27.5t-42.5 -72.5q0 -49 29 -72t66 -23zM241 511q-49 0 -80 23t-50 57l20 15q19 -19 43.5 -29.5t66.5 -10.5t66.5 10.5t43.5 29.5l20 -15q-19 -34 -50 -57t-80 -23zM231 651l-95 130h95
l40 -130h-40z" />
    <glyph glyph-name="uni1EB2" unicode="&#x1eb2;" horiz-adv-x="635" 
d="M622 -5q-22 0 -54 8.5t-63 36t-53 85.5l-25 65h-280l-80 -190h-45l280 660h30l220 -535q24 -56 46 -78.5t64 -26.5v-20q-18 -5 -40 -5zM162 230h245l-120 290zM318 701q-49 0 -80 23t-50 57l20 15q19 -19 43.5 -29.5t66.5 -10.5t66.5 10.5t43.5 29.5l20 -15
q-19 -34 -50 -57t-80 -23zM298 808q1 26 9.5 43t17 30.5t8.5 26.5q0 30 -33 30q-19 0 -31 -10.5t-17 -39.5l-42 1q0 40 24.5 63t65.5 23q29 0 56.5 -13.5t27.5 -43.5q0 -21 -13 -35.5t-26.5 -30.5t-15.5 -44h-31z" />
    <glyph glyph-name="uni1EB3" unicode="&#x1eb3;" horiz-adv-x="481" 
d="M184 -10q-21 0 -45.5 6.5t-47.5 22.5t-37.5 43t-14.5 68q0 55 35.5 85t94 42.5t125.5 12.5h30q0 70 -14 106.5t-37.5 50t-53.5 13.5q-42 0 -70.5 -18t-39.5 -67h-45q0 26 3 48.5t22 41.5t62 27t88 8q34 0 65.5 -8t56 -29.5t39 -63t14.5 -109.5v-270h-50l-35 45h-5
q-15 -19 -49 -37t-91 -18zM229 35q37 0 58.5 18.5t36.5 41.5v135h-30q-75 0 -117.5 -27.5t-42.5 -72.5q0 -49 29 -72t66 -23zM241 511q-49 0 -80 23t-50 57l20 15q19 -19 43.5 -29.5t66.5 -10.5t66.5 10.5t43.5 29.5l20 -15q-19 -34 -50 -57t-80 -23zM221 618q1 26 9.5 43
t17 30.5t8.5 26.5q0 30 -33 30q-19 0 -31 -10.5t-17 -39.5l-42 1q0 40 24.5 63t65.5 23q29 0 56.5 -13.5t27.5 -43.5q0 -21 -13 -35.5t-26.5 -30.5t-15.5 -44h-31z" />
    <glyph glyph-name="uni1EB4" unicode="&#x1eb4;" horiz-adv-x="635" 
d="M622 -5q-22 0 -54 8.5t-63 36t-53 85.5l-25 65h-280l-80 -190h-45l280 660h30l220 -535q24 -56 46 -78.5t64 -26.5v-20q-18 -5 -40 -5zM162 230h245l-120 290zM318 701q-49 0 -80 23t-50 57l20 15q19 -19 43.5 -29.5t66.5 -10.5t66.5 10.5t43.5 29.5l20 -15
q-19 -34 -50 -57t-80 -23zM205 832q0 53 15 74t45 21q22 0 38 -10l32 -20t35 -10q11 0 20.5 14.5t9.5 25.5h30q0 -53 -15 -74t-45 -21q-21 0 -37 10l-32 20t-36 10q-11 0 -20.5 -14.5t-9.5 -25.5h-30z" />
    <glyph glyph-name="uni1EB5" unicode="&#x1eb5;" horiz-adv-x="481" 
d="M184 -10q-21 0 -45.5 6.5t-47.5 22.5t-37.5 43t-14.5 68q0 55 35.5 85t94 42.5t125.5 12.5h30q0 70 -14 106.5t-37.5 50t-53.5 13.5q-42 0 -70.5 -18t-39.5 -67h-45q0 26 3 48.5t22 41.5t62 27t88 8q34 0 65.5 -8t56 -29.5t39 -63t14.5 -109.5v-270h-50l-35 45h-5
q-15 -19 -49 -37t-91 -18zM229 35q37 0 58.5 18.5t36.5 41.5v135h-30q-75 0 -117.5 -27.5t-42.5 -72.5q0 -49 29 -72t66 -23zM241 511q-49 0 -80 23t-50 57l20 15q19 -19 43.5 -29.5t66.5 -10.5t66.5 10.5t43.5 29.5l20 -15q-19 -34 -50 -57t-80 -23zM128 642q0 53 15 74
t45 21q22 0 38 -10l32 -20t35 -10q11 0 20.5 14.5t9.5 25.5h30q0 -53 -15 -74t-45 -21q-21 0 -37 10l-32 20t-36 10q-11 0 -20.5 -14.5t-9.5 -25.5h-30z" />
    <glyph glyph-name="uni1EB6" unicode="&#x1eb6;" horiz-adv-x="635" 
d="M622 -5q-22 0 -54 8.5t-63 36t-53 85.5l-25 65h-280l-80 -190h-45l280 660h30l220 -535q24 -56 46 -78.5t64 -26.5v-20q-18 -5 -40 -5zM162 230h245l-120 290zM318 -157q-18 0 -31.5 13.5t-13.5 32.5q0 18 13.5 31t31.5 13q19 0 31.5 -13t12.5 -31q0 -19 -13 -32.5
t-31 -13.5zM318 701q-49 0 -80 23t-50 57l20 15q19 -19 43.5 -29.5t66.5 -10.5t66.5 10.5t43.5 29.5l20 -15q-19 -34 -50 -57t-80 -23z" />
    <glyph glyph-name="uni1EB7" unicode="&#x1eb7;" horiz-adv-x="481" 
d="M184 -10q-21 0 -45.5 6.5t-47.5 22.5t-37.5 43t-14.5 68q0 55 35.5 85t94 42.5t125.5 12.5h30q0 70 -14 106.5t-37.5 50t-53.5 13.5q-42 0 -70.5 -18t-39.5 -67h-45q0 26 3 48.5t22 41.5t62 27t88 8q34 0 65.5 -8t56 -29.5t39 -63t14.5 -109.5v-270h-50l-35 45h-5
q-15 -19 -49 -37t-91 -18zM229 35q37 0 58.5 18.5t36.5 41.5v135h-30q-75 0 -117.5 -27.5t-42.5 -72.5q0 -49 29 -72t66 -23zM241 -157q-18 0 -31.5 13.5t-13.5 32.5q0 18 13.5 31t31.5 13q19 0 31.5 -13t12.5 -31q0 -19 -13 -32.5t-31 -13.5zM241 511q-49 0 -80 23t-50 57
l20 15q19 -19 43.5 -29.5t66.5 -10.5t66.5 10.5t43.5 29.5l20 -15q-19 -34 -50 -57t-80 -23z" />
    <glyph glyph-name="uni1EB8" unicode="&#x1eb8;" horiz-adv-x="590" 
d="M106 0v540q0 45 -12.5 72.5t-57.5 27.5h-20v20h426q35 0 53 -11.5t25 -30t7 -38.5v-75h-20q0 60 -32.5 87.5t-92.5 27.5h-186v-260h270v-40h-270v-280h175q68 0 107.5 25t62.5 85l20 -5l-35 -95q-8 -23 -26.5 -36.5t-48.5 -13.5h-345zM295 -157q-18 0 -31.5 13.5
t-13.5 32.5q0 18 13.5 31t31.5 13q19 0 31.5 -13t12.5 -31q0 -19 -13 -32.5t-31 -13.5z" />
    <glyph glyph-name="uni1EB9" unicode="&#x1eb9;" horiz-adv-x="488" 
d="M255 -10q-70 0 -116.5 33t-70 89t-23.5 123q0 68 24 123.5t69 88.5t107 33q102 0 151 -57t49 -163l-2 -40h-303q0 -82 35.5 -136t99.5 -54q49 0 81.5 21t58.5 59l20 -15q-34 -57 -78.5 -81t-101.5 -24zM140 260h210q0 87 -26 133.5t-79 46.5q-30 0 -53.5 -23.5t-37.5 -64
t-14 -92.5zM244 -157q-18 0 -31.5 13.5t-13.5 32.5q0 18 13.5 31t31.5 13q19 0 31.5 -13t12.5 -31q0 -19 -13 -32.5t-31 -13.5z" />
    <glyph glyph-name="uni1EBA" unicode="&#x1eba;" horiz-adv-x="590" 
d="M106 0v540q0 45 -12.5 72.5t-57.5 27.5h-20v20h426q35 0 53 -11.5t25 -30t7 -38.5v-75h-20q0 60 -32.5 87.5t-92.5 27.5h-186v-260h270v-40h-270v-280h175q68 0 107.5 25t62.5 85l20 -5l-35 -95q-8 -23 -26.5 -36.5t-48.5 -13.5h-345zM296 711q1 26 9.5 43t17 30.5
t8.5 26.5q0 30 -33 30q-19 0 -31 -10.5t-17 -39.5l-42 1q0 40 24.5 63t65.5 23q29 0 56.5 -13.5t27.5 -43.5q0 -21 -13 -35.5t-26.5 -30.5t-15.5 -44h-31z" />
    <glyph glyph-name="uni1EBB" unicode="&#x1ebb;" horiz-adv-x="488" 
d="M255 -10q-70 0 -116.5 33t-70 89t-23.5 123q0 68 24 123.5t69 88.5t107 33q102 0 151 -57t49 -163l-2 -40h-303q0 -82 35.5 -136t99.5 -54q49 0 81.5 21t58.5 59l20 -15q-34 -57 -78.5 -81t-101.5 -24zM140 260h210q0 87 -26 133.5t-79 46.5q-30 0 -53.5 -23.5t-37.5 -64
t-14 -92.5zM245 521q1 26 9.5 43t17 30.5t8.5 26.5q0 30 -33 30q-19 0 -31 -10.5t-17 -39.5l-42 1q0 40 24.5 63t65.5 23q29 0 56.5 -13.5t27.5 -43.5q0 -21 -13 -35.5t-26.5 -30.5t-15.5 -44h-31z" />
    <glyph glyph-name="uni1EBC" unicode="&#x1ebc;" horiz-adv-x="590" 
d="M106 0v540q0 45 -12.5 72.5t-57.5 27.5h-20v20h426q35 0 53 -11.5t25 -30t7 -38.5v-75h-20q0 60 -32.5 87.5t-92.5 27.5h-186v-260h270v-40h-270v-280h175q68 0 107.5 25t62.5 85l20 -5l-35 -95q-8 -23 -26.5 -36.5t-48.5 -13.5h-345zM182 746q0 53 15 74t45 21
q22 0 38 -10l32 -20t35 -10q11 0 20.5 14.5t9.5 25.5h30q0 -53 -15 -74t-45 -21q-21 0 -37 10l-32 20t-36 10q-11 0 -20.5 -14.5t-9.5 -25.5h-30z" />
    <glyph glyph-name="uni1EBD" unicode="&#x1ebd;" horiz-adv-x="488" 
d="M255 -10q-70 0 -116.5 33t-70 89t-23.5 123q0 68 24 123.5t69 88.5t107 33q102 0 151 -57t49 -163l-2 -40h-303q0 -82 35.5 -136t99.5 -54q49 0 81.5 21t58.5 59l20 -15q-34 -57 -78.5 -81t-101.5 -24zM140 260h210q0 87 -26 133.5t-79 46.5q-30 0 -53.5 -23.5t-37.5 -64
t-14 -92.5zM131 556q0 53 15 74t45 21q22 0 38 -10l32 -20t35 -10q11 0 20.5 14.5t9.5 25.5h30q0 -53 -15 -74t-45 -21q-21 0 -37 10l-32 20t-36 10q-11 0 -20.5 -14.5t-9.5 -25.5h-30z" />
    <glyph glyph-name="uni1EBE" unicode="&#x1ebe;" horiz-adv-x="590" 
d="M106 0v540q0 45 -12.5 72.5t-57.5 27.5h-20v20h426q35 0 53 -11.5t25 -30t7 -38.5v-75h-20q0 60 -32.5 87.5t-92.5 27.5h-186v-260h270v-40h-270v-280h175q68 0 107.5 25t62.5 85l20 -5l-35 -95q-8 -23 -26.5 -36.5t-48.5 -13.5h-345zM160 710l80 115h110l80 -115h-50
l-85 80l-85 -80h-50zM420 767l40 130h95l-95 -130h-40z" />
    <glyph glyph-name="uni1EBF" unicode="&#x1ebf;" horiz-adv-x="488" 
d="M255 -10q-70 0 -116.5 33t-70 89t-23.5 123q0 68 24 123.5t69 88.5t107 33q102 0 151 -57t49 -163l-2 -40h-303q0 -82 35.5 -136t99.5 -54q49 0 81.5 21t58.5 59l20 -15q-34 -57 -78.5 -81t-101.5 -24zM140 260h210q0 87 -26 133.5t-79 46.5q-30 0 -53.5 -23.5t-37.5 -64
t-14 -92.5zM109 520l80 115h110l80 -115h-50l-85 80l-85 -80h-50zM369 577l40 130h95l-95 -130h-40z" />
    <glyph glyph-name="uni1EC0" unicode="&#x1ec0;" horiz-adv-x="590" 
d="M106 0v540q0 45 -12.5 72.5t-57.5 27.5h-20v20h426q35 0 53 -11.5t25 -30t7 -38.5v-75h-20q0 60 -32.5 87.5t-92.5 27.5h-186v-260h270v-40h-270v-280h175q68 0 107.5 25t62.5 85l20 -5l-35 -95q-8 -23 -26.5 -36.5t-48.5 -13.5h-345zM160 710l80 115h110l80 -115h-50
l-85 80l-85 -80h-50zM423 793l-95 130h95l40 -130h-40z" />
    <glyph glyph-name="uni1EC1" unicode="&#x1ec1;" horiz-adv-x="488" 
d="M255 -10q-70 0 -116.5 33t-70 89t-23.5 123q0 68 24 123.5t69 88.5t107 33q102 0 151 -57t49 -163l-2 -40h-303q0 -82 35.5 -136t99.5 -54q49 0 81.5 21t58.5 59l20 -15q-34 -57 -78.5 -81t-101.5 -24zM140 260h210q0 87 -26 133.5t-79 46.5q-30 0 -53.5 -23.5t-37.5 -64
t-14 -92.5zM109 520l80 115h110l80 -115h-50l-85 80l-85 -80h-50zM372 603l-95 130h95l40 -130h-40z" />
    <glyph glyph-name="uni1EC2" unicode="&#x1ec2;" horiz-adv-x="590" 
d="M106 0v540q0 45 -12.5 72.5t-57.5 27.5h-20v20h426q35 0 53 -11.5t25 -30t7 -38.5v-75h-20q0 60 -32.5 87.5t-92.5 27.5h-186v-260h270v-40h-270v-280h175q68 0 107.5 25t62.5 85l20 -5l-35 -95q-8 -23 -26.5 -36.5t-48.5 -13.5h-345zM160 710l80 115h110l80 -115h-50
l-85 80l-85 -80h-50zM411 798q1 26 9.5 43t17 30.5t8.5 26.5q0 30 -33 30q-19 0 -31 -10.5t-17 -39.5l-42 1q0 40 24.5 63t65.5 23q29 0 56.5 -13.5t27.5 -43.5q0 -21 -13 -35.5t-26.5 -30.5t-15.5 -44h-31z" />
    <glyph glyph-name="uni1EC3" unicode="&#x1ec3;" horiz-adv-x="488" 
d="M255 -10q-70 0 -116.5 33t-70 89t-23.5 123q0 68 24 123.5t69 88.5t107 33q102 0 151 -57t49 -163l-2 -40h-303q0 -82 35.5 -136t99.5 -54q49 0 81.5 21t58.5 59l20 -15q-34 -57 -78.5 -81t-101.5 -24zM140 260h210q0 87 -26 133.5t-79 46.5q-30 0 -53.5 -23.5t-37.5 -64
t-14 -92.5zM109 520l80 115h110l80 -115h-50l-85 80l-85 -80h-50zM360 608q1 26 9.5 43t17 30.5t8.5 26.5q0 30 -33 30q-19 0 -31 -10.5t-17 -39.5l-42 1q0 40 24.5 63t65.5 23q29 0 56.5 -13.5t27.5 -43.5q0 -21 -13 -35.5t-26.5 -30.5t-15.5 -44h-31z" />
    <glyph glyph-name="uni1EC4" unicode="&#x1ec4;" horiz-adv-x="590" 
d="M106 0v540q0 45 -12.5 72.5t-57.5 27.5h-20v20h426q35 0 53 -11.5t25 -30t7 -38.5v-75h-20q0 60 -32.5 87.5t-92.5 27.5h-186v-260h270v-40h-270v-280h175q68 0 107.5 25t62.5 85l20 -5l-35 -95q-8 -23 -26.5 -36.5t-48.5 -13.5h-345zM160 710l80 115h110l80 -115h-50
l-85 80l-85 -80h-50zM182 858q0 53 15 74t45 21q22 0 38 -10l32 -20t35 -10q11 0 20.5 14.5t9.5 25.5h30q0 -53 -15 -74t-45 -21q-21 0 -37 10l-32 20t-36 10q-11 0 -20.5 -14.5t-9.5 -25.5h-30z" />
    <glyph glyph-name="uni1EC5" unicode="&#x1ec5;" horiz-adv-x="488" 
d="M255 -10q-70 0 -116.5 33t-70 89t-23.5 123q0 68 24 123.5t69 88.5t107 33q102 0 151 -57t49 -163l-2 -40h-303q0 -82 35.5 -136t99.5 -54q49 0 81.5 21t58.5 59l20 -15q-34 -57 -78.5 -81t-101.5 -24zM140 260h210q0 87 -26 133.5t-79 46.5q-30 0 -53.5 -23.5t-37.5 -64
t-14 -92.5zM109 520l80 115h110l80 -115h-50l-85 80l-85 -80h-50zM131 668q0 53 15 74t45 21q22 0 38 -10l32 -20t35 -10q11 0 20.5 14.5t9.5 25.5h30q0 -53 -15 -74t-45 -21q-21 0 -37 10l-32 20t-36 10q-11 0 -20.5 -14.5t-9.5 -25.5h-30z" />
    <glyph glyph-name="uni1EC6" unicode="&#x1ec6;" horiz-adv-x="590" 
d="M106 0v540q0 45 -12.5 72.5t-57.5 27.5h-20v20h426q35 0 53 -11.5t25 -30t7 -38.5v-75h-20q0 60 -32.5 87.5t-92.5 27.5h-186v-260h270v-40h-270v-280h175q68 0 107.5 25t62.5 85l20 -5l-35 -95q-8 -23 -26.5 -36.5t-48.5 -13.5h-345zM295 -157q-18 0 -31.5 13.5
t-13.5 32.5q0 18 13.5 31t31.5 13q19 0 31.5 -13t12.5 -31q0 -19 -13 -32.5t-31 -13.5zM160 710l80 115h110l80 -115h-50l-85 80l-85 -80h-50z" />
    <glyph glyph-name="uni1EC7" unicode="&#x1ec7;" horiz-adv-x="488" 
d="M255 -10q-70 0 -116.5 33t-70 89t-23.5 123q0 68 24 123.5t69 88.5t107 33q102 0 151 -57t49 -163l-2 -40h-303q0 -82 35.5 -136t99.5 -54q49 0 81.5 21t58.5 59l20 -15q-34 -57 -78.5 -81t-101.5 -24zM140 260h210q0 87 -26 133.5t-79 46.5q-30 0 -53.5 -23.5t-37.5 -64
t-14 -92.5zM244 -157q-18 0 -31.5 13.5t-13.5 32.5q0 18 13.5 31t31.5 13q19 0 31.5 -13t12.5 -31q0 -19 -13 -32.5t-31 -13.5zM109 520l80 115h110l80 -115h-50l-85 80l-85 -80h-50z" />
    <glyph glyph-name="uni1EC8" unicode="&#x1ec8;" horiz-adv-x="285" 
d="M179 0q-35 0 -54.5 9t-27.5 35t-8 76v540h90v-540q0 -45 12.5 -72.5t57.5 -27.5h20v-20h-90zM144 711q1 26 9.5 43t17 30.5t8.5 26.5q0 30 -33 30q-19 0 -31 -10.5t-17 -39.5l-42 1q0 40 24.5 63t65.5 23q29 0 56.5 -13.5t27.5 -43.5q0 -21 -13 -35.5t-26.5 -30.5
t-15.5 -44h-31z" />
    <glyph glyph-name="uni1EC9" unicode="&#x1ec9;" horiz-adv-x="246" 
d="M87 0v350q0 45 -12.5 72.5t-57.5 27.5h-20v20h90q35 0 54.5 -9t27.5 -35t8 -76v-350h-90zM124 521q1 26 9.5 43t17 30.5t8.5 26.5q0 30 -33 30q-19 0 -31 -10.5t-17 -39.5l-42 1q0 40 24.5 63t65.5 23q29 0 56.5 -13.5t27.5 -43.5q0 -21 -13 -35.5t-26.5 -30.5t-15.5 -44
h-31z" />
    <glyph glyph-name="uni1ECA" unicode="&#x1eca;" horiz-adv-x="285" 
d="M179 0q-35 0 -54.5 9t-27.5 35t-8 76v540h90v-540q0 -45 12.5 -72.5t57.5 -27.5h20v-20h-90zM143 -157q-18 0 -31.5 13.5t-13.5 32.5q0 18 13.5 31t31.5 13q19 0 31.5 -13t12.5 -31q0 -19 -13 -32.5t-31 -13.5z" />
    <glyph glyph-name="uni1ECB" unicode="&#x1ecb;" horiz-adv-x="246" 
d="M125 530q-23 0 -39.5 19t-16.5 45q0 21 12.5 33t33.5 12q23 0 39.5 -19t16.5 -45q0 -21 -12.5 -33t-33.5 -12zM87 0v350q0 45 -12.5 72.5t-57.5 27.5h-20v20h90q35 0 54.5 -9t27.5 -35t8 -76v-350h-90zM123 -157q-18 0 -31.5 13.5t-13.5 32.5q0 18 13.5 31t31.5 13
q19 0 31.5 -13t12.5 -31q0 -19 -13 -32.5t-31 -13.5z" />
    <glyph glyph-name="uni1ECC" unicode="&#x1ecc;" horiz-adv-x="712" 
d="M356 -20q-95 0 -164.5 46.5t-107.5 126t-38 177.5t38 177.5t107.5 126t164.5 46.5t164.5 -46.5t107.5 -126t38 -177.5t-38 -177.5t-107.5 -126t-164.5 -46.5zM356 20q66 0 113 38t72 107.5t25 164.5t-25 164.5t-72 107.5t-113 38q-65 0 -112.5 -38t-72.5 -107.5
t-25 -164.5t25 -164.5t72.5 -107.5t112.5 -38zM356 -157q-18 0 -31.5 13.5t-13.5 32.5q0 18 13.5 31t31.5 13q19 0 31.5 -13t12.5 -31q0 -19 -13 -32.5t-31 -13.5z" />
    <glyph glyph-name="uni1ECD" unicode="&#x1ecd;" 
d="M265 -10q-70 0 -119 33t-75 89t-26 123q0 68 26 123.5t75 88.5t119 33t119 -33t75 -88.5t26 -123.5q0 -67 -26 -123t-75 -89t-119 -33zM265 30q38 0 66 27.5t43.5 74t15.5 103.5q0 58 -15.5 104t-43.5 73.5t-66 27.5q-37 0 -65.5 -27.5t-44 -73.5t-15.5 -104
q0 -57 15.5 -103.5t44 -74t65.5 -27.5zM265 -157q-18 0 -31.5 13.5t-13.5 32.5q0 18 13.5 31t31.5 13q19 0 31.5 -13t12.5 -31q0 -19 -13 -32.5t-31 -13.5z" />
    <glyph glyph-name="uni1ECE" unicode="&#x1ece;" horiz-adv-x="712" 
d="M356 -20q-95 0 -164.5 46.5t-107.5 126t-38 177.5t38 177.5t107.5 126t164.5 46.5t164.5 -46.5t107.5 -126t38 -177.5t-38 -177.5t-107.5 -126t-164.5 -46.5zM356 20q66 0 113 38t72 107.5t25 164.5t-25 164.5t-72 107.5t-113 38q-65 0 -112.5 -38t-72.5 -107.5
t-25 -164.5t25 -164.5t72.5 -107.5t112.5 -38zM357 711q1 26 9.5 43t17 30.5t8.5 26.5q0 30 -33 30q-19 0 -31 -10.5t-17 -39.5l-42 1q0 40 24.5 63t65.5 23q29 0 56.5 -13.5t27.5 -43.5q0 -21 -13 -35.5t-26.5 -30.5t-15.5 -44h-31z" />
    <glyph glyph-name="uni1ECF" unicode="&#x1ecf;" 
d="M265 -10q-70 0 -119 33t-75 89t-26 123q0 68 26 123.5t75 88.5t119 33t119 -33t75 -88.5t26 -123.5q0 -67 -26 -123t-75 -89t-119 -33zM265 30q38 0 66 27.5t43.5 74t15.5 103.5q0 58 -15.5 104t-43.5 73.5t-66 27.5q-37 0 -65.5 -27.5t-44 -73.5t-15.5 -104
q0 -57 15.5 -103.5t44 -74t65.5 -27.5zM266 521q1 26 9.5 43t17 30.5t8.5 26.5q0 30 -33 30q-19 0 -31 -10.5t-17 -39.5l-42 1q0 40 24.5 63t65.5 23q29 0 56.5 -13.5t27.5 -43.5q0 -21 -13 -35.5t-26.5 -30.5t-15.5 -44h-31z" />
    <glyph glyph-name="uni1ED0" unicode="&#x1ed0;" horiz-adv-x="712" 
d="M356 -20q-95 0 -164.5 46.5t-107.5 126t-38 177.5t38 177.5t107.5 126t164.5 46.5t164.5 -46.5t107.5 -126t38 -177.5t-38 -177.5t-107.5 -126t-164.5 -46.5zM356 20q66 0 113 38t72 107.5t25 164.5t-25 164.5t-72 107.5t-113 38q-65 0 -112.5 -38t-72.5 -107.5
t-25 -164.5t25 -164.5t72.5 -107.5t112.5 -38zM221 710l80 115h110l80 -115h-50l-85 80l-85 -80h-50zM481 767l40 130h95l-95 -130h-40z" />
    <glyph glyph-name="uni1ED1" unicode="&#x1ed1;" 
d="M265 -10q-70 0 -119 33t-75 89t-26 123q0 68 26 123.5t75 88.5t119 33t119 -33t75 -88.5t26 -123.5q0 -67 -26 -123t-75 -89t-119 -33zM265 30q38 0 66 27.5t43.5 74t15.5 103.5q0 58 -15.5 104t-43.5 73.5t-66 27.5q-37 0 -65.5 -27.5t-44 -73.5t-15.5 -104
q0 -57 15.5 -103.5t44 -74t65.5 -27.5zM130 520l80 115h110l80 -115h-50l-85 80l-85 -80h-50zM390 577l40 130h95l-95 -130h-40z" />
    <glyph glyph-name="uni1ED2" unicode="&#x1ed2;" horiz-adv-x="712" 
d="M356 -20q-95 0 -164.5 46.5t-107.5 126t-38 177.5t38 177.5t107.5 126t164.5 46.5t164.5 -46.5t107.5 -126t38 -177.5t-38 -177.5t-107.5 -126t-164.5 -46.5zM356 20q66 0 113 38t72 107.5t25 164.5t-25 164.5t-72 107.5t-113 38q-65 0 -112.5 -38t-72.5 -107.5
t-25 -164.5t25 -164.5t72.5 -107.5t112.5 -38zM221 710l80 115h110l80 -115h-50l-85 80l-85 -80h-50zM484 793l-95 130h95l40 -130h-40z" />
    <glyph glyph-name="uni1ED3" unicode="&#x1ed3;" 
d="M265 -10q-70 0 -119 33t-75 89t-26 123q0 68 26 123.5t75 88.5t119 33t119 -33t75 -88.5t26 -123.5q0 -67 -26 -123t-75 -89t-119 -33zM265 30q38 0 66 27.5t43.5 74t15.5 103.5q0 58 -15.5 104t-43.5 73.5t-66 27.5q-37 0 -65.5 -27.5t-44 -73.5t-15.5 -104
q0 -57 15.5 -103.5t44 -74t65.5 -27.5zM130 520l80 115h110l80 -115h-50l-85 80l-85 -80h-50zM393 603l-95 130h95l40 -130h-40z" />
    <glyph glyph-name="uni1ED4" unicode="&#x1ed4;" horiz-adv-x="712" 
d="M356 -20q-95 0 -164.5 46.5t-107.5 126t-38 177.5t38 177.5t107.5 126t164.5 46.5t164.5 -46.5t107.5 -126t38 -177.5t-38 -177.5t-107.5 -126t-164.5 -46.5zM356 20q66 0 113 38t72 107.5t25 164.5t-25 164.5t-72 107.5t-113 38q-65 0 -112.5 -38t-72.5 -107.5
t-25 -164.5t25 -164.5t72.5 -107.5t112.5 -38zM221 710l80 115h110l80 -115h-50l-85 80l-85 -80h-50zM472 798q1 26 9.5 43t17 30.5t8.5 26.5q0 30 -33 30q-19 0 -31 -10.5t-17 -39.5l-42 1q0 40 24.5 63t65.5 23q29 0 56.5 -13.5t27.5 -43.5q0 -21 -13 -35.5t-26.5 -30.5
t-15.5 -44h-31z" />
    <glyph glyph-name="uni1ED5" unicode="&#x1ed5;" 
d="M265 -10q-70 0 -119 33t-75 89t-26 123q0 68 26 123.5t75 88.5t119 33t119 -33t75 -88.5t26 -123.5q0 -67 -26 -123t-75 -89t-119 -33zM265 30q38 0 66 27.5t43.5 74t15.5 103.5q0 58 -15.5 104t-43.5 73.5t-66 27.5q-37 0 -65.5 -27.5t-44 -73.5t-15.5 -104
q0 -57 15.5 -103.5t44 -74t65.5 -27.5zM130 520l80 115h110l80 -115h-50l-85 80l-85 -80h-50zM381 608q1 26 9.5 43t17 30.5t8.5 26.5q0 30 -33 30q-19 0 -31 -10.5t-17 -39.5l-42 1q0 40 24.5 63t65.5 23q29 0 56.5 -13.5t27.5 -43.5q0 -21 -13 -35.5t-26.5 -30.5
t-15.5 -44h-31z" />
    <glyph glyph-name="uni1ED6" unicode="&#x1ed6;" horiz-adv-x="712" 
d="M356 -20q-95 0 -164.5 46.5t-107.5 126t-38 177.5t38 177.5t107.5 126t164.5 46.5t164.5 -46.5t107.5 -126t38 -177.5t-38 -177.5t-107.5 -126t-164.5 -46.5zM356 20q66 0 113 38t72 107.5t25 164.5t-25 164.5t-72 107.5t-113 38q-65 0 -112.5 -38t-72.5 -107.5
t-25 -164.5t25 -164.5t72.5 -107.5t112.5 -38zM221 710l80 115h110l80 -115h-50l-85 80l-85 -80h-50zM243 858q0 53 15 74t45 21q22 0 38 -10l32 -20t35 -10q11 0 20.5 14.5t9.5 25.5h30q0 -53 -15 -74t-45 -21q-21 0 -37 10l-32 20t-36 10q-11 0 -20.5 -14.5t-9.5 -25.5
h-30z" />
    <glyph glyph-name="uni1ED7" unicode="&#x1ed7;" 
d="M265 -10q-70 0 -119 33t-75 89t-26 123q0 68 26 123.5t75 88.5t119 33t119 -33t75 -88.5t26 -123.5q0 -67 -26 -123t-75 -89t-119 -33zM265 30q38 0 66 27.5t43.5 74t15.5 103.5q0 58 -15.5 104t-43.5 73.5t-66 27.5q-37 0 -65.5 -27.5t-44 -73.5t-15.5 -104
q0 -57 15.5 -103.5t44 -74t65.5 -27.5zM130 520l80 115h110l80 -115h-50l-85 80l-85 -80h-50zM152 668q0 53 15 74t45 21q22 0 38 -10l32 -20t35 -10q11 0 20.5 14.5t9.5 25.5h30q0 -53 -15 -74t-45 -21q-21 0 -37 10l-32 20t-36 10q-11 0 -20.5 -14.5t-9.5 -25.5h-30z" />
    <glyph glyph-name="uni1ED8" unicode="&#x1ed8;" horiz-adv-x="712" 
d="M356 -20q-95 0 -164.5 46.5t-107.5 126t-38 177.5t38 177.5t107.5 126t164.5 46.5t164.5 -46.5t107.5 -126t38 -177.5t-38 -177.5t-107.5 -126t-164.5 -46.5zM356 20q66 0 113 38t72 107.5t25 164.5t-25 164.5t-72 107.5t-113 38q-65 0 -112.5 -38t-72.5 -107.5
t-25 -164.5t25 -164.5t72.5 -107.5t112.5 -38zM356 -157q-18 0 -31.5 13.5t-13.5 32.5q0 18 13.5 31t31.5 13q19 0 31.5 -13t12.5 -31q0 -19 -13 -32.5t-31 -13.5zM221 710l80 115h110l80 -115h-50l-85 80l-85 -80h-50z" />
    <glyph glyph-name="uni1ED9" unicode="&#x1ed9;" 
d="M265 -10q-70 0 -119 33t-75 89t-26 123q0 68 26 123.5t75 88.5t119 33t119 -33t75 -88.5t26 -123.5q0 -67 -26 -123t-75 -89t-119 -33zM265 30q38 0 66 27.5t43.5 74t15.5 103.5q0 58 -15.5 104t-43.5 73.5t-66 27.5q-37 0 -65.5 -27.5t-44 -73.5t-15.5 -104
q0 -57 15.5 -103.5t44 -74t65.5 -27.5zM265 -157q-18 0 -31.5 13.5t-13.5 32.5q0 18 13.5 31t31.5 13q19 0 31.5 -13t12.5 -31q0 -19 -13 -32.5t-31 -13.5zM130 520l80 115h110l80 -115h-50l-85 80l-85 -80h-50z" />
    <glyph glyph-name="uni1EDA" unicode="&#x1eda;" horiz-adv-x="712" 
d="M356 -20q-95 0 -164.5 46.5t-107.5 126t-38 177.5t38 177.5t107.5 126t164.5 46.5t164.5 -46.5t107.5 -126t38 -177.5t-38 -177.5t-107.5 -126t-164.5 -46.5zM356 20q66 0 113 38t72 107.5t25 164.5t-25 164.5t-72 107.5t-113 38q-65 0 -112.5 -38t-72.5 -107.5
t-25 -164.5t25 -164.5t72.5 -107.5t112.5 -38zM459 634v26q36 0 58 16t32 40t10 48h57q0 -34 -13.5 -64t-47.5 -48t-96 -18zM328 705l40 130h95l-95 -130h-40z" />
    <glyph glyph-name="uni1EDB" unicode="&#x1edb;" 
d="M265 -10q-70 0 -119 33t-75 89t-26 123q0 68 26 123.5t75 88.5t119 33t119 -33t75 -88.5t26 -123.5q0 -67 -26 -123t-75 -89t-119 -33zM265 30q38 0 66 27.5t43.5 74t15.5 103.5q0 58 -15.5 104t-43.5 73.5t-66 27.5q-37 0 -65.5 -27.5t-44 -73.5t-15.5 -104
q0 -57 15.5 -103.5t44 -74t65.5 -27.5zM333 444v26q36 0 58 16t32 40t10 48h57q0 -34 -13.5 -64t-47.5 -48t-96 -18zM237 515l40 130h95l-95 -130h-40z" />
    <glyph glyph-name="uni1EDC" unicode="&#x1edc;" horiz-adv-x="712" 
d="M356 -20q-95 0 -164.5 46.5t-107.5 126t-38 177.5t38 177.5t107.5 126t164.5 46.5t164.5 -46.5t107.5 -126t38 -177.5t-38 -177.5t-107.5 -126t-164.5 -46.5zM356 20q66 0 113 38t72 107.5t25 164.5t-25 164.5t-72 107.5t-113 38q-65 0 -112.5 -38t-72.5 -107.5
t-25 -164.5t25 -164.5t72.5 -107.5t112.5 -38zM459 634v26q36 0 58 16t32 40t10 48h57q0 -34 -13.5 -64t-47.5 -48t-96 -18zM346 705l-95 130h95l40 -130h-40z" />
    <glyph glyph-name="uni1EDD" unicode="&#x1edd;" 
d="M265 -10q-70 0 -119 33t-75 89t-26 123q0 68 26 123.5t75 88.5t119 33t119 -33t75 -88.5t26 -123.5q0 -67 -26 -123t-75 -89t-119 -33zM265 30q38 0 66 27.5t43.5 74t15.5 103.5q0 58 -15.5 104t-43.5 73.5t-66 27.5q-37 0 -65.5 -27.5t-44 -73.5t-15.5 -104
q0 -57 15.5 -103.5t44 -74t65.5 -27.5zM333 444v26q36 0 58 16t32 40t10 48h57q0 -34 -13.5 -64t-47.5 -48t-96 -18zM255 515l-95 130h95l40 -130h-40z" />
    <glyph glyph-name="uni1EDE" unicode="&#x1ede;" horiz-adv-x="712" 
d="M356 -20q-95 0 -164.5 46.5t-107.5 126t-38 177.5t38 177.5t107.5 126t164.5 46.5t164.5 -46.5t107.5 -126t38 -177.5t-38 -177.5t-107.5 -126t-164.5 -46.5zM356 20q66 0 113 38t72 107.5t25 164.5t-25 164.5t-72 107.5t-113 38q-65 0 -112.5 -38t-72.5 -107.5
t-25 -164.5t25 -164.5t72.5 -107.5t112.5 -38zM459 634v26q36 0 58 16t32 40t10 48h57q0 -34 -13.5 -64t-47.5 -48t-96 -18zM357 711q1 26 9.5 43t17 30.5t8.5 26.5q0 30 -33 30q-19 0 -31 -10.5t-17 -39.5l-42 1q0 40 24.5 63t65.5 23q29 0 56.5 -13.5t27.5 -43.5
q0 -21 -13 -35.5t-26.5 -30.5t-15.5 -44h-31z" />
    <glyph glyph-name="uni1EDF" unicode="&#x1edf;" 
d="M265 -10q-70 0 -119 33t-75 89t-26 123q0 68 26 123.5t75 88.5t119 33t119 -33t75 -88.5t26 -123.5q0 -67 -26 -123t-75 -89t-119 -33zM265 30q38 0 66 27.5t43.5 74t15.5 103.5q0 58 -15.5 104t-43.5 73.5t-66 27.5q-37 0 -65.5 -27.5t-44 -73.5t-15.5 -104
q0 -57 15.5 -103.5t44 -74t65.5 -27.5zM333 444v26q36 0 58 16t32 40t10 48h57q0 -34 -13.5 -64t-47.5 -48t-96 -18zM266 521q1 26 9.5 43t17 30.5t8.5 26.5q0 30 -33 30q-19 0 -31 -10.5t-17 -39.5l-42 1q0 40 24.5 63t65.5 23q29 0 56.5 -13.5t27.5 -43.5q0 -21 -13 -35.5
t-26.5 -30.5t-15.5 -44h-31z" />
    <glyph glyph-name="uni1EE0" unicode="&#x1ee0;" horiz-adv-x="712" 
d="M356 -20q-95 0 -164.5 46.5t-107.5 126t-38 177.5t38 177.5t107.5 126t164.5 46.5t164.5 -46.5t107.5 -126t38 -177.5t-38 -177.5t-107.5 -126t-164.5 -46.5zM356 20q66 0 113 38t72 107.5t25 164.5t-25 164.5t-72 107.5t-113 38q-65 0 -112.5 -38t-72.5 -107.5
t-25 -164.5t25 -164.5t72.5 -107.5t112.5 -38zM459 634v26q36 0 58 16t32 40t10 48h57q0 -34 -13.5 -64t-47.5 -48t-96 -18zM243 746q0 53 15 74t45 21q22 0 38 -10l32 -20t35 -10q11 0 20.5 14.5t9.5 25.5h30q0 -53 -15 -74t-45 -21q-21 0 -37 10l-32 20t-36 10
q-11 0 -20.5 -14.5t-9.5 -25.5h-30z" />
    <glyph glyph-name="uni1EE1" unicode="&#x1ee1;" 
d="M265 -10q-70 0 -119 33t-75 89t-26 123q0 68 26 123.5t75 88.5t119 33t119 -33t75 -88.5t26 -123.5q0 -67 -26 -123t-75 -89t-119 -33zM265 30q38 0 66 27.5t43.5 74t15.5 103.5q0 58 -15.5 104t-43.5 73.5t-66 27.5q-37 0 -65.5 -27.5t-44 -73.5t-15.5 -104
q0 -57 15.5 -103.5t44 -74t65.5 -27.5zM333 444v26q36 0 58 16t32 40t10 48h57q0 -34 -13.5 -64t-47.5 -48t-96 -18zM152 556q0 53 15 74t45 21q22 0 38 -10l32 -20t35 -10q11 0 20.5 14.5t9.5 25.5h30q0 -53 -15 -74t-45 -21q-21 0 -37 10l-32 20t-36 10q-11 0 -20.5 -14.5
t-9.5 -25.5h-30z" />
    <glyph glyph-name="uni1EE2" unicode="&#x1ee2;" horiz-adv-x="712" 
d="M356 -20q-95 0 -164.5 46.5t-107.5 126t-38 177.5t38 177.5t107.5 126t164.5 46.5t164.5 -46.5t107.5 -126t38 -177.5t-38 -177.5t-107.5 -126t-164.5 -46.5zM356 20q66 0 113 38t72 107.5t25 164.5t-25 164.5t-72 107.5t-113 38q-65 0 -112.5 -38t-72.5 -107.5
t-25 -164.5t25 -164.5t72.5 -107.5t112.5 -38zM459 634v26q36 0 58 16t32 40t10 48h57q0 -34 -13.5 -64t-47.5 -48t-96 -18zM356 -157q-18 0 -31.5 13.5t-13.5 32.5q0 18 13.5 31t31.5 13q19 0 31.5 -13t12.5 -31q0 -19 -13 -32.5t-31 -13.5z" />
    <glyph glyph-name="uni1EE3" unicode="&#x1ee3;" 
d="M265 -10q-70 0 -119 33t-75 89t-26 123q0 68 26 123.5t75 88.5t119 33t119 -33t75 -88.5t26 -123.5q0 -67 -26 -123t-75 -89t-119 -33zM265 30q38 0 66 27.5t43.5 74t15.5 103.5q0 58 -15.5 104t-43.5 73.5t-66 27.5q-37 0 -65.5 -27.5t-44 -73.5t-15.5 -104
q0 -57 15.5 -103.5t44 -74t65.5 -27.5zM333 444v26q36 0 58 16t32 40t10 48h57q0 -34 -13.5 -64t-47.5 -48t-96 -18zM265 -157q-18 0 -31.5 13.5t-13.5 32.5q0 18 13.5 31t31.5 13q19 0 31.5 -13t12.5 -31q0 -19 -13 -32.5t-31 -13.5z" />
    <glyph glyph-name="uni1EE4" unicode="&#x1ee4;" horiz-adv-x="687" 
d="M354 -10q-97 0 -153 33t-79 98.5t-23 163.5v255q0 45 -12.5 72.5t-57.5 27.5h-20v20h90q35 0 54.5 -9t27.5 -35t8 -76v-285q0 -105 39 -165t138 -60q77 0 121 27t63 83.5t19 144.5v375h40v-375q0 -98 -21 -163.5t-76 -98.5t-158 -33zM344 -157q-18 0 -31.5 13.5
t-13.5 32.5q0 18 13.5 31t31.5 13q19 0 31.5 -13t12.5 -31q0 -19 -13 -32.5t-31 -13.5z" />
    <glyph glyph-name="uni1EE5" unicode="&#x1ee5;" horiz-adv-x="535" 
d="M243 -10q-42 0 -81 15t-64 54t-25 111v180q0 45 -12.5 72.5t-57.5 27.5h-10v20h80q35 0 54.5 -9t27.5 -35t8 -76v-180q0 -50 16 -79.5t41.5 -42.5t52.5 -13q30 0 55.5 16t44.5 37v382h90v-470h-50l-35 40h-5q-19 -19 -52 -34.5t-78 -15.5zM268 -157q-18 0 -31.5 13.5
t-13.5 32.5q0 18 13.5 31t31.5 13q19 0 31.5 -13t12.5 -31q0 -19 -13 -32.5t-31 -13.5z" />
    <glyph glyph-name="uni1EE6" unicode="&#x1ee6;" horiz-adv-x="687" 
d="M354 -10q-97 0 -153 33t-79 98.5t-23 163.5v255q0 45 -12.5 72.5t-57.5 27.5h-20v20h90q35 0 54.5 -9t27.5 -35t8 -76v-285q0 -105 39 -165t138 -60q77 0 121 27t63 83.5t19 144.5v375h40v-375q0 -98 -21 -163.5t-76 -98.5t-158 -33zM345 711q1 26 9.5 43t17 30.5
t8.5 26.5q0 30 -33 30q-19 0 -31 -10.5t-17 -39.5l-42 1q0 40 24.5 63t65.5 23q29 0 56.5 -13.5t27.5 -43.5q0 -21 -13 -35.5t-26.5 -30.5t-15.5 -44h-31z" />
    <glyph glyph-name="uni1EE7" unicode="&#x1ee7;" horiz-adv-x="535" 
d="M243 -10q-42 0 -81 15t-64 54t-25 111v180q0 45 -12.5 72.5t-57.5 27.5h-10v20h80q35 0 54.5 -9t27.5 -35t8 -76v-180q0 -50 16 -79.5t41.5 -42.5t52.5 -13q30 0 55.5 16t44.5 37v382h90v-470h-50l-35 40h-5q-19 -19 -52 -34.5t-78 -15.5zM269 521q1 26 9.5 43t17 30.5
t8.5 26.5q0 30 -33 30q-19 0 -31 -10.5t-17 -39.5l-42 1q0 40 24.5 63t65.5 23q29 0 56.5 -13.5t27.5 -43.5q0 -21 -13 -35.5t-26.5 -30.5t-15.5 -44h-31z" />
    <glyph glyph-name="uni1EE8" unicode="&#x1ee8;" horiz-adv-x="687" 
d="M354 -10q-97 0 -153 33t-79 98.5t-23 163.5v255q0 45 -12.5 72.5t-57.5 27.5h-20v20h90q35 0 54.5 -9t27.5 -35t8 -76v-285q0 -105 39 -165t138 -60q77 0 121 27t63 83.5t19 144.5v375h40v-375q0 -98 -21 -163.5t-76 -98.5t-158 -33zM576 634v26q36 0 58 16t32 40t10 48
h57q0 -34 -13.5 -64t-47.5 -48t-96 -18zM316 705l40 130h95l-95 -130h-40z" />
    <glyph glyph-name="uni1EE9" unicode="&#x1ee9;" horiz-adv-x="535" 
d="M243 -10q-42 0 -81 15t-64 54t-25 111v180q0 45 -12.5 72.5t-57.5 27.5h-10v20h80q35 0 54.5 -9t27.5 -35t8 -76v-180q0 -50 16 -79.5t41.5 -42.5t52.5 -13q30 0 55.5 16t44.5 37v382h90v-470h-50l-35 40h-5q-19 -19 -52 -34.5t-78 -15.5zM442 444v26q36 0 58 16t32 40
t10 48h57q0 -34 -13.5 -64t-47.5 -48t-96 -18zM240 515l40 130h95l-95 -130h-40z" />
    <glyph glyph-name="uni1EEA" unicode="&#x1eea;" horiz-adv-x="687" 
d="M354 -10q-97 0 -153 33t-79 98.5t-23 163.5v255q0 45 -12.5 72.5t-57.5 27.5h-20v20h90q35 0 54.5 -9t27.5 -35t8 -76v-285q0 -105 39 -165t138 -60q77 0 121 27t63 83.5t19 144.5v375h40v-375q0 -98 -21 -163.5t-76 -98.5t-158 -33zM576 634v26q36 0 58 16t32 40t10 48
h57q0 -34 -13.5 -64t-47.5 -48t-96 -18zM334 705l-95 130h95l40 -130h-40z" />
    <glyph glyph-name="uni1EEB" unicode="&#x1eeb;" horiz-adv-x="535" 
d="M243 -10q-42 0 -81 15t-64 54t-25 111v180q0 45 -12.5 72.5t-57.5 27.5h-10v20h80q35 0 54.5 -9t27.5 -35t8 -76v-180q0 -50 16 -79.5t41.5 -42.5t52.5 -13q30 0 55.5 16t44.5 37v382h90v-470h-50l-35 40h-5q-19 -19 -52 -34.5t-78 -15.5zM442 444v26q36 0 58 16t32 40
t10 48h57q0 -34 -13.5 -64t-47.5 -48t-96 -18zM258 515l-95 130h95l40 -130h-40z" />
    <glyph glyph-name="uni1EEC" unicode="&#x1eec;" horiz-adv-x="687" 
d="M354 -10q-97 0 -153 33t-79 98.5t-23 163.5v255q0 45 -12.5 72.5t-57.5 27.5h-20v20h90q35 0 54.5 -9t27.5 -35t8 -76v-285q0 -105 39 -165t138 -60q77 0 121 27t63 83.5t19 144.5v375h40v-375q0 -98 -21 -163.5t-76 -98.5t-158 -33zM576 634v26q36 0 58 16t32 40t10 48
h57q0 -34 -13.5 -64t-47.5 -48t-96 -18zM345 711q1 26 9.5 43t17 30.5t8.5 26.5q0 30 -33 30q-19 0 -31 -10.5t-17 -39.5l-42 1q0 40 24.5 63t65.5 23q29 0 56.5 -13.5t27.5 -43.5q0 -21 -13 -35.5t-26.5 -30.5t-15.5 -44h-31z" />
    <glyph glyph-name="uni1EED" unicode="&#x1eed;" horiz-adv-x="535" 
d="M243 -10q-42 0 -81 15t-64 54t-25 111v180q0 45 -12.5 72.5t-57.5 27.5h-10v20h80q35 0 54.5 -9t27.5 -35t8 -76v-180q0 -50 16 -79.5t41.5 -42.5t52.5 -13q30 0 55.5 16t44.5 37v382h90v-470h-50l-35 40h-5q-19 -19 -52 -34.5t-78 -15.5zM442 444v26q36 0 58 16t32 40
t10 48h57q0 -34 -13.5 -64t-47.5 -48t-96 -18zM269 521q1 26 9.5 43t17 30.5t8.5 26.5q0 30 -33 30q-19 0 -31 -10.5t-17 -39.5l-42 1q0 40 24.5 63t65.5 23q29 0 56.5 -13.5t27.5 -43.5q0 -21 -13 -35.5t-26.5 -30.5t-15.5 -44h-31z" />
    <glyph glyph-name="uni1EEE" unicode="&#x1eee;" horiz-adv-x="687" 
d="M354 -10q-97 0 -153 33t-79 98.5t-23 163.5v255q0 45 -12.5 72.5t-57.5 27.5h-20v20h90q35 0 54.5 -9t27.5 -35t8 -76v-285q0 -105 39 -165t138 -60q77 0 121 27t63 83.5t19 144.5v375h40v-375q0 -98 -21 -163.5t-76 -98.5t-158 -33zM576 634v26q36 0 58 16t32 40t10 48
h57q0 -34 -13.5 -64t-47.5 -48t-96 -18zM231 746q0 53 15 74t45 21q22 0 38 -10l32 -20t35 -10q11 0 20.5 14.5t9.5 25.5h30q0 -53 -15 -74t-45 -21q-21 0 -37 10l-32 20t-36 10q-11 0 -20.5 -14.5t-9.5 -25.5h-30z" />
    <glyph glyph-name="uni1EEF" unicode="&#x1eef;" horiz-adv-x="535" 
d="M243 -10q-42 0 -81 15t-64 54t-25 111v180q0 45 -12.5 72.5t-57.5 27.5h-10v20h80q35 0 54.5 -9t27.5 -35t8 -76v-180q0 -50 16 -79.5t41.5 -42.5t52.5 -13q30 0 55.5 16t44.5 37v382h90v-470h-50l-35 40h-5q-19 -19 -52 -34.5t-78 -15.5zM442 444v26q36 0 58 16t32 40
t10 48h57q0 -34 -13.5 -64t-47.5 -48t-96 -18zM155 556q0 53 15 74t45 21q22 0 38 -10l32 -20t35 -10q11 0 20.5 14.5t9.5 25.5h30q0 -53 -15 -74t-45 -21q-21 0 -37 10l-32 20t-36 10q-11 0 -20.5 -14.5t-9.5 -25.5h-30z" />
    <glyph glyph-name="uni1EF0" unicode="&#x1ef0;" horiz-adv-x="687" 
d="M354 -10q-97 0 -153 33t-79 98.5t-23 163.5v255q0 45 -12.5 72.5t-57.5 27.5h-20v20h90q35 0 54.5 -9t27.5 -35t8 -76v-285q0 -105 39 -165t138 -60q77 0 121 27t63 83.5t19 144.5v375h40v-375q0 -98 -21 -163.5t-76 -98.5t-158 -33zM576 634v26q36 0 58 16t32 40t10 48
h57q0 -34 -13.5 -64t-47.5 -48t-96 -18zM344 -157q-18 0 -31.5 13.5t-13.5 32.5q0 18 13.5 31t31.5 13q19 0 31.5 -13t12.5 -31q0 -19 -13 -32.5t-31 -13.5z" />
    <glyph glyph-name="uni1EF1" unicode="&#x1ef1;" horiz-adv-x="535" 
d="M243 -10q-42 0 -81 15t-64 54t-25 111v180q0 45 -12.5 72.5t-57.5 27.5h-10v20h80q35 0 54.5 -9t27.5 -35t8 -76v-180q0 -50 16 -79.5t41.5 -42.5t52.5 -13q30 0 55.5 16t44.5 37v382h90v-470h-50l-35 40h-5q-19 -19 -52 -34.5t-78 -15.5zM442 444v26q36 0 58 16t32 40
t10 48h57q0 -34 -13.5 -64t-47.5 -48t-96 -18zM268 -157q-18 0 -31.5 13.5t-13.5 32.5q0 18 13.5 31t31.5 13q19 0 31.5 -13t12.5 -31q0 -19 -13 -32.5t-31 -13.5z" />
    <glyph glyph-name="Ygrave" unicode="&#x1ef2;" horiz-adv-x="628" 
d="M290 0v273l-170 257q-31 44 -61.5 75t-83.5 35v20h90q37 0 64.5 -16t48 -41t37.5 -53l145 -225l209 335h45l-234 -380v-280h-90zM304 705l-95 130h95l40 -130h-40z" />
    <glyph glyph-name="ygrave" unicode="&#x1ef3;" horiz-adv-x="514" 
d="M105 -200v30q46 0 78.5 20.5t56.5 84.5l20 55l-160 390q-15 38 -43.5 57t-66.5 23v20h85q45 0 74.5 -21t45.5 -59l114 -277l126 347h50l-195 -535q-20 -55 -42.5 -84t-50 -40t-62.5 -11h-30zM247 515l-95 130h95l40 -130h-40z" />
    <glyph glyph-name="uni1EF4" unicode="&#x1ef4;" horiz-adv-x="628" 
d="M290 0v273l-170 257q-31 44 -61.5 75t-83.5 35v20h90q37 0 64.5 -16t48 -41t37.5 -53l145 -225l209 335h45l-234 -380v-280h-90zM314 -157q-18 0 -31.5 13.5t-13.5 32.5q0 18 13.5 31t31.5 13q19 0 31.5 -13t12.5 -31q0 -19 -13 -32.5t-31 -13.5z" />
    <glyph glyph-name="uni1EF5" unicode="&#x1ef5;" horiz-adv-x="514" 
d="M105 -200v30q46 0 78.5 20.5t56.5 84.5l20 55l-160 390q-15 38 -43.5 57t-66.5 23v20h85q45 0 74.5 -21t45.5 -59l114 -277l126 347h50l-195 -535q-20 -55 -42.5 -84t-50 -40t-62.5 -11h-30zM361 -157q-18 0 -31.5 13.5t-13.5 32.5q0 18 13.5 31t31.5 13q19 0 31.5 -13
t12.5 -31q0 -19 -13 -32.5t-31 -13.5z" />
    <glyph glyph-name="uni1EF6" unicode="&#x1ef6;" horiz-adv-x="628" 
d="M290 0v273l-170 257q-31 44 -61.5 75t-83.5 35v20h90q37 0 64.5 -16t48 -41t37.5 -53l145 -225l209 335h45l-234 -380v-280h-90zM315 711q1 26 9.5 43t17 30.5t8.5 26.5q0 30 -33 30q-19 0 -31 -10.5t-17 -39.5l-42 1q0 40 24.5 63t65.5 23q29 0 56.5 -13.5t27.5 -43.5
q0 -21 -13 -35.5t-26.5 -30.5t-15.5 -44h-31z" />
    <glyph glyph-name="uni1EF7" unicode="&#x1ef7;" horiz-adv-x="514" 
d="M105 -200v30q46 0 78.5 20.5t56.5 84.5l20 55l-160 390q-15 38 -43.5 57t-66.5 23v20h85q45 0 74.5 -21t45.5 -59l114 -277l126 347h50l-195 -535q-20 -55 -42.5 -84t-50 -40t-62.5 -11h-30zM258 521q1 26 9.5 43t17 30.5t8.5 26.5q0 30 -33 30q-19 0 -31 -10.5
t-17 -39.5l-42 1q0 40 24.5 63t65.5 23q29 0 56.5 -13.5t27.5 -43.5q0 -21 -13 -35.5t-26.5 -30.5t-15.5 -44h-31z" />
    <glyph glyph-name="uni1EF8" unicode="&#x1ef8;" horiz-adv-x="628" 
d="M290 0v273l-170 257q-31 44 -61.5 75t-83.5 35v20h90q37 0 64.5 -16t48 -41t37.5 -53l145 -225l209 335h45l-234 -380v-280h-90zM201 746q0 53 15 74t45 21q22 0 38 -10l32 -20t35 -10q11 0 20.5 14.5t9.5 25.5h30q0 -53 -15 -74t-45 -21q-21 0 -37 10l-32 20t-36 10
q-11 0 -20.5 -14.5t-9.5 -25.5h-30z" />
    <glyph glyph-name="uni1EF9" unicode="&#x1ef9;" horiz-adv-x="514" 
d="M105 -200v30q46 0 78.5 20.5t56.5 84.5l20 55l-160 390q-15 38 -43.5 57t-66.5 23v20h85q45 0 74.5 -21t45.5 -59l114 -277l126 347h50l-195 -535q-20 -55 -42.5 -84t-50 -40t-62.5 -11h-30zM144 556q0 53 15 74t45 21q22 0 38 -10l32 -20t35 -10q11 0 20.5 14.5
t9.5 25.5h30q0 -53 -15 -74t-45 -21q-21 0 -37 10l-32 20t-36 10q-11 0 -20.5 -14.5t-9.5 -25.5h-30z" />
    <glyph glyph-name="endash" unicode="&#x2013;" horiz-adv-x="610" 
d="M70 230v60h470v-60h-470z" />
    <glyph glyph-name="emdash" unicode="&#x2014;" horiz-adv-x="872" 
d="M66 230v60h740v-60h-740z" />
    <glyph glyph-name="quoteleft" unicode="&#x2018;" horiz-adv-x="226" 
d="M116 425q-30 0 -47.5 18t-17.5 52q0 64 28.5 109.5t81.5 75.5l10 -15q-38 -26 -59 -58t-21 -77l30 10q23 0 39 -16t16 -39q0 -26 -17 -43t-43 -17z" />
    <glyph glyph-name="quoteright" unicode="&#x2019;" horiz-adv-x="228" 
d="M72 425l-10 15q38 26 59 58t21 77l-30 -10q-23 0 -39 16t-16 39q0 26 17 43t43 17q30 0 47.5 -18t17.5 -52q0 -64 -28.5 -109.5t-81.5 -75.5z" />
    <glyph glyph-name="quotesinglbase" unicode="&#x201a;" horiz-adv-x="237" 
d="M71 -155l-10 15q38 26 59 58t21 77l-30 -10q-23 0 -39 16t-16 39q0 26 17 43t43 17q30 0 47.5 -18t17.5 -52q0 -64 -28.5 -109.5t-81.5 -75.5z" />
    <glyph glyph-name="quotedblleft" unicode="&#x201c;" horiz-adv-x="406" 
d="M296 425q-30 0 -47.5 18t-17.5 52q0 64 28.5 109.5t81.5 75.5l10 -15q-38 -26 -59 -58t-21 -77l30 10q23 0 39 -16t16 -39q0 -26 -17 -43t-43 -17zM116 425q-30 0 -47.5 18t-17.5 52q0 64 28.5 109.5t81.5 75.5l10 -15q-38 -26 -59 -58t-21 -77l30 10q23 0 39 -16t16 -39
q0 -26 -17 -43t-43 -17z" />
    <glyph glyph-name="quotedblright" unicode="&#x201d;" horiz-adv-x="408" 
d="M252 425l-10 15q38 26 59 58t21 77l-30 -10q-23 0 -39 16t-16 39q0 26 17 43t43 17q30 0 47.5 -18t17.5 -52q0 -64 -28.5 -109.5t-81.5 -75.5zM72 425l-10 15q38 26 59 58t21 77l-30 -10q-23 0 -39 16t-16 39q0 26 17 43t43 17q30 0 47.5 -18t17.5 -52
q0 -64 -28.5 -109.5t-81.5 -75.5z" />
    <glyph glyph-name="quotedblbase" unicode="&#x201e;" horiz-adv-x="417" 
d="M251 -155l-10 15q38 26 59 58t21 77l-30 -10q-23 0 -39 16t-16 39q0 26 17 43t43 17q30 0 47.5 -18t17.5 -52q0 -64 -28.5 -109.5t-81.5 -75.5zM71 -155l-10 15q38 26 59 58t21 77l-30 -10q-23 0 -39 16t-16 39q0 26 17 43t43 17q30 0 47.5 -18t17.5 -52
q0 -64 -28.5 -109.5t-81.5 -75.5z" />
    <glyph glyph-name="dagger" unicode="&#x2020;" horiz-adv-x="523" 
d="M216 -190v600h-189v60h189v210h90v-210h190v-60h-190v-600h-90z" />
    <glyph glyph-name="daggerdbl" unicode="&#x2021;" horiz-adv-x="555" 
d="M232 -190v210h-189v60h189v330h-189v60h189v210h90v-210h190v-60h-190v-330h190v-60h-190v-210h-90z" />
    <glyph glyph-name="bullet" unicode="&#x2022;" horiz-adv-x="340" 
d="M170 210q-53 0 -86.5 33.5t-33.5 86.5t33.5 86.5t86.5 33.5t86.5 -33.5t33.5 -86.5t-33.5 -86.5t-86.5 -33.5z" />
    <glyph glyph-name="ellipsis" unicode="&#x2026;" horiz-adv-x="640" 
d="M530 -14q-22 0 -38 16t-16 39q0 22 16 38t38 16q23 0 38.5 -16t15.5 -38q0 -23 -16 -39t-38 -16zM110 -14q-22 0 -38 16t-16 39q0 22 16 38t38 16q23 0 38.5 -16t15.5 -38q0 -23 -16 -39t-38 -16zM320 -14q-22 0 -38 16t-16 39q0 22 16 38t38 16q23 0 38.5 -16t15.5 -38
q0 -23 -16 -39t-38 -16z" />
    <glyph glyph-name="perthousand" unicode="&#x2030;" horiz-adv-x="1006" 
d="M182 395q-68 0 -106.5 35.5t-38.5 99.5t38.5 99.5t106.5 35.5t106.5 -35.5t38.5 -99.5t-38.5 -99.5t-106.5 -35.5zM77 0l455 660h75l-455 -660h-75zM182 430q85 0 85 100t-85 100t-85 -100t85 -100zM502 -5q-68 0 -106.5 35.5t-38.5 99.5t38.5 99.5t106.5 35.5
t106.5 -35.5t38.5 -99.5t-38.5 -99.5t-106.5 -35.5zM832 -5q-68 0 -106.5 35.5t-38.5 99.5t38.5 99.5t106.5 35.5t106.5 -35.5t38.5 -99.5t-38.5 -99.5t-106.5 -35.5zM502 30q85 0 85 100t-85 100t-85 -100t85 -100zM832 30q85 0 85 100t-85 100t-85 -100t85 -100z" />
    <glyph glyph-name="guilsinglleft" unicode="&#x2039;" horiz-adv-x="302" 
d="M209 30l-175 195l175 195h40l-110 -195l110 -195h-40z" />
    <glyph glyph-name="guilsinglright" unicode="&#x203a;" horiz-adv-x="302" 
d="M53 30l110 195l-110 195h40l175 -195l-175 -195h-40z" />
    <glyph glyph-name="fraction" unicode="&#x2044;" horiz-adv-x="420" 
d="M-50 0l455 660h65l-455 -660h-65z" />
    <glyph glyph-name="uni2074" unicode="&#x2074;" horiz-adv-x="325" 
d="M182 356v78h-152v19l157 207h47v-204h41v-22h-41v-78h-52zM64 456h118v155z" />
    <glyph glyph-name="Euro" unicode="&#x20ac;" horiz-adv-x="728" 
d="M408 -20q-84 0 -148.5 36t-104.5 98t-52 141h-75l10 40h60v60h-55l10 40h52q15 82 58.5 146t107 101.5t137.5 37.5q83 0 143 -23.5t87 -56.5q19 -23 22 -64t3 -86h-20q-19 98 -70.5 144t-134.5 46q-58 0 -108 -23.5t-83.5 -77t-44.5 -144.5h201l-10 -40h-195v-60h190
l-10 -40h-176q10 -63 37.5 -116.5t76.5 -86t122 -32.5q75 0 129 36t96 104l20 -15q-48 -94 -117 -129.5t-158 -35.5z" />
    <glyph glyph-name="uni20AE" unicode="&#x20ae;" horiz-adv-x="583" 
d="M121 220v40l135 26v60l-135 -26v40l135 26v234h-90q-60 0 -92.5 -27.5t-32.5 -87.5h-20v75q0 20 7 38.5t25.5 30t52.5 11.5h465v-40h-225v-216l135 26v-40l-135 -26v-60l135 26v-40l-135 -26v-264h-90v246z" />
    <glyph glyph-name="uni20B4" unicode="&#x20b4;" horiz-adv-x="526" 
d="M69 258v40h116q13 10 26.5 19.5t28.5 20.5h-171v40h225q75 63 75 143q0 59 -32.5 88t-79.5 29q-63 0 -105.5 -38t-59.5 -129h-18v70q0 14 10 36.5t33 45.5t61 39t94 16q52 0 95.5 -18.5t70.5 -53t27 -82.5q0 -43 -17 -74.5t-63 -71.5h84v-40h-132q-16 -12 -38 -29
q-9 -6 -17 -11h187v-40h-242q-45 -36 -58.5 -65.5t-13.5 -64.5q0 -52 38 -78.5t99 -26.5q68 0 112 39t61 130h18v-77q0 -24 -21.5 -55t-68.5 -54t-125 -23q-98 0 -156 37.5t-58 102.5q0 39 21.5 71.5t58.5 63.5h-65z" />
    <glyph glyph-name="uni20B8" unicode="&#x20b8;" horiz-adv-x="583" 
d="M21 620v40h550v-40h-550zM256 0v530h-90q-60 0 -92.5 -27.5t-32.5 -87.5h-20v75q0 20 7 38.5t25.5 30t52.5 11.5h465v-40h-225v-530h-90z" />
    <glyph glyph-name="uni20BD" unicode="&#x20bd;" horiz-adv-x="552" 
d="M106 0v170h-73v40h73v60h-73v40h73v230q0 45 -12.5 72.5t-57.5 27.5h-20v20h260q26 0 58.5 -3.5t66 -15t62 -33.5t46 -58t17.5 -90q0 -51 -17 -85.5t-44.5 -55.5t-57.5 -31.5t-57 -14t-44 -3.5h-110v-60h117v-40h-117v-170h-90zM271 305q21 0 47 8t51 27t41 49.5t16 75.5
t-16 75.5t-41 49.5t-51 27t-47 8q-19 0 -39.5 -3t-35.5 -7v-300q15 -4 35.5 -7t39.5 -3z" />
    <glyph glyph-name="uni2116" unicode="&#x2116;" horiz-adv-x="981" 
d="M804 400q-69 0 -107 35.5t-38 99.5t38 99.5t107 35.5t107 -35.5t38 -99.5t-38 -99.5t-107 -35.5zM584 -10l-430 535v-525h-40v540q0 45 -19 72.5t-71 27.5h-10v20h65q49 0 80.5 -16t54.5 -44l350 -435v495h40v-670h-20zM804 435q85 0 85 100t-85 100t-85 -100t85 -100z
M684 310v40h240v-40h-240z" />
    <glyph glyph-name="trademark" unicode="&#x2122;" horiz-adv-x="885" 
d="M838 292q-73 0 -100 34.5t-27 93.5v162l-123 -275h-15l-127 282v-282h-30v353h71l112 -248l112 248h67v-240q0 -28 7.5 -54t21 -42.5t31.5 -16.5v-15zM184 307v323h-38q-34 0 -56 -19t-22 -56h-15v45q0 23 11 41.5t45 18.5h273v-30h-131v-323h-67z" />
    <glyph glyph-name="uni2215" unicode="&#x2215;" horiz-adv-x="440" 
d="M23 0l321 660h73l-321 -660h-73z" />
    <glyph glyph-name="uni0306.case" horiz-adv-x="0" 
d="M130 700q-49 0 -80 24t-50 66l20 15q15 -19 41.5 -32t68.5 -13t68.5 13t41.5 32l20 -15q-19 -42 -50 -66t-80 -24z" />
    <glyph glyph-name="descendercy" horiz-adv-x="215" 
d="M125 -155q-8 83 -32 119t-73 36h-20v40h130q15 0 25 -10t10 -25v-160h-40z" />
    <glyph glyph-name="verticalbarcy" horiz-adv-x="240" 
d="M100 107v235h40v-235h-40z" />
    <glyph glyph-name="descendercy.case" horiz-adv-x="230" 
d="M135 -180q-12 102 -42 141t-83 39h-10v41l90 -1h55q15 0 25 -10t10 -25v-185h-45z" />
    <glyph glyph-name="verticalbarcy.case" horiz-adv-x="240" 
d="M100 151v255h43v-255h-43z" />
    <glyph glyph-name="uni03060301" horiz-adv-x="0" 
d="M230 521q-49 0 -80 23t-50 57l20 15q19 -19 43.5 -29.5t66.5 -10.5t66.5 10.5t43.5 29.5l20 -15q-19 -34 -50 -57t-80 -23zM202 661l40 130h95l-95 -130h-40z" />
    <glyph glyph-name="uni03060300" horiz-adv-x="0" 
d="M230 521q-49 0 -80 23t-50 57l20 15q19 -19 43.5 -29.5t66.5 -10.5t66.5 10.5t43.5 29.5l20 -15q-19 -34 -50 -57t-80 -23zM220 661l-95 130h95l40 -130h-40z" />
    <glyph glyph-name="uni03060309" horiz-adv-x="0" 
d="M230 521q-49 0 -80 23t-50 57l20 15q19 -19 43.5 -29.5t66.5 -10.5t66.5 10.5t43.5 29.5l20 -15q-19 -34 -50 -57t-80 -23zM210 628q1 26 9.5 43t17 30.5t8.5 26.5q0 30 -33 30q-19 0 -31 -10.5t-17 -39.5l-42 1q0 40 24.5 63t65.5 23q29 0 56.5 -13.5t27.5 -43.5
q0 -21 -13 -35.5t-26.5 -30.5t-15.5 -44h-31z" />
    <glyph glyph-name="uni03060303" horiz-adv-x="0" 
d="M230 521q-49 0 -80 23t-50 57l20 15q19 -19 43.5 -29.5t66.5 -10.5t66.5 10.5t43.5 29.5l20 -15q-19 -34 -50 -57t-80 -23zM117 652q0 53 15 74t45 21q22 0 38 -10l32 -20t35 -10q11 0 20.5 14.5t9.5 25.5h30q0 -53 -15 -74t-45 -21q-21 0 -37 10l-32 20t-36 10
q-11 0 -20.5 -14.5t-9.5 -25.5h-30z" />
    <glyph glyph-name="uni03020301" horiz-adv-x="0" 
d="M100 530l80 115h110l80 -115h-50l-85 80l-85 -80h-50zM360 587l40 130h95l-95 -130h-40z" />
    <glyph glyph-name="uni03020300" horiz-adv-x="0" 
d="M100 530l80 115h110l80 -115h-50l-85 80l-85 -80h-50zM363 613l-95 130h95l40 -130h-40z" />
    <glyph glyph-name="uni03020309" horiz-adv-x="0" 
d="M100 530l80 115h110l80 -115h-50l-85 80l-85 -80h-50zM351 618q1 26 9.5 43t17 30.5t8.5 26.5q0 30 -33 30q-19 0 -31 -10.5t-17 -39.5l-42 1q0 40 24.5 63t65.5 23q29 0 56.5 -13.5t27.5 -43.5q0 -21 -13 -35.5t-26.5 -30.5t-15.5 -44h-31z" />
    <glyph glyph-name="uni03020303" horiz-adv-x="0" 
d="M100 530l80 115h110l80 -115h-50l-85 80l-85 -80h-50zM122 678q0 53 15 74t45 21q22 0 38 -10l32 -20t35 -10q11 0 20.5 14.5t9.5 25.5h30q0 -53 -15 -74t-45 -21q-21 0 -37 10l-32 20t-36 10q-11 0 -20.5 -14.5t-9.5 -25.5h-30z" />
    </font>
</defs>
</svg>
