<?xml version="1.0" standalone="no"?>
<!DOCTYPE svg PUBLIC "-//W3C//DTD SVG 1.1//EN" "http://www.w3.org/Graphics/SVG/1.1/DTD/svg11.dtd" >
<svg xmlns="http://www.w3.org/2000/svg" xmlns:xlink="http://www.w3.org/1999/xlink" version="1.1">
<metadata>
Created by FontForge 20201107 at Fri Jun  7 12:44:43 2024
 By 
Copyright 2011 The Philosopher Project Authors (https://github.com/alexeiva/philosopher)
</metadata>
<defs>
<font id="Philosopher-Bold" horiz-adv-x="496" >
  <font-face 
    font-family="Philosopher"
    font-weight="700"
    font-stretch="normal"
    units-per-em="1000"
    panose-1="0 0 0 0 0 0 0 0 0 0"
    ascent="800"
    descent="-200"
    x-height="470"
    cap-height="660"
    bbox="-96 -330 1043 996"
    underline-thickness="50"
    underline-position="-125"
    unicode-range="U+000D-2215"
  />
<missing-glyph horiz-adv-x="500" 
d="M50 -220v1084h400v-1084h-400zM100 -170h300v984h-300v-984z" />
    <glyph glyph-name=".notdef" horiz-adv-x="500" 
d="M50 -220v1084h400v-1084h-400zM100 -170h300v984h-300v-984z" />
    <glyph glyph-name=".null" horiz-adv-x="0" 
 />
    <glyph glyph-name="nonmarkingreturn" horiz-adv-x="333" 
 />
    <glyph glyph-name="NULL" horiz-adv-x="0" 
 />
    <glyph glyph-name="NULL" horiz-adv-x="0" 
 />
    <glyph glyph-name="CR" unicode="&#xd;" horiz-adv-x="250" 
 />
    <glyph glyph-name="space" unicode=" " horiz-adv-x="250" 
 />
    <glyph glyph-name="exclam" unicode="!" horiz-adv-x="245" 
d="M75 155l-19 505h133l-20 -505h-94zM122 -14q-29 0 -45 17t-16 44t16 44t45 17t45 -17t16 -44t-16 -44t-45 -17z" />
    <glyph glyph-name="quotedbl" unicode="&#x22;" horiz-adv-x="390" 
d="M245 390l-30 270h130l-30 -270h-70zM75 390l-30 270h130l-30 -270h-70z" />
    <glyph glyph-name="numbersign" unicode="#" horiz-adv-x="699" 
d="M116 0l36 172h-123v65h136l37 176h-113v65h127l41 197h99l-41 -197h127l41 197h99l-41 -197h128v-65h-142l-36 -176h118v-65h-132l-36 -172h-99l36 172h-127l-36 -172h-99zM265 237h126l37 176h-127z" />
    <glyph glyph-name="dollar" unicode="$" horiz-adv-x="550" 
d="M235 -80v65q-50 4 -94 19t-71.5 40t-27.5 59v117h28q15 -94 55.5 -138.5t109.5 -52.5v258l-68 41q-68 40 -96 82t-28 97q0 72 51 117t141 53v58h70v-59q48 -4 91 -19.5t70 -40.5t27 -58v-117h-28q-15 95 -55 139t-105 51v-241l83 -49q68 -40 99.5 -78.5t31.5 -93.5
q0 -79 -55.5 -128t-158.5 -57v-64h-70zM235 432v196q-35 -10 -54.5 -33.5t-19.5 -58.5q0 -36 19.5 -58.5t54.5 -45.5zM305 31q40 8 64 31.5t24 62.5t-23.5 66.5t-64.5 53.5v-214z" />
    <glyph glyph-name="percent" unicode="%" horiz-adv-x="755" 
d="M190 389q-75 0 -117.5 36t-42.5 102t42.5 102t117.5 36q73 0 115.5 -36t42.5 -102t-42.5 -102t-115.5 -36zM83 0l484 660h106l-484 -660h-106zM189 429q79 0 79 98t-80 98q-78 0 -78 -98t79 -98zM568 -5q-75 0 -117.5 36t-42.5 102t42.5 102t117.5 36q73 0 115.5 -36
t42.5 -102t-42.5 -102t-115.5 -36zM567 35q79 0 79 98t-80 98q-78 0 -78 -98t79 -98z" />
    <glyph glyph-name="ampersand" unicode="&#x26;" horiz-adv-x="636" 
d="M279 -20q-92 0 -146.5 21.5t-77.5 56.5t-23 77q0 45 21.5 79.5t57.5 62t79 49.5q-7 6 -25 24.5t-38 45.5t-34 60t-14 68q0 74 53 115t147 41q91 0 138 -39t47 -101q0 -41 -21.5 -76.5t-57 -66t-76.5 -57.5l185 -200q18 20 33.5 42t26.5 39q7 10 13 20t11 20l38 -25
q-9 -22 -22 -43q-11 -19 -27.5 -42.5t-38.5 -47.5l97 -103h-136l-38 38q1 0 -21.5 -14.5t-61.5 -29t-89 -14.5zM272 381q32 29 52 64.5t20 84.5q0 62 -21.5 86t-43.5 24q-34 0 -52 -24.5t-18 -91.5q0 -36 11 -64t25.5 -47.5t26.5 -31.5zM288 20q30 0 55 8t42 18q18 10 36 26
q-51 56 -95.5 103t-95.5 103q-27 -24 -47.5 -57.5t-20.5 -75.5q0 -57 31.5 -91t94.5 -34z" />
    <glyph glyph-name="quotesingle" unicode="'" horiz-adv-x="220" 
d="M75 390l-30 270h130l-30 -270h-70z" />
    <glyph glyph-name="parenleft" unicode="(" horiz-adv-x="320" 
d="M297 -220q-134 91 -203.5 204t-69.5 256t69.5 256t203.5 204l14 -20q-88 -78 -122.5 -192t-34.5 -248t34.5 -248t122.5 -192z" />
    <glyph glyph-name="parenright" unicode=")" horiz-adv-x="321" 
d="M24 -220l-14 20q88 78 122.5 192t34.5 248t-34.5 248t-122.5 192l14 20q134 -91 203.5 -204t69.5 -256t-69.5 -256t-203.5 -204z" />
    <glyph glyph-name="asterisk" unicode="*" horiz-adv-x="434" 
d="M161 324l24 121l-98 -89l-49 86l144 50l-144 50l49 86l98 -89l-24 121h112l-24 -121l98 89l49 -86l-144 -50l144 -50l-49 -86l-99 90l25 -122h-112z" />
    <glyph glyph-name="plus" unicode="+" horiz-adv-x="546" 
d="M228 100v195h-197v70h197v195h90v-195h197v-70h-197v-195h-90z" />
    <glyph glyph-name="comma" unicode="," horiz-adv-x="228" 
d="M63 -160l-18 24q17 11 36 29t32.5 42t13.5 54l-15 -3q-29 0 -45 17t-16 44t16 44t45 17q33 0 49.5 -24t16.5 -54q0 -57 -25.5 -102.5t-89.5 -87.5z" />
    <glyph glyph-name="hyphen" unicode="-" horiz-adv-x="395" 
d="M58 217v95h279v-95h-279z" />
    <glyph glyph-name="period" unicode="." horiz-adv-x="224" 
d="M112 -14q-29 0 -45 17t-16 44t16 44t45 17t45 -17t16 -44t-16 -44t-45 -17z" />
    <glyph glyph-name="slash" unicode="/" horiz-adv-x="475" 
d="M21 0l321 660h112l-321 -660h-112z" />
    <glyph glyph-name="zero" unicode="0" horiz-adv-x="606" 
d="M303 -20q-95 0 -152.5 44t-82.5 123t-25 183t25 183t82.5 123t152.5 44q96 0 153 -44t82 -123t25 -183t-25 -183t-82 -123t-153 -44zM303 25q63 0 91.5 73.5t28.5 231.5t-28.5 231.5t-91.5 73.5t-91.5 -73.5t-28.5 -231.5t28.5 -231.5t91.5 -73.5z" />
    <glyph glyph-name="one" unicode="1" horiz-adv-x="323" 
d="M119 0v542l-87 -56l-24 31l154 143h87v-660h-130z" />
    <glyph glyph-name="two" unicode="2" horiz-adv-x="539" 
d="M41 0v65q25 26 64 62t81.5 79.5t79.5 91t60.5 95.5t23.5 94q0 52 -16 84.5t-41 48t-53 15.5q-63 0 -106 -42t-58 -133h-35q0 38 3 77.5t21 62.5q27 33 79.5 56.5t115.5 23.5q35 0 74.5 -7.5t75 -27.5t58 -58t22.5 -100q0 -47 -22 -93t-57.5 -90t-77.5 -84t-83 -73.5
t-73.5 -59.5t-48.5 -42h207q60 0 92.5 28.5t32.5 81.5h30v-75q0 -20 -7 -38.5t-25 -30t-53 -11.5h-364z" />
    <glyph glyph-name="three" unicode="3" horiz-adv-x="543" 
d="M277 -20q-64 0 -109.5 13.5t-79 37.5t-61.5 57l28 29q42 -47 88.5 -69.5t89.5 -22.5q58 0 98.5 37.5t40.5 122.5q0 81 -37.5 118t-90.5 37q-23 0 -42 -3t-33 -7l-30 -9l-24 38l273 256h-179q-60 0 -92.5 -28.5t-32.5 -81.5h-30v75q0 20 7 38.5t25.5 30t52.5 11.5h338v-45
l-249 -234q1 1 23.5 2.5t40.5 1.5q34 0 72.5 -10.5t72 -34t54.5 -61.5t21 -94q0 -63 -25.5 -103t-63.5 -62.5t-77.5 -31t-68.5 -8.5z" />
    <glyph glyph-name="four" unicode="4" horiz-adv-x="572" 
d="M329 0v170h-320v40l346 450h104v-445h90v-45h-90v-170h-130zM78 215h251v328z" />
    <glyph glyph-name="five" unicode="5" horiz-adv-x="546" 
d="M265 -20q-82 0 -134 29t-94 79l29 26q38 -47 85.5 -68t90.5 -21q58 0 98 38.5t40 126.5q0 78 -41.5 116t-116.5 38q-21 0 -43 -3.5t-40 -8.5q-10 -2 -20.5 -5t-21.5 -6l-40 39l11 300h389v-44h-273l-9 -231l30 2q13 1 28 2t29 1q39 0 84 -9t84.5 -31.5t64.5 -61.5t25 -98
q0 -63 -26 -104t-66 -64t-83.5 -32.5t-79.5 -9.5z" />
    <glyph glyph-name="six" unicode="6" horiz-adv-x="560" 
d="M294 -20q-250 0 -250 350q0 181 70.5 265.5t209.5 84.5q34 0 63 -5.5t51 -11.5q25 -7 46 -17l-6 -28l-46 8q-20 3 -43.5 6t-44.5 3q-75 0 -120 -61t-45 -189q16 13 38 24q18 9 44 16.5t58 7.5q78 0 124 -28.5t66 -80t20 -119.5q0 -58 -26.5 -109.5t-78.5 -83.5t-130 -32z
M294 25q33 0 55 24.5t33.5 65.5t11.5 90q0 89 -24 136t-81 47q-30 0 -55 -12t-40 -24.5t-15 -14.5q0 -166 31.5 -239t83.5 -73z" />
    <glyph glyph-name="seven" unicode="7" horiz-adv-x="473" 
d="M96 0l250 615h-170q-60 0 -92.5 -28.5t-32.5 -81.5h-30v75q0 20 7 38.5t25.5 30t52.5 11.5h361v-45l-250 -615h-121z" />
    <glyph glyph-name="eight" unicode="8" horiz-adv-x="578" 
d="M289 -20q-68 0 -125 17.5t-91 55.5t-34 99q0 48 23.5 82t62 58.5t81.5 42.5q-39 22 -71 45.5t-51.5 54t-19.5 73.5q0 66 30.5 103.5t82 53t112.5 15.5q62 0 113 -15t81.5 -50t30.5 -97q0 -58 -39.5 -97t-95.5 -63q42 -22 78.5 -48.5t59 -62t22.5 -85.5q0 -66 -33.5 -106
t-90 -58t-126.5 -18zM327 384q26 20 39 49.5t13 84.5q0 46 -14.5 71.5t-35.5 35.5t-40 10t-40 -9.5t-35.5 -32.5t-14.5 -65q0 -46 38 -83t90 -61zM289 25q51 0 83 29.5t32 87.5q0 41 -20 71.5t-53 54t-72 43.5q-38 -20 -61.5 -55.5t-23.5 -103.5q0 -66 32 -96.5t83 -30.5z
" />
    <glyph glyph-name="nine" unicode="9" horiz-adv-x="560" 
d="M236 -20q-35 0 -63.5 5t-50.5 12q-13 4 -24.5 8t-21.5 9l6 28l46 -9q20 -3 43 -5.5t45 -2.5q75 0 120 61t45 189q-16 -13 -38 -24q-18 -9 -44 -16.5t-58 -7.5q-78 0 -124 28.5t-66 80t-20 119.5q0 59 26.5 110t79 83t129.5 32q250 0 250 -350q0 -182 -70.5 -266
t-209.5 -84zM271 272q30 0 55 12t40 25t15 14q0 167 -31 239.5t-84 72.5q-32 0 -54.5 -24.5t-34 -65.5t-11.5 -90q0 -89 24 -136t81 -47z" />
    <glyph glyph-name="colon" unicode=":" horiz-adv-x="238" 
d="M119 339q-29 0 -45 17t-16 44t16 44t45 17t45 -17t16 -44t-16 -44t-45 -17zM119 -14q-29 0 -45 17t-16 44t16 44t45 17t45 -17t16 -44t-16 -44t-45 -17z" />
    <glyph glyph-name="semicolon" unicode=";" horiz-adv-x="249" 
d="M124 339q-29 0 -45 17t-16 44t16 44t45 17t45 -17t16 -44t-16 -44t-45 -17zM75 -160l-18 24q17 11 36 29t32.5 42t13.5 54l-15 -3q-29 0 -45 17t-16 44t16 44t45 17q33 0 49.5 -24t16.5 -54q0 -57 -25.5 -102.5t-89.5 -87.5z" />
    <glyph glyph-name="less" unicode="&#x3c;" horiz-adv-x="610" 
d="M549 74l-520 226v70l520 226v-91l-392 -170l392 -170v-91z" />
    <glyph glyph-name="equal" unicode="=" horiz-adv-x="665" 
d="M58 385v70h549v-70h-549zM58 205v70h549v-70h-549z" />
    <glyph glyph-name="greater" unicode="&#x3e;" horiz-adv-x="610" 
d="M61 74v91l392 170l-392 170v91l520 -226v-70z" />
    <glyph glyph-name="question" unicode="?" horiz-adv-x="498" 
d="M202 156q2 44 15.5 77t32.5 60.5t37 55t30 60.5t12 78q0 85 -29.5 116.5t-74.5 31.5q-59 0 -103 -43.5t-63 -144.5h-30q0 44 3 85t23 67q28 32 83 56.5t117 24.5q61 0 109.5 -22.5t76.5 -65.5t28 -105q0 -50 -19 -85.5t-47.5 -62.5t-57.5 -53t-50 -56.5t-25 -73.5h-68z
M236 -14q-29 0 -45 17t-16 44t16 44t45 17t45 -17t16 -44t-16 -44t-45 -17z" />
    <glyph glyph-name="at" unicode="@" horiz-adv-x="877" 
d="M440 -180q-119 0 -211 48.5t-143.5 144.5t-51.5 237q0 142 51.5 237.5t143.5 144t211 48.5q120 0 211.5 -48t143 -139.5t51.5 -222.5t-51 -198t-160 -67q-17 0 -42 2.5t-48 14.5t-35 38h-5q-11 -17 -26 -28q-14 -11 -35.5 -19t-53.5 -8q-83 0 -126.5 37.5t-43.5 97.5
q0 45 22.5 78.5t81.5 51.5t166 18h15q0 66 -11.5 101t-31.5 48t-48 13q-34 0 -61.5 -20.5t-38.5 -69.5h-55q0 69 36 105q15 15 54.5 22.5t84.5 7.5q96 0 148.5 -52t52.5 -158v-183q0 -22 9.5 -36.5t30.5 -14.5q31 0 53.5 19.5t35 67t12.5 132.5q0 119 -42 200.5t-117.5 123
t-176.5 41.5q-100 0 -176 -42.5t-118 -128t-42 -214.5t42 -214.5t118 -128t176 -42.5q95 0 173 24.5t144 70.5l26 -40q-63 -44 -146.5 -72t-196.5 -28zM420 55q23 0 38.5 10t26.5 22q13 14 20 33v122h-15q-82 0 -111 -24.5t-29 -77.5q0 -85 70 -85z" />
    <glyph glyph-name="A" unicode="A" horiz-adv-x="647" 
d="M628 -4q-33 0 -69.5 8.5t-70 36.5t-57.5 85l-23 56h-266l-82 -182h-52l295 660h45l224 -534q18 -44 44 -70t60 -30v-25q-8 -2 -22.5 -3.5t-25.5 -1.5zM163 227h226l-110 261z" />
    <glyph glyph-name="B" unicode="B" horiz-adv-x="644" 
d="M95 0v530q0 45 -12.5 72.5t-57.5 27.5h-10v30h270q47 0 98.5 -5.5t96 -23t72.5 -52.5t28 -94q0 -43 -34.5 -84.5t-104.5 -59.5q66 -6 102.5 -29t51.5 -56.5t15 -72.5q0 -57 -25.5 -93t-68.5 -55.5t-95.5 -27t-105.5 -7.5h-220zM225 361h75q61 0 100.5 29t39.5 100
q0 50 -22.5 78t-58 40t-74.5 12q-12 0 -23 -1t-19 -3l-18 -3v-252zM295 40h5q83 0 126.5 36t43.5 102q0 138 -170 138h-75v-266q5 -1 10 -2.5t10 -2.5q22 -5 50 -5z" />
    <glyph glyph-name="C" unicode="C" horiz-adv-x="679" 
d="M367 -20q-105 0 -179 45t-112.5 122t-38.5 173q0 76 24.5 141.5t69.5 114.5t105 76.5t131 27.5q94 0 151.5 -24.5t85.5 -56.5q20 -26 23 -67t3 -85h-30q-19 91 -69.5 139.5t-133.5 48.5q-61 0 -111 -28t-79.5 -96.5t-29.5 -190.5q0 -57 12 -110t38.5 -95t68 -66
t101.5 -24q69 0 128 36.5t95 106.5l35 -27q-47 -83 -115 -122t-173 -39z" />
    <glyph glyph-name="D" unicode="D" horiz-adv-x="736" 
d="M95 0v530q0 45 -12.5 72.5t-57.5 27.5h-10v30h272q206 0 309.5 -87t103.5 -239q0 -99 -44.5 -174t-130.5 -117.5t-212 -42.5h-218zM300 40h10q70 0 124 35t85 100t31 155q0 88 -30.5 153t-85 101t-126.5 36h-8q-15 0 -28.5 -1t-24.5 -3l-22 -3v-566l22 -4q21 -3 53 -3z
" />
    <glyph glyph-name="E" unicode="E" horiz-adv-x="600" 
d="M95 0v530q0 45 -12.5 72.5t-57.5 27.5h-10v30h441q35 0 53 -11.5t25 -30t7 -38.5v-85h-30q0 64 -32.5 92t-92.5 28h-161v-250h260v-45h-260v-275h171q55 0 93.5 24.5t64.5 89.5l27 -10l-29 -79q-11 -32 -28.5 -51t-58.5 -19h-370z" />
    <glyph glyph-name="F" unicode="F" horiz-adv-x="539" 
d="M95 0v530q0 45 -12.5 72.5t-57.5 27.5h-10v30h419q35 0 53 -11.5t25 -30t7 -38.5v-85h-30q0 65 -32.5 92.5t-92.5 27.5h-139v-255h220v-45h-220v-315h-130z" />
    <glyph glyph-name="G" unicode="G" horiz-adv-x="734" 
d="M395 -20q-78 0 -143.5 27.5t-114 76.5t-75.5 114.5t-27 141.5q0 96 41 173t115.5 122t173.5 45q94 0 154 -24.5t88 -56.5q20 -25 23 -65t3 -74h-30q-19 92 -70 133.5t-138 41.5q-60 0 -101.5 -24t-68 -66t-38.5 -95t-12 -110q0 -121 29.5 -191t79.5 -99.5t111 -29.5
q45 0 77 7t58 19v178q0 21 6.5 42t26.5 39.5t58.5 29.5t102.5 11v-25q-34 0 -49 -25t-15 -70v-179q-58 -35 -123 -51t-142 -16z" />
    <glyph glyph-name="H" unicode="H" horiz-adv-x="720" 
d="M95 0v530q0 45 -12.5 72.5t-57.5 27.5h-10v30h120q53 0 71.5 -28t18.5 -102v-165h270v295h130v-530q0 -45 12.5 -72.5t57.5 -27.5h10v-30h-120q-52 0 -71 27t-19 103v190h-270v-320h-130z" />
    <glyph glyph-name="I" unicode="I" horiz-adv-x="304" 
d="M169 0q-52 0 -71 27t-19 103v530h130v-530q0 -45 12.5 -72.5t57.5 -27.5h10v-30h-120z" />
    <glyph glyph-name="J" unicode="J" horiz-adv-x="278" 
d="M-19 -137v30q30 4 51 21.5t31.5 57.5t10.5 111v577h130v-577q0 -86 -18 -134t-66.5 -67t-138.5 -19z" />
    <glyph glyph-name="K" unicode="K" horiz-adv-x="693" 
d="M631 -10q-37 0 -75 9t-79.5 35t-89.5 76l-161 168v-278h-130l-1 530q0 45 -12.5 72.5t-57.5 27.5h-10v30h120q52 0 71.5 -28t19.5 -102v-190l173 215q32 42 75 73.5t102 31.5h70v-35q-57 0 -103 -14.5t-80 -56.5l-149 -184l231 -240q25 -27 54.5 -50.5t57.5 -38t47 -17.5
v-24q-11 -4 -30.5 -7t-42.5 -3z" />
    <glyph glyph-name="L" unicode="L" horiz-adv-x="570" 
d="M95 0v530q0 45 -12.5 72.5t-57.5 27.5h-10v30h120q53 0 71.5 -28t18.5 -102v-485h345v-45h-475z" />
    <glyph glyph-name="M" unicode="M" horiz-adv-x="867" 
d="M847 -45q-109 0 -156 51t-47 164v354l-219 -524h-33l-268 544v-544h-50v660h122l242 -491l205 491h131v-490q0 -91 15.5 -136.5t57.5 -53.5v-25z" />
    <glyph glyph-name="N" unicode="N" horiz-adv-x="692" 
d="M572 -3l-424 498v-495h-50v540q0 38 -18.5 64t-71.5 26h-5v30h70q57 0 92.5 -15t58.5 -45l344 -400v460h50v-663h-46z" />
    <glyph glyph-name="O" unicode="O" horiz-adv-x="733" 
d="M367 -20q-99 0 -173.5 46.5t-115.5 125.5t-41 178t41 178t115.5 125.5t173.5 46.5q100 0 173.5 -46.5t114.5 -125.5t41 -178t-41 -178t-114.5 -125.5t-173.5 -46.5zM367 25q91 0 141 79.5t50 225.5t-50 225.5t-141 79.5t-140.5 -79.5t-49.5 -225.5t49.5 -225.5
t140.5 -79.5z" />
    <glyph glyph-name="P" unicode="P" horiz-adv-x="577" 
d="M95 0v530q0 45 -12.5 72.5t-57.5 27.5h-10v30h275q27 0 62 -3.5t71.5 -14.5t67.5 -33t50 -58.5t19 -91.5q0 -52 -19 -86.5t-48.5 -55.5t-62.5 -32t-62.5 -14.5t-47.5 -3.5h-95v-267h-130zM225 307h60q34 0 65 13.5t50.5 47.5t19.5 96t-19.5 95.5t-49 47t-61.5 13.5
q-12 0 -24 -1t-21 -3l-20 -3v-306z" />
    <glyph glyph-name="Q" unicode="Q" horiz-adv-x="735" 
d="M693 -205q-76 0 -151.5 19.5t-146 63.5t-131.5 118q-69 22 -120 70t-78.5 115.5t-27.5 148.5q0 99 41 178t115.5 125.5t173.5 46.5q100 0 173.5 -46.5t114.5 -125.5t41 -178q0 -83 -28.5 -152t-81 -117t-124.5 -68q18 -48 56.5 -87t85 -62t88.5 -23v-26zM368 25
q91 0 141 79.5t50 225.5t-50 225.5t-141 79.5t-140.5 -79.5t-49.5 -225.5t49.5 -225.5t140.5 -79.5z" />
    <glyph glyph-name="R" unicode="R" horiz-adv-x="616" 
d="M560 -10q-53 0 -98.5 31.5t-95.5 113.5l-100 167h-40v-302h-131v530q0 45 -12.5 72.5t-57.5 27.5h-10v30h276q28 0 64 -3.5t72 -14t66.5 -31t49 -53.5t18.5 -82q0 -52 -24.5 -85.5t-62 -52t-75.5 -28.5l105 -175q38 -64 70 -85t54 -25v-25q-8 -4 -28.5 -7t-39.5 -3z
M226 342h60q32 0 63 13t51.5 43.5t20.5 82.5t-20 82.5t-50 43.5t-60 13q-12 0 -24 -1t-21 -3l-20 -3v-271z" />
    <glyph glyph-name="S" unicode="S" horiz-adv-x="561" 
d="M273 -17q-54 0 -106 14t-86 41t-34 65v117h28q16 -104 64.5 -148t132.5 -44q57 0 91.5 24.5t34.5 72.5q0 43 -27.5 71.5t-75.5 57.5l-123 74q-68 40 -96 82t-28 97q0 79 60.5 125t163.5 46q55 0 106.5 -14t85.5 -41t34 -65v-117h-28q-17 104 -64 148t-123 44
q-54 0 -85.5 -26t-31.5 -71q0 -42 28.5 -68t75.5 -54l123 -73q68 -40 99.5 -78.5t31.5 -93.5q0 -86 -65 -136t-186 -50z" />
    <glyph glyph-name="T" unicode="T" horiz-adv-x="575" 
d="M232 0v615h-71q-53 0 -84 -26.5t-31 -93.5h-30v85q0 20 7 38.5t25.5 30t52.5 11.5h470v-45h-209v-615h-130z" />
    <glyph glyph-name="U" unicode="U" horiz-adv-x="694" 
d="M362 -10q-270 0 -270 298v242q0 45 -12.5 72.5t-57.5 27.5v30h110q53 0 71.5 -28t18.5 -102l1 -272q1 -104 40.5 -163.5t118.5 -59.5q102 0 148.5 61t46.5 192v372h50v-372q0 -94 -25.5 -160.5t-83.5 -102t-156 -35.5z" />
    <glyph glyph-name="V" unicode="V" horiz-adv-x="635" 
d="M299 -10l-233 553q-24 56 -46.5 78.5t-52.5 26.5v20q4 0 19.5 1t22.5 1q35 0 71.5 -8t69.5 -35t57 -84l158 -374l211 491h51l-288 -670h-40z" />
    <glyph glyph-name="W" unicode="W" horiz-adv-x="906" 
d="M277 -9l-216 552q-23 57 -46 79t-53 26v20q4 0 19.5 1t22.5 1q35 0 72 -7.5t70 -34.5t56 -85l135 -345l90 256l-35 89q-23 57 -49.5 79t-56.5 26v20q4 0 18 1t21 1q35 0 72 -8t70 -34.5t56 -84.5l143 -364l171 481h48l-237 -669h-40l-154 392l-137 -392h-40z" />
    <glyph glyph-name="X" unicode="X" horiz-adv-x="647" 
d="M17 0l246 311l-142 219q-16 26 -39 50.5t-47.5 41t-47.5 18.5v20h110q38 0 68.5 -17t54.5 -42t40 -51l87 -134l193 244h65l-229 -289l157 -241q17 -26 39.5 -50.5t47.5 -40.5t47 -19v-20h-110q-37 0 -68 17t-55 42.5t-40 50.5l-101 156l-211 -266h-65z" />
    <glyph glyph-name="Y" unicode="Y" horiz-adv-x="638" 
d="M279 0v264l-177 266q-17 26 -39.5 50t-46.5 41t-47 19v20h109q38 0 68.5 -17t54.5 -42t40 -51l136 -205l194 315h65l-227 -369v-291h-130z" />
    <glyph glyph-name="Z" unicode="Z" horiz-adv-x="599" 
d="M31 0v32l372 584h-217q-53 0 -84 -27t-31 -94h-30v85q0 20 7 38.5t25.5 30t52.5 11.5h455l-392 -615h387v-45h-545z" />
    <glyph glyph-name="bracketleft" unicode="[" horiz-adv-x="331" 
d="M66 -200v880h245v-45h-125v-790h125v-45h-245z" />
    <glyph glyph-name="backslash" unicode="\" horiz-adv-x="475" 
d="M342 0l-321 660h112l321 -660h-112z" />
    <glyph glyph-name="bracketright" unicode="]" horiz-adv-x="331" 
d="M20 -200v45h125v790h-125v45h245v-880h-245z" />
    <glyph glyph-name="asciicircum" unicode="^" horiz-adv-x="514" 
d="M20 330l215 350h44l215 -350h-98l-139 227l-139 -227h-98z" />
    <glyph glyph-name="underscore" unicode="_" horiz-adv-x="436" 
d="M8 -70v70h420v-70h-420z" />
    <glyph glyph-name="grave" unicode="`" horiz-adv-x="227" 
d="M133 477l-113 203h125l62 -203h-74z" />
    <glyph glyph-name="a" unicode="a" 
d="M199 -10q-83 0 -126.5 37.5t-43.5 97.5q0 48 22.5 81.5t81.5 51t166 17.5h15q0 90 -25 125t-70 35q-34 0 -61 -17t-39 -73h-55q0 26 3.5 53t21.5 47t59.5 27.5t90.5 7.5q98 0 151.5 -52t53.5 -158v-270h-85l-35 45h-5q-5 -8 -12.5 -15t-15.5 -13q-14 -11 -37 -19t-55 -8z
M229 40q23 0 38.5 10t26.5 22q13 14 20 33v125h-15q-72 0 -103.5 -26t-31.5 -79q0 -42 17.5 -63.5t47.5 -21.5z" />
    <glyph glyph-name="b" unicode="b" horiz-adv-x="547" 
d="M300 -10q-30 0 -52 8t-36 19q-17 12 -27 28h-5l-35 -45h-85v530q0 45 -12.5 72.5t-57.5 27.5h-10v30h120q53 0 71.5 -28t18.5 -102v-80q13 8 28 15q14 5 33 10t44 5q73 0 120.5 -32.5t71 -88t23.5 -124.5q0 -68 -23.5 -124t-70 -88.5t-116.5 -32.5zM280 35q35 0 55.5 26
t30 71.5t9.5 102.5q0 58 -9.5 103t-31 71t-59.5 26q-19 0 -34.5 -5t-26.5 -10q-13 -7 -24 -15v-305q9 -20 22 -33q11 -12 28 -22t40 -10z" />
    <glyph glyph-name="c" unicode="c" 
d="M276 -10q-80 0 -133.5 33.5t-80 89.5t-26.5 122q0 67 26.5 122.5t80 89t133.5 33.5q57 0 96.5 -8t58.5 -27t22 -51t3 -89h-30q-4 64 -39.5 97t-95.5 33q-53 0 -86.5 -49t-33.5 -151q0 -200 125 -200q52 0 84.5 24t58.5 59l31 -23q-14 -22 -37.5 -46.5t-61 -41.5
t-95.5 -17z" />
    <glyph glyph-name="d" unicode="d" horiz-adv-x="547" 
d="M247 -10q-70 0 -116.5 32.5t-70 88.5t-23.5 124q0 69 23.5 124.5t71.5 88t120 32.5q24 0 43.5 -5t33.5 -10q15 -7 28 -15v80q0 45 -12.5 72.5t-57.5 27.5h-10v30h120q53 0 71.5 -28t18.5 -102v-530h-85l-35 45h-5q-5 -8 -12.5 -15t-15.5 -13q-14 -11 -35.5 -19t-51.5 -8z
M267 35q23 0 39.5 10t27.5 22q7 7 12.5 15t10.5 18v305q-10 8 -24 15q-11 5 -26.5 10t-34.5 5q-37 0 -59 -26t-31.5 -71t-9.5 -103q0 -57 9 -102.5t30 -71.5t56 -26z" />
    <glyph glyph-name="e" unicode="e" horiz-adv-x="509" 
d="M267 -10q-70 0 -122 32t-80 87.5t-28 125.5q0 80 29 134.5t79 82.5t112 28t112 -25t79 -70t29 -105q0 -11 -0.5 -22.5t-1.5 -20.5l-2 -20h-301q0 -99 30.5 -140.5t79.5 -41.5q52 0 84.5 24t58.5 59l31 -23q-14 -22 -37.5 -46.5t-60 -41.5t-91.5 -17zM172 262h170
q0 99 -23.5 136t-61.5 37q-22 0 -41.5 -16t-31.5 -53.5t-12 -103.5z" />
    <glyph glyph-name="f" unicode="f" horiz-adv-x="342" 
d="M72 0v425h-60v45h60v27q0 85 48.5 129t146.5 44q26 0 52 -4.5t39 -12.5q26 -15 39 -43l-40 -35q-15 23 -37 36.5t-48 13.5q-34 0 -52 -27.5t-18 -100.5v-27h130v-45h-130v-425h-130z" />
    <glyph glyph-name="g" unicode="g" horiz-adv-x="523" 
d="M259 -200q-70 0 -125.5 14.5t-87.5 48.5t-32 92q0 36 20.5 62t51.5 43t63 25q-19 6 -32 19t-13 36q0 34 40 50q-42 15 -71 51.5t-29 82.5q0 58 29 92t77.5 49t108.5 15h210v-27l-90 -12q42 -16 68.5 -49t26.5 -68q0 -57 -26.5 -91t-75 -48.5t-113.5 -14.5q-45 0 -72.5 -5
t-27.5 -25q0 -17 27.5 -21.5t72.5 -5.5q68 -1 123.5 -18.5t88.5 -52t33 -87.5q0 -58 -32 -92t-87.5 -48.5t-125.5 -14.5zM259 210q35 0 57.5 26t22.5 88q0 57 -22.5 86.5t-57.5 29.5t-57.5 -27.5t-22.5 -88.5q0 -62 22.5 -88t57.5 -26zM259 -155q50 0 80 26.5t30 83.5
q0 45 -28 74t-74 38l-47 5q-33 -14 -52 -41.5t-19 -75.5q0 -57 30 -83.5t80 -26.5z" />
    <glyph glyph-name="h" unicode="h" horiz-adv-x="544" 
d="M60 0v530q0 45 -12.5 72.5t-57.5 27.5h-10v30h120q53 0 71.5 -28t18.5 -102v-88q7 5 15 10t16 9q14 7 34 13t45 6q34 0 67.5 -8t61.5 -28.5t44.5 -56t16.5 -90.5v-297h-130v292q0 77 -27.5 107.5t-62.5 30.5q-17 0 -31.5 -5.5t-25.5 -12.5q-12 -7 -23 -17v-395h-130z" />
    <glyph glyph-name="i" unicode="i" horiz-adv-x="267" 
d="M144 524q-38 0 -56.5 23t-18.5 53q0 26 16 41t39 15q38 0 56.5 -23t18.5 -53q0 -26 -16 -41t-39 -15zM79 0v340q0 45 -12.5 72.5t-57.5 27.5h-10v30h120q53 0 71.5 -28t18.5 -102v-340h-130z" />
    <glyph glyph-name="j" unicode="j" horiz-adv-x="267" 
d="M144 524q-38 0 -56.5 23t-18.5 53q0 26 16 41t39 15q38 0 56.5 -23t18.5 -53q0 -26 -16 -41t-39 -15zM-9 -190v25q30 6 49.5 24.5t29 58t9.5 107.5v315q0 45 -12.5 72.5t-57.5 27.5h-10v30h120q53 0 71.5 -28t18.5 -102v-315q0 -82 -20.5 -129t-68 -66.5t-129.5 -19.5z
" />
    <glyph glyph-name="k" unicode="k" horiz-adv-x="505" 
d="M435 -10q-42 0 -79 17.5t-70 62.5l-96 126v-196h-130v530q0 45 -12.5 72.5t-57.5 27.5h-10v30h120q53 0 71.5 -28t18.5 -102v-285l121 148q31 37 61 57t83 20h20v-26q-59 0 -100 -50l-97 -118l133 -176q26 -35 49 -53t44 -23v-24q-8 -4 -29 -7t-40 -3z" />
    <glyph glyph-name="l" unicode="l" horiz-adv-x="258" 
d="M64 0v530q0 45 -12.5 72.5t-57.5 27.5h-10v30h120q53 0 71.5 -28t18.5 -102v-530h-130z" />
    <glyph glyph-name="m" unicode="m" horiz-adv-x="826" 
d="M80 0v340q0 45 -12 72.5t-57 27.5h-10v30h99q30 0 52 -8.5t33 -29.5h4q18 16 49.5 32t76.5 16q38 0 66 -10.5t46.5 -24t25.5 -22.5q20 22 52 39.5t90 17.5q83 0 129 -43.5t46 -140.5v-296h-130v297q0 73 -23 103t-57 30q-28 0 -50.5 -11t-35.5 -27q2 -4 4 -9.5t4 -12.5
q3 -11 5.5 -29.5t2.5 -44.5v-296h-130v297q0 73 -23 103t-57 30q-23 0 -45 -13.5t-32 -26.5l3 -14q2 -7 3 -17t1 -22v-337h-130z" />
    <glyph glyph-name="n" unicode="n" horiz-adv-x="575" 
d="M80 0v340q0 45 -12 72.5t-57 27.5h-10v30h99q34 0 53.5 -8.5t30.5 -28.5q18 17 51.5 32t94.5 15q94 0 142 -43.5t48 -140.5v-296h-130v297q0 73 -27 103t-68 30q-32 0 -55.5 -9t-36.5 -22l3 -14q2 -7 3 -17t1 -22v-346h-130z" />
    <glyph glyph-name="o" unicode="o" horiz-adv-x="552" 
d="M276 -10q-74 0 -128 32.5t-83 88.5t-29 124q0 69 29 124.5t83 88t128 32.5q75 0 128.5 -32.5t82.5 -88t29 -124.5q0 -68 -29 -124t-82.5 -88.5t-128.5 -32.5zM276 35q35 0 58.5 26t35 71.5t11.5 102.5q0 58 -11.5 103t-35 71t-58.5 26t-58.5 -26t-35 -71t-11.5 -103
q0 -57 11.5 -102.5t35 -71.5t58.5 -26z" />
    <glyph glyph-name="p" unicode="p" horiz-adv-x="567" 
d="M80 -190v530q0 45 -12 72.5t-57 27.5h-10v30h99q34 0 53.5 -9t30.5 -33q18 16 51 34t85 18q70 0 116.5 -32.5t70 -88t23.5 -124.5q0 -68 -23.5 -124t-71 -88.5t-120.5 -32.5q-25 0 -44 4.5t-33 10.5q-16 6 -28 15v-210h-130zM295 35q38 0 59.5 26t31 71.5t9.5 102.5
q0 58 -9.5 103t-30 71t-55.5 26q-38 0 -61 -14t-36 -27l3 -14q4 -12 4 -34v-281q11 -9 24 -15q11 -6 26.5 -10.5t34.5 -4.5z" />
    <glyph glyph-name="q" unicode="q" horiz-adv-x="547" 
d="M357 -190v210q-12 -9 -28 -15q-14 -6 -33.5 -10.5t-43.5 -4.5q-72 0 -120 32.5t-71.5 88.5t-23.5 124q0 69 23.5 124.5t70 88t116.5 32.5q30 0 51.5 -8.5t35.5 -19.5q8 -6 15.5 -12.5t12.5 -14.5h5l35 45h85v-660h-130zM272 35q19 0 34.5 4.5t26.5 10.5q14 6 24 15v305
q-5 9 -10.5 17t-12.5 15q-11 12 -27.5 22.5t-39.5 10.5q-35 0 -56 -26t-30 -71t-9 -103q0 -57 9.5 -102.5t31.5 -71.5t59 -26z" />
    <glyph glyph-name="r" unicode="r" horiz-adv-x="418" 
d="M80 0v340q0 45 -12 72.5t-57 27.5h-10v30h99q34 0 53.5 -8.5t30.5 -28.5q18 16 49.5 31.5t76.5 15.5q43 0 71 -20q17 -12 25.5 -29t8.5 -16l-51 -39q-7 9 -18 19q-9 8 -21.5 14t-29.5 6q-32 0 -54 -9t-35 -22l2 -15q1 -7 1.5 -15.5t0.5 -17.5v-336h-130z" />
    <glyph glyph-name="s" unicode="s" horiz-adv-x="468" 
d="M229 -10q-62 0 -101.5 11t-59.5 30q-18 17 -21 49t-3 70h35q8 -48 39 -81.5t91 -33.5q56 0 78 19.5t22 48.5t-26 46.5t-64 34.5l-52 22q-60 26 -94 59t-34 82q0 65 54 99t136 34q62 0 101.5 -11t59.5 -30q18 -17 21 -49t3 -70h-35q-8 48 -39 81.5t-91 33.5
q-45 0 -65 -19.5t-20 -48.5q0 -27 19 -43.5t52 -30.5l60 -25q69 -29 104 -60.5t35 -84.5q0 -65 -58 -99t-147 -34z" />
    <glyph glyph-name="t" unicode="t" horiz-adv-x="354" 
d="M226 -10q-68 0 -106.5 37t-38.5 109v289h-60v45h60v90l50 60h80v-150h110v-45h-110v-295q0 -56 13.5 -75.5t38.5 -19.5q16 0 30.5 4t25.5 9q11 6 23 14l14 -28q-13 -11 -31 -22q-16 -8 -40.5 -15t-58.5 -7z" />
    <glyph glyph-name="u" unicode="u" horiz-adv-x="565" 
d="M255 -10q-94 0 -139.5 43.5t-45.5 140.5v166q0 45 -12.5 72.5t-57.5 27.5h-10v30h120q53 0 71.5 -28t18.5 -102v-167q0 -77 22 -107.5t63 -30.5q23 0 39.5 10t27.5 22q7 7 12.5 15t10.5 18v370h130v-470h-85l-35 45h-5q-14 -15 -33 -28q-16 -11 -39 -19t-53 -8z" />
    <glyph glyph-name="v" unicode="v" horiz-adv-x="500" 
d="M246 -10l-169 365q-26 55 -45 78t-44 25v20q4 0 17 1t20 1q40 0 74.5 -9.5t64 -36.5t53.5 -79l88 -192l136 307h54l-213 -480h-36z" />
    <glyph glyph-name="w" unicode="w" horiz-adv-x="775" 
d="M242 -10l-163 365q-25 56 -46 79t-47 25v19q3 0 12.5 0.5t20.5 1t15 0.5q64 0 106 -25.5t76 -99.5l85 -191l67 160l-14 31q-25 55 -45.5 78.5t-42.5 25.5v19q4 0 17.5 1t20.5 1q64 0 111 -25.5t81 -99.5l92 -201l122 316h53l-184 -480h-46l-130 281l-116 -281h-45z" />
    <glyph glyph-name="x" unicode="x" 
d="M23 0l169 209l-96 161q-21 36 -45.5 56t-47.5 24v20h95q49 0 77.5 -21.5t50.5 -58.5l48 -81l131 161h67l-169 -208l97 -162q21 -36 45.5 -56t47.5 -24v-20h-95q-49 0 -77.5 21.5t-50.5 58.5l-49 81l-131 -161h-67z" />
    <glyph glyph-name="y" unicode="y" horiz-adv-x="509" 
d="M92 -200v35q52 0 87 20t57 77l21 54l-180 394q-33 72 -93 80v20h88q45 0 79 -21.5t51 -58.5l115 -252l122 322h53l-202 -535q-20 -54 -43.5 -83.5t-51.5 -40.5t-63 -11h-40z" />
    <glyph glyph-name="z" unicode="z" horiz-adv-x="493" 
d="M39 0v31l263 394h-118q-64 0 -89.5 -23t-25.5 -72h-30v60q0 20 7 38.5t25.5 30t52.5 11.5h356l-284 -425h263v-45h-420z" />
    <glyph glyph-name="braceleft" unicode="{" horiz-adv-x="312" 
d="M293 -211q-70 6 -111.5 31.5t-60 65t-18.5 84.5v140q0 41 -22 73.5t-78 40.5v32q56 8 78 41t22 73v140q0 46 18.5 85t60 65t111.5 31v-35q-34 -6 -47 -32.5t-13 -71.5v-172q0 -57 -28.5 -90t-91.5 -50q63 -17 91.5 -50t28.5 -90v-172q0 -45 13 -71.5t47 -32.5v-35z" />
    <glyph glyph-name="bar" unicode="|" horiz-adv-x="262" 
d="M66 -190v870h130v-870h-130z" />
    <glyph glyph-name="braceright" unicode="}" horiz-adv-x="312" 
d="M19 -211v35q34 6 47 32.5t13 71.5v172q0 57 28.5 90t91.5 50q-63 17 -91.5 50t-28.5 90v172q0 45 -13 71.5t-47 32.5v35q70 -5 111.5 -31t60 -65t18.5 -85v-140q0 -40 22 -73t78 -41v-32q-56 -8 -78 -40.5t-22 -73.5v-140q0 -45 -18.5 -84.5t-60 -65t-111.5 -31.5z" />
    <glyph glyph-name="asciitilde" unicode="~" horiz-adv-x="611" 
d="M441 167q-45 0 -83 13.5t-73 29.5q-32 14 -61 25.5t-53 11.5q-42 0 -61 -15t-19 -45h-40q0 78 29 117t91 39q45 0 83 -13.5t73 -29.5q32 -14 61 -25.5t53 -11.5q42 0 61 15t19 45h40q0 -78 -29 -117t-91 -39z" />
    <glyph glyph-name="uni00A0" unicode="&#xa0;" horiz-adv-x="250" 
 />
    <glyph glyph-name="exclamdown" unicode="&#xa1;" horiz-adv-x="239" 
d="M119 358q-29 0 -45 17t-16 44t16 44t45 17t45 -17t16 -44t-16 -44t-45 -17zM53 -194l19 505h94l20 -505h-133z" />
    <glyph glyph-name="cent" unicode="&#xa2;" 
d="M241 -50v42q-70 6 -116.5 40t-70 87.5t-23.5 115.5q0 63 23.5 115.5t70 87t116.5 40.5v42h60v-41q45 -2 76.5 -10t48.5 -24q19 -19 22 -51t3 -89h-30q-4 60 -35 92t-85 37v-399q48 2 78 25.5t55 57.5l31 -23q-13 -20 -33.5 -42.5t-52 -39.5t-78.5 -21v-42h-60zM241 45
v379q-35 -17 -55 -64t-20 -125q0 -155 75 -190z" />
    <glyph glyph-name="sterling" unicode="&#xa3;" horiz-adv-x="535" 
d="M36 0v30q26 8 40 27.5t19.5 58.5t5.5 104v100h-60v45h60v95q0 64 19 105t49.5 64t66.5 32t70 9q45 0 88 -8t62 -27t22 -46.5t3 -53.5h-55q-11 49 -36.5 69.5t-63.5 20.5q-25 0 -46.5 -14t-35 -50t-13.5 -101v-95h130v-45h-130v-100q0 -71 -22 -112t-48 -63h190
q60 0 87.5 30t27.5 90h30v-85q0 -20 -7 -38.5t-25 -30t-53 -11.5h-375z" />
    <glyph glyph-name="currency" unicode="&#xa4;" horiz-adv-x="605" 
d="M116 0v190h-50v45h50v50h-50v45h50v205q0 41 -12.5 68t-57.5 27h-10v30h275q73 0 133 -19t96 -58.5t36 -102.5q0 -67 -36.5 -110.5t-97.5 -64t-136 -20.5h-60v-50h250v-45h-250v-190h-130zM246 330h60q33 0 62.5 13.5t48.5 46.5t19 90q0 50 -20 81t-48.5 45t-56.5 14
q-19 0 -34.5 -0.5t-30.5 -4.5v-285z" />
    <glyph glyph-name="yen" unicode="&#xa5;" horiz-adv-x="711" 
d="M331 0v135h-84v45h84v40h-84v45h83l-176 265q-17 26 -39.5 50t-46.5 41t-47 19v20h109q38 0 68.5 -17t54.5 -42t40 -51l136 -205l194 315h65l-227 -369v-26h86v-45h-86v-40h86v-45h-86v-135h-130z" />
    <glyph glyph-name="brokenbar" unicode="&#xa6;" horiz-adv-x="268" 
d="M69 327v353h130v-353h-130zM69 -190v353h130v-353h-130z" />
    <glyph glyph-name="section" unicode="&#xa7;" horiz-adv-x="450" 
d="M220 -200q-46 0 -83.5 10.5t-57.5 30.5q-22 22 -25.5 47t-3.5 63h32q8 -49 35.5 -77.5t72.5 -28.5q38 0 59.5 20t21.5 68q0 34 -14 56t-36.5 39.5t-49.5 34.5q-31 20 -61 42.5t-50 51.5t-20 68q0 47 32 85.5t80 59.5q-40 27 -68.5 62t-28.5 85q0 54 24.5 87.5t64.5 49.5
t86 16t83.5 -10.5t57.5 -30.5q22 -22 25.5 -47t3.5 -63h-32q-8 49 -35.5 77.5t-72.5 28.5q-38 0 -59 -20t-21 -68q0 -34 13.5 -56t36 -38.5t49.5 -34.5q31 -20 61 -43t50 -52t20 -68q0 -51 -31.5 -88t-82.5 -57q40 -28 69.5 -62.5t29.5 -84.5q0 -53 -24.5 -87t-64.5 -50
t-86 -16zM258 125q21 8 32 29t11 61q0 41 -32 72t-77 57q-21 -8 -32 -29.5t-11 -59.5q0 -41 32 -73t77 -57z" />
    <glyph glyph-name="dieresis" unicode="&#xa8;" horiz-adv-x="282" 
d="M226 690q-26 0 -41 16.5t-15 39.5t15 39.5t41 16.5t41 -16.5t15 -39.5t-15 -39.5t-41 -16.5zM56 690q-26 0 -41 16.5t-15 39.5t15 39.5t41 16.5t41 -16.5t15 -39.5t-15 -39.5t-41 -16.5z" />
    <glyph glyph-name="copyright" unicode="&#xa9;" horiz-adv-x="806" 
d="M403 -28q-80 0 -147.5 26.5t-117.5 75t-77.5 113.5t-27.5 143t27.5 143t77.5 113.5t117.5 75t147.5 26.5t147.5 -26.5t117.5 -75t77.5 -113.5t27.5 -143t-27.5 -143t-77.5 -113.5t-117.5 -75t-147.5 -26.5zM403 17q88 0 155.5 40t106 110.5t38.5 162.5t-38.5 162.5
t-106 110.5t-155.5 40t-155.5 -40t-106 -110.5t-38.5 -162.5t38.5 -162.5t106 -110.5t155.5 -40zM403 102q-66 0 -114.5 30t-74.5 81.5t-26 113.5q0 67 29 120.5t78 85.5t108 32q64 0 103.5 -16t56.5 -37q16 -19 18.5 -46.5t2.5 -56.5h-31q-12 64 -42.5 94t-87.5 30
q-38 0 -70 -19t-51 -64t-19 -123q0 -48 14.5 -92t45.5 -72.5t80 -28.5q86 0 144 96l25 -18q-32 -60 -78 -85t-111 -25z" />
    <glyph glyph-name="ordfeminine" unicode="&#xaa;" horiz-adv-x="324" 
d="M131 396q-36 0 -62.5 16t-26.5 54t34.5 59.5t103.5 21.5h16q0 38 -7 57t-17.5 25t-21.5 6q-28 0 -41.5 -14t-18.5 -38h-29q0 14 1.5 30.5t12.5 27.5q10 11 33.5 15t51.5 4q30 0 54.5 -8t39 -32t14.5 -73v-146h-46l-19 25h-3q-9 -10 -25 -20t-44 -10zM150 421
q17 0 28.5 11.5t17.5 22.5v67h-16q-29 0 -47.5 -15.5t-18.5 -40.5q0 -26 11.5 -35.5t24.5 -9.5z" />
    <glyph glyph-name="guillemotleft" unicode="&#xab;" horiz-adv-x="425" 
d="M189 30l-158 195l158 195h64l-97 -194l97 -196h-64zM308 80l-102 145l102 145h64l-62 -145l62 -145h-64z" />
    <glyph glyph-name="logicalnot" unicode="&#xac;" horiz-adv-x="662" 
d="M513 115v105h-455v70h545v-175h-90z" />
    <glyph glyph-name="uni00AD" unicode="&#xad;" horiz-adv-x="395" 
d="M58 217v95h279v-95h-279z" />
    <glyph glyph-name="registered" unicode="&#xae;" horiz-adv-x="806" 
d="M403 -25q-80 0 -147.5 26t-117.5 73.5t-77.5 112.5t-27.5 143t27.5 143t77.5 112.5t117.5 73.5t147.5 26t147.5 -26t117.5 -73.5t77.5 -112.5t27.5 -143t-27.5 -143t-77.5 -112.5t-117.5 -73.5t-147.5 -26zM403 20q88 0 155.5 39t106 109t38.5 162t-38.5 162t-106 109
t-155.5 39t-155.5 -39t-106 -109t-38.5 -162t38.5 -162t106 -109t155.5 -39zM555 118q-38 0 -64.5 20.5t-59.5 73.5l-67 108h-20v-195h-88v352q0 28 -5 45t-25 17h-18v16h173q46 0 86 -10t65.5 -36.5t25.5 -74.5q0 -34 -15.5 -56t-39.5 -34t-48 -18l68 -110q23 -36 41.5 -55
t42.5 -22v-14q0 -1 -13 -4t-39 -3zM378 349q37 0 61 20t24 69q0 48 -24 68t-61 20q-8 0 -13.5 -0.5t-10.5 -0.5q-2 -1 -5 -1h-5v-173q3 -1 6 -1h5q5 -1 10.5 -1h12.5z" />
    <glyph glyph-name="macron" unicode="&#xaf;" horiz-adv-x="479" 
d="M100 557v85h279v-85h-279z" />
    <glyph glyph-name="degree" unicode="&#xb0;" horiz-adv-x="416" 
d="M208 360q-82 0 -126 46.5t-44 113.5q0 68 44 114t126 46q83 0 126.5 -46t43.5 -114q0 -67 -43.5 -113.5t-126.5 -46.5zM208 420q38 0 64 27.5t26 72.5t-26 72.5t-64 27.5t-64 -27.5t-26 -72.5t26 -72.5t64 -27.5z" />
    <glyph glyph-name="plusminus" unicode="&#xb1;" horiz-adv-x="582" 
d="M49 55v70h197v170h-197v70h197v195h90v-195h197v-70h-197v-170h197v-70h-484z" />
    <glyph glyph-name="uni00B2" unicode="&#xb2;" horiz-adv-x="318" 
d="M53 377v23q47 48 77.5 80t46 59.5t15.5 62.5t-12 47.5t-33 12.5q-59 0 -73 -79h-16q0 17 1.5 38t9.5 32q13 15 37 25.5t54 10.5q24 0 48 -7.5t40 -26t16 -53.5q0 -39 -21.5 -68.5t-56.5 -59.5t-76 -70h81q28 0 42.5 10t14.5 34h15v-35q0 -14 -7.5 -25t-31.5 -11h-171z
" />
    <glyph glyph-name="uni00B3" unicode="&#xb3;" horiz-adv-x="304" 
d="M154 367q-42 0 -67 14t-44 37l14 12q33 -36 83 -36q20 0 37 15.5t17 52.5q0 36 -18.5 49t-41.5 13q-11 0 -20 -1t-23 -5l-16 28l118 107h-78q-50 0 -50 -43h-13v33q0 14 7.5 25.5t31.5 11.5h153v-18l-128 -115q12 3 23 3.5t16 0.5q26 0 51.5 -9t42.5 -28.5t17 -51.5
q0 -38 -20 -59t-46.5 -28.5t-45.5 -7.5z" />
    <glyph glyph-name="acute" unicode="&#xb4;" horiz-adv-x="201" 
d="M20 700l42 140h119l-106 -140h-55z" />
    <glyph glyph-name="uni00B5" unicode="&#xb5;" horiz-adv-x="550" 
d="M63 -190v660h130v-235q0 -102 25 -151t70 -49q34 0 54 19.5t31 45.5v370h130v-470h-85l-35 45h-5q-5 -8 -11.5 -15t-14.5 -13q-14 -11 -33.5 -19t-45.5 -8q-30 0 -53.5 11t-46.5 34v-225h-110z" />
    <glyph glyph-name="paragraph" unicode="&#xb6;" horiz-adv-x="634" 
d="M256 -190v460q-65 0 -117.5 25t-82.5 69t-30 101q0 58 30 101.5t82.5 68.5t117.5 25h340v-45h-55v-805h-120v805h-45v-805h-120z" />
    <glyph glyph-name="periodcentered" unicode="&#xb7;" horiz-adv-x="226" 
d="M113 270q-29 0 -45 17t-16 44t16 44t45 17t45 -17t16 -44t-16 -44t-45 -17z" />
    <glyph glyph-name="cedilla" unicode="&#xb8;" horiz-adv-x="200" 
d="M40 -206v46h50q19 0 29.5 9.5t10.5 22.5q0 14 -10.5 23.5t-29.5 9.5h-45v95h65v-50q42 0 66 -21t24 -57q0 -35 -24 -56.5t-66 -21.5h-70z" />
    <glyph glyph-name="uni00B9" unicode="&#xb9;" horiz-adv-x="214" 
d="M80 377v237l-34 -20l-16 22l68 64h54v-303h-72z" />
    <glyph glyph-name="ordmasculine" unicode="&#xba;" horiz-adv-x="337" 
d="M168 367q-44 0 -72 22.5t-40.5 59t-12.5 79.5q0 44 12.5 80.5t40.5 58.5t72 22q46 0 73.5 -22t40 -58.5t12.5 -80.5q0 -43 -12.5 -79.5t-40 -59t-73.5 -22.5zM168 392q24 0 39 28.5t15 107.5q0 54 -7 83.5t-19 41t-28 11.5q-15 0 -27 -11.5t-19 -41t-7 -83.5
q0 -79 15.5 -107.5t37.5 -28.5z" />
    <glyph glyph-name="guillemotright" unicode="&#xbb;" horiz-adv-x="425" 
d="M172 30l97 196l-97 194h64l158 -195l-158 -195h-64zM53 80l62 145l-62 145h64l102 -145l-102 -145h-64z" />
    <glyph glyph-name="onequarter" unicode="&#xbc;" horiz-adv-x="617" 
d="M113 377v237l-34 -20l-16 22l68 64h54v-303h-72zM26 0l455 660h95l-455 -660h-95zM467 0v73h-145v24l150 207h67v-204h34v-27h-34v-73h-72zM361 100h106v146z" />
    <glyph glyph-name="onehalf" unicode="&#xbd;" horiz-adv-x="632" 
d="M113 377v237l-34 -20l-16 22l68 64h54v-303h-72zM26 0l455 660h95l-455 -660h-95zM372 0v23q47 48 77.5 80t46 59.5t15.5 62.5t-12 47.5t-33 12.5q-59 0 -73 -79h-16q0 17 1.5 38t9.5 32q13 15 37 25.5t54 10.5q24 0 48 -7.5t40 -26t16 -53.5q0 -39 -21.5 -68.5
t-56.5 -59.5t-76 -70h81q28 0 42.5 10t14.5 34h15v-35q0 -14 -7.5 -25t-31.5 -11h-171z" />
    <glyph glyph-name="threequarters" unicode="&#xbe;" horiz-adv-x="626" 
d="M148 367q-42 0 -67 14t-44 37l14 12q33 -36 83 -36q20 0 37 15.5t17 52.5q0 36 -18.5 49t-41.5 13q-11 0 -20 -1t-23 -5l-16 28l118 107h-78q-50 0 -50 -43h-13v33q0 14 7.5 25.5t31.5 11.5h153v-18l-128 -115q12 3 23 3.5t16 0.5q26 0 51.5 -9t42.5 -28.5t17 -51.5
q0 -38 -20 -59t-46.5 -28.5t-45.5 -7.5zM45 0l455 660h95l-455 -660h-95zM476 0v73h-145v24l150 207h67v-204h34v-27h-34v-73h-72zM370 100h106v146z" />
    <glyph glyph-name="questiondown" unicode="&#xbf;" horiz-adv-x="492" 
d="M259 360q-29 0 -45 17t-16 44t16 44t45 17t45 -17t16 -44t-16 -44t-45 -17zM240 -212q-61 0 -109.5 22.5t-76.5 66t-28 104.5q0 50 19 85.5t47.5 62.5t57.5 53t50 56.5t25 73.5h68q-2 -44 -15.5 -77t-32.5 -60.5t-37 -55t-30 -60.5t-12 -78q0 -85 29.5 -116.5t74.5 -31.5
q57 0 102.5 43.5t63.5 144.5h30q0 -44 -3 -85t-23 -67q-28 -32 -83 -56.5t-117 -24.5z" />
    <glyph glyph-name="Agrave" unicode="&#xc0;" horiz-adv-x="647" 
d="M628 -4q-33 0 -69.5 8.5t-70 36.5t-57.5 85l-23 56h-266l-82 -182h-52l295 660h45l224 -534q18 -44 44 -70t60 -30v-25q-8 -2 -22.5 -3.5t-25.5 -1.5zM163 227h226l-110 261zM319 705l-106 140h119l42 -140h-55z" />
    <glyph glyph-name="Aacute" unicode="&#xc1;" horiz-adv-x="647" 
d="M628 -4q-33 0 -69.5 8.5t-70 36.5t-57.5 85l-23 56h-266l-82 -182h-52l295 660h45l224 -534q18 -44 44 -70t60 -30v-25q-8 -2 -22.5 -3.5t-25.5 -1.5zM163 227h226l-110 261zM301 700l42 140h119l-106 -140h-55z" />
    <glyph glyph-name="Acircumflex" unicode="&#xc2;" horiz-adv-x="647" 
d="M628 -4q-33 0 -69.5 8.5t-70 36.5t-57.5 85l-23 56h-266l-82 -182h-52l295 660h45l224 -534q18 -44 44 -70t60 -30v-25q-8 -2 -22.5 -3.5t-25.5 -1.5zM163 227h226l-110 261zM178 685l80 125h130l80 -125h-60l-85 80l-85 -80h-60z" />
    <glyph glyph-name="Atilde" unicode="&#xc3;" horiz-adv-x="647" 
d="M628 -4q-33 0 -69.5 8.5t-70 36.5t-57.5 85l-23 56h-266l-82 -182h-52l295 660h45l224 -534q18 -44 44 -70t60 -30v-25q-8 -2 -22.5 -3.5t-25.5 -1.5zM163 227h226l-110 261zM210 700q0 60 19 80t49 20q23 0 38.5 -10t28 -20t25.5 -10q17 0 26 12.5t9 27.5h40
q0 -60 -18.5 -80t-48.5 -20q-22 0 -38 10t-28.5 20t-26.5 10q-17 0 -26 -12.5t-9 -27.5h-40z" />
    <glyph glyph-name="Adieresis" unicode="&#xc4;" horiz-adv-x="647" 
d="M628 -4q-33 0 -69.5 8.5t-70 36.5t-57.5 85l-23 56h-266l-82 -182h-52l295 660h45l224 -534q18 -44 44 -70t60 -30v-25q-8 -2 -22.5 -3.5t-25.5 -1.5zM163 227h226l-110 261zM409 690q-26 0 -41 16.5t-15 39.5t15 39.5t41 16.5t41 -16.5t15 -39.5t-15 -39.5t-41 -16.5z
M239 690q-26 0 -41 16.5t-15 39.5t15 39.5t41 16.5t41 -16.5t15 -39.5t-15 -39.5t-41 -16.5z" />
    <glyph glyph-name="Aring" unicode="&#xc5;" horiz-adv-x="647" 
d="M628 -4q-33 0 -69.5 8.5t-70 36.5t-57.5 85l-23 56h-266l-82 -182h-52l276 619q-18 9 -36 31t-18 55q0 42 26.5 68.5t68.5 26.5t68.5 -26.5t26.5 -68.5q0 -33 -18.5 -55.5t-36.5 -30.5l207 -493q18 -44 44 -70t60 -30v-25q-8 -2 -22.5 -3.5t-25.5 -1.5zM303 660h45
q22 15 22 45q0 23 -13 36.5t-32 13.5t-32 -13.5t-13 -36.5q0 -30 23 -45zM163 227h226l-110 261z" />
    <glyph glyph-name="AE" unicode="&#xc6;" horiz-adv-x="868" 
d="M-22 0l370 660h376q35 0 53 -11.5t25 -30t7 -38.5v-85h-30q0 64 -32.5 92t-92.5 28h-161v-250h260v-45h-260v-275h171q55 0 93.5 24.5t64.5 89.5l27 -10l-29 -79q-11 -32 -28.5 -51t-58.5 -19h-370v190h-218l-107 -190h-60zM170 235h193v344z" />
    <glyph glyph-name="Ccedilla" unicode="&#xc7;" horiz-adv-x="679" 
d="M317 -206v46h50q19 0 29.5 9.5t10.5 22.5q0 14 -10.5 23.5t-29.5 9.5h-45v78q-90 10 -154 56t-97.5 119t-33.5 162q0 76 24.5 141.5t69.5 114.5t105 76.5t131 27.5q94 0 151.5 -24.5t85.5 -56.5q20 -26 23 -67t3 -85h-30q-19 91 -69.5 139.5t-133.5 48.5q-61 0 -111 -28
t-79.5 -96.5t-29.5 -190.5q0 -57 12 -110t38.5 -95t68 -66t101.5 -24q69 0 128 36.5t95 106.5l35 -27q-45 -80 -108.5 -118.5t-159.5 -41.5v-31q42 0 66 -21t24 -57q0 -35 -24 -56.5t-66 -21.5h-70z" />
    <glyph glyph-name="Egrave" unicode="&#xc8;" horiz-adv-x="600" 
d="M95 0v530q0 45 -12.5 72.5t-57.5 27.5h-10v30h441q35 0 53 -11.5t25 -30t7 -38.5v-85h-30q0 64 -32.5 92t-92.5 28h-161v-250h260v-45h-260v-275h171q55 0 93.5 24.5t64.5 89.5l27 -10l-29 -79q-11 -32 -28.5 -51t-58.5 -19h-370zM295 705l-106 140h119l42 -140h-55z" />
    <glyph glyph-name="Eacute" unicode="&#xc9;" horiz-adv-x="600" 
d="M95 0v530q0 45 -12.5 72.5t-57.5 27.5h-10v30h441q35 0 53 -11.5t25 -30t7 -38.5v-85h-30q0 64 -32.5 92t-92.5 28h-161v-250h260v-45h-260v-275h171q55 0 93.5 24.5t64.5 89.5l27 -10l-29 -79q-11 -32 -28.5 -51t-58.5 -19h-370zM280 700l42 140h119l-106 -140h-55z" />
    <glyph glyph-name="Ecircumflex" unicode="&#xca;" horiz-adv-x="600" 
d="M95 0v530q0 45 -12.5 72.5t-57.5 27.5h-10v30h441q35 0 53 -11.5t25 -30t7 -38.5v-85h-30q0 64 -32.5 92t-92.5 28h-161v-250h260v-45h-260v-275h171q55 0 93.5 24.5t64.5 89.5l27 -10l-29 -79q-11 -32 -28.5 -51t-58.5 -19h-370zM160 722l80 125h130l80 -125h-60l-85 80
l-85 -80h-60z" />
    <glyph glyph-name="Edieresis" unicode="&#xcb;" horiz-adv-x="600" 
d="M95 0v530q0 45 -12.5 72.5t-57.5 27.5h-10v30h441q35 0 53 -11.5t25 -30t7 -38.5v-85h-30q0 64 -32.5 92t-92.5 28h-161v-250h260v-45h-260v-275h171q55 0 93.5 24.5t64.5 89.5l27 -10l-29 -79q-11 -32 -28.5 -51t-58.5 -19h-370zM392 730q-26 0 -41 16.5t-15 39.5
t15 39.5t41 16.5t41 -16.5t15 -39.5t-15 -39.5t-41 -16.5zM212 730q-26 0 -41 16.5t-15 39.5t15 39.5t41 16.5t41 -16.5t15 -39.5t-15 -39.5t-41 -16.5z" />
    <glyph glyph-name="Igrave" unicode="&#xcc;" horiz-adv-x="304" 
d="M169 0q-52 0 -71 27t-19 103v530h130v-530q0 -45 12.5 -72.5t57.5 -27.5h10v-30h-120zM147 705l-106 140h119l42 -140h-55z" />
    <glyph glyph-name="Iacute" unicode="&#xcd;" horiz-adv-x="304" 
d="M169 0q-52 0 -71 27t-19 103v530h130v-530q0 -45 12.5 -72.5t57.5 -27.5h10v-30h-120zM111 700l42 140h119l-106 -140h-55z" />
    <glyph glyph-name="Icircumflex" unicode="&#xce;" horiz-adv-x="304" 
d="M169 0q-52 0 -71 27t-19 103v530h130v-530q0 -45 12.5 -72.5t57.5 -27.5h10v-30h-120zM0 695l80 125h130l80 -125h-60l-85 80l-85 -80h-60z" />
    <glyph glyph-name="Idieresis" unicode="&#xcf;" horiz-adv-x="304" 
d="M61 715q-26 0 -41 16.5t-15 39.5t15 39.5t41 16.5t41 -16.5t15 -39.5t-15 -39.5t-41 -16.5zM227 715q-26 0 -41 16.5t-15 39.5t15 39.5t41 16.5t41 -16.5t15 -39.5t-15 -39.5t-41 -16.5zM169 0q-52 0 -71 27t-19 103v530h130v-530q0 -45 12.5 -72.5t57.5 -27.5h10v-30
h-120z" />
    <glyph glyph-name="Eth" unicode="&#xd0;" horiz-adv-x="736" 
d="M95 0v305h-70v50h70v175q0 45 -12.5 72.5t-57.5 27.5h-10v30h272q206 0 309.5 -87t103.5 -239q0 -99 -44.5 -174t-130.5 -117.5t-212 -42.5h-218zM300 40h10q70 0 124 35t85 100t31 155q0 88 -30.5 153t-85 101t-126.5 36h-8q-15 0 -28.5 -1t-24.5 -3l-22 -3v-258h75v-50
h-75v-258l22 -4q21 -3 53 -3z" />
    <glyph glyph-name="Ntilde" unicode="&#xd1;" horiz-adv-x="692" 
d="M572 -3l-424 498v-495h-50v540q0 38 -18.5 64t-71.5 26h-5v30h70q57 0 92.5 -15t58.5 -45l344 -400v460h50v-663h-46zM235 694q0 60 19 80t49 20q23 0 38.5 -10t28 -20t25.5 -10q17 0 26 12.5t9 27.5h40q0 -60 -18.5 -80t-48.5 -20q-22 0 -38 10t-28.5 20t-26.5 10
q-17 0 -26 -12.5t-9 -27.5h-40z" />
    <glyph glyph-name="Ograve" unicode="&#xd2;" horiz-adv-x="733" 
d="M367 -20q-99 0 -173.5 46.5t-115.5 125.5t-41 178t41 178t115.5 125.5t173.5 46.5q100 0 173.5 -46.5t114.5 -125.5t41 -178t-41 -178t-114.5 -125.5t-173.5 -46.5zM367 25q91 0 141 79.5t50 225.5t-50 225.5t-141 79.5t-140.5 -79.5t-49.5 -225.5t49.5 -225.5
t140.5 -79.5zM362 705l-106 140h119l42 -140h-55z" />
    <glyph glyph-name="Oacute" unicode="&#xd3;" horiz-adv-x="733" 
d="M367 -20q-99 0 -173.5 46.5t-115.5 125.5t-41 178t41 178t115.5 125.5t173.5 46.5q100 0 173.5 -46.5t114.5 -125.5t41 -178t-41 -178t-114.5 -125.5t-173.5 -46.5zM367 25q91 0 141 79.5t50 225.5t-50 225.5t-141 79.5t-140.5 -79.5t-49.5 -225.5t49.5 -225.5
t140.5 -79.5zM338 724l42 140h119l-106 -140h-55z" />
    <glyph glyph-name="Ocircumflex" unicode="&#xd4;" horiz-adv-x="733" 
d="M367 -20q-99 0 -173.5 46.5t-115.5 125.5t-41 178t41 178t115.5 125.5t173.5 46.5q100 0 173.5 -46.5t114.5 -125.5t41 -178t-41 -178t-114.5 -125.5t-173.5 -46.5zM367 25q91 0 141 79.5t50 225.5t-50 225.5t-141 79.5t-140.5 -79.5t-49.5 -225.5t49.5 -225.5
t140.5 -79.5zM218 731l80 125h130l80 -125h-60l-85 80l-85 -80h-60z" />
    <glyph glyph-name="Otilde" unicode="&#xd5;" horiz-adv-x="733" 
d="M367 -20q-99 0 -173.5 46.5t-115.5 125.5t-41 178t41 178t115.5 125.5t173.5 46.5q100 0 173.5 -46.5t114.5 -125.5t41 -178t-41 -178t-114.5 -125.5t-173.5 -46.5zM367 25q91 0 141 79.5t50 225.5t-50 225.5t-141 79.5t-140.5 -79.5t-49.5 -225.5t49.5 -225.5
t140.5 -79.5zM249 738q0 60 19 80t49 20q23 0 38.5 -10t28 -20t25.5 -10q17 0 26 12.5t9 27.5h40q0 -60 -18.5 -80t-48.5 -20q-22 0 -38 10t-28.5 20t-26.5 10q-17 0 -26 -12.5t-9 -27.5h-40z" />
    <glyph glyph-name="Odieresis" unicode="&#xd6;" horiz-adv-x="733" 
d="M367 -20q-99 0 -173.5 46.5t-115.5 125.5t-41 178t41 178t115.5 125.5t173.5 46.5q100 0 173.5 -46.5t114.5 -125.5t41 -178t-41 -178t-114.5 -125.5t-173.5 -46.5zM367 25q91 0 141 79.5t50 225.5t-50 225.5t-141 79.5t-140.5 -79.5t-49.5 -225.5t49.5 -225.5
t140.5 -79.5zM457 735q-26 0 -41 16.5t-15 39.5t15 39.5t41 16.5t41 -16.5t15 -39.5t-15 -39.5t-41 -16.5zM277 735q-26 0 -41 16.5t-15 39.5t15 39.5t41 16.5t41 -16.5t15 -39.5t-15 -39.5t-41 -16.5z" />
    <glyph glyph-name="multiply" unicode="&#xd7;" horiz-adv-x="489" 
d="M105 132l-63 63l139 139l-138 138l64 64l138 -138l139 139l64 -63l-140 -140l138 -138l-64 -63l-137 138z" />
    <glyph glyph-name="Oslash" unicode="&#xd8;" horiz-adv-x="733" 
d="M107 -20l45 76q-55 48 -85 118.5t-30 155.5q0 99 41 178t115.5 125.5t173.5 46.5q80 0 143 -31l18 31h92l-44 -73q57 -48 88.5 -119t31.5 -158q0 -99 -41 -178t-114.5 -125.5t-173.5 -46.5q-42 0 -79 8.5t-69 24.5l-20 -33h-92zM206 145l270 448q-46 42 -109 42
q-91 0 -140.5 -79.5t-49.5 -225.5q0 -109 29 -185zM367 25q91 0 141 79.5t50 225.5q0 59 -8.5 106.5t-24.5 85.5l-272 -452q45 -45 114 -45z" />
    <glyph glyph-name="Ugrave" unicode="&#xd9;" horiz-adv-x="694" 
d="M362 -10q-270 0 -270 298v242q0 45 -12.5 72.5t-57.5 27.5v30h110q53 0 71.5 -28t18.5 -102l1 -272q1 -104 40.5 -163.5t118.5 -59.5q102 0 148.5 61t46.5 192v372h50v-372q0 -94 -25.5 -160.5t-83.5 -102t-156 -35.5zM342 705l-106 140h119l42 -140h-55z" />
    <glyph glyph-name="Uacute" unicode="&#xda;" horiz-adv-x="695" 
d="M362 -10q-270 0 -270 298v242q0 45 -12.5 72.5t-57.5 27.5v30h110q53 0 71.5 -28t18.5 -102l1 -272q1 -104 40.5 -163.5t118.5 -59.5q102 0 148.5 61t46.5 192v372h50v-372q0 -94 -25.5 -160.5t-83.5 -102t-156 -35.5zM337 681l42 140h119l-106 -140h-55z" />
    <glyph glyph-name="Ucircumflex" unicode="&#xdb;" horiz-adv-x="695" 
d="M362 -10q-270 0 -270 298v242q0 45 -12.5 72.5t-57.5 27.5v30h110q53 0 71.5 -28t18.5 -102l1 -272q1 -104 40.5 -163.5t118.5 -59.5q102 0 148.5 61t46.5 192v372h50v-372q0 -94 -25.5 -160.5t-83.5 -102t-156 -35.5zM243 681l80 125h130l80 -125h-60l-85 80l-85 -80
h-60z" />
    <glyph glyph-name="Udieresis" unicode="&#xdc;" horiz-adv-x="695" 
d="M362 -10q-270 0 -270 298v242q0 45 -12.5 72.5t-57.5 27.5v30h110q53 0 71.5 -28t18.5 -102l1 -272q1 -104 40.5 -163.5t118.5 -59.5q102 0 148.5 61t46.5 192v372h50v-372q0 -94 -25.5 -160.5t-83.5 -102t-156 -35.5zM473 681q-26 0 -41 16.5t-15 39.5t15 39.5t41 16.5
t41 -16.5t15 -39.5t-15 -39.5t-41 -16.5zM293 681q-26 0 -41 16.5t-15 39.5t15 39.5t41 16.5t41 -16.5t15 -39.5t-15 -39.5t-41 -16.5z" />
    <glyph glyph-name="Yacute" unicode="&#xdd;" horiz-adv-x="638" 
d="M279 0v264l-177 266q-17 26 -39.5 50t-46.5 41t-47 19v20h109q38 0 68.5 -17t54.5 -42t40 -51l136 -205l194 315h65l-227 -369v-291h-130zM318 670l42 140h119l-106 -140h-55z" />
    <glyph glyph-name="Thorn" unicode="&#xde;" horiz-adv-x="555" 
d="M97 -30v590q0 45 -12.5 72.5t-57.5 27.5h-10v30h120q53 0 71.5 -28t18.5 -102v-10q310 -7 310 -235q0 -229 -310 -235v-110h-130zM227 125q88 6 129 57t41 133t-41.5 133t-128.5 56v-379z" />
    <glyph glyph-name="germandbls" unicode="&#xdf;" horiz-adv-x="573" 
d="M380 -10q-38 0 -72 10.5t-53 29.5t-22 45t-3 45h30q4 -30 29.5 -57.5t70.5 -27.5q34 0 52 19.5t18 45.5q0 33 -19.5 55.5t-48.5 41t-58.5 38.5t-49 47.5t-19.5 67.5q0 33 10.5 54.5t26 37t31.5 30t26.5 33t10.5 45.5q0 38 -20 56.5t-50 18.5q-34 0 -57 -27t-23 -98v-500
h-130v500q0 70 27.5 106.5t76.5 50t111 13.5q98 0 144 -27.5t46 -72.5q0 -33 -12.5 -56.5t-31 -41.5t-37.5 -33.5t-31.5 -31.5t-12.5 -37q0 -33 21.5 -55.5t54 -41t64.5 -38.5t53.5 -47t21.5 -68q0 -45 -26 -74t-66 -42.5t-83 -13.5z" />
    <glyph glyph-name="agrave" unicode="&#xe0;" 
d="M199 -10q-83 0 -126.5 37.5t-43.5 97.5q0 48 22.5 81.5t81.5 51t166 17.5h15q0 90 -25 125t-70 35q-34 0 -61 -17t-39 -73h-55q0 26 3.5 53t21.5 47t59.5 27.5t90.5 7.5q98 0 151.5 -52t53.5 -158v-270h-85l-35 45h-5q-5 -8 -12.5 -15t-15.5 -13q-14 -11 -37 -19t-55 -8z
M229 40q23 0 38.5 10t26.5 22q13 14 20 33v125h-15q-72 0 -103.5 -26t-31.5 -79q0 -42 17.5 -63.5t47.5 -21.5zM243 515l-106 140h119l42 -140h-55z" />
    <glyph glyph-name="aacute" unicode="&#xe1;" 
d="M199 -10q-83 0 -126.5 37.5t-43.5 97.5q0 48 22.5 81.5t81.5 51t166 17.5h15q0 90 -25 125t-70 35q-34 0 -61 -17t-39 -73h-55q0 26 3.5 53t21.5 47t59.5 27.5t90.5 7.5q98 0 151.5 -52t53.5 -158v-270h-85l-35 45h-5q-5 -8 -12.5 -15t-15.5 -13q-14 -11 -37 -19t-55 -8z
M229 40q23 0 38.5 10t26.5 22q13 14 20 33v125h-15q-72 0 -103.5 -26t-31.5 -79q0 -42 17.5 -63.5t47.5 -21.5zM201 526l42 140h119l-106 -140h-55z" />
    <glyph glyph-name="acircumflex" unicode="&#xe2;" 
d="M199 -10q-83 0 -126.5 37.5t-43.5 97.5q0 48 22.5 81.5t81.5 51t166 17.5h15q0 90 -25 125t-70 35q-34 0 -61 -17t-39 -73h-55q0 26 3.5 53t21.5 47t59.5 27.5t90.5 7.5q98 0 151.5 -52t53.5 -158v-270h-85l-35 45h-5q-5 -8 -12.5 -15t-15.5 -13q-14 -11 -37 -19t-55 -8z
M229 40q23 0 38.5 10t26.5 22q13 14 20 33v125h-15q-72 0 -103.5 -26t-31.5 -79q0 -42 17.5 -63.5t47.5 -21.5zM105 531l80 125h130l80 -125h-60l-85 80l-85 -80h-60z" />
    <glyph glyph-name="atilde" unicode="&#xe3;" 
d="M199 -10q-83 0 -126.5 37.5t-43.5 97.5q0 48 22.5 81.5t81.5 51t166 17.5h15q0 90 -25 125t-70 35q-34 0 -61 -17t-39 -73h-55q0 26 3.5 53t21.5 47t59.5 27.5t90.5 7.5q98 0 151.5 -52t53.5 -158v-270h-85l-35 45h-5q-5 -8 -12.5 -15t-15.5 -13q-14 -11 -37 -19t-55 -8z
M229 40q23 0 38.5 10t26.5 22q13 14 20 33v125h-15q-72 0 -103.5 -26t-31.5 -79q0 -42 17.5 -63.5t47.5 -21.5zM128 536q0 60 19 80t49 20q23 0 38.5 -10t28 -20t25.5 -10q17 0 26 12.5t9 27.5h40q0 -60 -18.5 -80t-48.5 -20q-22 0 -38 10t-28.5 20t-26.5 10
q-17 0 -26 -12.5t-9 -27.5h-40z" />
    <glyph glyph-name="adieresis" unicode="&#xe4;" 
d="M199 -10q-83 0 -126.5 37.5t-43.5 97.5q0 48 22.5 81.5t81.5 51t166 17.5h15q0 90 -25 125t-70 35q-34 0 -61 -17t-39 -73h-55q0 26 3.5 53t21.5 47t59.5 27.5t90.5 7.5q98 0 151.5 -52t53.5 -158v-270h-85l-35 45h-5q-5 -8 -12.5 -15t-15.5 -13q-14 -11 -37 -19t-55 -8z
M229 40q23 0 38.5 10t26.5 22q13 14 20 33v125h-15q-72 0 -103.5 -26t-31.5 -79q0 -42 17.5 -63.5t47.5 -21.5zM338 525q-26 0 -41 16.5t-15 39.5t15 39.5t41 16.5t41 -16.5t15 -39.5t-15 -39.5t-41 -16.5zM158 525q-26 0 -41 16.5t-15 39.5t15 39.5t41 16.5t41 -16.5
t15 -39.5t-15 -39.5t-41 -16.5z" />
    <glyph glyph-name="aring" unicode="&#xe5;" 
d="M199 -10q-83 0 -126.5 37.5t-43.5 97.5q0 48 22.5 81.5t81.5 51t166 17.5h15q0 90 -25 125t-70 35q-34 0 -61 -17t-39 -73h-55q0 26 3.5 53t21.5 47t59.5 27.5t90.5 7.5q98 0 151.5 -52t53.5 -158v-270h-85l-35 45h-5q-5 -8 -12.5 -15t-15.5 -13q-14 -11 -37 -19t-55 -8z
M229 40q23 0 38.5 10t26.5 22q13 14 20 33v125h-15q-72 0 -103.5 -26t-31.5 -79q0 -42 17.5 -63.5t47.5 -21.5zM243 520q-42 0 -68.5 26.5t-26.5 68.5t26.5 68.5t68.5 26.5t68.5 -26.5t26.5 -68.5t-26.5 -68.5t-68.5 -26.5zM243 565q19 0 32 13.5t13 36.5t-13 36.5t-32 13.5
t-32 -13.5t-13 -36.5t13 -36.5t32 -13.5z" />
    <glyph glyph-name="ae" unicode="&#xe6;" horiz-adv-x="795" 
d="M208 -10q-90 0 -135 37t-45 93q0 43 24 74.5t83.5 49.5t167.5 18h15q0 91 -25.5 132t-74.5 41q-34 0 -61 -17t-39 -73h-55q0 26 3.5 53t21.5 47q12 13 34 20.5t48 11t48 3.5q64 0 108 -24.5t67 -66.5q29 46 70.5 68.5t89.5 22.5q58 0 105.5 -25t76 -70t28.5 -105
q0 -11 -0.5 -22.5t-1.5 -20.5l-2 -20h-301v-10q1 -93 31.5 -132.5t78.5 -39.5q52 0 84.5 24t58.5 59l31 -23q-14 -22 -37.5 -46.5t-60 -41.5t-91.5 -17q-110 0 -170 90q-18 -34 -61 -62t-114 -28zM458 262h170q0 92 -24 132.5t-61 40.5q-34 0 -59.5 -40.5t-25.5 -132.5z
M228 40q24 0 41 10t28 22q12 14 21 33v112h-15q-58 0 -88 -11.5t-41 -33.5t-11 -52q0 -34 17.5 -57t47.5 -23z" />
    <glyph glyph-name="ccedilla" unicode="&#xe7;" horiz-adv-x="498" 
d="M236 -188v46h40q19 0 29.5 9.5t10.5 22.5q0 14 -10.5 23.5t-29.5 9.5h-39v70q-66 8 -110.5 42t-67 86.5t-22.5 113.5q0 67 26.5 122.5t80 89t133.5 33.5q57 0 96.5 -8t58.5 -27t22 -51t3 -89h-30q-4 64 -39.5 97t-95.5 33q-53 0 -86.5 -49t-33.5 -151q0 -200 125 -200
q52 0 84.5 24t58.5 59l31 -23q-14 -21 -35.5 -44t-54.5 -40t-85 -20v-23q38 0 62 -21t24 -57q0 -35 -24 -56.5t-62 -21.5h-60z" />
    <glyph glyph-name="egrave" unicode="&#xe8;" horiz-adv-x="509" 
d="M267 -10q-70 0 -122 32t-80 87.5t-28 125.5q0 80 29 134.5t79 82.5t112 28t112 -25t79 -70t29 -105q0 -11 -0.5 -22.5t-1.5 -20.5l-2 -20h-301q0 -99 30.5 -140.5t79.5 -41.5q52 0 84.5 24t58.5 59l31 -23q-14 -22 -37.5 -46.5t-60 -41.5t-91.5 -17zM172 262h170
q0 99 -23.5 136t-61.5 37q-22 0 -41.5 -16t-31.5 -53.5t-12 -103.5zM250 515l-106 140h119l42 -140h-55z" />
    <glyph glyph-name="eacute" unicode="&#xe9;" horiz-adv-x="509" 
d="M267 -10q-70 0 -122 32t-80 87.5t-28 125.5q0 80 29 134.5t79 82.5t112 28t112 -25t79 -70t29 -105q0 -11 -0.5 -22.5t-1.5 -20.5l-2 -20h-301q0 -99 30.5 -140.5t79.5 -41.5q52 0 84.5 24t58.5 59l31 -23q-14 -22 -37.5 -46.5t-60 -41.5t-91.5 -17zM172 262h170
q0 99 -23.5 136t-61.5 37q-22 0 -41.5 -16t-31.5 -53.5t-12 -103.5zM219 525l42 140h119l-106 -140h-55z" />
    <glyph glyph-name="ecircumflex" unicode="&#xea;" horiz-adv-x="509" 
d="M267 -10q-70 0 -122 32t-80 87.5t-28 125.5q0 80 29 134.5t79 82.5t112 28t112 -25t79 -70t29 -105q0 -11 -0.5 -22.5t-1.5 -20.5l-2 -20h-301q0 -99 30.5 -140.5t79.5 -41.5q52 0 84.5 24t58.5 59l31 -23q-14 -22 -37.5 -46.5t-60 -41.5t-91.5 -17zM172 262h170
q0 99 -23.5 136t-61.5 37q-22 0 -41.5 -16t-31.5 -53.5t-12 -103.5zM107 526l80 125h130l80 -125h-60l-85 80l-85 -80h-60z" />
    <glyph glyph-name="edieresis" unicode="&#xeb;" horiz-adv-x="509" 
d="M267 -10q-70 0 -122 32t-80 87.5t-28 125.5q0 80 29 134.5t79 82.5t112 28t112 -25t79 -70t29 -105q0 -11 -0.5 -22.5t-1.5 -20.5l-2 -20h-301q0 -99 30.5 -140.5t79.5 -41.5q52 0 84.5 24t58.5 59l31 -23q-14 -22 -37.5 -46.5t-60 -41.5t-91.5 -17zM172 262h170
q0 99 -23.5 136t-61.5 37q-22 0 -41.5 -16t-31.5 -53.5t-12 -103.5zM349 535q-26 0 -41 16.5t-15 39.5t15 39.5t41 16.5t41 -16.5t15 -39.5t-15 -39.5t-41 -16.5zM169 535q-26 0 -41 16.5t-15 39.5t15 39.5t41 16.5t41 -16.5t15 -39.5t-15 -39.5t-41 -16.5z" />
    <glyph glyph-name="igrave" unicode="&#xec;" horiz-adv-x="267" 
d="M79 0v340q0 45 -12.5 72.5t-57.5 27.5h-10v30h120q53 0 71.5 -28t18.5 -102v-340h-130zM129 515l-106 140h119l42 -140h-55z" />
    <glyph glyph-name="iacute" unicode="&#xed;" horiz-adv-x="267" 
d="M79 0v340q0 45 -12.5 72.5t-57.5 27.5h-10v30h120q53 0 71.5 -28t18.5 -102v-340h-130zM95 525l42 140h119l-106 -140h-55z" />
    <glyph glyph-name="icircumflex" unicode="&#xee;" horiz-adv-x="267" 
d="M79 0v340q0 45 -12.5 72.5t-57.5 27.5h-10v30h120q53 0 71.5 -28t18.5 -102v-340h-130zM-29 532l80 125h130l80 -125h-60l-85 80l-85 -80h-60z" />
    <glyph glyph-name="idieresis" unicode="&#xef;" horiz-adv-x="267" 
d="M79 0v340q0 45 -12.5 72.5t-57.5 27.5h-10v30h120q53 0 71.5 -28t18.5 -102v-340h-130zM218 535q-26 0 -41 16.5t-15 39.5t15 39.5t41 16.5t41 -16.5t15 -39.5t-15 -39.5t-41 -16.5zM38 535q-26 0 -41 16.5t-15 39.5t15 39.5t41 16.5t41 -16.5t15 -39.5t-15 -39.5
t-41 -16.5z" />
    <glyph glyph-name="eth" unicode="&#xf0;" horiz-adv-x="557" 
d="M276 -10q-80 0 -133.5 33t-80 89t-26.5 123q0 68 26.5 123.5t78 88.5t125.5 33q49 0 85 -21t55 -59q-11 51 -26.5 88.5t-39.5 66.5l-47 -47l-40 40l47 47q-21 20 -48.5 25t-55.5 5q-23 0 -38 -5l-8 -2t-7 -2l-14 32q18 11 43 16.5t44 5.5q43 0 73 -9.5t55 -26.5l43 46
l40 -38l-42 -42q56 -50 93.5 -134.5t37.5 -195.5q0 -127 -60 -203.5t-180 -76.5zM276 35q42 0 73.5 49.5t31.5 150.5q0 48 -10.5 94t-33.5 76t-61 30q-37 0 -60.5 -30t-34 -76t-10.5 -94q0 -101 31.5 -150.5t73.5 -49.5z" />
    <glyph glyph-name="ntilde" unicode="&#xf1;" horiz-adv-x="575" 
d="M80 0v340q0 45 -12 72.5t-57 27.5h-10v30h99q34 0 53.5 -8.5t30.5 -28.5q18 17 51.5 32t94.5 15q94 0 142 -43.5t48 -140.5v-296h-130v297q0 73 -27 103t-68 30q-32 0 -55.5 -9t-36.5 -22l3 -14q2 -7 3 -17t1 -22v-346h-130zM177 545q0 60 19 80t49 20q23 0 38.5 -10
t28 -20t25.5 -10q17 0 26 12.5t9 27.5h40q0 -60 -18.5 -80t-48.5 -20q-22 0 -38 10t-28.5 20t-26.5 10q-17 0 -26 -12.5t-9 -27.5h-40z" />
    <glyph glyph-name="ograve" unicode="&#xf2;" horiz-adv-x="552" 
d="M276 -10q-74 0 -128 32.5t-83 88.5t-29 124q0 69 29 124.5t83 88t128 32.5q75 0 128.5 -32.5t82.5 -88t29 -124.5q0 -68 -29 -124t-82.5 -88.5t-128.5 -32.5zM276 35q35 0 58.5 26t35 71.5t11.5 102.5q0 58 -11.5 103t-35 71t-58.5 26t-58.5 -26t-35 -71t-11.5 -103
q0 -57 11.5 -102.5t35 -71.5t58.5 -26zM271 515l-106 140h119l42 -140h-55z" />
    <glyph glyph-name="oacute" unicode="&#xf3;" horiz-adv-x="552" 
d="M276 -10q-74 0 -128 32.5t-83 88.5t-29 124q0 69 29 124.5t83 88t128 32.5q75 0 128.5 -32.5t82.5 -88t29 -124.5q0 -68 -29 -124t-82.5 -88.5t-128.5 -32.5zM276 35q35 0 58.5 26t35 71.5t11.5 102.5q0 58 -11.5 103t-35 71t-58.5 26t-58.5 -26t-35 -71t-11.5 -103
q0 -57 11.5 -102.5t35 -71.5t58.5 -26zM233 525l42 140h119l-106 -140h-55z" />
    <glyph glyph-name="ocircumflex" unicode="&#xf4;" horiz-adv-x="552" 
d="M276 -10q-74 0 -128 32.5t-83 88.5t-29 124q0 69 29 124.5t83 88t128 32.5q75 0 128.5 -32.5t82.5 -88t29 -124.5q0 -68 -29 -124t-82.5 -88.5t-128.5 -32.5zM276 35q35 0 58.5 26t35 71.5t11.5 102.5q0 58 -11.5 103t-35 71t-58.5 26t-58.5 -26t-35 -71t-11.5 -103
q0 -57 11.5 -102.5t35 -71.5t58.5 -26zM131 525l80 125h130l80 -125h-60l-85 80l-85 -80h-60z" />
    <glyph glyph-name="otilde" unicode="&#xf5;" horiz-adv-x="552" 
d="M276 -10q-74 0 -128 32.5t-83 88.5t-29 124q0 69 29 124.5t83 88t128 32.5q75 0 128.5 -32.5t82.5 -88t29 -124.5q0 -68 -29 -124t-82.5 -88.5t-128.5 -32.5zM276 35q35 0 58.5 26t35 71.5t11.5 102.5q0 58 -11.5 103t-35 71t-58.5 26t-58.5 -26t-35 -71t-11.5 -103
q0 -57 11.5 -102.5t35 -71.5t58.5 -26zM158 536q0 60 19 80t49 20q23 0 38.5 -10t28 -20t25.5 -10q17 0 26 12.5t9 27.5h40q0 -60 -18.5 -80t-48.5 -20q-22 0 -38 10t-28.5 20t-26.5 10q-17 0 -26 -12.5t-9 -27.5h-40z" />
    <glyph glyph-name="odieresis" unicode="&#xf6;" horiz-adv-x="552" 
d="M276 -10q-74 0 -128 32.5t-83 88.5t-29 124q0 69 29 124.5t83 88t128 32.5q75 0 128.5 -32.5t82.5 -88t29 -124.5q0 -68 -29 -124t-82.5 -88.5t-128.5 -32.5zM276 35q35 0 58.5 26t35 71.5t11.5 102.5q0 58 -11.5 103t-35 71t-58.5 26t-58.5 -26t-35 -71t-11.5 -103
q0 -57 11.5 -102.5t35 -71.5t58.5 -26zM366 525q-26 0 -41 16.5t-15 39.5t15 39.5t41 16.5t41 -16.5t15 -39.5t-15 -39.5t-41 -16.5zM186 525q-26 0 -41 16.5t-15 39.5t15 39.5t41 16.5t41 -16.5t15 -39.5t-15 -39.5t-41 -16.5z" />
    <glyph glyph-name="divide" unicode="&#xf7;" horiz-adv-x="548" 
d="M274 425q-26 0 -41 16.5t-15 39.5t15 39.5t41 16.5t41 -16.5t15 -39.5t-15 -39.5t-41 -16.5zM44 297v65h460v-65h-460zM274 123q-26 0 -41 16.5t-15 39.5t15 39.5t41 16.5t41 -16.5t15 -39.5t-15 -39.5t-41 -16.5z" />
    <glyph glyph-name="oslash" unicode="&#xf8;" horiz-adv-x="552" 
d="M276 -10q-33 0 -62 7t-54 19l-12 -16h-92l44 60q-64 69 -64 175q0 69 29 124.5t83 88t128 32.5q33 0 62 -7t54 -19l12 16h92l-45 -60q32 -33 48.5 -78t16.5 -97q0 -68 -29 -124t-82.5 -88.5t-128.5 -32.5zM176 162l170 230q-13 20 -30 31.5t-40 11.5q-35 0 -58.5 -26
t-35 -71t-11.5 -103q0 -20 1 -38t4 -35zM276 35q35 0 58.5 26t35 71.5t11.5 102.5q0 39 -6 72l-170 -230q26 -42 71 -42z" />
    <glyph glyph-name="ugrave" unicode="&#xf9;" horiz-adv-x="565" 
d="M255 -10q-94 0 -139.5 43.5t-45.5 140.5v166q0 45 -12.5 72.5t-57.5 27.5h-10v30h120q53 0 71.5 -28t18.5 -102v-167q0 -77 22 -107.5t63 -30.5q23 0 39.5 10t27.5 22q7 7 12.5 15t10.5 18v370h130v-470h-85l-35 45h-5q-14 -15 -33 -28q-16 -11 -39 -19t-53 -8zM278 515
l-106 140h119l42 -140h-55z" />
    <glyph glyph-name="uacute" unicode="&#xfa;" horiz-adv-x="565" 
d="M255 -10q-94 0 -139.5 43.5t-45.5 140.5v166q0 45 -12.5 72.5t-57.5 27.5h-10v30h120q53 0 71.5 -28t18.5 -102v-167q0 -77 22 -107.5t63 -30.5q23 0 39.5 10t27.5 22q7 7 12.5 15t10.5 18v370h130v-470h-85l-35 45h-5q-14 -15 -33 -28q-16 -11 -39 -19t-53 -8zM245 500
l42 140h119l-106 -140h-55z" />
    <glyph glyph-name="ucircumflex" unicode="&#xfb;" horiz-adv-x="565" 
d="M255 -10q-94 0 -139.5 43.5t-45.5 140.5v166q0 45 -12.5 72.5t-57.5 27.5h-10v30h120q53 0 71.5 -28t18.5 -102v-167q0 -77 22 -107.5t63 -30.5q23 0 39.5 10t27.5 22q7 7 12.5 15t10.5 18v370h130v-470h-85l-35 45h-5q-14 -15 -33 -28q-16 -11 -39 -19t-53 -8zM131 526
l80 125h130l80 -125h-60l-85 80l-85 -80h-60z" />
    <glyph glyph-name="udieresis" unicode="&#xfc;" horiz-adv-x="565" 
d="M255 -10q-94 0 -139.5 43.5t-45.5 140.5v166q0 45 -12.5 72.5t-57.5 27.5h-10v30h120q53 0 71.5 -28t18.5 -102v-167q0 -77 22 -107.5t63 -30.5q23 0 39.5 10t27.5 22q7 7 12.5 15t10.5 18v370h130v-470h-85l-35 45h-5q-14 -15 -33 -28q-16 -11 -39 -19t-53 -8zM373 525
q-26 0 -41 16.5t-15 39.5t15 39.5t41 16.5t41 -16.5t15 -39.5t-15 -39.5t-41 -16.5zM193 525q-26 0 -41 16.5t-15 39.5t15 39.5t41 16.5t41 -16.5t15 -39.5t-15 -39.5t-41 -16.5z" />
    <glyph glyph-name="yacute" unicode="&#xfd;" horiz-adv-x="508" 
d="M92 -200v35q52 0 87 20t57 77l21 54l-180 394q-33 72 -93 80v20h88q45 0 79 -21.5t51 -58.5l115 -252l122 322h53l-202 -535q-20 -54 -43.5 -83.5t-51.5 -40.5t-63 -11h-40zM252 500l42 140h119l-106 -140h-55z" />
    <glyph glyph-name="thorn" unicode="&#xfe;" horiz-adv-x="542" 
d="M60 -190v720q0 45 -12.5 72.5t-57.5 27.5h-10v30h120q53 0 71.5 -28t18.5 -102v-85q17 14 44.5 24.5t69.5 10.5q68 0 112 -31t66 -86t22 -128q0 -72 -22.5 -127.5t-68.5 -86.5t-119 -31q-32 0 -58 6t-46 14v-200h-130zM259 35q53 0 81.5 53t28.5 147t-27.5 147t-72.5 53
q-26 0 -45.5 -8.5t-33.5 -21.5v-355q18 -7 36 -11t33 -4z" />
    <glyph glyph-name="ydieresis" unicode="&#xff;" horiz-adv-x="509" 
d="M92 -200v35q52 0 87 20t57 77l21 54l-180 394q-33 72 -93 80v20h88q45 0 79 -21.5t51 -58.5l115 -252l122 322h53l-202 -535q-20 -54 -43.5 -83.5t-51.5 -40.5t-63 -11h-40zM455 520q-26 0 -41 16.5t-15 39.5t15 39.5t41 16.5t41 -16.5t15 -39.5t-15 -39.5t-41 -16.5z
M275 520q-26 0 -41 16.5t-15 39.5t15 39.5t41 16.5t41 -16.5t15 -39.5t-15 -39.5t-41 -16.5z" />
    <glyph glyph-name="Abreve" unicode="&#x102;" horiz-adv-x="647" 
d="M628 -4q-33 0 -69.5 8.5t-70 36.5t-57.5 85l-23 56h-266l-82 -182h-52l295 660h45l224 -534q18 -44 44 -70t60 -30v-25q-8 -2 -22.5 -3.5t-25.5 -1.5zM163 227h226l-110 261zM324 690q-49 0 -85.5 26t-55.5 68l28 21q15 -19 43 -34.5t70 -15.5t70 15.5t43 34.5l28 -21
q-19 -42 -55.5 -68t-85.5 -26z" />
    <glyph glyph-name="abreve" unicode="&#x103;" 
d="M199 -10q-83 0 -126.5 37.5t-43.5 97.5q0 48 22.5 81.5t81.5 51t166 17.5h15q0 90 -25 125t-70 35q-34 0 -61 -17t-39 -73h-55q0 26 3.5 53t21.5 47t59.5 27.5t90.5 7.5q98 0 151.5 -52t53.5 -158v-270h-85l-35 45h-5q-5 -8 -12.5 -15t-15.5 -13q-14 -11 -37 -19t-55 -8z
M229 40q23 0 38.5 10t26.5 22q13 14 20 33v125h-15q-72 0 -103.5 -26t-31.5 -79q0 -42 17.5 -63.5t47.5 -21.5zM248 500q-49 0 -85.5 26t-55.5 68l28 21q15 -19 43 -34.5t70 -15.5t70 15.5t43 34.5l28 -21q-19 -42 -55.5 -68t-85.5 -26z" />
    <glyph glyph-name="Dcroat" unicode="&#x110;" horiz-adv-x="736" 
d="M95 0v305h-70v50h70v175q0 45 -12.5 72.5t-57.5 27.5h-10v30h272q206 0 309.5 -87t103.5 -239q0 -99 -44.5 -174t-130.5 -117.5t-212 -42.5h-218zM300 40h10q70 0 124 35t85 100t31 155q0 88 -30.5 153t-85 101t-126.5 36h-8q-15 0 -28.5 -1t-24.5 -3l-22 -3v-258h75v-50
h-75v-258l22 -4q21 -3 53 -3z" />
    <glyph glyph-name="dcroat" unicode="&#x111;" horiz-adv-x="547" 
d="M247 -10q-70 0 -116.5 32.5t-70 88.5t-23.5 124q0 69 23.5 124.5t71.5 88t120 32.5q24 0 43.5 -5t33.5 -10q15 -7 28 -15v80q0 45 -12.5 72.5t-57.5 27.5h-10v30h120q53 0 71.5 -28t18.5 -102v-530h-85l-35 45h-5q-5 -8 -12.5 -15t-15.5 -13q-14 -11 -35.5 -19t-51.5 -8z
M267 35q23 0 39.5 10t27.5 22q7 7 12.5 15t10.5 18v305q-10 8 -24 15q-11 5 -26.5 10t-34.5 5q-37 0 -59 -26t-31.5 -71t-9.5 -103q0 -57 9 -102.5t30 -71.5t56 -26zM223 516v45h299v-45h-299z" />
    <glyph glyph-name="Gbreve" unicode="&#x11e;" horiz-adv-x="734" 
d="M395 -20q-78 0 -143.5 27.5t-114 76.5t-75.5 114.5t-27 141.5q0 96 41 173t115.5 122t173.5 45q94 0 154 -24.5t88 -56.5q20 -25 23 -65t3 -74h-30q-19 92 -70 133.5t-138 41.5q-60 0 -101.5 -24t-68 -66t-38.5 -95t-12 -110q0 -121 29.5 -191t79.5 -99.5t111 -29.5
q45 0 77 7t58 19v178q0 21 6.5 42t26.5 39.5t58.5 29.5t102.5 11v-25q-34 0 -49 -25t-15 -70v-179q-58 -35 -123 -51t-142 -16zM377 730q-49 0 -85.5 26t-55.5 68l28 21q15 -19 43 -34.5t70 -15.5t70 15.5t43 34.5l28 -21q-19 -42 -55.5 -68t-85.5 -26z" />
    <glyph glyph-name="gbreve" unicode="&#x11f;" horiz-adv-x="520" 
d="M259 -200q-70 0 -125.5 14.5t-87.5 48.5t-32 92q0 36 20.5 62t51.5 43t63 25q-19 6 -32 19t-13 36q0 34 40 50q-42 15 -71 51.5t-29 82.5q0 58 29 92t77.5 49t108.5 15h210v-27l-90 -12q42 -16 68.5 -49t26.5 -68q0 -57 -26.5 -91t-75 -48.5t-113.5 -14.5q-45 0 -72.5 -5
t-27.5 -25q0 -17 27.5 -21.5t72.5 -5.5q68 -1 123.5 -18.5t88.5 -52t33 -87.5q0 -58 -32 -92t-87.5 -48.5t-125.5 -14.5zM259 210q35 0 57.5 26t22.5 88q0 57 -22.5 86.5t-57.5 29.5t-57.5 -27.5t-22.5 -88.5q0 -62 22.5 -88t57.5 -26zM259 -155q50 0 80 26.5t30 83.5
q0 45 -28 74t-74 38l-47 5q-33 -14 -52 -41.5t-19 -75.5q0 -57 30 -83.5t80 -26.5zM260 530q-49 0 -85.5 26t-55.5 68l28 21q15 -19 43 -34.5t70 -15.5t70 15.5t43 34.5l28 -21q-19 -42 -55.5 -68t-85.5 -26z" />
    <glyph glyph-name="Itilde" unicode="&#x128;" horiz-adv-x="304" 
d="M169 0q-52 0 -71 27t-19 103v530h130v-530q0 -45 12.5 -72.5t57.5 -27.5h10v-30h-120zM34 740q0 60 19 80t49 20q23 0 38.5 -10t28 -20t25.5 -10q17 0 26 12.5t9 27.5h40q0 -60 -18.5 -80t-48.5 -20q-22 0 -38 10t-28.5 20t-26.5 10q-17 0 -26 -12.5t-9 -27.5h-40z" />
    <glyph glyph-name="itilde" unicode="&#x129;" horiz-adv-x="267" 
d="M79 0v340q0 45 -12.5 72.5t-57.5 27.5h-10v30h120q53 0 71.5 -28t18.5 -102v-340h-130zM16 550q0 60 19 80t49 20q23 0 38.5 -10t28 -20t25.5 -10q17 0 26 12.5t9 27.5h40q0 -60 -18.5 -80t-48.5 -20q-22 0 -38 10t-28.5 20t-26.5 10q-17 0 -26 -12.5t-9 -27.5h-40z" />
    <glyph glyph-name="Idotaccent" unicode="&#x130;" horiz-adv-x="304" 
d="M144 718q-29 0 -45 17t-16 44t16 44t45 17t45 -17t16 -44t-16 -44t-45 -17zM169 0q-52 0 -71 27t-19 103v530h130v-530q0 -45 12.5 -72.5t57.5 -27.5h10v-30h-120z" />
    <glyph glyph-name="dotlessi" unicode="&#x131;" horiz-adv-x="267" 
d="M79 0v340q0 45 -12.5 72.5t-57.5 27.5h-10v30h120q53 0 71.5 -28t18.5 -102v-340h-130z" />
    <glyph glyph-name="OE" unicode="&#x152;" horiz-adv-x="957" 
d="M367 -20q-99 0 -173.5 46.5t-115.5 125.5t-41 178t41 178t115.5 125.5t173.5 46.5q42 0 67 -6t48 -14h331q35 0 53 -11.5t25 -30t7 -38.5v-85h-30q0 64 -32.5 92t-92.5 28h-161v-250h260v-45h-260v-275h171q55 0 93.5 24.5t64.5 89.5l27 -10l-29 -79q-11 -32 -28.5 -51
t-58.5 -19h-340q-26 -11 -53.5 -15.5t-61.5 -4.5zM367 25q47 0 85 23v563q-37 24 -85 24q-91 0 -140.5 -79.5t-49.5 -225.5t49.5 -225.5t140.5 -79.5z" />
    <glyph glyph-name="oe" unicode="&#x153;" horiz-adv-x="853" 
d="M276 -10q-74 0 -128 32.5t-83 88.5t-29 124q0 69 29 124.5t83 88t128 32.5q53 0 95 -17t73 -46q60 63 157 63q62 0 112 -25t79 -70t29 -105q0 -11 -0.5 -22.5t-1.5 -20.5l-2 -20h-301q0 -99 30.5 -140.5t79.5 -41.5q52 0 84.5 24t58.5 59l31 -23q-14 -22 -37.5 -46.5
t-60 -41.5t-91.5 -17q-103 0 -164 66q-31 -31 -74 -48.5t-97 -17.5zM276 35q35 0 58.5 26t35 71.5t11.5 102.5q0 58 -11.5 103t-35 71t-58.5 26t-58.5 -26t-35 -71t-11.5 -103q0 -57 11.5 -102.5t35 -71.5t58.5 -26zM516 262h170q0 99 -23.5 136t-61.5 37q-22 0 -41.5 -16
t-31.5 -53.5t-12 -103.5z" />
    <glyph glyph-name="Scedilla" unicode="&#x15e;" horiz-adv-x="563" 
d="M236 -206v46h50q19 0 29.5 9.5t10.5 22.5q0 14 -10.5 23.5t-29.5 9.5h-45v80q-50 4 -94 19t-71.5 40t-27.5 59v117h28q16 -104 64.5 -148t132.5 -44q57 0 91.5 24.5t34.5 72.5q0 43 -27.5 71.5t-75.5 57.5l-123 74q-68 40 -96 82t-28 97q0 79 60.5 125t163.5 46
q55 0 106.5 -14t85.5 -41t34 -65v-117h-28q-17 104 -64 148t-123 44q-54 0 -85.5 -26t-31.5 -71q0 -42 28.5 -68t75.5 -54l123 -73q68 -40 99.5 -78.5t31.5 -93.5q0 -80 -56.5 -129t-162.5 -56v-34q42 0 66 -21t24 -57q0 -35 -24 -56.5t-66 -21.5h-70z" />
    <glyph glyph-name="scedilla" unicode="&#x15f;" horiz-adv-x="468" 
d="M186 -186v46h50q19 0 29.5 9.5t10.5 22.5q0 14 -10.5 23.5t-29.5 9.5h-45v67q-46 3 -76 13t-47 26q-18 17 -21 49t-3 70h35q8 -48 39 -81.5t91 -33.5q56 0 78 19.5t22 48.5t-26 46.5t-64 34.5l-52 22q-60 26 -94 59t-34 82q0 65 54 99t136 34q62 0 101.5 -11t59.5 -30
q18 -17 21 -49t3 -70h-35q-8 48 -39 81.5t-91 33.5q-45 0 -65 -19.5t-20 -48.5q0 -27 19 -43.5t52 -30.5l60 -25q69 -29 104 -60.5t35 -84.5q0 -60 -50 -93.5t-128 -38.5v-21q42 0 66 -21t24 -57q0 -35 -24 -56.5t-66 -21.5h-70z" />
    <glyph glyph-name="Scaron" unicode="&#x160;" horiz-adv-x="561" 
d="M273 -17q-54 0 -106 14t-86 41t-34 65v117h28q16 -104 64.5 -148t132.5 -44q57 0 91.5 24.5t34.5 72.5q0 43 -27.5 71.5t-75.5 57.5l-123 74q-68 40 -96 82t-28 97q0 79 60.5 125t163.5 46q55 0 106.5 -14t85.5 -41t34 -65v-117h-28q-17 104 -64 148t-123 44
q-54 0 -85.5 -26t-31.5 -71q0 -42 28.5 -68t75.5 -54l123 -73q68 -40 99.5 -78.5t31.5 -93.5q0 -86 -65 -136t-186 -50zM202 721l-80 125h70l75 -80l75 80h70l-80 -125h-130z" />
    <glyph glyph-name="scaron" unicode="&#x161;" horiz-adv-x="468" 
d="M229 -10q-62 0 -101.5 11t-59.5 30q-18 17 -21 49t-3 70h35q8 -48 39 -81.5t91 -33.5q56 0 78 19.5t22 48.5t-26 46.5t-64 34.5l-52 22q-60 26 -94 59t-34 82q0 65 54 99t136 34q62 0 101.5 -11t59.5 -30q18 -17 21 -49t3 -70h-35q-8 48 -39 81.5t-91 33.5
q-45 0 -65 -19.5t-20 -48.5q0 -27 19 -43.5t52 -30.5l60 -25q69 -29 104 -60.5t35 -84.5q0 -65 -58 -99t-147 -34zM157 520l-80 125h70l75 -80l75 80h70l-80 -125h-130z" />
    <glyph glyph-name="Utilde" unicode="&#x168;" horiz-adv-x="694" 
d="M362 -10q-270 0 -270 298v242q0 45 -12.5 72.5t-57.5 27.5v30h110q53 0 71.5 -28t18.5 -102l1 -272q1 -104 40.5 -163.5t118.5 -59.5q102 0 148.5 61t46.5 192v372h50v-372q0 -94 -25.5 -160.5t-83.5 -102t-156 -35.5zM229 740q0 60 19 80t49 20q23 0 38.5 -10t28 -20
t25.5 -10q17 0 26 12.5t9 27.5h40q0 -60 -18.5 -80t-48.5 -20q-22 0 -38 10t-28.5 20t-26.5 10q-17 0 -26 -12.5t-9 -27.5h-40z" />
    <glyph glyph-name="utilde" unicode="&#x169;" horiz-adv-x="565" 
d="M255 -10q-94 0 -139.5 43.5t-45.5 140.5v166q0 45 -12.5 72.5t-57.5 27.5h-10v30h120q53 0 71.5 -28t18.5 -102v-167q0 -77 22 -107.5t63 -30.5q23 0 39.5 10t27.5 22q7 7 12.5 15t10.5 18v370h130v-470h-85l-35 45h-5q-14 -15 -33 -28q-16 -11 -39 -19t-53 -8zM165 550
q0 60 19 80t49 20q23 0 38.5 -10t28 -20t25.5 -10q17 0 26 12.5t9 27.5h40q0 -60 -18.5 -80t-48.5 -20q-22 0 -38 10t-28.5 20t-26.5 10q-17 0 -26 -12.5t-9 -27.5h-40z" />
    <glyph glyph-name="Ydieresis" unicode="&#x178;" horiz-adv-x="638" 
d="M279 0v264l-177 266q-17 26 -39.5 50t-46.5 41t-47 19v20h109q38 0 68.5 -17t54.5 -42t40 -51l136 -205l194 315h65l-227 -369v-291h-130zM442 690q-26 0 -41 16.5t-15 39.5t15 39.5t41 16.5t41 -16.5t15 -39.5t-15 -39.5t-41 -16.5zM272 690q-26 0 -41 16.5t-15 39.5
t15 39.5t41 16.5t41 -16.5t15 -39.5t-15 -39.5t-41 -16.5z" />
    <glyph glyph-name="Zcaron" unicode="&#x17d;" horiz-adv-x="588" 
d="M31 0v32l372 584h-217q-53 0 -84 -27t-31 -94h-30v85q0 20 7 38.5t25.5 30t52.5 11.5h455l-392 -615h387v-45h-545zM250 711l-80 125h70l75 -80l75 80h70l-80 -125h-130z" />
    <glyph glyph-name="zcaron" unicode="&#x17e;" horiz-adv-x="493" 
d="M39 0v31l263 394h-118q-64 0 -89.5 -23t-25.5 -72h-30v60q0 20 7 38.5t25.5 30t52.5 11.5h356l-284 -425h263v-45h-420zM193 520l-80 125h70l75 -80l75 80h70l-80 -125h-130z" />
    <glyph glyph-name="florin" unicode="&#x192;" horiz-adv-x="417" 
d="M-96 -190l4 25q30 6 53 24.5t39.5 58t28.5 107.5l70 400h-60l8 45h60l5 27q15 85 71.5 129t154.5 44q26 0 51 -4.5t37 -12.5q24 -16 31 -43l-46 -35q-11 23 -30.5 36.5t-45.5 13.5q-34 0 -57 -27.5t-36 -100.5l-5 -27h130l-8 -45h-130l-70 -400q-14 -82 -42.5 -129
t-79.5 -66.5t-133 -19.5z" />
    <glyph glyph-name="Ohorn" unicode="&#x1a0;" horiz-adv-x="733" 
d="M367 -20q-99 0 -173.5 46.5t-115.5 125.5t-41 178t41 178t115.5 125.5t173.5 46.5q100 0 173.5 -46.5t114.5 -125.5t41 -178t-41 -178t-114.5 -125.5t-173.5 -46.5zM367 25q91 0 141 79.5t50 225.5t-50 225.5t-141 79.5t-140.5 -79.5t-49.5 -225.5t49.5 -225.5
t140.5 -79.5zM475 616v43q36 0 58 16t32 40t10 48h80q0 -34 -19 -68t-59 -56.5t-102 -22.5z" />
    <glyph glyph-name="ohorn" unicode="&#x1a1;" horiz-adv-x="552" 
d="M276 -10q-74 0 -128 32.5t-83 88.5t-29 124q0 69 29 124.5t83 88t128 32.5q75 0 128.5 -32.5t82.5 -88t29 -124.5q0 -68 -29 -124t-82.5 -88.5t-128.5 -32.5zM276 35q35 0 58.5 26t35 71.5t11.5 102.5q0 58 -11.5 103t-35 71t-58.5 26t-58.5 -26t-35 -71t-11.5 -103
q0 -57 11.5 -102.5t35 -71.5t58.5 -26zM353 426v43q36 0 58 16t32 40t10 48h80q0 -34 -19 -68t-59 -56.5t-102 -22.5z" />
    <glyph glyph-name="Uhorn" unicode="&#x1af;" horiz-adv-x="694" 
d="M362 -10q-270 0 -270 298v242q0 45 -12.5 72.5t-57.5 27.5v30h110q53 0 71.5 -28t18.5 -102l1 -272q1 -104 40.5 -163.5t118.5 -59.5q102 0 148.5 61t46.5 192v372h50v-372q0 -94 -25.5 -160.5t-83.5 -102t-156 -35.5zM584 616v43q36 0 58 16t32 40t10 48h80
q0 -34 -19 -68t-59 -56.5t-102 -22.5z" />
    <glyph glyph-name="uhorn" unicode="&#x1b0;" horiz-adv-x="565" 
d="M255 -10q-94 0 -139.5 43.5t-45.5 140.5v166q0 45 -12.5 72.5t-57.5 27.5h-10v30h120q53 0 71.5 -28t18.5 -102v-167q0 -77 22 -107.5t63 -30.5q23 0 39.5 10t27.5 22q7 7 12.5 15t10.5 18v370h130v-470h-85l-35 45h-5q-14 -15 -33 -28q-16 -11 -39 -19t-53 -8zM455 426
v43q36 0 58 16t32 40t10 48h80q0 -34 -19 -68t-59 -56.5t-102 -22.5z" />
    <glyph glyph-name="uni02BC" unicode="&#x2bc;" horiz-adv-x="333" 
d="M118 510l-18 24q17 11 36 29t32.5 42t13.5 54l-15 -3q-29 0 -45 17t-16 44t16 44t45 17q33 0 49.5 -24t16.5 -54q0 -57 -25.5 -102.5t-89.5 -87.5z" />
    <glyph glyph-name="circumflex" unicode="&#x2c6;" horiz-adv-x="330" 
d="M20 660l80 125h130l80 -125h-60l-85 80l-85 -80h-60z" />
    <glyph glyph-name="caron" unicode="&#x2c7;" horiz-adv-x="330" 
d="M100 520l-80 125h70l75 -80l75 80h70l-80 -125h-130z" />
    <glyph glyph-name="breve" unicode="&#x2d8;" horiz-adv-x="322" 
d="M161 510q-49 0 -85.5 26t-55.5 68l28 21q15 -19 43 -34.5t70 -15.5t70 15.5t43 34.5l28 -21q-19 -42 -55.5 -68t-85.5 -26z" />
    <glyph glyph-name="ring" unicode="&#x2da;" horiz-adv-x="230" 
d="M115 520q-42 0 -68.5 26.5t-26.5 68.5t26.5 68.5t68.5 26.5t68.5 -26.5t26.5 -68.5t-26.5 -68.5t-68.5 -26.5zM115 565q19 0 32 13.5t13 36.5t-13 36.5t-32 13.5t-32 -13.5t-13 -36.5t13 -36.5t32 -13.5z" />
    <glyph glyph-name="tilde" unicode="&#x2dc;" horiz-adv-x="275" 
d="M20 680q0 60 19 80t49 20q23 0 38.5 -10t28 -20t25.5 -10q17 0 26 12.5t9 27.5h40q0 -60 -18.5 -80t-48.5 -20q-22 0 -38 10t-28.5 20t-26.5 10q-17 0 -26 -12.5t-9 -27.5h-40z" />
    <glyph glyph-name="gravecomb" unicode="&#x300;" horiz-adv-x="0" 
d="M206 525l-106 140h119l42 -140h-55z" />
    <glyph glyph-name="acutecomb" unicode="&#x301;" horiz-adv-x="0" 
d="M100 525l42 140h119l-106 -140h-55z" />
    <glyph glyph-name="uni0302" unicode="&#x302;" horiz-adv-x="0" 
d="M100 535l80 125h130l80 -125h-60l-85 80l-85 -80h-60z" />
    <glyph glyph-name="tildecomb" unicode="&#x303;" horiz-adv-x="0" 
d="M100 560q0 60 19 80t49 20q23 0 38.5 -10t28 -20t25.5 -10q17 0 26 12.5t9 27.5h40q0 -60 -18.5 -80t-48.5 -20q-22 0 -38 10t-28.5 20t-26.5 10q-17 0 -26 -12.5t-9 -27.5h-40z" />
    <glyph glyph-name="uni0304" unicode="&#x304;" horiz-adv-x="0" 
d="M100 557v85h279v-85h-279z" />
    <glyph glyph-name="uni0306" unicode="&#x306;" horiz-adv-x="0" 
d="M241 510q-49 0 -85.5 26t-55.5 68l28 21q15 -19 43 -34.5t70 -15.5t70 15.5t43 34.5l28 -21q-19 -42 -55.5 -68t-85.5 -26z" />
    <glyph glyph-name="uni0308" unicode="&#x308;" horiz-adv-x="0" 
d="M336 535q-26 0 -41 16.5t-15 39.5t15 39.5t41 16.5t41 -16.5t15 -39.5t-15 -39.5t-41 -16.5zM156 535q-26 0 -41 16.5t-15 39.5t15 39.5t41 16.5t41 -16.5t15 -39.5t-15 -39.5t-41 -16.5z" />
    <glyph glyph-name="hookabovecomb" unicode="&#x309;" horiz-adv-x="0" 
d="M286 521q1 24 9 38t16 26t8 30q0 12 -9.5 20t-23.5 8q-17 0 -27.5 -10t-15.5 -42l-55 1q0 54 22 83.5t76 29.5q50 0 74.5 -24t24.5 -57q0 -23 -11 -37.5t-22.5 -28.5t-13.5 -37h-52z" />
    <glyph glyph-name="uni030A" unicode="&#x30a;" horiz-adv-x="0" 
d="M195 520q-42 0 -68.5 26.5t-26.5 68.5t26.5 68.5t68.5 26.5t68.5 -26.5t26.5 -68.5t-26.5 -68.5t-68.5 -26.5zM195 565q19 0 32 13.5t13 36.5t-13 36.5t-32 13.5t-32 -13.5t-13 -36.5t13 -36.5t32 -13.5z" />
    <glyph glyph-name="uni030B" unicode="&#x30b;" horiz-adv-x="0" 
d="M210 525l42 140h79l-86 -140h-35zM100 525l42 140h79l-86 -140h-35z" />
    <glyph glyph-name="uni030C" unicode="&#x30c;" horiz-adv-x="0" 
d="M180 520l-80 125h70l75 -80l75 80h70l-80 -125h-130z" />
    <glyph glyph-name="uni031B" unicode="&#x31b;" horiz-adv-x="0" 
d="M50 426v43q36 0 58 16t32 40t10 48h80q0 -34 -19 -68t-59 -56.5t-102 -22.5z" />
    <glyph glyph-name="dotbelowcomb" unicode="&#x323;" horiz-adv-x="0" 
d="M111 -173q-24 0 -37 14t-13 37q0 22 13 36t37 14q25 0 38 -14t13 -36q0 -23 -13 -37t-38 -14z" />
    <glyph glyph-name="uni0326" unicode="&#x326;" horiz-adv-x="0" 
d="M118 -330l-18 24q17 11 36 29t32.5 42t13.5 54l-15 -3q-29 0 -45 17t-16 44t16 44t45 17q33 0 49.5 -24t16.5 -54q0 -57 -25.5 -102.5t-89.5 -87.5z" />
    <glyph glyph-name="uni0327" unicode="&#x327;" horiz-adv-x="0" 
d="M100 -206v46h50q19 0 29.5 9.5t10.5 22.5q0 14 -10.5 23.5t-29.5 9.5h-45v95h65v-50q42 0 66 -21t24 -57q0 -35 -24 -56.5t-66 -21.5h-70z" />
    <glyph glyph-name="uni0335" unicode="&#x335;" horiz-adv-x="0" 
d="M100 220v45h299v-45h-299z" />
    <glyph glyph-name="uni0400" unicode="&#x400;" horiz-adv-x="600" 
d="M95 0v530q0 45 -12.5 72.5t-57.5 27.5h-10v30h441q35 0 53 -11.5t25 -30t7 -38.5v-85h-30q0 64 -32.5 92t-92.5 28h-161v-250h260v-45h-260v-275h171q55 0 93.5 24.5t64.5 89.5l27 -10l-29 -79q-11 -32 -28.5 -51t-58.5 -19h-370zM295 705l-106 140h119l42 -140h-55z" />
    <glyph glyph-name="uni0401" unicode="&#x401;" horiz-adv-x="600" 
d="M95 0v530q0 45 -12.5 72.5t-57.5 27.5h-10v30h441q35 0 53 -11.5t25 -30t7 -38.5v-85h-30q0 64 -32.5 92t-92.5 28h-161v-250h260v-45h-260v-275h171q55 0 93.5 24.5t64.5 89.5l27 -10l-29 -79q-11 -32 -28.5 -51t-58.5 -19h-370zM392 730q-26 0 -41 16.5t-15 39.5
t15 39.5t41 16.5t41 -16.5t15 -39.5t-15 -39.5t-41 -16.5zM212 730q-26 0 -41 16.5t-15 39.5t15 39.5t41 16.5t41 -16.5t15 -39.5t-15 -39.5t-41 -16.5z" />
    <glyph glyph-name="uni0402" unicode="&#x402;" horiz-adv-x="718" 
d="M479 -40v25q40 0 62.5 52t22.5 163q0 70 -16 109t-41 55t-53 16q-38 0 -72.5 -10t-57.5 -25v-345h-130v615h-33q-53 0 -84 -26.5t-31 -93.5h-30v85q0 20 7 38.5t25.5 30t52.5 11.5h470v-45h-247v-225q23 15 63.5 27.5t86.5 12.5q62 0 112 -19t79 -68.5t29 -142.5
q0 -131 -57 -185.5t-158 -54.5z" />
    <glyph glyph-name="uni0403" unicode="&#x403;" horiz-adv-x="544" 
d="M95 0v530q0 45 -12.5 72.5t-57.5 27.5h-10v30h429q35 0 53 -11.5t25 -30t7 -38.5v-85h-30q0 65 -32.5 92.5t-92.5 27.5h-149v-615h-130zM229 703l42 140h119l-106 -140h-55z" />
    <glyph glyph-name="uni0404" unicode="&#x404;" horiz-adv-x="679" 
d="M367 -20q-105 0 -179 45t-112.5 122t-38.5 173q0 76 24.5 141.5t69.5 114.5t105 76.5t131 27.5q94 0 151.5 -24.5t85.5 -56.5q20 -26 23 -67t3 -85h-30q-19 91 -69.5 139.5t-133.5 48.5q-57 0 -105.5 -25t-79 -86t-34.5 -169h309v-45h-310q2 -75 24.5 -140t70.5 -105
t125 -40q69 0 128 36.5t95 106.5l35 -27q-47 -83 -115 -122t-173 -39z" />
    <glyph glyph-name="uni0405" unicode="&#x405;" horiz-adv-x="561" 
d="M273 -17q-54 0 -106 14t-86 41t-34 65v117h28q16 -104 64.5 -148t132.5 -44q57 0 91.5 24.5t34.5 72.5q0 43 -27.5 71.5t-75.5 57.5l-123 74q-68 40 -96 82t-28 97q0 79 60.5 125t163.5 46q55 0 106.5 -14t85.5 -41t34 -65v-117h-28q-17 104 -64 148t-123 44
q-54 0 -85.5 -26t-31.5 -71q0 -42 28.5 -68t75.5 -54l123 -73q68 -40 99.5 -78.5t31.5 -93.5q0 -86 -65 -136t-186 -50z" />
    <glyph glyph-name="uni0406" unicode="&#x406;" horiz-adv-x="304" 
d="M169 0q-52 0 -71 27t-19 103v530h130v-530q0 -45 12.5 -72.5t57.5 -27.5h10v-30h-120z" />
    <glyph glyph-name="uni0407" unicode="&#x407;" horiz-adv-x="304" 
d="M61 715q-26 0 -41 16.5t-15 39.5t15 39.5t41 16.5t41 -16.5t15 -39.5t-15 -39.5t-41 -16.5zM227 715q-26 0 -41 16.5t-15 39.5t15 39.5t41 16.5t41 -16.5t15 -39.5t-15 -39.5t-41 -16.5zM169 0q-52 0 -71 27t-19 103v530h130v-530q0 -45 12.5 -72.5t57.5 -27.5h10v-30
h-120z" />
    <glyph glyph-name="uni0408" unicode="&#x408;" horiz-adv-x="278" 
d="M-19 -137v30q30 4 51 21.5t31.5 57.5t10.5 111v577h130v-577q0 -86 -18 -134t-66.5 -67t-138.5 -19z" />
    <glyph glyph-name="uni0409" unicode="&#x409;" horiz-adv-x="988" 
d="M52 -15q-19 0 -34 2.5t-26 6.5v31q25 5 48.5 20.5t43.5 47.5t35 87.5t23 141t8 208.5q0 45 -12 72.5t-57 27.5h-10v30h525v-270h90q50 0 100.5 -8.5t92.5 -30.5t67 -59.5t25 -96.5q0 -58 -25 -96t-67 -60t-92.5 -30.5t-100.5 -8.5h-220v615h-206v-85q0 -159 -15.5 -264.5
t-43.5 -167t-66 -87.5t-83 -26zM666 40h5q82 0 121 40t39 115t-39 115t-121 40h-5q-30 0 -50 -5l-20 -5v-290q5 -1 10 -2.5t10 -2.5q22 -5 50 -5z" />
    <glyph glyph-name="uni040A" unicode="&#x40a;" horiz-adv-x="1004" 
d="M95 0v530q0 45 -12.5 72.5t-57.5 27.5h-10v30h120q53 0 71.5 -28t18.5 -102v-165h251v295h130v-290h89q54 0 106.5 -8.5t95 -29.5t68 -57t25.5 -90t-25.5 -90t-68 -57t-95 -29.5t-106.5 -8.5h-219v320h-251v-320h-130zM675 40h5q90 0 130 38.5t40 106.5t-40 106.5
t-130 38.5h-5q-27 0 -46.5 -4t-23.5 -6v-270q5 -1 10 -2.5t10 -2.5q22 -5 50 -5z" />
    <glyph glyph-name="uni040B" unicode="&#x40b;" horiz-adv-x="744" 
d="M194 0v615h-33q-53 0 -84 -26.5t-31 -93.5h-30v85q0 20 7 38.5t25.5 30t52.5 11.5h470v-45h-247v-225q23 15 63.5 27.5t86.5 12.5q39 0 78 -8t71 -27.5t51.5 -55t19.5 -89.5v-250h-130v250q0 74 -30.5 102t-79.5 28q-38 0 -72.5 -10t-57.5 -25v-345h-130z" />
    <glyph glyph-name="uni040C" unicode="&#x40c;" horiz-adv-x="693" 
d="M631 -10q-37 0 -75 9t-79.5 35t-89.5 76l-161 168v-278h-130l-1 530q0 45 -12.5 72.5t-57.5 27.5h-10v30h120q52 0 71.5 -28t19.5 -102v-190l173 215q32 42 75 73.5t102 31.5h70v-35q-57 0 -103 -14.5t-80 -56.5l-149 -184l231 -240q25 -27 54.5 -50.5t57.5 -38t47 -17.5
v-24q-11 -4 -30.5 -7t-42.5 -3zM287 676l42 140h119l-106 -140h-55z" />
    <glyph glyph-name="uni040D" unicode="&#x40d;" horiz-adv-x="709" 
d="M95 0v530q0 45 -12.5 72.5t-57.5 27.5h-10v30h120q53 0 71.5 -28t18.5 -102v-400l290 530h120v-660h-130v530l-290 -530h-120zM350 705l-106 140h119l42 -140h-55z" />
    <glyph glyph-name="uni040E" unicode="&#x40e;" horiz-adv-x="618" 
d="M142 -10v36q30 0 59 5t53 20t37 44l7 15l-205 420q-22 48 -53 77t-71 33v20h100q57 0 99 -31t64 -79l138 -282l177 392h65l-256 -565q-21 -49 -62.5 -77t-101.5 -28h-50zM339 705q-49 0 -85.5 26t-55.5 68l28 21q15 -19 43 -34.5t70 -15.5t70 15.5t43 34.5l28 -21
q-19 -42 -55.5 -68t-85.5 -26z" />
    <glyph glyph-name="uni040F" unicode="&#x40f;" horiz-adv-x="689" 
d="M320 -175l-15 175h-210v530q0 45 -12.5 72.5t-57.5 27.5h-10v30h120q53 0 71.5 -28t18.5 -102v-485h260v615h130v-660h-210l-15 -175h-70z" />
    <glyph glyph-name="uni0410" unicode="&#x410;" horiz-adv-x="647" 
d="M628 -4q-33 0 -69.5 8.5t-70 36.5t-57.5 85l-23 56h-266l-82 -182h-52l295 660h45l224 -534q18 -44 44 -70t60 -30v-25q-8 -2 -22.5 -3.5t-25.5 -1.5zM163 227h226l-110 261z" />
    <glyph glyph-name="uni0411" unicode="&#x411;" horiz-adv-x="635" 
d="M95 0v530q0 45 -12.5 72.5t-57.5 27.5h-10v30h439q35 0 53 -11.5t25 -30t7 -38.5v-85h-30q0 65 -32.5 92.5t-92.5 27.5h-159v-235h90q54 0 106.5 -7.5t95 -27.5t68 -57.5t25.5 -97.5t-25.5 -97.5t-68 -57.5t-95 -27.5t-106.5 -7.5h-220zM295 40h5q90 0 130 35.5t40 114.5
t-40 114.5t-130 35.5h-5q-30 0 -50 -5l-20 -5v-280q5 -1 10 -2.5t10 -2.5q22 -5 50 -5z" />
    <glyph glyph-name="uni0412" unicode="&#x412;" horiz-adv-x="644" 
d="M95 0v530q0 45 -12.5 72.5t-57.5 27.5h-10v30h270q47 0 98.5 -5.5t96 -23t72.5 -52.5t28 -94q0 -43 -34.5 -84.5t-104.5 -59.5q66 -6 102.5 -29t51.5 -56.5t15 -72.5q0 -57 -25.5 -93t-68.5 -55.5t-95.5 -27t-105.5 -7.5h-220zM225 361h75q61 0 100.5 29t39.5 100
q0 50 -22.5 78t-58 40t-74.5 12q-12 0 -23 -1t-19 -3l-18 -3v-252zM295 40h5q83 0 126.5 36t43.5 102q0 138 -170 138h-75v-266q5 -1 10 -2.5t10 -2.5q22 -5 50 -5z" />
    <glyph glyph-name="uni0413" unicode="&#x413;" horiz-adv-x="544" 
d="M95 0v530q0 45 -12.5 72.5t-57.5 27.5h-10v30h429q35 0 53 -11.5t25 -30t7 -38.5v-85h-30q0 65 -32.5 92.5t-92.5 27.5h-149v-615h-130z" />
    <glyph glyph-name="uni0414" unicode="&#x414;" horiz-adv-x="694" 
d="M-1 -184v194q0 15 10 25t25 10h35q49 106 67 227.5t18 257.5q0 45 -12.5 72.5t-57.5 27.5h-10v30h529v-615h35q15 0 25 -10t10 -25v-194h-50q-8 72 -23.5 112t-40.5 56t-61 16h-324q-36 0 -61 -16t-40.5 -56t-23.5 -112h-50zM173 45h300v570h-220q0 -136 -7.5 -238.5
t-25 -182.5t-47.5 -149z" />
    <glyph glyph-name="uni0415" unicode="&#x415;" horiz-adv-x="600" 
d="M95 0v530q0 45 -12.5 72.5t-57.5 27.5h-10v30h441q35 0 53 -11.5t25 -30t7 -38.5v-85h-30q0 64 -32.5 92t-92.5 28h-161v-250h260v-45h-260v-275h171q55 0 93.5 24.5t64.5 89.5l27 -10l-29 -79q-11 -32 -28.5 -51t-58.5 -19h-370z" />
    <glyph glyph-name="uni0416" unicode="&#x416;" horiz-adv-x="989" 
d="M54 -10q-22 0 -37.5 3t-26.5 7v24q30 5 71.5 33.5t78.5 72.5l201 240l-139 184q-34 41 -71 56t-102 15v35h60q60 0 102.5 -31.5t74.5 -73.5l163 -215v320h131v-320l163 215q32 42 74.5 73.5t102.5 31.5h60v-35q-64 0 -101.5 -15t-71.5 -56l-139 -184l201 -240
q37 -44 78.5 -72.5t71.5 -33.5v-24q-11 -4 -26.5 -7t-37.5 -3q-42 0 -82 9.5t-79.5 37.5t-82.5 83l-131 165v-285h-131v285l-131 -165q-43 -55 -82.5 -83t-79 -37.5t-82.5 -9.5z" />
    <glyph glyph-name="uni0417" unicode="&#x417;" horiz-adv-x="580" 
d="M280 -20q-91 0 -153.5 33.5t-107.5 101.5l30 25q23 -30 51.5 -56t66.5 -42.5t88 -16.5q64 0 109 36t45 104q0 72 -45.5 111t-124.5 39h-85v45h85q36 0 70.5 15t57 46.5t22.5 78.5q0 48 -21 78t-50.5 43.5t-57.5 13.5q-68 0 -114.5 -45t-65.5 -120h-31q0 45 3 81t22 59
q18 22 49.5 37.5t69 24t72.5 8.5q45 0 90.5 -6.5t84 -25t61.5 -53t23 -90.5q0 -32 -17.5 -64.5t-52 -58t-84.5 -37.5q66 -8 105 -35t56.5 -64.5t17.5 -75.5q0 -54 -24.5 -90.5t-65 -58.5t-87.5 -31.5t-92 -9.5z" />
    <glyph glyph-name="uni0418" unicode="&#x418;" horiz-adv-x="709" 
d="M95 0v530q0 45 -12.5 72.5t-57.5 27.5h-10v30h120q53 0 71.5 -28t18.5 -102v-400l290 530h120v-660h-130v530l-290 -530h-120z" />
    <glyph glyph-name="uni0419" unicode="&#x419;" horiz-adv-x="709" 
d="M95 0v530q0 45 -12.5 72.5t-57.5 27.5h-10v30h120q53 0 71.5 -28t18.5 -102v-400l290 530h120v-660h-130v530l-290 -530h-120zM364 705q-49 0 -85.5 26t-55.5 68l28 21q15 -19 43 -34.5t70 -15.5t70 15.5t43 34.5l28 -21q-19 -42 -55.5 -68t-85.5 -26z" />
    <glyph glyph-name="uni041A" unicode="&#x41a;" horiz-adv-x="693" 
d="M631 -10q-37 0 -75 9t-79.5 35t-89.5 76l-161 168v-278h-130l-1 530q0 45 -12.5 72.5t-57.5 27.5h-10v30h120q52 0 71.5 -28t19.5 -102v-190l173 215q32 42 75 73.5t102 31.5h70v-35q-57 0 -103 -14.5t-80 -56.5l-149 -184l231 -240q25 -27 54.5 -50.5t57.5 -38t47 -17.5
v-24q-11 -4 -30.5 -7t-42.5 -3z" />
    <glyph glyph-name="uni041B" unicode="&#x41b;" horiz-adv-x="679" 
d="M52 -15q-19 0 -34 2.5t-26 6.5v31q25 5 48.5 20.5t43.5 47.5t35 87.5t23 141t8 208.5q0 45 -12.5 72.5t-57.5 27.5h-10v30h535v-660h-130v615h-216v-85q0 -159 -15.5 -264.5t-43 -167t-65.5 -87.5t-83 -26z" />
    <glyph glyph-name="uni041C" unicode="&#x41c;" horiz-adv-x="867" 
d="M847 -45q-109 0 -156 51t-47 164v354l-219 -524h-33l-268 544v-544h-50v660h122l242 -491l205 491h131v-490q0 -91 15.5 -136.5t57.5 -53.5v-25z" />
    <glyph glyph-name="uni041D" unicode="&#x41d;" horiz-adv-x="720" 
d="M95 0v530q0 45 -12.5 72.5t-57.5 27.5h-10v30h120q53 0 71.5 -28t18.5 -102v-165h270v295h130v-530q0 -45 12.5 -72.5t57.5 -27.5h10v-30h-120q-52 0 -71 27t-19 103v190h-270v-320h-130z" />
    <glyph glyph-name="uni041E" unicode="&#x41e;" horiz-adv-x="733" 
d="M367 -20q-99 0 -173.5 46.5t-115.5 125.5t-41 178t41 178t115.5 125.5t173.5 46.5q100 0 173.5 -46.5t114.5 -125.5t41 -178t-41 -178t-114.5 -125.5t-173.5 -46.5zM367 25q91 0 141 79.5t50 225.5t-50 225.5t-141 79.5t-140.5 -79.5t-49.5 -225.5t49.5 -225.5
t140.5 -79.5z" />
    <glyph glyph-name="uni041F" unicode="&#x41f;" horiz-adv-x="689" 
d="M95 0v530q0 45 -12.5 72.5t-57.5 27.5h-10v30h600v-660h-130v615h-260v-615h-130z" />
    <glyph glyph-name="uni0420" unicode="&#x420;" horiz-adv-x="577" 
d="M95 0v530q0 45 -12.5 72.5t-57.5 27.5h-10v30h275q27 0 62 -3.5t71.5 -14.5t67.5 -33t50 -58.5t19 -91.5q0 -52 -19 -86.5t-48.5 -55.5t-62.5 -32t-62.5 -14.5t-47.5 -3.5h-95v-267h-130zM225 307h60q34 0 65 13.5t50.5 47.5t19.5 96t-19.5 95.5t-49 47t-61.5 13.5
q-12 0 -24 -1t-21 -3l-20 -3v-306z" />
    <glyph glyph-name="uni0421" unicode="&#x421;" horiz-adv-x="679" 
d="M367 -20q-105 0 -179 45t-112.5 122t-38.5 173q0 76 24.5 141.5t69.5 114.5t105 76.5t131 27.5q94 0 151.5 -24.5t85.5 -56.5q20 -26 23 -67t3 -85h-30q-19 91 -69.5 139.5t-133.5 48.5q-61 0 -111 -28t-79.5 -96.5t-29.5 -190.5q0 -57 12 -110t38.5 -95t68 -66
t101.5 -24q69 0 128 36.5t95 106.5l35 -27q-47 -83 -115 -122t-173 -39z" />
    <glyph glyph-name="uni0422" unicode="&#x422;" horiz-adv-x="575" 
d="M232 0v615h-71q-53 0 -84 -26.5t-31 -93.5h-30v85q0 20 7 38.5t25.5 30t52.5 11.5h470v-45h-209v-615h-130z" />
    <glyph glyph-name="uni0423" unicode="&#x423;" horiz-adv-x="618" 
d="M142 -10v36q30 0 59 5t53 20t37 44l7 15l-205 420q-22 48 -53 77t-71 33v20h100q57 0 99 -31t64 -79l138 -282l177 392h65l-256 -565q-21 -49 -62.5 -77t-101.5 -28h-50z" />
    <glyph glyph-name="uni0424" unicode="&#x424;" horiz-adv-x="821" 
d="M346 -40v75q-157 0 -238.5 76.5t-81.5 203.5q0 128 81.5 204t238.5 76q0 18 -5 35t-20 28.5t-45 11.5h-10v30h120q52 0 71 -24t19 -81q158 0 239 -76t81 -204q0 -127 -81 -203.5t-239 -76.5v-75h-130zM346 80v470q-60 0 -100 -31.5t-60 -84.5t-20 -119t20 -119t60 -84.5
t100 -31.5zM476 80q60 0 100 31.5t60 84.5t20 119t-20 119t-60 84.5t-100 31.5v-470z" />
    <glyph glyph-name="uni0425" unicode="&#x425;" horiz-adv-x="647" 
d="M17 0l246 311l-142 219q-16 26 -39 50.5t-47.5 41t-47.5 18.5v20h110q38 0 68.5 -17t54.5 -42t40 -51l87 -134l193 244h65l-229 -289l157 -241q17 -26 39.5 -50.5t47.5 -40.5t47 -19v-20h-110q-37 0 -68 17t-55 42.5t-40 50.5l-101 156l-211 -266h-65z" />
    <glyph glyph-name="uni0426" unicode="&#x426;" horiz-adv-x="706" 
d="M635 -185q-8 73 -23.5 113t-40.5 56t-61 16h-415v530q0 45 -12.5 72.5t-57.5 27.5h-10v30h120q53 0 71.5 -28t18.5 -102v-485h260v615h130v-615h35q15 0 25 -10t10 -25v-195h-50z" />
    <glyph glyph-name="uni0427" unicode="&#x427;" horiz-adv-x="663" 
d="M459 0v260q-23 -10 -57.5 -15t-71.5 -5q-121 0 -186 53.5t-65 166.5v70q0 45 -12.5 72.5t-57.5 27.5h-10v30h120q53 0 71.5 -28t18.5 -102v-80q0 -83 40 -124t100 -41q31 0 59 5.5t51 14.5v355h130v-660h-130z" />
    <glyph glyph-name="uni0428" unicode="&#x428;" horiz-adv-x="949" 
d="M95 0v530q0 45 -12.5 72.5t-57.5 27.5h-10v30h120q53 0 71.5 -28t18.5 -102v-485h195v615h130v-615h195v615h130v-660h-780z" />
    <glyph glyph-name="uni0429" unicode="&#x429;" horiz-adv-x="966" 
d="M895 -185q-8 73 -23.5 113t-40.5 56t-61 16h-675v530q0 45 -12.5 72.5t-57.5 27.5h-10v30h120q53 0 71.5 -28t18.5 -102v-485h195v615h130v-615h195v615h130v-615h35q15 0 25 -10t10 -25v-195h-50z" />
    <glyph glyph-name="uni042A" unicode="&#x42a;" horiz-adv-x="722" 
d="M190 0v615h-11q-57 0 -84 -36t-31 -119h-40v165q0 15 10 25t25 10h261v-270h90q54 0 106.5 -8.5t95 -30.5t68 -59.5t25.5 -96.5q0 -58 -25.5 -96t-68 -60t-95 -30.5t-106.5 -8.5h-220zM390 40h5q90 0 130 40t40 115t-40 115t-130 40h-5q-30 0 -50 -5l-20 -5v-290
q5 -1 10 -2.5t10 -2.5q22 -5 50 -5z" />
    <glyph glyph-name="uni042B" unicode="&#x42b;" horiz-adv-x="894" 
d="M95 0v530q0 45 -12.5 72.5t-57.5 27.5h-10v30h120q53 0 71.5 -28t18.5 -102v-140h80q54 0 106.5 -8.5t95 -30.5t68 -59.5t25.5 -96.5q0 -58 -25.5 -96t-68 -60t-95 -30.5t-106.5 -8.5h-210zM759 0q-52 0 -71 27t-19 103v530h130v-530q0 -45 12.5 -72.5t57.5 -27.5h10v-30
h-120zM290 40q90 0 130 40t40 115t-40 115t-130 40q-14 0 -25.5 -1.5t-20.5 -3.5l-19 -5v-290q9 -4 19 -5q22 -5 46 -5z" />
    <glyph glyph-name="uni042C" unicode="&#x42c;" horiz-adv-x="627" 
d="M95 0v530q0 45 -12.5 72.5t-57.5 27.5h-10v30h120q53 0 71.5 -28t18.5 -102v-140h90q54 0 106.5 -8.5t95 -30.5t68 -59.5t25.5 -96.5q0 -58 -25.5 -96t-68 -60t-95 -30.5t-106.5 -8.5h-220zM295 40h5q90 0 130 40t40 115t-40 115t-130 40h-5q-30 0 -50 -5l-20 -5v-290
q5 -1 10 -2.5t10 -2.5q22 -5 50 -5z" />
    <glyph glyph-name="uni042D" unicode="&#x42d;" horiz-adv-x="680" 
d="M313 -20q-105 0 -173 39t-115 122l35 27q36 -70 95 -106.5t128 -36.5q78 0 125.5 40t70.5 105t24 140h-310v45h309q-4 108 -34.5 169t-78.5 86t-106 25q-83 0 -133.5 -48.5t-69.5 -139.5h-30q0 44 3 85t23 67q28 32 85.5 56.5t151.5 24.5q71 0 131 -27.5t105 -76.5
t69.5 -114.5t24.5 -141.5q0 -96 -38.5 -173t-112 -122t-179.5 -45z" />
    <glyph glyph-name="uni042E" unicode="&#x42e;" horiz-adv-x="917" 
d="M580 -20q-82 0 -149.5 42.5t-108 119.5t-42.5 178h-55v-320h-130v530q0 45 -12.5 72.5t-57.5 27.5h-10v30h120q53 0 71.5 -28t18.5 -102v-165h56q8 95 49 165.5t105.5 110t144.5 39.5q85 0 152.5 -44t107 -123t39.5 -183t-39.5 -183t-107 -123t-152.5 -44zM580 25
q68 0 114.5 76.5t46.5 228.5t-46.5 228.5t-114.5 76.5q-69 0 -114.5 -76.5t-45.5 -228.5t45.5 -228.5t114.5 -76.5z" />
    <glyph glyph-name="uni042F" unicode="&#x42f;" horiz-adv-x="627" 
d="M77 -16q-19 0 -39.5 3t-28.5 7v25q23 5 53.5 26.5t70.5 83.5l95 151q-37 8 -74.5 30.5t-62.5 60t-25 90.5q0 62 26.5 101t68 60t88.5 29.5t87 8.5h276v-30h-10q-45 0 -57.5 -27.5t-12.5 -72.5v-530h-131v272h-44l-90 -143q-51 -81 -96 -113t-94 -32zM341 312h60v301
l-20 3q-9 2 -21 3t-24 1q-29 0 -59.5 -17t-50.5 -51t-20 -86q0 -53 20.5 -87.5t51.5 -50.5t63 -16z" />
    <glyph glyph-name="uni0430" unicode="&#x430;" 
d="M199 -10q-83 0 -126.5 37.5t-43.5 97.5q0 48 22.5 81.5t81.5 51t166 17.5h15q0 90 -25 125t-70 35q-34 0 -61 -17t-39 -73h-55q0 26 3.5 53t21.5 47t59.5 27.5t90.5 7.5q98 0 151.5 -52t53.5 -158v-270h-85l-35 45h-5q-5 -8 -12.5 -15t-15.5 -13q-14 -11 -37 -19t-55 -8z
M229 40q23 0 38.5 10t26.5 22q13 14 20 33v125h-15q-72 0 -103.5 -26t-31.5 -79q0 -42 17.5 -63.5t47.5 -21.5z" />
    <glyph glyph-name="uni0431" unicode="&#x431;" horiz-adv-x="545" 
d="M275 -10q-105 0 -167.5 65t-62.5 185v30q0 96 12.5 158.5t36 99.5t56 56.5t71.5 28.5l139 32q42 10 66.5 20.5t28.5 29.5h30v-80q0 -19 -11.5 -38t-48.5 -27l-164 -37q-60 -14 -103.5 -61.5t-47.5 -141.5h5q23 60 65.5 95t114.5 35q60 0 107.5 -24t75 -73.5t27.5 -127.5
q0 -116 -62.5 -170.5t-167.5 -54.5zM275 35q20 0 42 15t37.5 54t15.5 111q0 70 -15.5 109t-37.5 55t-42 16t-42 -16t-37.5 -55t-15.5 -109q0 -72 15.5 -111t37.5 -54t42 -15z" />
    <glyph glyph-name="uni0432" unicode="&#x432;" horiz-adv-x="524" 
d="M74 0v340q0 45 -12.5 72.5t-57.5 27.5h-5v30h268q90 0 146 -30t56 -90q0 -45 -33.5 -71t-93.5 -34q64 -8 105.5 -37t41.5 -78q0 -68 -58 -99t-164 -31h-193zM204 270h35q38 0 66.5 21t28.5 59q0 42 -27.5 61t-57.5 19q-8 0 -21 -1.5t-24 -5.5v-153zM249 40q45 0 75 22.5
t30 67.5q0 48 -31 71.5t-84 23.5h-35v-178q11 -4 24 -5.5t21 -1.5z" />
    <glyph glyph-name="uni0433" unicode="&#x433;" horiz-adv-x="440" 
d="M74 0v340q0 45 -12.5 72.5t-57.5 27.5h-5v30h345q45 0 60 -25t15 -55v-70h-30q0 57 -25 81t-70 24h-90v-425h-130z" />
    <glyph glyph-name="uni0434" unicode="&#x434;" horiz-adv-x="583" 
d="M9 -160v170q0 15 10 25t25 10h36q34 75 47 156t13 149q0 38 -13 64t-62 26v30h445v-425h30q15 0 25 -10t10 -25v-170h-50q-5 66 -19.5 100.5t-37.5 47t-55 12.5h-242q-32 0 -55 -12.5t-37 -47t-20 -100.5h-50zM184 45h196v380h-141q0 -128 -12.5 -216.5t-42.5 -163.5z
" />
    <glyph glyph-name="uni0435" unicode="&#x435;" horiz-adv-x="509" 
d="M267 -10q-70 0 -122 32t-80 87.5t-28 125.5q0 80 29 134.5t79 82.5t112 28t112 -25t79 -70t29 -105q0 -11 -0.5 -22.5t-1.5 -20.5l-2 -20h-301q0 -99 30.5 -140.5t79.5 -41.5q52 0 84.5 24t58.5 59l31 -23q-14 -22 -37.5 -46.5t-60 -41.5t-91.5 -17zM172 262h170
q0 99 -23.5 136t-61.5 37q-22 0 -41.5 -16t-31.5 -53.5t-12 -103.5z" />
    <glyph glyph-name="uni0436" unicode="&#x436;" horiz-adv-x="740" 
d="M70 -10q-19 0 -40 3t-29 7v24q21 5 44.5 23t48.5 53l124 176l-88 118q-20 27 -45 38.5t-55 11.5v26h20q53 0 84 -19.5t60 -57.5l111 -148v225h130v-225l111 148q29 38 60 57.5t84 19.5h20v-26q-30 0 -55 -11.5t-45 -38.5l-88 -118l124 -176q25 -35 48.5 -53t44.5 -23v-24
q-8 -4 -29 -7t-40 -3q-42 0 -78 19.5t-71 70.5l-86 123v-203h-130v203l-86 -123q-35 -51 -71 -70.5t-78 -19.5z" />
    <glyph glyph-name="uni0437" unicode="&#x437;" horiz-adv-x="460" 
d="M215 -10q-71 0 -115 23t-70 57l30 25q14 -18 43.5 -39t81.5 -21q45 0 75 20.5t30 69.5q0 47 -25 71t-95 24h-50v45h50q60 0 82.5 20t22.5 65t-27.5 65t-62.5 20q-45 0 -76 -30.5t-34 -79.5h-30q0 42 3 71.5t22 48.5t57 27t83 8q90 0 145 -31.5t55 -98.5q0 -45 -33 -73.5
t-87 -36.5q62 -8 98.5 -39t36.5 -76q0 -72 -57.5 -103.5t-152.5 -31.5z" />
    <glyph glyph-name="uni0438" unicode="&#x438;" horiz-adv-x="569" 
d="M79 0v340q0 45 -12.5 72.5t-57.5 27.5h-10v30h120q53 0 71.5 -28t18.5 -102v-215l180 345h120v-470h-130v345l-180 -345h-120z" />
    <glyph glyph-name="uni0439" unicode="&#x439;" horiz-adv-x="569" 
d="M79 0v340q0 45 -12.5 72.5t-57.5 27.5h-10v30h120q53 0 71.5 -28t18.5 -102v-215l180 345h120v-470h-130v345l-180 -345h-120zM285 510q-49 0 -85.5 26t-55.5 68l28 21q15 -19 43 -34.5t70 -15.5t70 15.5t43 34.5l28 -21q-19 -42 -55.5 -68t-85.5 -26z" />
    <glyph glyph-name="uni043A" unicode="&#x43a;" horiz-adv-x="524" 
d="M454 -10q-42 0 -79 17.5t-70 62.5l-96 126v-196h-130v340q0 45 -12.5 72.5t-57.5 27.5h-10v30h120q53 0 71.5 -28t18.5 -102v-95l121 148q31 37 61 57t83 20h20v-26q-59 0 -100 -50l-97 -118l133 -176q26 -35 49 -53t44 -23v-24q-8 -4 -29 -7t-40 -3z" />
    <glyph glyph-name="uni043B" unicode="&#x43b;" horiz-adv-x="567" 
d="M66 -15q-16 0 -34 3t-26 6v29q26 4 48.5 19.5t40 50.5t27.5 97.5t10 159.5q0 38 -13.5 64t-61.5 26v30h450v-470h-130v425h-141v-75q0 -135 -21.5 -215t-60 -115t-88.5 -35z" />
    <glyph glyph-name="uni043C" unicode="&#x43c;" horiz-adv-x="666" 
d="M664 -25q-109 0 -156 48.5t-47 146.5v174l-144 -344h-33l-174 354v-353h-50v469h122l148 -301l130 311h131v-310q0 -83 16 -123t57 -47v-25z" />
    <glyph glyph-name="uni043D" unicode="&#x43d;" horiz-adv-x="578" 
d="M79 0v340q0 45 -12.5 72.5t-57.5 27.5h-10v30h120q53 0 71.5 -28t18.5 -102v-80h160v210h130v-340q0 -45 12.5 -72.5t57.5 -27.5h10v-30h-120q-52 0 -71 27t-19 103v85h-160v-215h-130z" />
    <glyph glyph-name="uni043E" unicode="&#x43e;" horiz-adv-x="552" 
d="M276 -10q-74 0 -128 32.5t-83 88.5t-29 124q0 69 29 124.5t83 88t128 32.5q75 0 128.5 -32.5t82.5 -88t29 -124.5q0 -68 -29 -124t-82.5 -88.5t-128.5 -32.5zM276 35q35 0 58.5 26t35 71.5t11.5 102.5q0 58 -11.5 103t-35 71t-58.5 26t-58.5 -26t-35 -71t-11.5 -103
q0 -57 11.5 -102.5t35 -71.5t58.5 -26z" />
    <glyph glyph-name="uni043F" unicode="&#x43f;" horiz-adv-x="554" 
d="M74 0v340q0 45 -12.5 72.5t-57.5 27.5h-5v30h495v-470h-130v425h-160v-425h-130z" />
    <glyph glyph-name="uni0440" unicode="&#x440;" horiz-adv-x="567" 
d="M80 -190v530q0 45 -12 72.5t-57 27.5h-10v30h99q34 0 53.5 -9t30.5 -33q18 16 51 34t85 18q70 0 116.5 -32.5t70 -88t23.5 -124.5q0 -68 -23.5 -124t-71 -88.5t-120.5 -32.5q-25 0 -44 4.5t-33 10.5q-16 6 -28 15v-210h-130zM295 35q38 0 59.5 26t31 71.5t9.5 102.5
q0 58 -9.5 103t-30 71t-55.5 26q-38 0 -61 -14t-36 -27l3 -14q4 -12 4 -34v-281q11 -9 24 -15q11 -6 26.5 -10.5t34.5 -4.5z" />
    <glyph glyph-name="uni0441" unicode="&#x441;" 
d="M276 -10q-80 0 -133.5 33.5t-80 89.5t-26.5 122q0 67 26.5 122.5t80 89t133.5 33.5q57 0 96.5 -8t58.5 -27t22 -51t3 -89h-30q-4 64 -39.5 97t-95.5 33q-53 0 -86.5 -49t-33.5 -151q0 -200 125 -200q52 0 84.5 24t58.5 59l31 -23q-14 -22 -37.5 -46.5t-61 -41.5
t-95.5 -17z" />
    <glyph glyph-name="uni0442" unicode="&#x442;" horiz-adv-x="467" 
d="M177 0v425h-30q-45 0 -70 -24t-25 -81h-30v70q0 30 15 55t60 25h361v-45h-151v-425h-130z" />
    <glyph glyph-name="uni0443" unicode="&#x443;" horiz-adv-x="509" 
d="M92 -200v35q52 0 87 20t57 77l21 54l-180 394q-33 72 -93 80v20h88q45 0 79 -21.5t51 -58.5l115 -252l122 322h53l-202 -535q-20 -54 -43.5 -83.5t-51.5 -40.5t-63 -11h-40z" />
    <glyph glyph-name="uni0444" unicode="&#x444;" horiz-adv-x="704" 
d="M287 -190v180q-120 8 -185 75.5t-65 169.5t65 169.5t185 75.5v50q0 45 -12.5 72.5t-57.5 27.5h-10v30h120q53 0 71.5 -28t18.5 -102v-50q120 -8 185 -75.5t65 -169.5t-65 -169.5t-185 -75.5v-180h-130zM292 25v420q-30 -5 -57.5 -30t-45 -69.5t-17.5 -110.5
q0 -65 17.5 -110t45 -69.5t57.5 -30.5zM412 25q31 6 58 30.5t44.5 69.5t17.5 110q0 66 -17.5 110.5t-44.5 69.5t-58 30v-420z" />
    <glyph glyph-name="uni0445" unicode="&#x445;" 
d="M23 0l169 209l-96 161q-21 36 -45.5 56t-47.5 24v20h95q49 0 77.5 -21.5t50.5 -58.5l48 -81l131 161h67l-169 -208l97 -162q21 -36 45.5 -56t47.5 -24v-20h-95q-49 0 -77.5 21.5t-50.5 58.5l-49 81l-131 -161h-67z" />
    <glyph glyph-name="uni0446" unicode="&#x446;" horiz-adv-x="572" 
d="M519 -160q-5 66 -19.5 100.5t-37.5 47t-55 12.5h-328v340q0 45 -12.5 72.5t-57.5 27.5h-10v30h120q53 0 71.5 -28t18.5 -102v-295h160v425h130v-425h30q15 0 25 -10t10 -25v-170h-45z" />
    <glyph glyph-name="uni0447" unicode="&#x447;" horiz-adv-x="554" 
d="M364 0v178q-15 -7 -39.5 -12.5t-50.5 -5.5q-52 0 -95.5 15t-69 48t-25.5 87v30q0 45 -12.5 72.5t-57.5 27.5h-10v30h120q53 0 71.5 -28t18.5 -102v-30q0 -57 22.5 -81t60.5 -24q23 0 37.5 4t29.5 12v249h130v-470h-130z" />
    <glyph glyph-name="uni0448" unicode="&#x448;" horiz-adv-x="759" 
d="M79 0v340q0 45 -12.5 72.5t-57.5 27.5h-10v30h120q53 0 71.5 -28t18.5 -102v-295h115v425h130v-425h115v425h130v-470h-620z" />
    <glyph glyph-name="uni0449" unicode="&#x449;" horiz-adv-x="772" 
d="M719 -160q-5 66 -19.5 100.5t-37.5 47t-55 12.5h-528v340q0 45 -12.5 72.5t-57.5 27.5h-10v30h120q53 0 71.5 -28t18.5 -102v-295h115v425h130v-425h115v425h130v-425h30q15 0 25 -10t10 -25v-170h-45z" />
    <glyph glyph-name="uni044A" unicode="&#x44a;" horiz-adv-x="598" 
d="M168 0v425q-53 -4 -74.5 -37t-25.5 -98h-40v145q0 15 10 25t25 10h235v-190h75q94 0 149.5 -36t55.5 -104t-55.5 -104t-149.5 -36h-205zM343 40q41 0 70.5 21.5t29.5 78.5t-29.5 78.5t-70.5 21.5q-8 0 -21 -1.5t-24 -5.5v-186q11 -4 24 -5.5t21 -1.5z" />
    <glyph glyph-name="uni044B" unicode="&#x44b;" horiz-adv-x="738" 
d="M79 0v340q0 45 -12.5 72.5t-57.5 27.5h-10v30h120q53 0 71.5 -28t18.5 -102v-60h65q94 0 149.5 -36t55.5 -104t-55.5 -104t-149.5 -36h-195zM619 0q-52 0 -71 27t-19 103v340h130v-340q0 -45 12.5 -72.5t57.5 -27.5h10v-30h-120zM254 40q34 0 62 21.5t28 78.5t-28 78.5
t-62 21.5q-8 0 -21 -1.5t-24 -5.5v-186q11 -4 24 -5.5t21 -1.5z" />
    <glyph glyph-name="uni044C" unicode="&#x44c;" horiz-adv-x="509" 
d="M79 0v340q0 45 -12.5 72.5t-57.5 27.5h-10v30h120q53 0 71.5 -28t18.5 -102v-60h75q94 0 149.5 -36t55.5 -104t-55.5 -104t-149.5 -36h-205zM254 40q41 0 70.5 21.5t29.5 78.5t-29.5 78.5t-70.5 21.5q-8 0 -21 -1.5t-24 -5.5v-186q11 -4 24 -5.5t21 -1.5z" />
    <glyph glyph-name="uni044D" unicode="&#x44d;" horiz-adv-x="501" 
d="M225 -10q-57 0 -95 17t-61 41.5t-38 46.5l31 23q26 -34 58 -58.5t85 -24.5q57 0 88.5 43t35.5 132h-189v45h189q-4 91 -36.5 135.5t-82.5 44.5q-60 0 -95.5 -33t-39.5 -97h-30q0 57 3 89t22 51t58.5 27t96.5 8q80 0 133.5 -33.5t80 -89t26.5 -122.5q0 -66 -26.5 -122
t-80 -89.5t-133.5 -33.5z" />
    <glyph glyph-name="uni044E" unicode="&#x44e;" horiz-adv-x="735" 
d="M474 -10q-64 0 -113 29.5t-78.5 80.5t-33.5 115h-40v-215h-130v340q0 45 -12.5 72.5t-57.5 27.5h-10v30h120q53 0 71.5 -28t18.5 -102v-80h41q6 62 34.5 112t77 79t112.5 29q68 0 118.5 -32.5t78.5 -88t28 -124.5q0 -68 -28 -124t-78.5 -88.5t-118.5 -32.5zM474 35
q30 0 50 26t30 71.5t10 102.5q0 58 -10 103t-30 71t-50 26t-50 -26t-30 -71t-10 -103q0 -57 10 -102.5t30 -71.5t50 -26z" />
    <glyph glyph-name="uni044F" unicode="&#x44f;" horiz-adv-x="528" 
d="M80 -15q-19 0 -36.5 3t-28.5 7v26q27 4 48 25.5t37 48.5l60 104q-53 8 -84 42.5t-31 83.5q0 53 28 84.5t78 46t114 14.5h260v-30h-5q-45 0 -57.5 -27.5t-12.5 -72.5v-340h-130v194h-44l-60 -119q-22 -45 -52 -67.5t-84 -22.5zM275 235q19 0 32 4t13 3v181q0 -1 -13 3
t-32 4q-37 0 -66 -21t-29 -74t28.5 -76.5t66.5 -23.5z" />
    <glyph glyph-name="uni0450" unicode="&#x450;" horiz-adv-x="509" 
d="M267 -10q-70 0 -122 32t-80 87.5t-28 125.5q0 80 29 134.5t79 82.5t112 28t112 -25t79 -70t29 -105q0 -11 -0.5 -22.5t-1.5 -20.5l-2 -20h-301q0 -99 30.5 -140.5t79.5 -41.5q52 0 84.5 24t58.5 59l31 -23q-14 -22 -37.5 -46.5t-60 -41.5t-91.5 -17zM172 262h170
q0 99 -23.5 136t-61.5 37q-22 0 -41.5 -16t-31.5 -53.5t-12 -103.5zM250 515l-106 140h119l42 -140h-55z" />
    <glyph glyph-name="uni0451" unicode="&#x451;" horiz-adv-x="509" 
d="M267 -10q-70 0 -122 32t-80 87.5t-28 125.5q0 80 29 134.5t79 82.5t112 28t112 -25t79 -70t29 -105q0 -11 -0.5 -22.5t-1.5 -20.5l-2 -20h-301q0 -99 30.5 -140.5t79.5 -41.5q52 0 84.5 24t58.5 59l31 -23q-14 -22 -37.5 -46.5t-60 -41.5t-91.5 -17zM172 262h170
q0 99 -23.5 136t-61.5 37q-22 0 -41.5 -16t-31.5 -53.5t-12 -103.5zM345 525q-26 0 -41 16.5t-15 39.5t15 39.5t41 16.5t41 -16.5t15 -39.5t-15 -39.5t-41 -16.5zM165 525q-26 0 -41 16.5t-15 39.5t15 39.5t41 16.5t41 -16.5t15 -39.5t-15 -39.5t-41 -16.5z" />
    <glyph glyph-name="uni0452" unicode="&#x452;" horiz-adv-x="546" 
d="M277 -140v25q42 8 62.5 47.5t20.5 122.5v195q0 74 -23 102t-57 28q-23 0 -47 -13.5t-43 -34.5v-332h-130v495h-70v45h70v60l50 60h80v-120h150v-45h-150v-115q23 23 54.5 36.5t65.5 13.5q48 0 89 -15t66 -53.5t25 -111.5v-195q0 -98 -52 -146.5t-161 -48.5z" />
    <glyph glyph-name="uni0453" unicode="&#x453;" horiz-adv-x="440" 
d="M74 0v340q0 45 -12.5 72.5t-57.5 27.5h-5v30h345q45 0 60 -25t15 -55v-70h-30q0 57 -25 81t-70 24h-90v-425h-130zM209 515l42 140h119l-106 -140h-55z" />
    <glyph glyph-name="uni0454" unicode="&#x454;" horiz-adv-x="501" 
d="M276 -10q-80 0 -133.5 33.5t-80 89.5t-26.5 122q0 67 26.5 122.5t80 89t133.5 33.5q57 0 96.5 -8t58.5 -27t22 -51t3 -89h-30q-4 64 -39.5 97t-95.5 33q-50 0 -82.5 -44.5t-36.5 -135.5h189v-45h-189q4 -89 35.5 -132t88.5 -43q52 0 84.5 24t58.5 59l31 -23
q-14 -22 -37.5 -46.5t-61 -41.5t-95.5 -17z" />
    <glyph glyph-name="uni0455" unicode="&#x455;" horiz-adv-x="468" 
d="M229 -10q-62 0 -101.5 11t-59.5 30q-18 17 -21 49t-3 70h35q8 -48 39 -81.5t91 -33.5q56 0 78 19.5t22 48.5t-26 46.5t-64 34.5l-52 22q-60 26 -94 59t-34 82q0 65 54 99t136 34q62 0 101.5 -11t59.5 -30q18 -17 21 -49t3 -70h-35q-8 48 -39 81.5t-91 33.5
q-45 0 -65 -19.5t-20 -48.5q0 -27 19 -43.5t52 -30.5l60 -25q69 -29 104 -60.5t35 -84.5q0 -65 -58 -99t-147 -34z" />
    <glyph glyph-name="uni0456" unicode="&#x456;" horiz-adv-x="267" 
d="M144 524q-38 0 -56.5 23t-18.5 53q0 26 16 41t39 15q38 0 56.5 -23t18.5 -53q0 -26 -16 -41t-39 -15zM79 0v340q0 45 -12.5 72.5t-57.5 27.5h-10v30h120q53 0 71.5 -28t18.5 -102v-340h-130z" />
    <glyph glyph-name="uni0457" unicode="&#x457;" horiz-adv-x="267" 
d="M79 0v340q0 45 -12.5 72.5t-57.5 27.5h-10v30h120q53 0 71.5 -28t18.5 -102v-340h-130zM218 535q-26 0 -41 16.5t-15 39.5t15 39.5t41 16.5t41 -16.5t15 -39.5t-15 -39.5t-41 -16.5zM38 535q-26 0 -41 16.5t-15 39.5t15 39.5t41 16.5t41 -16.5t15 -39.5t-15 -39.5
t-41 -16.5z" />
    <glyph glyph-name="uni0458" unicode="&#x458;" horiz-adv-x="267" 
d="M144 524q-38 0 -56.5 23t-18.5 53q0 26 16 41t39 15q38 0 56.5 -23t18.5 -53q0 -26 -16 -41t-39 -15zM-9 -190v25q30 6 49.5 24.5t29 58t9.5 107.5v315q0 45 -12.5 72.5t-57.5 27.5h-10v30h120q53 0 71.5 -28t18.5 -102v-315q0 -82 -20.5 -129t-68 -66.5t-129.5 -19.5z
" />
    <glyph glyph-name="uni0459" unicode="&#x459;" horiz-adv-x="795" 
d="M66 -15q-16 0 -34 3t-26 6v29q26 4 48.5 19.5t40 50.5t27.5 97.5t10 159.5q0 38 -13.5 64t-61.5 26v30h438v-190h75q94 0 149.5 -36t55.5 -104t-55.5 -104t-149.5 -36h-205v425h-129v-75q0 -135 -21.5 -215t-60 -115t-88.5 -35zM540 40q41 0 70.5 21.5t29.5 78.5
t-29.5 78.5t-70.5 21.5q-8 0 -21 -1.5t-24 -5.5v-186q11 -4 24 -5.5t21 -1.5z" />
    <glyph glyph-name="uni045A" unicode="&#x45a;" horiz-adv-x="788" 
d="M79 0v340q0 45 -12.5 72.5t-57.5 27.5h-10v30h120q53 0 71.5 -28t18.5 -102v-70h150v200h130v-200h75q94 0 149.5 -35.5t55.5 -99.5t-55.5 -99.5t-149.5 -35.5h-205v225h-150v-225h-130zM534 40q41 0 70.5 21t29.5 74t-29.5 74t-70.5 21q-8 0 -21 -1.5t-24 -5.5v-176
q11 -4 24 -5.5t21 -1.5z" />
    <glyph glyph-name="uni045B" unicode="&#x45b;" horiz-adv-x="546" 
d="M60 0v495h-70v45h70v60l50 60h80v-120h100v-45h-100v-115q23 23 54.5 36.5t65.5 13.5q48 0 89 -15t66 -53.5t25 -111.5v-250h-130v250q0 74 -23 102t-57 28q-23 0 -47 -13.5t-43 -34.5v-332h-130z" />
    <glyph glyph-name="uni045C" unicode="&#x45c;" horiz-adv-x="524" 
d="M454 -10q-42 0 -79 17.5t-70 62.5l-96 126v-196h-130v340q0 45 -12.5 72.5t-57.5 27.5h-10v30h120q53 0 71.5 -28t18.5 -102v-95l121 148q31 37 61 57t83 20h20v-26q-59 0 -100 -50l-97 -118l133 -176q26 -35 49 -53t44 -23v-24q-8 -4 -29 -7t-40 -3zM231 515l42 140h119
l-106 -140h-55z" />
    <glyph glyph-name="uni045D" unicode="&#x45d;" horiz-adv-x="569" 
d="M79 0v340q0 45 -12.5 72.5t-57.5 27.5h-10v30h120q53 0 71.5 -28t18.5 -102v-215l180 345h120v-470h-130v345l-180 -345h-120zM280 515l-106 140h119l42 -140h-55z" />
    <glyph glyph-name="uni045E" unicode="&#x45e;" horiz-adv-x="495" 
d="M92 -200v35q52 0 87 20t57 77l21 54l-180 394q-33 72 -93 80v20h88q45 0 79 -21.5t51 -58.5l115 -252l122 322h53l-202 -535q-20 -54 -43.5 -83.5t-51.5 -40.5t-63 -11h-40zM294 496q-49 0 -85.5 26t-55.5 68l28 21q15 -19 43 -34.5t70 -15.5t70 15.5t43 34.5l28 -21
q-19 -42 -55.5 -68t-85.5 -26z" />
    <glyph glyph-name="uni045F" unicode="&#x45f;" horiz-adv-x="559" 
d="M259 -150l-15 150h-165v340q0 45 -12.5 72.5t-57.5 27.5h-10v30h120q53 0 71.5 -28t18.5 -102v-295h160v425h130v-470h-165l-15 -150h-60z" />
    <glyph glyph-name="uni0462" unicode="&#x462;" horiz-adv-x="717" 
d="M185 0v515h-24q-53 0 -84 -26.5t-31 -93.5h-30v85q0 20 7 38.5t25.5 30t52.5 11.5h83q-3 32 -17.5 51t-51.5 19h-10v30h120q47 0 66.5 -21.5t22.5 -78.5h197v-45h-196v-125h90q54 0 106.5 -8.5t95 -30.5t68 -59.5t25.5 -96.5q0 -58 -25.5 -96t-68 -60t-95 -30.5
t-106.5 -8.5h-220zM385 40h5q90 0 130 40t40 115t-40 115t-130 40h-5q-30 0 -50 -5l-20 -5v-290q5 -1 10 -2.5t10 -2.5q22 -5 50 -5z" />
    <glyph glyph-name="uni0463" unicode="&#x463;" horiz-adv-x="586" 
d="M156 0v425h-9q-45 0 -70 -24t-25 -81h-30v70q0 30 15 55t60 25h59v60q0 45 -12.5 72.5t-57.5 27.5h-10v30h120q53 0 71.5 -28t18.5 -102v-60h152v-45h-152v-145h75q94 0 149.5 -36t55.5 -104t-55.5 -104t-149.5 -36h-205zM331 40q41 0 70.5 21.5t29.5 78.5t-29.5 78.5
t-70.5 21.5q-8 0 -21 -1.5t-24 -5.5v-186q11 -4 24 -5.5t21 -1.5z" />
    <glyph glyph-name="uni046A" unicode="&#x46a;" horiz-adv-x="989" 
d="M54 -10q-22 0 -37.5 3t-26.5 7v24q30 5 72 33.5t78 72.5l130 155q27 32 61 55t75 25l-153 189q-30 37 -69.5 54t-104.5 17v35h811v-35q-43 0 -73 -5.5t-53.5 -21t-45.5 -44.5l-134 -189q41 -2 75 -25t65 -61l125 -149q38 -44 79 -72.5t71 -33.5v-24q-11 -4 -26.5 -7
t-37.5 -3q-42 0 -81.5 9.5t-79 37.5t-83.5 83l-131 165v-285h-131v285l-131 -165q-42 -55 -82 -83t-79.5 -37.5t-82.5 -9.5zM496 326l199 289h-429z" />
    <glyph glyph-name="uni046B" unicode="&#x46b;" horiz-adv-x="741" 
d="M70 -10q-19 0 -39.5 3t-28.5 7l-1 24q21 5 45 23t49 53l62 87q23 35 52.5 53.5t65.5 19.5l-125 134q-24 23 -47 36.5t-53 13.5l1 26h630l-1 -26q-30 0 -52 -14.5t-48 -35.5l-130 -134h13q28 0 61 -17.5t58 -49.5l65 -93q25 -35 48 -53t44 -23l1 -24q-9 -4 -30 -7t-40 -3
q-42 0 -78 19.5t-71 70.5l-85 123v-203h-130v203l-87 -123q-35 -51 -71 -70.5t-78 -19.5zM362 236l180 189h-351z" />
    <glyph glyph-name="uni0472" unicode="&#x472;" horiz-adv-x="733" 
d="M367 -20q-99 0 -173.5 46.5t-115.5 125.5t-41 178t41 178t115.5 125.5t173.5 46.5q100 0 173.5 -46.5t114.5 -125.5t41 -178t-41 -178t-114.5 -125.5t-173.5 -46.5zM367 635q-85 0 -134 -70t-55 -200h379q-6 130 -55.5 200t-134.5 70zM367 25q89 0 139 76.5t52 218.5
h-381q2 -142 51.5 -218.5t138.5 -76.5z" />
    <glyph glyph-name="uni0473" unicode="&#x473;" horiz-adv-x="552" 
d="M276 -10q-74 0 -128 32.5t-83 88.5t-29 124q0 69 29 124.5t83 88t128 32.5q75 0 128.5 -32.5t82.5 -88t29 -124.5q0 -68 -29 -124t-82.5 -88.5t-128.5 -32.5zM276 35q35 0 58.5 26t35 71.5t11.5 102.5q0 58 -11.5 103t-35 71t-58.5 26t-58.5 -26t-35 -71t-11.5 -103
q0 -57 11.5 -102.5t35 -71.5t58.5 -26zM126 212v45h299v-45h-299z" />
    <glyph glyph-name="uni0474" unicode="&#x474;" horiz-adv-x="678" 
d="M299 -10l-233 553q-24 56 -46.5 78.5t-52.5 26.5v20q4 0 19.5 1t22.5 1q35 0 71.5 -8t69.5 -35t57 -84l152 -359l135 346q22 56 45 84t45 38t40 10q10 0 18.5 -0.5t15.5 -1.5v-20q-28 -2 -46.5 -11t-33.5 -32t-32 -67l-207 -540h-40z" />
    <glyph glyph-name="uni0475" unicode="&#x475;" horiz-adv-x="553" 
d="M246 -10l-169 365q-26 55 -45 78t-44 25v20q4 0 17 1t20 1q40 0 74.5 -9.5t64 -36.5t53.5 -79l85 -184l68 168q22 53 41 80.5t38 38.5t40 12q10 1 17.5 0.5t15.5 -0.5l1 -20q-36 -4 -56 -28t-43 -80l-142 -351z" />
    <glyph glyph-name="uni0490" unicode="&#x490;" horiz-adv-x="538" 
d="M95 0v530q0 45 -12.5 72.5t-57.5 27.5h-10v30h359q60 0 92.5 27.5t32.5 92.5h30v-85q0 -20 -7 -38.5t-25 -30t-53 -11.5h-219v-615h-130z" />
    <glyph glyph-name="uni0491" unicode="&#x491;" horiz-adv-x="433" 
d="M74 0v340q0 45 -12.5 72.5t-57.5 27.5h-5v30h295q45 0 70 24t25 81h30v-70q0 -30 -15 -55t-60 -25h-140v-425h-130z" />
    <glyph glyph-name="uni0492" unicode="&#x492;" horiz-adv-x="544" 
d="M95 0v530q0 45 -12.5 72.5t-57.5 27.5h-10v30h429q35 0 53 -11.5t25 -30t7 -38.5v-85h-30q0 65 -32.5 92.5t-92.5 27.5h-149v-615h-130zM41 307v45h299v-45h-299z" />
    <glyph glyph-name="uni0493" unicode="&#x493;" horiz-adv-x="440" 
d="M74 0v340q0 45 -12.5 72.5t-57.5 27.5h-5v30h345q45 0 60 -25t15 -55v-70h-30q0 57 -25 81t-70 24h-90v-425h-130zM17 212v45h299v-45h-299z" />
    <glyph glyph-name="uni0494" unicode="&#x494;" horiz-adv-x="640" 
d="M95 0v530q0 45 -12.5 72.5t-57.5 27.5h-10v30h429q35 0 53 -11.5t25 -30t7 -38.5v-85h-30q0 65 -32.5 92.5t-92.5 27.5h-149v-215q30 10 67 20t83 10q62 0 112 -25t79 -76t29 -129t-25.5 -138.5t-70.5 -102.5t-102.5 -63.5t-121.5 -21.5v25q33 0 66.5 22t61.5 62t45 95.5
t17 121.5q0 90 -39 136t-100 46q-47 0 -101 -27v-355h-130z" />
    <glyph glyph-name="uni0495" unicode="&#x495;" horiz-adv-x="510" 
d="M74 0v340q0 45 -12.5 72.5t-57.5 27.5h-5v30h345q45 0 60 -25t15 -55v-70h-30q0 57 -25 81t-70 24h-90v-158q35 4 68 4q106 0 160 -56t53 -150q-1 -106 -62.5 -155.5t-191.5 -49.5v25q62 8 93 48.5t31 131.5q0 76 -28.5 115.5t-84.5 39.5q-17 0 -38 -1v-219h-130z" />
    <glyph glyph-name="uni0496" unicode="&#x496;" horiz-adv-x="998" 
d="M54 -10q-22 0 -37.5 3t-26.5 7v24q30 5 71.5 33.5t78.5 72.5l201 240l-139 184q-34 41 -71 56t-102 15v35h60q60 0 102.5 -31.5t74.5 -73.5l163 -215v320h131v-320l163 215q32 42 74.5 73.5t102.5 31.5h60v-35q-64 0 -101.5 -15t-71.5 -56l-139 -184l201 -240
q19 -23 42 -44q32 -26 50.5 -33.5t31.5 -7.5q15 0 25 -10t10 -25v-195h-50q-9 87 -30 128t-57 52q-45 9 -88.5 36.5t-91.5 88.5l-131 165v-285h-131v285l-131 -165q-43 -55 -82.5 -83t-79 -37.5t-82.5 -9.5z" />
    <glyph glyph-name="uni0497" unicode="&#x497;" horiz-adv-x="753" 
d="M70 -10q-19 0 -40 3t-29 7v24q21 5 44.5 23t48.5 53l124 176l-88 118q-20 27 -45 38.5t-55 11.5v26h20q53 0 84 -19.5t60 -57.5l111 -148v225h130v-225l111 148q29 38 60 57.5t84 19.5h20v-26q-30 0 -55 -11.5t-45 -38.5l-88 -118l124 -176q12 -18 25 -31
q14 -15 25 -19.5t22 -4.5q15 0 25 -10t10 -25v-170h-45q-7 80 -28 112.5t-57 43.5q-27 8 -52 28t-50 56l-86 123v-203h-130v203l-86 -123q-35 -51 -71 -70.5t-78 -19.5z" />
    <glyph glyph-name="uni0498" unicode="&#x498;" horiz-adv-x="580" 
d="M280 -185q-4 69 -11.5 108.5t-19.5 57.5q-78 5 -133.5 38.5t-96.5 95.5l30 25q23 -30 51.5 -56t66.5 -42.5t88 -16.5q64 0 109 36t45 104q0 72 -45.5 111t-124.5 39h-85v45h85q36 0 70.5 15t57 46.5t22.5 78.5q0 48 -21 78t-50.5 43.5t-57.5 13.5q-68 0 -114.5 -45
t-65.5 -120h-31q0 45 3 81t22 59q18 22 49.5 37.5t69 24t72.5 8.5q45 0 90.5 -6.5t84 -25t61.5 -53t23 -90.5q0 -32 -17.5 -64.5t-52 -58t-84.5 -37.5q66 -8 105 -35t56.5 -64.5t17.5 -75.5q0 -62 -32.5 -101.5t-82.5 -60t-104 -25.5v-168h-50z" />
    <glyph glyph-name="uni0499" unicode="&#x499;" horiz-adv-x="460" 
d="M221 -160q-3 70 -12 104.5t-23 46.5q-58 5 -95.5 27t-60.5 52l30 25q14 -18 43.5 -39t81.5 -21q45 0 75 20.5t30 69.5q0 47 -25 71t-95 24h-50v45h50q60 0 82.5 20t22.5 65t-27.5 65t-62.5 20q-45 0 -76 -30.5t-34 -79.5h-30q0 42 3 71.5t22 48.5t57 27t83 8
q90 0 145 -31.5t55 -98.5q0 -45 -33 -73.5t-87 -36.5q62 -8 98.5 -39t36.5 -76q0 -62 -43 -93.5t-116 -39.5v-152h-45z" />
    <glyph glyph-name="uni049A" unicode="&#x49a;" horiz-adv-x="698" 
d="M658 -185q-9 88 -30.5 129t-58.5 52q-41 8 -85.5 34t-96.5 80l-161 168v-278h-130l-1 530q0 45 -12.5 72.5t-57.5 27.5h-10v30h120q52 0 71.5 -28t19.5 -102v-190l173 215q32 42 75 73.5t102 31.5h70v-35q-57 0 -103 -14.5t-80 -56.5l-149 -184l231 -240q15 -17 33 -32
q39 -35 59.5 -44t35.5 -9t25 -10t10 -25v-195h-50z" />
    <glyph glyph-name="uni049B" unicode="&#x49b;" horiz-adv-x="538" 
d="M493 -160q-7 80 -29 114.5t-60 41.5v0q-27 8 -51.5 25.5t-47.5 48.5l-96 126v-196h-130v340q0 45 -12.5 72.5t-57.5 27.5h-10v30h120q53 0 71.5 -28t18.5 -102v-95l121 148q31 37 61 57t83 20h20v-26q-59 0 -100 -50l-97 -118l133 -176q9 -12 18 -22q17 -21 30 -27t25 -6
q15 0 25 -10t10 -25v-170h-45z" />
    <glyph glyph-name="uni049C" unicode="&#x49c;" horiz-adv-x="773" 
d="M96 0l-1 530q0 45 -12.5 72.5t-57.5 27.5h-10v30h120q52 0 71.5 -28t19.5 -102v-194h31v127h55v-116l167 208q32 42 75 73.5t102 31.5h70v-35q-57 0 -103 -14.5t-80 -56.5l-149 -184l231 -240q25 -27 54.5 -50.5t57.5 -38t47 -17.5v-24q-11 -4 -30.5 -7t-42.5 -3
q-37 0 -75 9t-79.5 35t-89.5 76l-155 162v-88h-55v107h-31v-291h-130z" />
    <glyph glyph-name="uni049D" unicode="&#x49d;" horiz-adv-x="604" 
d="M79 0v340q0 45 -12.5 72.5t-57.5 27.5h-10v30h120q53 0 71.5 -28t18.5 -102v-95h28v110h55v-107l118 145q30 38 60.5 57.5t83.5 19.5h20v-26q-59 0 -100 -50l-97 -118l133 -176q26 -35 49 -53t44 -23v-24q-8 -4 -29 -7t-40 -3q-42 0 -79 17.5t-70 62.5l-93 122v-96h-55
v104h-28v-200h-130z" />
    <glyph glyph-name="uni04A0" unicode="&#x4a0;" horiz-adv-x="820" 
d="M758 -10q-37 0 -75 9t-79.5 35t-89.5 76l-161 168v-278h-130l-1 615h-61q-53 0 -84 -26.5t-31 -93.5h-30v85q0 20 7 38.5t25.5 30t52.5 11.5h252v-320l173 215q32 42 75 73.5t102 31.5h70v-35q-57 0 -103 -14.5t-80 -56.5l-149 -184l231 -240q25 -27 54.5 -50.5t57.5 -38
t47 -17.5v-24q-11 -4 -30.5 -7t-42.5 -3z" />
    <glyph glyph-name="uni04A1" unicode="&#x4a1;" horiz-adv-x="614" 
d="M544 -10q-42 0 -79 17.5t-70 62.5l-96 126v-196h-130v425h-22q-45 0 -70 -24t-25 -81h-30v70q0 30 15 55t60 25h202v-225l121 148q31 37 61 57t83 20h20v-26q-59 0 -100 -50l-97 -118l133 -176q26 -35 49 -53t44 -23v-24q-8 -4 -29 -7t-40 -3z" />
    <glyph glyph-name="uni04A2" unicode="&#x4a2;" horiz-adv-x="716" 
d="M645 -185q-8 73 -23.5 113t-40.5 56t-61 16h-25v320h-270v-320h-130v530q0 45 -12.5 72.5t-57.5 27.5h-10v30h120q53 0 71.5 -28t18.5 -102v-165h270v295h130v-615h35q15 0 25 -10t10 -25v-195h-50z" />
    <glyph glyph-name="uni04A3" unicode="&#x4a3;" horiz-adv-x="572" 
d="M519 -160q-5 66 -19.5 100.5t-37.5 47t-55 12.5h-38v215h-160v-215h-130v340q0 45 -12.5 72.5t-57.5 27.5h-10v30h120q53 0 71.5 -28t18.5 -102v-80h160v210h130v-425h30q15 0 25 -10t10 -25v-170h-45z" />
    <glyph glyph-name="uni04A4" unicode="&#x4a4;" horiz-adv-x="944" 
d="M95 0v530q0 45 -12.5 72.5t-57.5 27.5h-10v30h120q53 0 71.5 -28t18.5 -102v-165h270v165q0 45 -12.5 72.5t-57.5 27.5h-10v30h429q35 0 53 -11.5t25 -30t7 -38.5v-85h-30q0 65 -32.5 92.5t-92.5 27.5h-149v-485q0 -45 12.5 -72.5t57.5 -27.5h10v-30h-120q-52 0 -71 27
t-19 103v190h-270v-320h-130z" />
    <glyph glyph-name="uni04A5" unicode="&#x4a5;" horiz-adv-x="735" 
d="M79 0v340q0 45 -12.5 72.5t-57.5 27.5h-10v30h120q53 0 71.5 -28t18.5 -102v-80h160v80q0 45 -12.5 72.5t-57.5 27.5h-5v30h345q45 0 60 -25t15 -55v-70h-30q0 57 -25 81t-70 24h-90v-295q0 -45 12.5 -72.5t57.5 -27.5h10v-30h-120q-52 0 -71 27t-19 103v85h-160v-215
h-130z" />
    <glyph glyph-name="uni04AA" unicode="&#x4aa;" horiz-adv-x="679" 
d="M380 -185q-4 69 -11.5 108t-19.5 57q-100 4 -169.5 50t-106 121.5t-36.5 168.5q0 76 24.5 141.5t69.5 114.5t105 76.5t131 27.5q94 0 151.5 -24.5t85.5 -56.5q20 -26 23 -67t3 -85h-30q-19 91 -69.5 139.5t-133.5 48.5q-61 0 -111 -28t-79.5 -96.5t-29.5 -190.5
q0 -57 12 -110t38.5 -95t68 -66t101.5 -24q69 0 128 36.5t95 106.5l35 -27q-40 -70 -93.5 -108.5t-131.5 -48.5v-169h-50z" />
    <glyph glyph-name="uni04AB" unicode="&#x4ab;" 
d="M268 -160q-3 74 -13 108.5t-25 44.5q-65 10 -108 45t-64.5 86t-21.5 111q0 67 26.5 122.5t80 89t133.5 33.5q57 0 96.5 -8t58.5 -27t22 -51t3 -89h-30q-4 64 -39.5 97t-95.5 33q-53 0 -86.5 -49t-33.5 -151q0 -200 125 -200q52 0 84.5 24t58.5 59l31 -23
q-13 -20 -32.5 -41.5t-49.5 -38.5t-75 -23v-152h-45z" />
    <glyph glyph-name="uni04AE" unicode="&#x4ae;" horiz-adv-x="638" 
d="M279 0v264l-177 266q-17 26 -39.5 50t-46.5 41t-47 19v20h109q38 0 68.5 -17t54.5 -42t40 -51l136 -205l194 315h65l-227 -369v-291h-130z" />
    <glyph glyph-name="uni04AF" unicode="&#x4af;" horiz-adv-x="500" 
d="M200 -190v191l-123 354q-25 56 -44.5 78.5t-44.5 24.5v20q4 0 17 1t20 1q40 0 74.5 -9.5t64 -36.5t53.5 -79l91 -282l133 397h54l-165 -471v-189h-130z" />
    <glyph glyph-name="uni04B0" unicode="&#x4b0;" horiz-adv-x="638" 
d="M279 0v264l-177 266q-17 26 -39.5 50t-46.5 41t-47 19v20h109q38 0 68.5 -17t54.5 -42t40 -51l136 -205l194 315h65l-227 -369v-291h-130zM191 251v45h299v-45h-299z" />
    <glyph glyph-name="uni04B1" unicode="&#x4b1;" horiz-adv-x="500" 
d="M200 -190v191l-123 354q-25 56 -44.5 78.5t-44.5 24.5v20q4 0 17 1t20 1q40 0 74.5 -9.5t64 -36.5t53.5 -79l91 -282l133 397h54l-165 -471v-189h-130zM118 -23v45h299v-45h-299z" />
    <glyph glyph-name="uni04B6" unicode="&#x4b6;" horiz-adv-x="680" 
d="M459 0v260q-23 -10 -57.5 -15t-71.5 -5q-121 0 -186 53.5t-65 166.5v70q0 45 -12.5 72.5t-57.5 27.5h-10v30h120q53 0 71.5 -28t18.5 -102v-80q0 -83 40 -124t100 -41q31 0 59 5.5t51 14.5v355h130v-660h-130zM609 -185q-8 73 -23.5 113t-40.5 56t-61 16h-25v45h165
q15 0 25 -10t10 -25v-195h-50z" />
    <glyph glyph-name="uni04B7" unicode="&#x4b7;" horiz-adv-x="567" 
d="M364 0v178q-15 -7 -39.5 -12.5t-50.5 -5.5q-52 0 -95.5 15t-69 48t-25.5 87v30q0 45 -12.5 72.5t-57.5 27.5h-10v30h120q53 0 71.5 -28t18.5 -102v-30q0 -57 22.5 -81t60.5 -24q23 0 37.5 4t29.5 12v249h130v-470h-130zM514 -160q-5 66 -19.5 100.5t-37.5 47t-55 12.5
h-38v45h160q15 0 25 -10t10 -25v-170h-45z" />
    <glyph glyph-name="uni04B8" unicode="&#x4b8;" horiz-adv-x="663" 
d="M459 0v260q-23 -10 -57.5 -15t-71.5 -5q-121 0 -186 53.5t-65 166.5v70q0 45 -12.5 72.5t-57.5 27.5h-10v30h120q53 0 71.5 -28t18.5 -102v-80q0 -83 40 -124t100 -41q31 0 59 5.5t51 14.5v355h130v-660h-130zM321 130v279h55v-279h-55z" />
    <glyph glyph-name="uni04B9" unicode="&#x4b9;" horiz-adv-x="554" 
d="M364 0v178q-15 -7 -39.5 -12.5t-50.5 -5.5q-52 0 -95.5 15t-69 48t-25.5 87v30q0 45 -12.5 72.5t-57.5 27.5h-10v30h120q53 0 71.5 -28t18.5 -102v-30q0 -57 22.5 -81t60.5 -24q23 0 37.5 4t29.5 12v249h130v-470h-130zM259 45v279h55v-279h-55z" />
    <glyph glyph-name="uni04BA" unicode="&#x4ba;" horiz-adv-x="663" 
d="M204 660v-260q23 10 57.5 15t71.5 5q121 0 186 -53.5t65 -166.5v-70q0 -45 12.5 -72.5t57.5 -27.5h10v-30h-120q-52 0 -71 28t-19 102v80q0 83 -40 124t-100 41q-31 0 -59 -5.5t-51 -14.5v-355h-130v660h130z" />
    <glyph glyph-name="uni04BB" unicode="&#x4bb;" horiz-adv-x="544" 
d="M60 0v530q0 45 -12.5 72.5t-57.5 27.5h-10v30h120q53 0 71.5 -28t18.5 -102v-88q7 5 15 10t16 9q14 7 34 13t45 6q34 0 67.5 -8t61.5 -28.5t44.5 -56t16.5 -90.5v-297h-130v292q0 77 -27.5 107.5t-62.5 30.5q-17 0 -31.5 -5.5t-25.5 -12.5q-12 -7 -23 -17v-395h-130z" />
    <glyph glyph-name="uni04C0" unicode="&#x4c0;" horiz-adv-x="304" 
d="M169 0q-52 0 -71 27t-19 103v530h130v-530q0 -45 12.5 -72.5t57.5 -27.5h10v-30h-120z" />
    <glyph glyph-name="uni04C1" unicode="&#x4c1;" horiz-adv-x="989" 
d="M54 -10q-22 0 -37.5 3t-26.5 7v24q30 5 71.5 33.5t78.5 72.5l201 240l-139 184q-34 41 -71 56t-102 15v35h60q60 0 102.5 -31.5t74.5 -73.5l163 -215v320h131v-320l163 215q32 42 74.5 73.5t102.5 31.5h60v-35q-64 0 -101.5 -15t-71.5 -56l-139 -184l201 -240
q37 -44 78.5 -72.5t71.5 -33.5v-24q-11 -4 -26.5 -7t-37.5 -3q-42 0 -82 9.5t-79.5 37.5t-82.5 83l-131 165v-285h-131v285l-131 -165q-43 -55 -82.5 -83t-79 -37.5t-82.5 -9.5zM495 705q-49 0 -85.5 26t-55.5 68l28 21q15 -19 43 -34.5t70 -15.5t70 15.5t43 34.5l28 -21
q-19 -42 -55.5 -68t-85.5 -26z" />
    <glyph glyph-name="uni04C2" unicode="&#x4c2;" horiz-adv-x="740" 
d="M70 -10q-19 0 -40 3t-29 7v24q21 5 44.5 23t48.5 53l124 176l-88 118q-20 27 -45 38.5t-55 11.5v26h20q53 0 84 -19.5t60 -57.5l111 -148v225h130v-225l111 148q29 38 60 57.5t84 19.5h20v-26q-30 0 -55 -11.5t-45 -38.5l-88 -118l124 -176q25 -35 48.5 -53t44.5 -23v-24
q-8 -4 -29 -7t-40 -3q-42 0 -78 19.5t-71 70.5l-86 123v-203h-130v203l-86 -123q-35 -51 -71 -70.5t-78 -19.5zM370 500q-49 0 -85.5 26t-55.5 68l28 21q15 -19 43 -34.5t70 -15.5t70 15.5t43 34.5l28 -21q-19 -42 -55.5 -68t-85.5 -26z" />
    <glyph glyph-name="uni04CB" unicode="&#x4cb;" horiz-adv-x="659" 
d="M389 -185v195q0 15 10 25t25 10h35v215q-23 -10 -57.5 -15t-71.5 -5q-121 0 -186 53.5t-65 166.5v70q0 45 -12.5 72.5t-57.5 27.5h-10v30h120q53 0 71.5 -28t18.5 -102v-80q0 -83 40 -124t100 -41q31 0 59 5.5t51 14.5v355h130v-660h-25q-36 0 -61 -16t-40.5 -56
t-23.5 -113h-50z" />
    <glyph glyph-name="uni04CC" unicode="&#x4cc;" horiz-adv-x="554" 
d="M299 -160v170q0 15 10 25t25 10h30v133q-15 -7 -39.5 -12.5t-50.5 -5.5q-52 0 -95.5 15t-69 48t-25.5 87v30q0 45 -12.5 72.5t-57.5 27.5h-10v30h120q53 0 71.5 -28t18.5 -102v-30q0 -57 22.5 -81t60.5 -24q23 0 37.5 4t29.5 12v249h130v-470h-38q-32 0 -55 -12.5
t-37 -47t-20 -100.5h-45z" />
    <glyph glyph-name="uni04CF" unicode="&#x4cf;" horiz-adv-x="258" 
d="M64 0v530q0 45 -12.5 72.5t-57.5 27.5h-10v30h120q53 0 71.5 -28t18.5 -102v-530h-130z" />
    <glyph glyph-name="uni04D0" unicode="&#x4d0;" horiz-adv-x="647" 
d="M628 -4q-33 0 -69.5 8.5t-70 36.5t-57.5 85l-23 56h-266l-82 -182h-52l295 660h45l224 -534q18 -44 44 -70t60 -30v-25q-8 -2 -22.5 -3.5t-25.5 -1.5zM163 227h226l-110 261zM324 705q-49 0 -85.5 26t-55.5 68l28 21q15 -19 43 -34.5t70 -15.5t70 15.5t43 34.5l28 -21
q-19 -42 -55.5 -68t-85.5 -26z" />
    <glyph glyph-name="uni04D1" unicode="&#x4d1;" 
d="M199 -10q-83 0 -126.5 37.5t-43.5 97.5q0 48 22.5 81.5t81.5 51t166 17.5h15q0 90 -25 125t-70 35q-34 0 -61 -17t-39 -73h-55q0 26 3.5 53t21.5 47t59.5 27.5t90.5 7.5q98 0 151.5 -52t53.5 -158v-270h-85l-35 45h-5q-5 -8 -12.5 -15t-15.5 -13q-14 -11 -37 -19t-55 -8z
M229 40q23 0 38.5 10t26.5 22q13 14 20 33v125h-15q-72 0 -103.5 -26t-31.5 -79q0 -42 17.5 -63.5t47.5 -21.5zM248 500q-49 0 -85.5 26t-55.5 68l28 21q15 -19 43 -34.5t70 -15.5t70 15.5t43 34.5l28 -21q-19 -42 -55.5 -68t-85.5 -26z" />
    <glyph glyph-name="uni04D2" unicode="&#x4d2;" horiz-adv-x="647" 
d="M628 -4q-33 0 -69.5 8.5t-70 36.5t-57.5 85l-23 56h-266l-82 -182h-52l295 660h45l224 -534q18 -44 44 -70t60 -30v-25q-8 -2 -22.5 -3.5t-25.5 -1.5zM163 227h226l-110 261zM414 715q-26 0 -41 16.5t-15 39.5t15 39.5t41 16.5t41 -16.5t15 -39.5t-15 -39.5t-41 -16.5z
M234 715q-26 0 -41 16.5t-15 39.5t15 39.5t41 16.5t41 -16.5t15 -39.5t-15 -39.5t-41 -16.5z" />
    <glyph glyph-name="uni04D3" unicode="&#x4d3;" 
d="M199 -10q-83 0 -126.5 37.5t-43.5 97.5q0 48 22.5 81.5t81.5 51t166 17.5h15q0 90 -25 125t-70 35q-34 0 -61 -17t-39 -73h-55q0 26 3.5 53t21.5 47t59.5 27.5t90.5 7.5q98 0 151.5 -52t53.5 -158v-270h-85l-35 45h-5q-5 -8 -12.5 -15t-15.5 -13q-14 -11 -37 -19t-55 -8z
M229 40q23 0 38.5 10t26.5 22q13 14 20 33v125h-15q-72 0 -103.5 -26t-31.5 -79q0 -42 17.5 -63.5t47.5 -21.5zM338 525q-26 0 -41 16.5t-15 39.5t15 39.5t41 16.5t41 -16.5t15 -39.5t-15 -39.5t-41 -16.5zM158 525q-26 0 -41 16.5t-15 39.5t15 39.5t41 16.5t41 -16.5
t15 -39.5t-15 -39.5t-41 -16.5z" />
    <glyph glyph-name="uni04D4" unicode="&#x4d4;" horiz-adv-x="868" 
d="M-22 0l370 660h376q35 0 53 -11.5t25 -30t7 -38.5v-85h-30q0 64 -32.5 92t-92.5 28h-161v-250h260v-45h-260v-275h171q55 0 93.5 24.5t64.5 89.5l27 -10l-29 -79q-11 -32 -28.5 -51t-58.5 -19h-370v190h-218l-107 -190h-60zM170 235h193v344z" />
    <glyph glyph-name="uni04D5" unicode="&#x4d5;" horiz-adv-x="795" 
d="M208 -10q-90 0 -135 37t-45 93q0 43 24 74.5t83.5 49.5t167.5 18h15q0 91 -25.5 132t-74.5 41q-34 0 -61 -17t-39 -73h-55q0 26 3.5 53t21.5 47q12 13 34 20.5t48 11t48 3.5q64 0 108 -24.5t67 -66.5q29 46 70.5 68.5t89.5 22.5q58 0 105.5 -25t76 -70t28.5 -105
q0 -11 -0.5 -22.5t-1.5 -20.5l-2 -20h-301v-10q1 -93 31.5 -132.5t78.5 -39.5q52 0 84.5 24t58.5 59l31 -23q-14 -22 -37.5 -46.5t-60 -41.5t-91.5 -17q-110 0 -170 90q-18 -34 -61 -62t-114 -28zM458 262h170q0 92 -24 132.5t-61 40.5q-34 0 -59.5 -40.5t-25.5 -132.5z
M228 40q24 0 41 10t28 22q12 14 21 33v112h-15q-58 0 -88 -11.5t-41 -33.5t-11 -52q0 -34 17.5 -57t47.5 -23z" />
    <glyph glyph-name="uni04D6" unicode="&#x4d6;" horiz-adv-x="600" 
d="M95 0v530q0 45 -12.5 72.5t-57.5 27.5h-10v30h441q35 0 53 -11.5t25 -30t7 -38.5v-85h-30q0 64 -32.5 92t-92.5 28h-161v-250h260v-45h-260v-275h171q55 0 93.5 24.5t64.5 89.5l27 -10l-29 -79q-11 -32 -28.5 -51t-58.5 -19h-370zM300 705q-49 0 -85.5 26t-55.5 68l28 21
q15 -19 43 -34.5t70 -15.5t70 15.5t43 34.5l28 -21q-19 -42 -55.5 -68t-85.5 -26z" />
    <glyph glyph-name="uni04D7" unicode="&#x4d7;" horiz-adv-x="509" 
d="M267 -10q-70 0 -122 32t-80 87.5t-28 125.5q0 80 29 134.5t79 82.5t112 28t112 -25t79 -70t29 -105q0 -11 -0.5 -22.5t-1.5 -20.5l-2 -20h-301q0 -99 30.5 -140.5t79.5 -41.5q52 0 84.5 24t58.5 59l31 -23q-14 -22 -37.5 -46.5t-60 -41.5t-91.5 -17zM172 262h170
q0 99 -23.5 136t-61.5 37q-22 0 -41.5 -16t-31.5 -53.5t-12 -103.5zM255 500q-49 0 -85.5 26t-55.5 68l28 21q15 -19 43 -34.5t70 -15.5t70 15.5t43 34.5l28 -21q-19 -42 -55.5 -68t-85.5 -26z" />
    <glyph glyph-name="uni04D8" unicode="&#x4d8;" horiz-adv-x="713" 
d="M348 -20q-154 0 -232.5 82.5t-78.5 226.5q0 31 3 62h496q0 103 -26 165t-72.5 90.5t-109.5 28.5q-71 1 -122 -33t-101 -108l-44 33q28 43 68 77.5t93.5 55.5t121.5 20q100 0 174.5 -47t116 -127.5t41.5 -181.5q0 -112 -43.5 -189t-117.5 -116t-167 -39zM348 25
q49 1 92 24.5t69.5 80t26.5 155.5h-368q0 -99 23.5 -156t64.5 -80.5t92 -23.5z" />
    <glyph glyph-name="uni04D9" unicode="&#x4d9;" horiz-adv-x="509" 
d="M242 480q71 0 122.5 -32t79.5 -87.5t28 -125.5q0 -80 -29 -134.5t-79 -82.5t-112 -28t-112 25t-79 70t-29 105q0 11 0.5 22.5t1.5 20.5l2 20h301q0 99 -30.5 140.5t-79.5 41.5q-52 0 -84.5 -24t-58.5 -59l-31 23q15 23 38 47t60 41t91 17zM337 208h-170q0 -99 24 -136
t61 -37q23 0 42 16t31 53.5t12 103.5z" />
    <glyph glyph-name="uni04DC" unicode="&#x4dc;" horiz-adv-x="989" 
d="M54 -10q-22 0 -37.5 3t-26.5 7v24q30 5 71.5 33.5t78.5 72.5l201 240l-139 184q-34 41 -71 56t-102 15v35h60q60 0 102.5 -31.5t74.5 -73.5l163 -215v320h131v-320l163 215q32 42 74.5 73.5t102.5 31.5h60v-35q-64 0 -101.5 -15t-71.5 -56l-139 -184l201 -240
q37 -44 78.5 -72.5t71.5 -33.5v-24q-11 -4 -26.5 -7t-37.5 -3q-42 0 -82 9.5t-79.5 37.5t-82.5 83l-131 165v-285h-131v285l-131 -165q-43 -55 -82.5 -83t-79 -37.5t-82.5 -9.5zM585 715q-26 0 -41 16.5t-15 39.5t15 39.5t41 16.5t41 -16.5t15 -39.5t-15 -39.5t-41 -16.5z
M405 715q-26 0 -41 16.5t-15 39.5t15 39.5t41 16.5t41 -16.5t15 -39.5t-15 -39.5t-41 -16.5z" />
    <glyph glyph-name="uni04DD" unicode="&#x4dd;" horiz-adv-x="740" 
d="M70 -10q-19 0 -40 3t-29 7v24q21 5 44.5 23t48.5 53l124 176l-88 118q-20 27 -45 38.5t-55 11.5v26h20q53 0 84 -19.5t60 -57.5l111 -148v225h130v-225l111 148q29 38 60 57.5t84 19.5h20v-26q-30 0 -55 -11.5t-45 -38.5l-88 -118l124 -176q25 -35 48.5 -53t44.5 -23v-24
q-8 -4 -29 -7t-40 -3q-42 0 -78 19.5t-71 70.5l-86 123v-203h-130v203l-86 -123q-35 -51 -71 -70.5t-78 -19.5zM460 525q-26 0 -41 16.5t-15 39.5t15 39.5t41 16.5t41 -16.5t15 -39.5t-15 -39.5t-41 -16.5zM280 525q-26 0 -41 16.5t-15 39.5t15 39.5t41 16.5t41 -16.5
t15 -39.5t-15 -39.5t-41 -16.5z" />
    <glyph glyph-name="uni04DE" unicode="&#x4de;" horiz-adv-x="580" 
d="M280 -20q-91 0 -153.5 33.5t-107.5 101.5l30 25q23 -30 51.5 -56t66.5 -42.5t88 -16.5q64 0 109 36t45 104q0 72 -45.5 111t-124.5 39h-85v45h85q36 0 70.5 15t57 46.5t22.5 78.5q0 48 -21 78t-50.5 43.5t-57.5 13.5q-68 0 -114.5 -45t-65.5 -120h-31q0 45 3 81t22 59
q18 22 49.5 37.5t69 24t72.5 8.5q45 0 90.5 -6.5t84 -25t61.5 -53t23 -90.5q0 -32 -17.5 -64.5t-52 -58t-84.5 -37.5q66 -8 105 -35t56.5 -64.5t17.5 -75.5q0 -54 -24.5 -90.5t-65 -58.5t-87.5 -31.5t-92 -9.5zM360 715q-26 0 -41 16.5t-15 39.5t15 39.5t41 16.5t41 -16.5
t15 -39.5t-15 -39.5t-41 -16.5zM180 715q-26 0 -41 16.5t-15 39.5t15 39.5t41 16.5t41 -16.5t15 -39.5t-15 -39.5t-41 -16.5z" />
    <glyph glyph-name="uni04DF" unicode="&#x4df;" horiz-adv-x="460" 
d="M215 -10q-71 0 -115 23t-70 57l30 25q14 -18 43.5 -39t81.5 -21q45 0 75 20.5t30 69.5q0 47 -25 71t-95 24h-50v45h50q60 0 82.5 20t22.5 65t-27.5 65t-62.5 20q-45 0 -76 -30.5t-34 -79.5h-30q0 42 3 71.5t22 48.5t57 27t83 8q90 0 145 -31.5t55 -98.5q0 -45 -33 -73.5
t-87 -36.5q62 -8 98.5 -39t36.5 -76q0 -72 -57.5 -103.5t-152.5 -31.5zM300 525q-26 0 -41 16.5t-15 39.5t15 39.5t41 16.5t41 -16.5t15 -39.5t-15 -39.5t-41 -16.5zM120 525q-26 0 -41 16.5t-15 39.5t15 39.5t41 16.5t41 -16.5t15 -39.5t-15 -39.5t-41 -16.5z" />
    <glyph glyph-name="uni04E2" unicode="&#x4e2;" horiz-adv-x="709" 
d="M95 0v530q0 45 -12.5 72.5t-57.5 27.5h-10v30h120q53 0 71.5 -28t18.5 -102v-400l290 530h120v-660h-130v530l-290 -530h-120zM215 737v85h279v-85h-279z" />
    <glyph glyph-name="uni04E3" unicode="&#x4e3;" horiz-adv-x="569" 
d="M79 0v340q0 45 -12.5 72.5t-57.5 27.5h-10v30h120q53 0 71.5 -28t18.5 -102v-215l180 345h120v-470h-130v345l-180 -345h-120zM145 547v85h279v-85h-279z" />
    <glyph glyph-name="uni04E4" unicode="&#x4e4;" horiz-adv-x="709" 
d="M95 0v530q0 45 -12.5 72.5t-57.5 27.5h-10v30h120q53 0 71.5 -28t18.5 -102v-400l290 530h120v-660h-130v530l-290 -530h-120zM445 715q-26 0 -41 16.5t-15 39.5t15 39.5t41 16.5t41 -16.5t15 -39.5t-15 -39.5t-41 -16.5zM265 715q-26 0 -41 16.5t-15 39.5t15 39.5
t41 16.5t41 -16.5t15 -39.5t-15 -39.5t-41 -16.5z" />
    <glyph glyph-name="uni04E5" unicode="&#x4e5;" horiz-adv-x="569" 
d="M79 0v340q0 45 -12.5 72.5t-57.5 27.5h-10v30h120q53 0 71.5 -28t18.5 -102v-215l180 345h120v-470h-130v345l-180 -345h-120zM375 525q-26 0 -41 16.5t-15 39.5t15 39.5t41 16.5t41 -16.5t15 -39.5t-15 -39.5t-41 -16.5zM195 525q-26 0 -41 16.5t-15 39.5t15 39.5
t41 16.5t41 -16.5t15 -39.5t-15 -39.5t-41 -16.5z" />
    <glyph glyph-name="uni04E6" unicode="&#x4e6;" horiz-adv-x="733" 
d="M367 -20q-99 0 -173.5 46.5t-115.5 125.5t-41 178t41 178t115.5 125.5t173.5 46.5q100 0 173.5 -46.5t114.5 -125.5t41 -178t-41 -178t-114.5 -125.5t-173.5 -46.5zM367 25q91 0 141 79.5t50 225.5t-50 225.5t-141 79.5t-140.5 -79.5t-49.5 -225.5t49.5 -225.5
t140.5 -79.5zM457 715q-26 0 -41 16.5t-15 39.5t15 39.5t41 16.5t41 -16.5t15 -39.5t-15 -39.5t-41 -16.5zM277 715q-26 0 -41 16.5t-15 39.5t15 39.5t41 16.5t41 -16.5t15 -39.5t-15 -39.5t-41 -16.5z" />
    <glyph glyph-name="uni04E7" unicode="&#x4e7;" horiz-adv-x="552" 
d="M276 -10q-74 0 -128 32.5t-83 88.5t-29 124q0 69 29 124.5t83 88t128 32.5q75 0 128.5 -32.5t82.5 -88t29 -124.5q0 -68 -29 -124t-82.5 -88.5t-128.5 -32.5zM276 35q35 0 58.5 26t35 71.5t11.5 102.5q0 58 -11.5 103t-35 71t-58.5 26t-58.5 -26t-35 -71t-11.5 -103
q0 -57 11.5 -102.5t35 -71.5t58.5 -26zM366 525q-26 0 -41 16.5t-15 39.5t15 39.5t41 16.5t41 -16.5t15 -39.5t-15 -39.5t-41 -16.5zM186 525q-26 0 -41 16.5t-15 39.5t15 39.5t41 16.5t41 -16.5t15 -39.5t-15 -39.5t-41 -16.5z" />
    <glyph glyph-name="uni04E8" unicode="&#x4e8;" horiz-adv-x="733" 
d="M367 -20q-99 0 -173.5 46.5t-115.5 125.5t-41 178t41 178t115.5 125.5t173.5 46.5q100 0 173.5 -46.5t114.5 -125.5t41 -178t-41 -178t-114.5 -125.5t-173.5 -46.5zM367 635q-85 0 -134 -70t-55 -200h379q-6 130 -55.5 200t-134.5 70zM367 25q89 0 139 76.5t52 218.5
h-381q2 -142 51.5 -218.5t138.5 -76.5z" />
    <glyph glyph-name="uni04E9" unicode="&#x4e9;" horiz-adv-x="552" 
d="M276 -10q-74 0 -128 32.5t-83 88.5t-29 124q0 69 29 124.5t83 88t128 32.5q75 0 128.5 -32.5t82.5 -88t29 -124.5q0 -68 -29 -124t-82.5 -88.5t-128.5 -32.5zM276 35q35 0 58.5 26t35 71.5t11.5 102.5q0 58 -11.5 103t-35 71t-58.5 26t-58.5 -26t-35 -71t-11.5 -103
q0 -57 11.5 -102.5t35 -71.5t58.5 -26zM126 212v45h299v-45h-299z" />
    <glyph glyph-name="uni04EE" unicode="&#x4ee;" horiz-adv-x="618" 
d="M142 -10v36q30 0 59 5t53 20t37 44l7 15l-205 420q-22 48 -53 77t-71 33v20h100q57 0 99 -31t64 -79l138 -282l177 392h65l-256 -565q-21 -49 -62.5 -77t-101.5 -28h-50zM199 737v85h279v-85h-279z" />
    <glyph glyph-name="uni04EF" unicode="&#x4ef;" horiz-adv-x="509" 
d="M92 -200v35q52 0 87 20t57 77l21 54l-180 394q-33 72 -93 80v20h88q45 0 79 -21.5t51 -58.5l115 -252l122 322h53l-202 -535q-20 -54 -43.5 -83.5t-51.5 -40.5t-63 -11h-40zM135 547v85h279v-85h-279z" />
    <glyph glyph-name="uni04F0" unicode="&#x4f0;" horiz-adv-x="618" 
d="M142 -10v36q30 0 59 5t53 20t37 44l7 15l-205 420q-22 48 -53 77t-71 33v20h100q57 0 99 -31t64 -79l138 -282l177 392h65l-256 -565q-21 -49 -62.5 -77t-101.5 -28h-50zM429 715q-26 0 -41 16.5t-15 39.5t15 39.5t41 16.5t41 -16.5t15 -39.5t-15 -39.5t-41 -16.5z
M249 715q-26 0 -41 16.5t-15 39.5t15 39.5t41 16.5t41 -16.5t15 -39.5t-15 -39.5t-41 -16.5z" />
    <glyph glyph-name="uni04F1" unicode="&#x4f1;" horiz-adv-x="509" 
d="M92 -200v35q52 0 87 20t57 77l21 54l-180 394q-33 72 -93 80v20h88q45 0 79 -21.5t51 -58.5l115 -252l122 322h53l-202 -535q-20 -54 -43.5 -83.5t-51.5 -40.5t-63 -11h-40zM365 525q-26 0 -41 16.5t-15 39.5t15 39.5t41 16.5t41 -16.5t15 -39.5t-15 -39.5t-41 -16.5z
M185 525q-26 0 -41 16.5t-15 39.5t15 39.5t41 16.5t41 -16.5t15 -39.5t-15 -39.5t-41 -16.5z" />
    <glyph glyph-name="uni04F2" unicode="&#x4f2;" horiz-adv-x="618" 
d="M142 -10v36q30 0 59 5t53 20t37 44l7 15l-205 420q-22 48 -53 77t-71 33v20h100q57 0 99 -31t64 -79l138 -282l177 392h65l-256 -565q-21 -49 -62.5 -77t-101.5 -28h-50zM371 705l42 140h79l-86 -140h-35zM261 705l42 140h79l-86 -140h-35z" />
    <glyph glyph-name="uni04F3" unicode="&#x4f3;" horiz-adv-x="509" 
d="M92 -200v35q52 0 87 20t57 77l21 54l-180 394q-33 72 -93 80v20h88q45 0 79 -21.5t51 -58.5l115 -252l122 322h53l-202 -535q-20 -54 -43.5 -83.5t-51.5 -40.5t-63 -11h-40zM307 515l42 140h79l-86 -140h-35zM197 515l42 140h79l-86 -140h-35z" />
    <glyph glyph-name="uni04F4" unicode="&#x4f4;" horiz-adv-x="663" 
d="M459 0v260q-23 -10 -57.5 -15t-71.5 -5q-121 0 -186 53.5t-65 166.5v70q0 45 -12.5 72.5t-57.5 27.5h-10v30h120q53 0 71.5 -28t18.5 -102v-80q0 -83 40 -124t100 -41q31 0 59 5.5t51 14.5v355h130v-660h-130zM422 715q-26 0 -41 16.5t-15 39.5t15 39.5t41 16.5t41 -16.5
t15 -39.5t-15 -39.5t-41 -16.5zM242 715q-26 0 -41 16.5t-15 39.5t15 39.5t41 16.5t41 -16.5t15 -39.5t-15 -39.5t-41 -16.5z" />
    <glyph glyph-name="uni04F5" unicode="&#x4f5;" horiz-adv-x="554" 
d="M364 0v178q-15 -7 -39.5 -12.5t-50.5 -5.5q-52 0 -95.5 15t-69 48t-25.5 87v30q0 45 -12.5 72.5t-57.5 27.5h-10v30h120q53 0 71.5 -28t18.5 -102v-30q0 -57 22.5 -81t60.5 -24q23 0 37.5 4t29.5 12v249h130v-470h-130zM367 525q-26 0 -41 16.5t-15 39.5t15 39.5t41 16.5
t41 -16.5t15 -39.5t-15 -39.5t-41 -16.5zM187 525q-26 0 -41 16.5t-15 39.5t15 39.5t41 16.5t41 -16.5t15 -39.5t-15 -39.5t-41 -16.5z" />
    <glyph glyph-name="uni04F6" unicode="&#x4f6;" horiz-adv-x="544" 
d="M95 0v530q0 45 -12.5 72.5t-57.5 27.5h-10v30h429q35 0 53 -11.5t25 -30t7 -38.5v-85h-30q0 65 -32.5 92.5t-92.5 27.5h-149v-615h-130zM245 -185q-8 73 -23.5 113t-40.5 56t-61 16h-25v45h165q15 0 25 -10t10 -25v-195h-50z" />
    <glyph glyph-name="uni04F7" unicode="&#x4f7;" horiz-adv-x="440" 
d="M74 0v340q0 45 -12.5 72.5t-57.5 27.5h-5v30h345q45 0 60 -25t15 -55v-70h-30q0 57 -25 81t-70 24h-90v-425h-130zM224 -160q-5 66 -19.5 100.5t-37.5 47t-55 12.5h-38v45h160q15 0 25 -10t10 -25v-170h-45z" />
    <glyph glyph-name="uni04F8" unicode="&#x4f8;" horiz-adv-x="894" 
d="M95 0v530q0 45 -12.5 72.5t-57.5 27.5h-10v30h120q53 0 71.5 -28t18.5 -102v-140h80q54 0 106.5 -8.5t95 -30.5t68 -59.5t25.5 -96.5q0 -58 -25.5 -96t-68 -60t-95 -30.5t-106.5 -8.5h-210zM759 0q-52 0 -71 27t-19 103v530h130v-530q0 -45 12.5 -72.5t57.5 -27.5h10v-30
h-120zM290 40q90 0 130 40t40 115t-40 115t-130 40q-14 0 -25.5 -1.5t-20.5 -3.5l-19 -5v-290q9 -4 19 -5q22 -5 46 -5zM537 715q-26 0 -41 16.5t-15 39.5t15 39.5t41 16.5t41 -16.5t15 -39.5t-15 -39.5t-41 -16.5zM357 715q-26 0 -41 16.5t-15 39.5t15 39.5t41 16.5
t41 -16.5t15 -39.5t-15 -39.5t-41 -16.5z" />
    <glyph glyph-name="uni04F9" unicode="&#x4f9;" horiz-adv-x="738" 
d="M79 0v340q0 45 -12.5 72.5t-57.5 27.5h-10v30h120q53 0 71.5 -28t18.5 -102v-60h65q94 0 149.5 -36t55.5 -104t-55.5 -104t-149.5 -36h-195zM619 0q-52 0 -71 27t-19 103v340h130v-340q0 -45 12.5 -72.5t57.5 -27.5h10v-30h-120zM254 40q34 0 62 21.5t28 78.5t-28 78.5
t-62 21.5q-8 0 -21 -1.5t-24 -5.5v-186q11 -4 24 -5.5t21 -1.5zM459 525q-26 0 -41 16.5t-15 39.5t15 39.5t41 16.5t41 -16.5t15 -39.5t-15 -39.5t-41 -16.5zM279 525q-26 0 -41 16.5t-15 39.5t15 39.5t41 16.5t41 -16.5t15 -39.5t-15 -39.5t-41 -16.5z" />
    <glyph glyph-name="uni051A" unicode="&#x51a;" horiz-adv-x="735" 
d="M693 -205q-76 0 -151.5 19.5t-146 63.5t-131.5 118q-69 22 -120 70t-78.5 115.5t-27.5 148.5q0 99 41 178t115.5 125.5t173.5 46.5q100 0 173.5 -46.5t114.5 -125.5t41 -178q0 -83 -28.5 -152t-81 -117t-124.5 -68q18 -48 56.5 -87t85 -62t88.5 -23v-26zM368 25
q91 0 141 79.5t50 225.5t-50 225.5t-141 79.5t-140.5 -79.5t-49.5 -225.5t49.5 -225.5t140.5 -79.5z" />
    <glyph glyph-name="uni051B" unicode="&#x51b;" horiz-adv-x="547" 
d="M357 -190v210q-12 -9 -28 -15q-14 -6 -33.5 -10.5t-43.5 -4.5q-72 0 -120 32.5t-71.5 88.5t-23.5 124q0 69 23.5 124.5t70 88t116.5 32.5q30 0 51.5 -8.5t35.5 -19.5q8 -6 15.5 -12.5t12.5 -14.5h5l35 45h85v-660h-130zM272 35q19 0 34.5 4.5t26.5 10.5q14 6 24 15v305
q-5 9 -10.5 17t-12.5 15q-11 12 -27.5 22.5t-39.5 10.5q-35 0 -56 -26t-30 -71t-9 -103q0 -57 9.5 -102.5t31.5 -71.5t59 -26z" />
    <glyph glyph-name="uni051C" unicode="&#x51c;" horiz-adv-x="906" 
d="M277 -9l-216 552q-23 57 -46 79t-53 26v20q4 0 19.5 1t22.5 1q35 0 72 -7.5t70 -34.5t56 -85l135 -345l90 256l-35 89q-23 57 -49.5 79t-56.5 26v20q4 0 18 1t21 1q35 0 72 -8t70 -34.5t56 -84.5l143 -364l171 481h48l-237 -669h-40l-154 392l-137 -392h-40z" />
    <glyph glyph-name="uni051D" unicode="&#x51d;" horiz-adv-x="775" 
d="M242 -10l-163 365q-25 56 -46 79t-47 25v19q3 0 12.5 0.5t20.5 1t15 0.5q64 0 106 -25.5t76 -99.5l85 -191l67 160l-14 31q-25 55 -45.5 78.5t-42.5 25.5v19q4 0 17.5 1t20.5 1q64 0 111 -25.5t81 -99.5l92 -201l122 316h53l-184 -480h-46l-130 281l-116 -281h-45z" />
    <glyph glyph-name="uni0524" unicode="&#x524;" horiz-adv-x="706" 
d="M95 0v530q0 45 -12.5 72.5t-57.5 27.5h-10v30h600v-660h-130v615h-260v-615h-130zM635 -185q-8 73 -23.5 113t-40.5 56t-61 16h-25v45h165q15 0 25 -10t10 -25v-195h-50z" />
    <glyph glyph-name="uni0525" unicode="&#x525;" horiz-adv-x="567" 
d="M74 0v340q0 45 -12.5 72.5t-57.5 27.5h-5v30h495v-470h-130v425h-160v-425h-130zM514 -160q-5 66 -19.5 100.5t-37.5 47t-55 12.5h-38v45h160q15 0 25 -10t10 -25v-170h-45z" />
    <glyph glyph-name="uni1EA0" unicode="&#x1ea0;" horiz-adv-x="647" 
d="M628 -4q-33 0 -69.5 8.5t-70 36.5t-57.5 85l-23 56h-266l-82 -182h-52l295 660h45l224 -534q18 -44 44 -70t60 -30v-25q-8 -2 -22.5 -3.5t-25.5 -1.5zM163 227h226l-110 261zM324 -173q-24 0 -37 14t-13 37q0 22 13 36t37 14q25 0 38 -14t13 -36q0 -23 -13 -37t-38 -14z
" />
    <glyph glyph-name="uni1EA1" unicode="&#x1ea1;" 
d="M199 -10q-83 0 -126.5 37.5t-43.5 97.5q0 48 22.5 81.5t81.5 51t166 17.5h15q0 90 -25 125t-70 35q-34 0 -61 -17t-39 -73h-55q0 26 3.5 53t21.5 47t59.5 27.5t90.5 7.5q98 0 151.5 -52t53.5 -158v-270h-85l-35 45h-5q-5 -8 -12.5 -15t-15.5 -13q-14 -11 -37 -19t-55 -8z
M229 40q23 0 38.5 10t26.5 22q13 14 20 33v125h-15q-72 0 -103.5 -26t-31.5 -79q0 -42 17.5 -63.5t47.5 -21.5zM248 -173q-24 0 -37 14t-13 37q0 22 13 36t37 14q25 0 38 -14t13 -36q0 -23 -13 -37t-38 -14z" />
    <glyph glyph-name="uni1EA2" unicode="&#x1ea2;" horiz-adv-x="647" 
d="M628 -4q-33 0 -69.5 8.5t-70 36.5t-57.5 85l-23 56h-266l-82 -182h-52l295 660h45l224 -534q18 -44 44 -70t60 -30v-25q-8 -2 -22.5 -3.5t-25.5 -1.5zM163 227h226l-110 261zM324 711q1 24 9 38t16 26t8 30q0 12 -9.5 20t-23.5 8q-17 0 -27.5 -10t-15.5 -42l-55 1
q0 54 22 83.5t76 29.5q50 0 74.5 -24t24.5 -57q0 -23 -11 -37.5t-22.5 -28.5t-13.5 -37h-52z" />
    <glyph glyph-name="uni1EA3" unicode="&#x1ea3;" 
d="M199 -10q-83 0 -126.5 37.5t-43.5 97.5q0 48 22.5 81.5t81.5 51t166 17.5h15q0 90 -25 125t-70 35q-34 0 -61 -17t-39 -73h-55q0 26 3.5 53t21.5 47t59.5 27.5t90.5 7.5q98 0 151.5 -52t53.5 -158v-270h-85l-35 45h-5q-5 -8 -12.5 -15t-15.5 -13q-14 -11 -37 -19t-55 -8z
M229 40q23 0 38.5 10t26.5 22q13 14 20 33v125h-15q-72 0 -103.5 -26t-31.5 -79q0 -42 17.5 -63.5t47.5 -21.5zM248 521q1 24 9 38t16 26t8 30q0 12 -9.5 20t-23.5 8q-17 0 -27.5 -10t-15.5 -42l-55 1q0 54 22 83.5t76 29.5q50 0 74.5 -24t24.5 -57q0 -23 -11 -37.5
t-22.5 -28.5t-13.5 -37h-52z" />
    <glyph glyph-name="uni1EA4" unicode="&#x1ea4;" horiz-adv-x="647" 
d="M628 -4q-33 0 -69.5 8.5t-70 36.5t-57.5 85l-23 56h-266l-82 -182h-52l295 660h45l224 -534q18 -44 44 -70t60 -30v-25q-8 -2 -22.5 -3.5t-25.5 -1.5zM163 227h226l-110 261zM179 715l80 125h130l80 -125h-60l-85 80l-85 -80h-60zM452 782l42 140h119l-106 -140h-55z" />
    <glyph glyph-name="uni1EA5" unicode="&#x1ea5;" 
d="M199 -10q-83 0 -126.5 37.5t-43.5 97.5q0 48 22.5 81.5t81.5 51t166 17.5h15q0 90 -25 125t-70 35q-34 0 -61 -17t-39 -73h-55q0 26 3.5 53t21.5 47t59.5 27.5t90.5 7.5q98 0 151.5 -52t53.5 -158v-270h-85l-35 45h-5q-5 -8 -12.5 -15t-15.5 -13q-14 -11 -37 -19t-55 -8z
M229 40q23 0 38.5 10t26.5 22q13 14 20 33v125h-15q-72 0 -103.5 -26t-31.5 -79q0 -42 17.5 -63.5t47.5 -21.5zM103 525l80 125h130l80 -125h-60l-85 80l-85 -80h-60zM376 592l42 140h119l-106 -140h-55z" />
    <glyph glyph-name="uni1EA6" unicode="&#x1ea6;" horiz-adv-x="647" 
d="M628 -4q-33 0 -69.5 8.5t-70 36.5t-57.5 85l-23 56h-266l-82 -182h-52l295 660h45l224 -534q18 -44 44 -70t60 -30v-25q-8 -2 -22.5 -3.5t-25.5 -1.5zM163 227h226l-110 261zM179 715l80 125h130l80 -125h-60l-85 80l-85 -80h-60zM464 802l-106 140h119l42 -140h-55z" />
    <glyph glyph-name="uni1EA7" unicode="&#x1ea7;" 
d="M199 -10q-83 0 -126.5 37.5t-43.5 97.5q0 48 22.5 81.5t81.5 51t166 17.5h15q0 90 -25 125t-70 35q-34 0 -61 -17t-39 -73h-55q0 26 3.5 53t21.5 47t59.5 27.5t90.5 7.5q98 0 151.5 -52t53.5 -158v-270h-85l-35 45h-5q-5 -8 -12.5 -15t-15.5 -13q-14 -11 -37 -19t-55 -8z
M229 40q23 0 38.5 10t26.5 22q13 14 20 33v125h-15q-72 0 -103.5 -26t-31.5 -79q0 -42 17.5 -63.5t47.5 -21.5zM103 525l80 125h130l80 -125h-60l-85 80l-85 -80h-60zM388 612l-106 140h119l42 -140h-55z" />
    <glyph glyph-name="uni1EA8" unicode="&#x1ea8;" horiz-adv-x="647" 
d="M628 -4q-33 0 -69.5 8.5t-70 36.5t-57.5 85l-23 56h-266l-82 -182h-52l295 660h45l224 -534q18 -44 44 -70t60 -30v-25q-8 -2 -22.5 -3.5t-25.5 -1.5zM163 227h226l-110 261zM179 715l80 125h130l80 -125h-60l-85 80l-85 -80h-60zM455 808q1 24 9 38t16 26t8 30
q0 12 -9.5 20t-23.5 8q-17 0 -27.5 -10t-15.5 -42l-55 1q0 54 22 83.5t76 29.5q50 0 74.5 -24t24.5 -57q0 -23 -11 -37.5t-22.5 -28.5t-13.5 -37h-52z" />
    <glyph glyph-name="uni1EA9" unicode="&#x1ea9;" 
d="M199 -10q-83 0 -126.5 37.5t-43.5 97.5q0 48 22.5 81.5t81.5 51t166 17.5h15q0 90 -25 125t-70 35q-34 0 -61 -17t-39 -73h-55q0 26 3.5 53t21.5 47t59.5 27.5t90.5 7.5q98 0 151.5 -52t53.5 -158v-270h-85l-35 45h-5q-5 -8 -12.5 -15t-15.5 -13q-14 -11 -37 -19t-55 -8z
M229 40q23 0 38.5 10t26.5 22q13 14 20 33v125h-15q-72 0 -103.5 -26t-31.5 -79q0 -42 17.5 -63.5t47.5 -21.5zM103 525l80 125h130l80 -125h-60l-85 80l-85 -80h-60zM379 618q1 24 9 38t16 26t8 30q0 12 -9.5 20t-23.5 8q-17 0 -27.5 -10t-15.5 -42l-55 1q0 54 22 83.5
t76 29.5q50 0 74.5 -24t24.5 -57q0 -23 -11 -37.5t-22.5 -28.5t-13.5 -37h-52z" />
    <glyph glyph-name="uni1EAA" unicode="&#x1eaa;" horiz-adv-x="647" 
d="M628 -4q-33 0 -69.5 8.5t-70 36.5t-57.5 85l-23 56h-266l-82 -182h-52l295 660h45l224 -534q18 -44 44 -70t60 -30v-25q-8 -2 -22.5 -3.5t-25.5 -1.5zM163 227h226l-110 261zM179 715l80 125h130l80 -125h-60l-85 80l-85 -80h-60zM206 866q0 60 19 80t49 20
q23 0 38.5 -10t28 -20t25.5 -10q17 0 26 12.5t9 27.5h40q0 -60 -18.5 -80t-48.5 -20q-22 0 -38 10t-28.5 20t-26.5 10q-17 0 -26 -12.5t-9 -27.5h-40z" />
    <glyph glyph-name="uni1EAB" unicode="&#x1eab;" 
d="M199 -10q-83 0 -126.5 37.5t-43.5 97.5q0 48 22.5 81.5t81.5 51t166 17.5h15q0 90 -25 125t-70 35q-34 0 -61 -17t-39 -73h-55q0 26 3.5 53t21.5 47t59.5 27.5t90.5 7.5q98 0 151.5 -52t53.5 -158v-270h-85l-35 45h-5q-5 -8 -12.5 -15t-15.5 -13q-14 -11 -37 -19t-55 -8z
M229 40q23 0 38.5 10t26.5 22q13 14 20 33v125h-15q-72 0 -103.5 -26t-31.5 -79q0 -42 17.5 -63.5t47.5 -21.5zM103 525l80 125h130l80 -125h-60l-85 80l-85 -80h-60zM130 676q0 60 19 80t49 20q23 0 38.5 -10t28 -20t25.5 -10q17 0 26 12.5t9 27.5h40q0 -60 -18.5 -80
t-48.5 -20q-22 0 -38 10t-28.5 20t-26.5 10q-17 0 -26 -12.5t-9 -27.5h-40z" />
    <glyph glyph-name="uni1EAC" unicode="&#x1eac;" horiz-adv-x="647" 
d="M628 -4q-33 0 -69.5 8.5t-70 36.5t-57.5 85l-23 56h-266l-82 -182h-52l295 660h45l224 -534q18 -44 44 -70t60 -30v-25q-8 -2 -22.5 -3.5t-25.5 -1.5zM163 227h226l-110 261zM324 -173q-24 0 -37 14t-13 37q0 22 13 36t37 14q25 0 38 -14t13 -36q0 -23 -13 -37t-38 -14z
M179 715l80 125h130l80 -125h-60l-85 80l-85 -80h-60z" />
    <glyph glyph-name="uni1EAD" unicode="&#x1ead;" 
d="M199 -10q-83 0 -126.5 37.5t-43.5 97.5q0 48 22.5 81.5t81.5 51t166 17.5h15q0 90 -25 125t-70 35q-34 0 -61 -17t-39 -73h-55q0 26 3.5 53t21.5 47t59.5 27.5t90.5 7.5q98 0 151.5 -52t53.5 -158v-270h-85l-35 45h-5q-5 -8 -12.5 -15t-15.5 -13q-14 -11 -37 -19t-55 -8z
M229 40q23 0 38.5 10t26.5 22q13 14 20 33v125h-15q-72 0 -103.5 -26t-31.5 -79q0 -42 17.5 -63.5t47.5 -21.5zM248 -173q-24 0 -37 14t-13 37q0 22 13 36t37 14q25 0 38 -14t13 -36q0 -23 -13 -37t-38 -14zM103 525l80 125h130l80 -125h-60l-85 80l-85 -80h-60z" />
    <glyph glyph-name="uni1EAE" unicode="&#x1eae;" horiz-adv-x="647" 
d="M628 -4q-33 0 -69.5 8.5t-70 36.5t-57.5 85l-23 56h-266l-82 -182h-52l295 660h45l224 -534q18 -44 44 -70t60 -30v-25q-8 -2 -22.5 -3.5t-25.5 -1.5zM163 227h226l-110 261zM324 690q-49 0 -85.5 26t-55.5 68l28 21q15 -19 43 -34.5t70 -15.5t70 15.5t43 34.5l28 -21
q-19 -42 -55.5 -68t-85.5 -26zM293 850l42 140h119l-106 -140h-55z" />
    <glyph glyph-name="uni1EAF" unicode="&#x1eaf;" 
d="M199 -10q-83 0 -126.5 37.5t-43.5 97.5q0 48 22.5 81.5t81.5 51t166 17.5h15q0 90 -25 125t-70 35q-34 0 -61 -17t-39 -73h-55q0 26 3.5 53t21.5 47t59.5 27.5t90.5 7.5q98 0 151.5 -52t53.5 -158v-270h-85l-35 45h-5q-5 -8 -12.5 -15t-15.5 -13q-14 -11 -37 -19t-55 -8z
M229 40q23 0 38.5 10t26.5 22q13 14 20 33v125h-15q-72 0 -103.5 -26t-31.5 -79q0 -42 17.5 -63.5t47.5 -21.5zM248 500q-49 0 -85.5 26t-55.5 68l28 21q15 -19 43 -34.5t70 -15.5t70 15.5t43 34.5l28 -21q-19 -42 -55.5 -68t-85.5 -26zM217 660l42 140h119l-106 -140h-55z
" />
    <glyph glyph-name="uni1EB0" unicode="&#x1eb0;" horiz-adv-x="647" 
d="M628 -4q-33 0 -69.5 8.5t-70 36.5t-57.5 85l-23 56h-266l-82 -182h-52l295 660h45l224 -534q18 -44 44 -70t60 -30v-25q-8 -2 -22.5 -3.5t-25.5 -1.5zM163 227h226l-110 261zM324 690q-49 0 -85.5 26t-55.5 68l28 21q15 -19 43 -34.5t70 -15.5t70 15.5t43 34.5l28 -21
q-19 -42 -55.5 -68t-85.5 -26zM319 850l-106 140h119l42 -140h-55z" />
    <glyph glyph-name="uni1EB1" unicode="&#x1eb1;" 
d="M199 -10q-83 0 -126.5 37.5t-43.5 97.5q0 48 22.5 81.5t81.5 51t166 17.5h15q0 90 -25 125t-70 35q-34 0 -61 -17t-39 -73h-55q0 26 3.5 53t21.5 47t59.5 27.5t90.5 7.5q98 0 151.5 -52t53.5 -158v-270h-85l-35 45h-5q-5 -8 -12.5 -15t-15.5 -13q-14 -11 -37 -19t-55 -8z
M229 40q23 0 38.5 10t26.5 22q13 14 20 33v125h-15q-72 0 -103.5 -26t-31.5 -79q0 -42 17.5 -63.5t47.5 -21.5zM248 500q-49 0 -85.5 26t-55.5 68l28 21q15 -19 43 -34.5t70 -15.5t70 15.5t43 34.5l28 -21q-19 -42 -55.5 -68t-85.5 -26zM243 660l-106 140h119l42 -140h-55z
" />
    <glyph glyph-name="uni1EB2" unicode="&#x1eb2;" horiz-adv-x="647" 
d="M628 -4q-33 0 -69.5 8.5t-70 36.5t-57.5 85l-23 56h-266l-82 -182h-52l295 660h45l224 -534q18 -44 44 -70t60 -30v-25q-8 -2 -22.5 -3.5t-25.5 -1.5zM163 227h226l-110 261zM324 690q-49 0 -85.5 26t-55.5 68l28 21q15 -19 43 -34.5t70 -15.5t70 15.5t43 34.5l28 -21
q-19 -42 -55.5 -68t-85.5 -26zM306 812q1 24 9 38t16 26t8 30q0 12 -9.5 20t-23.5 8q-17 0 -27.5 -10t-15.5 -42l-55 1q0 54 22 83.5t76 29.5q50 0 74.5 -24t24.5 -57q0 -23 -11 -37.5t-22.5 -28.5t-13.5 -37h-52z" />
    <glyph glyph-name="uni1EB3" unicode="&#x1eb3;" 
d="M199 -10q-83 0 -126.5 37.5t-43.5 97.5q0 48 22.5 81.5t81.5 51t166 17.5h15q0 90 -25 125t-70 35q-34 0 -61 -17t-39 -73h-55q0 26 3.5 53t21.5 47t59.5 27.5t90.5 7.5q98 0 151.5 -52t53.5 -158v-270h-85l-35 45h-5q-5 -8 -12.5 -15t-15.5 -13q-14 -11 -37 -19t-55 -8z
M229 40q23 0 38.5 10t26.5 22q13 14 20 33v125h-15q-72 0 -103.5 -26t-31.5 -79q0 -42 17.5 -63.5t47.5 -21.5zM248 500q-49 0 -85.5 26t-55.5 68l28 21q15 -19 43 -34.5t70 -15.5t70 15.5t43 34.5l28 -21q-19 -42 -55.5 -68t-85.5 -26zM230 622q1 24 9 38t16 26t8 30
q0 12 -9.5 20t-23.5 8q-17 0 -27.5 -10t-15.5 -42l-55 1q0 54 22 83.5t76 29.5q50 0 74.5 -24t24.5 -57q0 -23 -11 -37.5t-22.5 -28.5t-13.5 -37h-52z" />
    <glyph glyph-name="uni1EB4" unicode="&#x1eb4;" horiz-adv-x="647" 
d="M628 -4q-33 0 -69.5 8.5t-70 36.5t-57.5 85l-23 56h-266l-82 -182h-52l295 660h45l224 -534q18 -44 44 -70t60 -30v-25q-8 -2 -22.5 -3.5t-25.5 -1.5zM163 227h226l-110 261zM324 690q-49 0 -85.5 26t-55.5 68l28 21q15 -19 43 -34.5t70 -15.5t70 15.5t43 34.5l28 -21
q-19 -42 -55.5 -68t-85.5 -26zM206 850q0 60 19 80t49 20q23 0 38.5 -10t28 -20t25.5 -10q17 0 26 12.5t9 27.5h40q0 -60 -18.5 -80t-48.5 -20q-22 0 -38 10t-28.5 20t-26.5 10q-17 0 -26 -12.5t-9 -27.5h-40z" />
    <glyph glyph-name="uni1EB5" unicode="&#x1eb5;" 
d="M199 -10q-83 0 -126.5 37.5t-43.5 97.5q0 48 22.5 81.5t81.5 51t166 17.5h15q0 90 -25 125t-70 35q-34 0 -61 -17t-39 -73h-55q0 26 3.5 53t21.5 47t59.5 27.5t90.5 7.5q98 0 151.5 -52t53.5 -158v-270h-85l-35 45h-5q-5 -8 -12.5 -15t-15.5 -13q-14 -11 -37 -19t-55 -8z
M229 40q23 0 38.5 10t26.5 22q13 14 20 33v125h-15q-72 0 -103.5 -26t-31.5 -79q0 -42 17.5 -63.5t47.5 -21.5zM248 500q-49 0 -85.5 26t-55.5 68l28 21q15 -19 43 -34.5t70 -15.5t70 15.5t43 34.5l28 -21q-19 -42 -55.5 -68t-85.5 -26zM130 660q0 60 19 80t49 20
q23 0 38.5 -10t28 -20t25.5 -10q17 0 26 12.5t9 27.5h40q0 -60 -18.5 -80t-48.5 -20q-22 0 -38 10t-28.5 20t-26.5 10q-17 0 -26 -12.5t-9 -27.5h-40z" />
    <glyph glyph-name="uni1EB6" unicode="&#x1eb6;" horiz-adv-x="647" 
d="M628 -4q-33 0 -69.5 8.5t-70 36.5t-57.5 85l-23 56h-266l-82 -182h-52l295 660h45l224 -534q18 -44 44 -70t60 -30v-25q-8 -2 -22.5 -3.5t-25.5 -1.5zM163 227h226l-110 261zM324 -173q-24 0 -37 14t-13 37q0 22 13 36t37 14q25 0 38 -14t13 -36q0 -23 -13 -37t-38 -14z
M324 690q-49 0 -85.5 26t-55.5 68l28 21q15 -19 43 -34.5t70 -15.5t70 15.5t43 34.5l28 -21q-19 -42 -55.5 -68t-85.5 -26z" />
    <glyph glyph-name="uni1EB7" unicode="&#x1eb7;" 
d="M199 -10q-83 0 -126.5 37.5t-43.5 97.5q0 48 22.5 81.5t81.5 51t166 17.5h15q0 90 -25 125t-70 35q-34 0 -61 -17t-39 -73h-55q0 26 3.5 53t21.5 47t59.5 27.5t90.5 7.5q98 0 151.5 -52t53.5 -158v-270h-85l-35 45h-5q-5 -8 -12.5 -15t-15.5 -13q-14 -11 -37 -19t-55 -8z
M229 40q23 0 38.5 10t26.5 22q13 14 20 33v125h-15q-72 0 -103.5 -26t-31.5 -79q0 -42 17.5 -63.5t47.5 -21.5zM248 -173q-24 0 -37 14t-13 37q0 22 13 36t37 14q25 0 38 -14t13 -36q0 -23 -13 -37t-38 -14zM248 500q-49 0 -85.5 26t-55.5 68l28 21q15 -19 43 -34.5
t70 -15.5t70 15.5t43 34.5l28 -21q-19 -42 -55.5 -68t-85.5 -26z" />
    <glyph glyph-name="uni1EB8" unicode="&#x1eb8;" horiz-adv-x="600" 
d="M95 0v530q0 45 -12.5 72.5t-57.5 27.5h-10v30h441q35 0 53 -11.5t25 -30t7 -38.5v-85h-30q0 64 -32.5 92t-92.5 28h-161v-250h260v-45h-260v-275h171q55 0 93.5 24.5t64.5 89.5l27 -10l-29 -79q-11 -32 -28.5 -51t-58.5 -19h-370zM300 -173q-24 0 -37 14t-13 37
q0 22 13 36t37 14q25 0 38 -14t13 -36q0 -23 -13 -37t-38 -14z" />
    <glyph glyph-name="uni1EB9" unicode="&#x1eb9;" horiz-adv-x="509" 
d="M267 -10q-70 0 -122 32t-80 87.5t-28 125.5q0 80 29 134.5t79 82.5t112 28t112 -25t79 -70t29 -105q0 -11 -0.5 -22.5t-1.5 -20.5l-2 -20h-301q0 -99 30.5 -140.5t79.5 -41.5q52 0 84.5 24t58.5 59l31 -23q-14 -22 -37.5 -46.5t-60 -41.5t-91.5 -17zM172 262h170
q0 99 -23.5 136t-61.5 37q-22 0 -41.5 -16t-31.5 -53.5t-12 -103.5zM255 -173q-24 0 -37 14t-13 37q0 22 13 36t37 14q25 0 38 -14t13 -36q0 -23 -13 -37t-38 -14z" />
    <glyph glyph-name="uni1EBA" unicode="&#x1eba;" horiz-adv-x="600" 
d="M95 0v530q0 45 -12.5 72.5t-57.5 27.5h-10v30h441q35 0 53 -11.5t25 -30t7 -38.5v-85h-30q0 64 -32.5 92t-92.5 28h-161v-250h260v-45h-260v-275h171q55 0 93.5 24.5t64.5 89.5l27 -10l-29 -79q-11 -32 -28.5 -51t-58.5 -19h-370zM300 711q1 24 9 38t16 26t8 30
q0 12 -9.5 20t-23.5 8q-17 0 -27.5 -10t-15.5 -42l-55 1q0 54 22 83.5t76 29.5q50 0 74.5 -24t24.5 -57q0 -23 -11 -37.5t-22.5 -28.5t-13.5 -37h-52z" />
    <glyph glyph-name="uni1EBB" unicode="&#x1ebb;" horiz-adv-x="509" 
d="M267 -10q-70 0 -122 32t-80 87.5t-28 125.5q0 80 29 134.5t79 82.5t112 28t112 -25t79 -70t29 -105q0 -11 -0.5 -22.5t-1.5 -20.5l-2 -20h-301q0 -99 30.5 -140.5t79.5 -41.5q52 0 84.5 24t58.5 59l31 -23q-14 -22 -37.5 -46.5t-60 -41.5t-91.5 -17zM172 262h170
q0 99 -23.5 136t-61.5 37q-22 0 -41.5 -16t-31.5 -53.5t-12 -103.5zM255 521q1 24 9 38t16 26t8 30q0 12 -9.5 20t-23.5 8q-17 0 -27.5 -10t-15.5 -42l-55 1q0 54 22 83.5t76 29.5q50 0 74.5 -24t24.5 -57q0 -23 -11 -37.5t-22.5 -28.5t-13.5 -37h-52z" />
    <glyph glyph-name="uni1EBC" unicode="&#x1ebc;" horiz-adv-x="600" 
d="M95 0v530q0 45 -12.5 72.5t-57.5 27.5h-10v30h441q35 0 53 -11.5t25 -30t7 -38.5v-85h-30q0 64 -32.5 92t-92.5 28h-161v-250h260v-45h-260v-275h171q55 0 93.5 24.5t64.5 89.5l27 -10l-29 -79q-11 -32 -28.5 -51t-58.5 -19h-370zM182 740q0 60 19 80t49 20
q23 0 38.5 -10t28 -20t25.5 -10q17 0 26 12.5t9 27.5h40q0 -60 -18.5 -80t-48.5 -20q-22 0 -38 10t-28.5 20t-26.5 10q-17 0 -26 -12.5t-9 -27.5h-40z" />
    <glyph glyph-name="uni1EBD" unicode="&#x1ebd;" horiz-adv-x="509" 
d="M267 -10q-70 0 -122 32t-80 87.5t-28 125.5q0 80 29 134.5t79 82.5t112 28t112 -25t79 -70t29 -105q0 -11 -0.5 -22.5t-1.5 -20.5l-2 -20h-301q0 -99 30.5 -140.5t79.5 -41.5q52 0 84.5 24t58.5 59l31 -23q-14 -22 -37.5 -46.5t-60 -41.5t-91.5 -17zM172 262h170
q0 99 -23.5 136t-61.5 37q-22 0 -41.5 -16t-31.5 -53.5t-12 -103.5zM137 550q0 60 19 80t49 20q23 0 38.5 -10t28 -20t25.5 -10q17 0 26 12.5t9 27.5h40q0 -60 -18.5 -80t-48.5 -20q-22 0 -38 10t-28.5 20t-26.5 10q-17 0 -26 -12.5t-9 -27.5h-40z" />
    <glyph glyph-name="uni1EBE" unicode="&#x1ebe;" horiz-adv-x="600" 
d="M95 0v530q0 45 -12.5 72.5t-57.5 27.5h-10v30h441q35 0 53 -11.5t25 -30t7 -38.5v-85h-30q0 64 -32.5 92t-92.5 28h-161v-250h260v-45h-260v-275h171q55 0 93.5 24.5t64.5 89.5l27 -10l-29 -79q-11 -32 -28.5 -51t-58.5 -19h-370zM155 715l80 125h130l80 -125h-60l-85 80
l-85 -80h-60zM428 782l42 140h119l-106 -140h-55z" />
    <glyph glyph-name="uni1EBF" unicode="&#x1ebf;" horiz-adv-x="509" 
d="M267 -10q-70 0 -122 32t-80 87.5t-28 125.5q0 80 29 134.5t79 82.5t112 28t112 -25t79 -70t29 -105q0 -11 -0.5 -22.5t-1.5 -20.5l-2 -20h-301q0 -99 30.5 -140.5t79.5 -41.5q52 0 84.5 24t58.5 59l31 -23q-14 -22 -37.5 -46.5t-60 -41.5t-91.5 -17zM172 262h170
q0 99 -23.5 136t-61.5 37q-22 0 -41.5 -16t-31.5 -53.5t-12 -103.5zM110 525l80 125h130l80 -125h-60l-85 80l-85 -80h-60zM383 592l42 140h119l-106 -140h-55z" />
    <glyph glyph-name="uni1EC0" unicode="&#x1ec0;" horiz-adv-x="600" 
d="M95 0v530q0 45 -12.5 72.5t-57.5 27.5h-10v30h441q35 0 53 -11.5t25 -30t7 -38.5v-85h-30q0 64 -32.5 92t-92.5 28h-161v-250h260v-45h-260v-275h171q55 0 93.5 24.5t64.5 89.5l27 -10l-29 -79q-11 -32 -28.5 -51t-58.5 -19h-370zM155 715l80 125h130l80 -125h-60l-85 80
l-85 -80h-60zM440 802l-106 140h119l42 -140h-55z" />
    <glyph glyph-name="uni1EC1" unicode="&#x1ec1;" horiz-adv-x="509" 
d="M267 -10q-70 0 -122 32t-80 87.5t-28 125.5q0 80 29 134.5t79 82.5t112 28t112 -25t79 -70t29 -105q0 -11 -0.5 -22.5t-1.5 -20.5l-2 -20h-301q0 -99 30.5 -140.5t79.5 -41.5q52 0 84.5 24t58.5 59l31 -23q-14 -22 -37.5 -46.5t-60 -41.5t-91.5 -17zM172 262h170
q0 99 -23.5 136t-61.5 37q-22 0 -41.5 -16t-31.5 -53.5t-12 -103.5zM110 525l80 125h130l80 -125h-60l-85 80l-85 -80h-60zM395 612l-106 140h119l42 -140h-55z" />
    <glyph glyph-name="uni1EC2" unicode="&#x1ec2;" horiz-adv-x="600" 
d="M95 0v530q0 45 -12.5 72.5t-57.5 27.5h-10v30h441q35 0 53 -11.5t25 -30t7 -38.5v-85h-30q0 64 -32.5 92t-92.5 28h-161v-250h260v-45h-260v-275h171q55 0 93.5 24.5t64.5 89.5l27 -10l-29 -79q-11 -32 -28.5 -51t-58.5 -19h-370zM155 715l80 125h130l80 -125h-60l-85 80
l-85 -80h-60zM431 808q1 24 9 38t16 26t8 30q0 12 -9.5 20t-23.5 8q-17 0 -27.5 -10t-15.5 -42l-55 1q0 54 22 83.5t76 29.5q50 0 74.5 -24t24.5 -57q0 -23 -11 -37.5t-22.5 -28.5t-13.5 -37h-52z" />
    <glyph glyph-name="uni1EC3" unicode="&#x1ec3;" horiz-adv-x="509" 
d="M267 -10q-70 0 -122 32t-80 87.5t-28 125.5q0 80 29 134.5t79 82.5t112 28t112 -25t79 -70t29 -105q0 -11 -0.5 -22.5t-1.5 -20.5l-2 -20h-301q0 -99 30.5 -140.5t79.5 -41.5q52 0 84.5 24t58.5 59l31 -23q-14 -22 -37.5 -46.5t-60 -41.5t-91.5 -17zM172 262h170
q0 99 -23.5 136t-61.5 37q-22 0 -41.5 -16t-31.5 -53.5t-12 -103.5zM110 525l80 125h130l80 -125h-60l-85 80l-85 -80h-60zM386 618q1 24 9 38t16 26t8 30q0 12 -9.5 20t-23.5 8q-17 0 -27.5 -10t-15.5 -42l-55 1q0 54 22 83.5t76 29.5q50 0 74.5 -24t24.5 -57
q0 -23 -11 -37.5t-22.5 -28.5t-13.5 -37h-52z" />
    <glyph glyph-name="uni1EC4" unicode="&#x1ec4;" horiz-adv-x="600" 
d="M95 0v530q0 45 -12.5 72.5t-57.5 27.5h-10v30h441q35 0 53 -11.5t25 -30t7 -38.5v-85h-30q0 64 -32.5 92t-92.5 28h-161v-250h260v-45h-260v-275h171q55 0 93.5 24.5t64.5 89.5l27 -10l-29 -79q-11 -32 -28.5 -51t-58.5 -19h-370zM155 715l80 125h130l80 -125h-60l-85 80
l-85 -80h-60zM182 866q0 60 19 80t49 20q23 0 38.5 -10t28 -20t25.5 -10q17 0 26 12.5t9 27.5h40q0 -60 -18.5 -80t-48.5 -20q-22 0 -38 10t-28.5 20t-26.5 10q-17 0 -26 -12.5t-9 -27.5h-40z" />
    <glyph glyph-name="uni1EC5" unicode="&#x1ec5;" horiz-adv-x="509" 
d="M267 -10q-70 0 -122 32t-80 87.5t-28 125.5q0 80 29 134.5t79 82.5t112 28t112 -25t79 -70t29 -105q0 -11 -0.5 -22.5t-1.5 -20.5l-2 -20h-301q0 -99 30.5 -140.5t79.5 -41.5q52 0 84.5 24t58.5 59l31 -23q-14 -22 -37.5 -46.5t-60 -41.5t-91.5 -17zM172 262h170
q0 99 -23.5 136t-61.5 37q-22 0 -41.5 -16t-31.5 -53.5t-12 -103.5zM110 525l80 125h130l80 -125h-60l-85 80l-85 -80h-60zM137 676q0 60 19 80t49 20q23 0 38.5 -10t28 -20t25.5 -10q17 0 26 12.5t9 27.5h40q0 -60 -18.5 -80t-48.5 -20q-22 0 -38 10t-28.5 20t-26.5 10
q-17 0 -26 -12.5t-9 -27.5h-40z" />
    <glyph glyph-name="uni1EC6" unicode="&#x1ec6;" horiz-adv-x="600" 
d="M95 0v530q0 45 -12.5 72.5t-57.5 27.5h-10v30h441q35 0 53 -11.5t25 -30t7 -38.5v-85h-30q0 64 -32.5 92t-92.5 28h-161v-250h260v-45h-260v-275h171q55 0 93.5 24.5t64.5 89.5l27 -10l-29 -79q-11 -32 -28.5 -51t-58.5 -19h-370zM300 -173q-24 0 -37 14t-13 37
q0 22 13 36t37 14q25 0 38 -14t13 -36q0 -23 -13 -37t-38 -14zM155 715l80 125h130l80 -125h-60l-85 80l-85 -80h-60z" />
    <glyph glyph-name="uni1EC7" unicode="&#x1ec7;" horiz-adv-x="509" 
d="M267 -10q-70 0 -122 32t-80 87.5t-28 125.5q0 80 29 134.5t79 82.5t112 28t112 -25t79 -70t29 -105q0 -11 -0.5 -22.5t-1.5 -20.5l-2 -20h-301q0 -99 30.5 -140.5t79.5 -41.5q52 0 84.5 24t58.5 59l31 -23q-14 -22 -37.5 -46.5t-60 -41.5t-91.5 -17zM172 262h170
q0 99 -23.5 136t-61.5 37q-22 0 -41.5 -16t-31.5 -53.5t-12 -103.5zM255 -173q-24 0 -37 14t-13 37q0 22 13 36t37 14q25 0 38 -14t13 -36q0 -23 -13 -37t-38 -14zM110 525l80 125h130l80 -125h-60l-85 80l-85 -80h-60z" />
    <glyph glyph-name="uni1EC8" unicode="&#x1ec8;" horiz-adv-x="304" 
d="M169 0q-52 0 -71 27t-19 103v530h130v-530q0 -45 12.5 -72.5t57.5 -27.5h10v-30h-120zM152 711q1 24 9 38t16 26t8 30q0 12 -9.5 20t-23.5 8q-17 0 -27.5 -10t-15.5 -42l-55 1q0 54 22 83.5t76 29.5q50 0 74.5 -24t24.5 -57q0 -23 -11 -37.5t-22.5 -28.5t-13.5 -37h-52z
" />
    <glyph glyph-name="uni1EC9" unicode="&#x1ec9;" horiz-adv-x="267" 
d="M79 0v340q0 45 -12.5 72.5t-57.5 27.5h-10v30h120q53 0 71.5 -28t18.5 -102v-340h-130zM134 521q1 24 9 38t16 26t8 30q0 12 -9.5 20t-23.5 8q-17 0 -27.5 -10t-15.5 -42l-55 1q0 54 22 83.5t76 29.5q50 0 74.5 -24t24.5 -57q0 -23 -11 -37.5t-22.5 -28.5t-13.5 -37h-52z
" />
    <glyph glyph-name="uni1ECA" unicode="&#x1eca;" horiz-adv-x="304" 
d="M169 0q-52 0 -71 27t-19 103v530h130v-530q0 -45 12.5 -72.5t57.5 -27.5h10v-30h-120zM152 -173q-24 0 -37 14t-13 37q0 22 13 36t37 14q25 0 38 -14t13 -36q0 -23 -13 -37t-38 -14z" />
    <glyph glyph-name="uni1ECB" unicode="&#x1ecb;" horiz-adv-x="267" 
d="M144 524q-38 0 -56.5 23t-18.5 53q0 26 16 41t39 15q38 0 56.5 -23t18.5 -53q0 -26 -16 -41t-39 -15zM79 0v340q0 45 -12.5 72.5t-57.5 27.5h-10v30h120q53 0 71.5 -28t18.5 -102v-340h-130zM134 -173q-24 0 -37 14t-13 37q0 22 13 36t37 14q25 0 38 -14t13 -36
q0 -23 -13 -37t-38 -14z" />
    <glyph glyph-name="uni1ECC" unicode="&#x1ecc;" horiz-adv-x="733" 
d="M367 -20q-99 0 -173.5 46.5t-115.5 125.5t-41 178t41 178t115.5 125.5t173.5 46.5q100 0 173.5 -46.5t114.5 -125.5t41 -178t-41 -178t-114.5 -125.5t-173.5 -46.5zM367 25q91 0 141 79.5t50 225.5t-50 225.5t-141 79.5t-140.5 -79.5t-49.5 -225.5t49.5 -225.5
t140.5 -79.5zM367 -173q-24 0 -37 14t-13 37q0 22 13 36t37 14q25 0 38 -14t13 -36q0 -23 -13 -37t-38 -14z" />
    <glyph glyph-name="uni1ECD" unicode="&#x1ecd;" horiz-adv-x="552" 
d="M276 -10q-74 0 -128 32.5t-83 88.5t-29 124q0 69 29 124.5t83 88t128 32.5q75 0 128.5 -32.5t82.5 -88t29 -124.5q0 -68 -29 -124t-82.5 -88.5t-128.5 -32.5zM276 35q35 0 58.5 26t35 71.5t11.5 102.5q0 58 -11.5 103t-35 71t-58.5 26t-58.5 -26t-35 -71t-11.5 -103
q0 -57 11.5 -102.5t35 -71.5t58.5 -26zM276 -173q-24 0 -37 14t-13 37q0 22 13 36t37 14q25 0 38 -14t13 -36q0 -23 -13 -37t-38 -14z" />
    <glyph glyph-name="uni1ECE" unicode="&#x1ece;" horiz-adv-x="733" 
d="M367 -20q-99 0 -173.5 46.5t-115.5 125.5t-41 178t41 178t115.5 125.5t173.5 46.5q100 0 173.5 -46.5t114.5 -125.5t41 -178t-41 -178t-114.5 -125.5t-173.5 -46.5zM367 25q91 0 141 79.5t50 225.5t-50 225.5t-141 79.5t-140.5 -79.5t-49.5 -225.5t49.5 -225.5
t140.5 -79.5zM367 711q1 24 9 38t16 26t8 30q0 12 -9.5 20t-23.5 8q-17 0 -27.5 -10t-15.5 -42l-55 1q0 54 22 83.5t76 29.5q50 0 74.5 -24t24.5 -57q0 -23 -11 -37.5t-22.5 -28.5t-13.5 -37h-52z" />
    <glyph glyph-name="uni1ECF" unicode="&#x1ecf;" horiz-adv-x="552" 
d="M276 -10q-74 0 -128 32.5t-83 88.5t-29 124q0 69 29 124.5t83 88t128 32.5q75 0 128.5 -32.5t82.5 -88t29 -124.5q0 -68 -29 -124t-82.5 -88.5t-128.5 -32.5zM276 35q35 0 58.5 26t35 71.5t11.5 102.5q0 58 -11.5 103t-35 71t-58.5 26t-58.5 -26t-35 -71t-11.5 -103
q0 -57 11.5 -102.5t35 -71.5t58.5 -26zM276 521q1 24 9 38t16 26t8 30q0 12 -9.5 20t-23.5 8q-17 0 -27.5 -10t-15.5 -42l-55 1q0 54 22 83.5t76 29.5q50 0 74.5 -24t24.5 -57q0 -23 -11 -37.5t-22.5 -28.5t-13.5 -37h-52z" />
    <glyph glyph-name="uni1ED0" unicode="&#x1ed0;" horiz-adv-x="733" 
d="M367 -20q-99 0 -173.5 46.5t-115.5 125.5t-41 178t41 178t115.5 125.5t173.5 46.5q100 0 173.5 -46.5t114.5 -125.5t41 -178t-41 -178t-114.5 -125.5t-173.5 -46.5zM367 25q91 0 141 79.5t50 225.5t-50 225.5t-141 79.5t-140.5 -79.5t-49.5 -225.5t49.5 -225.5
t140.5 -79.5zM222 715l80 125h130l80 -125h-60l-85 80l-85 -80h-60zM495 782l42 140h119l-106 -140h-55z" />
    <glyph glyph-name="uni1ED1" unicode="&#x1ed1;" horiz-adv-x="552" 
d="M276 -10q-74 0 -128 32.5t-83 88.5t-29 124q0 69 29 124.5t83 88t128 32.5q75 0 128.5 -32.5t82.5 -88t29 -124.5q0 -68 -29 -124t-82.5 -88.5t-128.5 -32.5zM276 35q35 0 58.5 26t35 71.5t11.5 102.5q0 58 -11.5 103t-35 71t-58.5 26t-58.5 -26t-35 -71t-11.5 -103
q0 -57 11.5 -102.5t35 -71.5t58.5 -26zM131 525l80 125h130l80 -125h-60l-85 80l-85 -80h-60zM404 592l42 140h119l-106 -140h-55z" />
    <glyph glyph-name="uni1ED2" unicode="&#x1ed2;" horiz-adv-x="733" 
d="M367 -20q-99 0 -173.5 46.5t-115.5 125.5t-41 178t41 178t115.5 125.5t173.5 46.5q100 0 173.5 -46.5t114.5 -125.5t41 -178t-41 -178t-114.5 -125.5t-173.5 -46.5zM367 25q91 0 141 79.5t50 225.5t-50 225.5t-141 79.5t-140.5 -79.5t-49.5 -225.5t49.5 -225.5
t140.5 -79.5zM222 715l80 125h130l80 -125h-60l-85 80l-85 -80h-60zM507 802l-106 140h119l42 -140h-55z" />
    <glyph glyph-name="uni1ED3" unicode="&#x1ed3;" horiz-adv-x="552" 
d="M276 -10q-74 0 -128 32.5t-83 88.5t-29 124q0 69 29 124.5t83 88t128 32.5q75 0 128.5 -32.5t82.5 -88t29 -124.5q0 -68 -29 -124t-82.5 -88.5t-128.5 -32.5zM276 35q35 0 58.5 26t35 71.5t11.5 102.5q0 58 -11.5 103t-35 71t-58.5 26t-58.5 -26t-35 -71t-11.5 -103
q0 -57 11.5 -102.5t35 -71.5t58.5 -26zM131 525l80 125h130l80 -125h-60l-85 80l-85 -80h-60zM416 612l-106 140h119l42 -140h-55z" />
    <glyph glyph-name="uni1ED4" unicode="&#x1ed4;" horiz-adv-x="733" 
d="M367 -20q-99 0 -173.5 46.5t-115.5 125.5t-41 178t41 178t115.5 125.5t173.5 46.5q100 0 173.5 -46.5t114.5 -125.5t41 -178t-41 -178t-114.5 -125.5t-173.5 -46.5zM367 25q91 0 141 79.5t50 225.5t-50 225.5t-141 79.5t-140.5 -79.5t-49.5 -225.5t49.5 -225.5
t140.5 -79.5zM222 715l80 125h130l80 -125h-60l-85 80l-85 -80h-60zM498 808q1 24 9 38t16 26t8 30q0 12 -9.5 20t-23.5 8q-17 0 -27.5 -10t-15.5 -42l-55 1q0 54 22 83.5t76 29.5q50 0 74.5 -24t24.5 -57q0 -23 -11 -37.5t-22.5 -28.5t-13.5 -37h-52z" />
    <glyph glyph-name="uni1ED5" unicode="&#x1ed5;" horiz-adv-x="552" 
d="M276 -10q-74 0 -128 32.5t-83 88.5t-29 124q0 69 29 124.5t83 88t128 32.5q75 0 128.5 -32.5t82.5 -88t29 -124.5q0 -68 -29 -124t-82.5 -88.5t-128.5 -32.5zM276 35q35 0 58.5 26t35 71.5t11.5 102.5q0 58 -11.5 103t-35 71t-58.5 26t-58.5 -26t-35 -71t-11.5 -103
q0 -57 11.5 -102.5t35 -71.5t58.5 -26zM131 525l80 125h130l80 -125h-60l-85 80l-85 -80h-60zM407 618q1 24 9 38t16 26t8 30q0 12 -9.5 20t-23.5 8q-17 0 -27.5 -10t-15.5 -42l-55 1q0 54 22 83.5t76 29.5q50 0 74.5 -24t24.5 -57q0 -23 -11 -37.5t-22.5 -28.5t-13.5 -37
h-52z" />
    <glyph glyph-name="uni1ED6" unicode="&#x1ed6;" horiz-adv-x="733" 
d="M367 -20q-99 0 -173.5 46.5t-115.5 125.5t-41 178t41 178t115.5 125.5t173.5 46.5q100 0 173.5 -46.5t114.5 -125.5t41 -178t-41 -178t-114.5 -125.5t-173.5 -46.5zM367 25q91 0 141 79.5t50 225.5t-50 225.5t-141 79.5t-140.5 -79.5t-49.5 -225.5t49.5 -225.5
t140.5 -79.5zM222 715l80 125h130l80 -125h-60l-85 80l-85 -80h-60zM249 866q0 60 19 80t49 20q23 0 38.5 -10t28 -20t25.5 -10q17 0 26 12.5t9 27.5h40q0 -60 -18.5 -80t-48.5 -20q-22 0 -38 10t-28.5 20t-26.5 10q-17 0 -26 -12.5t-9 -27.5h-40z" />
    <glyph glyph-name="uni1ED7" unicode="&#x1ed7;" horiz-adv-x="552" 
d="M276 -10q-74 0 -128 32.5t-83 88.5t-29 124q0 69 29 124.5t83 88t128 32.5q75 0 128.5 -32.5t82.5 -88t29 -124.5q0 -68 -29 -124t-82.5 -88.5t-128.5 -32.5zM276 35q35 0 58.5 26t35 71.5t11.5 102.5q0 58 -11.5 103t-35 71t-58.5 26t-58.5 -26t-35 -71t-11.5 -103
q0 -57 11.5 -102.5t35 -71.5t58.5 -26zM131 525l80 125h130l80 -125h-60l-85 80l-85 -80h-60zM158 676q0 60 19 80t49 20q23 0 38.5 -10t28 -20t25.5 -10q17 0 26 12.5t9 27.5h40q0 -60 -18.5 -80t-48.5 -20q-22 0 -38 10t-28.5 20t-26.5 10q-17 0 -26 -12.5t-9 -27.5h-40z
" />
    <glyph glyph-name="uni1ED8" unicode="&#x1ed8;" horiz-adv-x="733" 
d="M367 -20q-99 0 -173.5 46.5t-115.5 125.5t-41 178t41 178t115.5 125.5t173.5 46.5q100 0 173.5 -46.5t114.5 -125.5t41 -178t-41 -178t-114.5 -125.5t-173.5 -46.5zM367 25q91 0 141 79.5t50 225.5t-50 225.5t-141 79.5t-140.5 -79.5t-49.5 -225.5t49.5 -225.5
t140.5 -79.5zM367 -173q-24 0 -37 14t-13 37q0 22 13 36t37 14q25 0 38 -14t13 -36q0 -23 -13 -37t-38 -14zM222 715l80 125h130l80 -125h-60l-85 80l-85 -80h-60z" />
    <glyph glyph-name="uni1ED9" unicode="&#x1ed9;" horiz-adv-x="552" 
d="M276 -10q-74 0 -128 32.5t-83 88.5t-29 124q0 69 29 124.5t83 88t128 32.5q75 0 128.5 -32.5t82.5 -88t29 -124.5q0 -68 -29 -124t-82.5 -88.5t-128.5 -32.5zM276 35q35 0 58.5 26t35 71.5t11.5 102.5q0 58 -11.5 103t-35 71t-58.5 26t-58.5 -26t-35 -71t-11.5 -103
q0 -57 11.5 -102.5t35 -71.5t58.5 -26zM276 -173q-24 0 -37 14t-13 37q0 22 13 36t37 14q25 0 38 -14t13 -36q0 -23 -13 -37t-38 -14zM131 525l80 125h130l80 -125h-60l-85 80l-85 -80h-60z" />
    <glyph glyph-name="uni1EDA" unicode="&#x1eda;" horiz-adv-x="733" 
d="M367 -20q-99 0 -173.5 46.5t-115.5 125.5t-41 178t41 178t115.5 125.5t173.5 46.5q100 0 173.5 -46.5t114.5 -125.5t41 -178t-41 -178t-114.5 -125.5t-173.5 -46.5zM367 25q91 0 141 79.5t50 225.5t-50 225.5t-141 79.5t-140.5 -79.5t-49.5 -225.5t49.5 -225.5
t140.5 -79.5zM475 616v43q36 0 58 16t32 40t10 48h80q0 -34 -19 -68t-59 -56.5t-102 -22.5zM336 705l42 140h119l-106 -140h-55z" />
    <glyph glyph-name="uni1EDB" unicode="&#x1edb;" horiz-adv-x="552" 
d="M276 -10q-74 0 -128 32.5t-83 88.5t-29 124q0 69 29 124.5t83 88t128 32.5q75 0 128.5 -32.5t82.5 -88t29 -124.5q0 -68 -29 -124t-82.5 -88.5t-128.5 -32.5zM276 35q35 0 58.5 26t35 71.5t11.5 102.5q0 58 -11.5 103t-35 71t-58.5 26t-58.5 -26t-35 -71t-11.5 -103
q0 -57 11.5 -102.5t35 -71.5t58.5 -26zM353 426v43q36 0 58 16t32 40t10 48h80q0 -34 -19 -68t-59 -56.5t-102 -22.5zM245 515l42 140h119l-106 -140h-55z" />
    <glyph glyph-name="uni1EDC" unicode="&#x1edc;" horiz-adv-x="733" 
d="M367 -20q-99 0 -173.5 46.5t-115.5 125.5t-41 178t41 178t115.5 125.5t173.5 46.5q100 0 173.5 -46.5t114.5 -125.5t41 -178t-41 -178t-114.5 -125.5t-173.5 -46.5zM367 25q91 0 141 79.5t50 225.5t-50 225.5t-141 79.5t-140.5 -79.5t-49.5 -225.5t49.5 -225.5
t140.5 -79.5zM475 616v43q36 0 58 16t32 40t10 48h80q0 -34 -19 -68t-59 -56.5t-102 -22.5zM362 705l-106 140h119l42 -140h-55z" />
    <glyph glyph-name="uni1EDD" unicode="&#x1edd;" horiz-adv-x="552" 
d="M276 -10q-74 0 -128 32.5t-83 88.5t-29 124q0 69 29 124.5t83 88t128 32.5q75 0 128.5 -32.5t82.5 -88t29 -124.5q0 -68 -29 -124t-82.5 -88.5t-128.5 -32.5zM276 35q35 0 58.5 26t35 71.5t11.5 102.5q0 58 -11.5 103t-35 71t-58.5 26t-58.5 -26t-35 -71t-11.5 -103
q0 -57 11.5 -102.5t35 -71.5t58.5 -26zM353 426v43q36 0 58 16t32 40t10 48h80q0 -34 -19 -68t-59 -56.5t-102 -22.5zM271 515l-106 140h119l42 -140h-55z" />
    <glyph glyph-name="uni1EDE" unicode="&#x1ede;" horiz-adv-x="733" 
d="M367 -20q-99 0 -173.5 46.5t-115.5 125.5t-41 178t41 178t115.5 125.5t173.5 46.5q100 0 173.5 -46.5t114.5 -125.5t41 -178t-41 -178t-114.5 -125.5t-173.5 -46.5zM367 25q91 0 141 79.5t50 225.5t-50 225.5t-141 79.5t-140.5 -79.5t-49.5 -225.5t49.5 -225.5
t140.5 -79.5zM475 616v43q36 0 58 16t32 40t10 48h80q0 -34 -19 -68t-59 -56.5t-102 -22.5zM367 711q1 24 9 38t16 26t8 30q0 12 -9.5 20t-23.5 8q-17 0 -27.5 -10t-15.5 -42l-55 1q0 54 22 83.5t76 29.5q50 0 74.5 -24t24.5 -57q0 -23 -11 -37.5t-22.5 -28.5t-13.5 -37h-52
z" />
    <glyph glyph-name="uni1EDF" unicode="&#x1edf;" horiz-adv-x="552" 
d="M276 -10q-74 0 -128 32.5t-83 88.5t-29 124q0 69 29 124.5t83 88t128 32.5q75 0 128.5 -32.5t82.5 -88t29 -124.5q0 -68 -29 -124t-82.5 -88.5t-128.5 -32.5zM276 35q35 0 58.5 26t35 71.5t11.5 102.5q0 58 -11.5 103t-35 71t-58.5 26t-58.5 -26t-35 -71t-11.5 -103
q0 -57 11.5 -102.5t35 -71.5t58.5 -26zM353 426v43q36 0 58 16t32 40t10 48h80q0 -34 -19 -68t-59 -56.5t-102 -22.5zM276 521q1 24 9 38t16 26t8 30q0 12 -9.5 20t-23.5 8q-17 0 -27.5 -10t-15.5 -42l-55 1q0 54 22 83.5t76 29.5q50 0 74.5 -24t24.5 -57q0 -23 -11 -37.5
t-22.5 -28.5t-13.5 -37h-52z" />
    <glyph glyph-name="uni1EE0" unicode="&#x1ee0;" horiz-adv-x="733" 
d="M367 -20q-99 0 -173.5 46.5t-115.5 125.5t-41 178t41 178t115.5 125.5t173.5 46.5q100 0 173.5 -46.5t114.5 -125.5t41 -178t-41 -178t-114.5 -125.5t-173.5 -46.5zM367 25q91 0 141 79.5t50 225.5t-50 225.5t-141 79.5t-140.5 -79.5t-49.5 -225.5t49.5 -225.5
t140.5 -79.5zM475 616v43q36 0 58 16t32 40t10 48h80q0 -34 -19 -68t-59 -56.5t-102 -22.5zM249 740q0 60 19 80t49 20q23 0 38.5 -10t28 -20t25.5 -10q17 0 26 12.5t9 27.5h40q0 -60 -18.5 -80t-48.5 -20q-22 0 -38 10t-28.5 20t-26.5 10q-17 0 -26 -12.5t-9 -27.5h-40z
" />
    <glyph glyph-name="uni1EE1" unicode="&#x1ee1;" horiz-adv-x="552" 
d="M276 -10q-74 0 -128 32.5t-83 88.5t-29 124q0 69 29 124.5t83 88t128 32.5q75 0 128.5 -32.5t82.5 -88t29 -124.5q0 -68 -29 -124t-82.5 -88.5t-128.5 -32.5zM276 35q35 0 58.5 26t35 71.5t11.5 102.5q0 58 -11.5 103t-35 71t-58.5 26t-58.5 -26t-35 -71t-11.5 -103
q0 -57 11.5 -102.5t35 -71.5t58.5 -26zM353 426v43q36 0 58 16t32 40t10 48h80q0 -34 -19 -68t-59 -56.5t-102 -22.5zM158 550q0 60 19 80t49 20q23 0 38.5 -10t28 -20t25.5 -10q17 0 26 12.5t9 27.5h40q0 -60 -18.5 -80t-48.5 -20q-22 0 -38 10t-28.5 20t-26.5 10
q-17 0 -26 -12.5t-9 -27.5h-40z" />
    <glyph glyph-name="uni1EE2" unicode="&#x1ee2;" horiz-adv-x="733" 
d="M367 -20q-99 0 -173.5 46.5t-115.5 125.5t-41 178t41 178t115.5 125.5t173.5 46.5q100 0 173.5 -46.5t114.5 -125.5t41 -178t-41 -178t-114.5 -125.5t-173.5 -46.5zM367 25q91 0 141 79.5t50 225.5t-50 225.5t-141 79.5t-140.5 -79.5t-49.5 -225.5t49.5 -225.5
t140.5 -79.5zM475 616v43q36 0 58 16t32 40t10 48h80q0 -34 -19 -68t-59 -56.5t-102 -22.5zM367 -173q-24 0 -37 14t-13 37q0 22 13 36t37 14q25 0 38 -14t13 -36q0 -23 -13 -37t-38 -14z" />
    <glyph glyph-name="uni1EE3" unicode="&#x1ee3;" horiz-adv-x="552" 
d="M276 -10q-74 0 -128 32.5t-83 88.5t-29 124q0 69 29 124.5t83 88t128 32.5q75 0 128.5 -32.5t82.5 -88t29 -124.5q0 -68 -29 -124t-82.5 -88.5t-128.5 -32.5zM276 35q35 0 58.5 26t35 71.5t11.5 102.5q0 58 -11.5 103t-35 71t-58.5 26t-58.5 -26t-35 -71t-11.5 -103
q0 -57 11.5 -102.5t35 -71.5t58.5 -26zM353 426v43q36 0 58 16t32 40t10 48h80q0 -34 -19 -68t-59 -56.5t-102 -22.5zM276 -173q-24 0 -37 14t-13 37q0 22 13 36t37 14q25 0 38 -14t13 -36q0 -23 -13 -37t-38 -14z" />
    <glyph glyph-name="uni1EE4" unicode="&#x1ee4;" horiz-adv-x="694" 
d="M362 -10q-270 0 -270 298v242q0 45 -12.5 72.5t-57.5 27.5v30h110q53 0 71.5 -28t18.5 -102l1 -272q1 -104 40.5 -163.5t118.5 -59.5q102 0 148.5 61t46.5 192v372h50v-372q0 -94 -25.5 -160.5t-83.5 -102t-156 -35.5zM347 -173q-24 0 -37 14t-13 37q0 22 13 36t37 14
q25 0 38 -14t13 -36q0 -23 -13 -37t-38 -14z" />
    <glyph glyph-name="uni1EE5" unicode="&#x1ee5;" horiz-adv-x="565" 
d="M255 -10q-94 0 -139.5 43.5t-45.5 140.5v166q0 45 -12.5 72.5t-57.5 27.5h-10v30h120q53 0 71.5 -28t18.5 -102v-167q0 -77 22 -107.5t63 -30.5q23 0 39.5 10t27.5 22q7 7 12.5 15t10.5 18v370h130v-470h-85l-35 45h-5q-14 -15 -33 -28q-16 -11 -39 -19t-53 -8zM283 -173
q-24 0 -37 14t-13 37q0 22 13 36t37 14q25 0 38 -14t13 -36q0 -23 -13 -37t-38 -14z" />
    <glyph glyph-name="uni1EE6" unicode="&#x1ee6;" horiz-adv-x="694" 
d="M362 -10q-270 0 -270 298v242q0 45 -12.5 72.5t-57.5 27.5v30h110q53 0 71.5 -28t18.5 -102l1 -272q1 -104 40.5 -163.5t118.5 -59.5q102 0 148.5 61t46.5 192v372h50v-372q0 -94 -25.5 -160.5t-83.5 -102t-156 -35.5zM347 711q1 24 9 38t16 26t8 30q0 12 -9.5 20
t-23.5 8q-17 0 -27.5 -10t-15.5 -42l-55 1q0 54 22 83.5t76 29.5q50 0 74.5 -24t24.5 -57q0 -23 -11 -37.5t-22.5 -28.5t-13.5 -37h-52z" />
    <glyph glyph-name="uni1EE7" unicode="&#x1ee7;" horiz-adv-x="565" 
d="M255 -10q-94 0 -139.5 43.5t-45.5 140.5v166q0 45 -12.5 72.5t-57.5 27.5h-10v30h120q53 0 71.5 -28t18.5 -102v-167q0 -77 22 -107.5t63 -30.5q23 0 39.5 10t27.5 22q7 7 12.5 15t10.5 18v370h130v-470h-85l-35 45h-5q-14 -15 -33 -28q-16 -11 -39 -19t-53 -8zM283 521
q1 24 9 38t16 26t8 30q0 12 -9.5 20t-23.5 8q-17 0 -27.5 -10t-15.5 -42l-55 1q0 54 22 83.5t76 29.5q50 0 74.5 -24t24.5 -57q0 -23 -11 -37.5t-22.5 -28.5t-13.5 -37h-52z" />
    <glyph glyph-name="uni1EE8" unicode="&#x1ee8;" horiz-adv-x="694" 
d="M362 -10q-270 0 -270 298v242q0 45 -12.5 72.5t-57.5 27.5v30h110q53 0 71.5 -28t18.5 -102l1 -272q1 -104 40.5 -163.5t118.5 -59.5q102 0 148.5 61t46.5 192v372h50v-372q0 -94 -25.5 -160.5t-83.5 -102t-156 -35.5zM584 616v43q36 0 58 16t32 40t10 48h80
q0 -34 -19 -68t-59 -56.5t-102 -22.5zM316 705l42 140h119l-106 -140h-55z" />
    <glyph glyph-name="uni1EE9" unicode="&#x1ee9;" horiz-adv-x="565" 
d="M255 -10q-94 0 -139.5 43.5t-45.5 140.5v166q0 45 -12.5 72.5t-57.5 27.5h-10v30h120q53 0 71.5 -28t18.5 -102v-167q0 -77 22 -107.5t63 -30.5q23 0 39.5 10t27.5 22q7 7 12.5 15t10.5 18v370h130v-470h-85l-35 45h-5q-14 -15 -33 -28q-16 -11 -39 -19t-53 -8zM455 426
v43q36 0 58 16t32 40t10 48h80q0 -34 -19 -68t-59 -56.5t-102 -22.5zM252 515l42 140h119l-106 -140h-55z" />
    <glyph glyph-name="uni1EEA" unicode="&#x1eea;" horiz-adv-x="694" 
d="M362 -10q-270 0 -270 298v242q0 45 -12.5 72.5t-57.5 27.5v30h110q53 0 71.5 -28t18.5 -102l1 -272q1 -104 40.5 -163.5t118.5 -59.5q102 0 148.5 61t46.5 192v372h50v-372q0 -94 -25.5 -160.5t-83.5 -102t-156 -35.5zM584 616v43q36 0 58 16t32 40t10 48h80
q0 -34 -19 -68t-59 -56.5t-102 -22.5zM342 705l-106 140h119l42 -140h-55z" />
    <glyph glyph-name="uni1EEB" unicode="&#x1eeb;" horiz-adv-x="565" 
d="M255 -10q-94 0 -139.5 43.5t-45.5 140.5v166q0 45 -12.5 72.5t-57.5 27.5h-10v30h120q53 0 71.5 -28t18.5 -102v-167q0 -77 22 -107.5t63 -30.5q23 0 39.5 10t27.5 22q7 7 12.5 15t10.5 18v370h130v-470h-85l-35 45h-5q-14 -15 -33 -28q-16 -11 -39 -19t-53 -8zM455 426
v43q36 0 58 16t32 40t10 48h80q0 -34 -19 -68t-59 -56.5t-102 -22.5zM278 515l-106 140h119l42 -140h-55z" />
    <glyph glyph-name="uni1EEC" unicode="&#x1eec;" horiz-adv-x="694" 
d="M362 -10q-270 0 -270 298v242q0 45 -12.5 72.5t-57.5 27.5v30h110q53 0 71.5 -28t18.5 -102l1 -272q1 -104 40.5 -163.5t118.5 -59.5q102 0 148.5 61t46.5 192v372h50v-372q0 -94 -25.5 -160.5t-83.5 -102t-156 -35.5zM584 616v43q36 0 58 16t32 40t10 48h80
q0 -34 -19 -68t-59 -56.5t-102 -22.5zM347 711q1 24 9 38t16 26t8 30q0 12 -9.5 20t-23.5 8q-17 0 -27.5 -10t-15.5 -42l-55 1q0 54 22 83.5t76 29.5q50 0 74.5 -24t24.5 -57q0 -23 -11 -37.5t-22.5 -28.5t-13.5 -37h-52z" />
    <glyph glyph-name="uni1EED" unicode="&#x1eed;" horiz-adv-x="565" 
d="M255 -10q-94 0 -139.5 43.5t-45.5 140.5v166q0 45 -12.5 72.5t-57.5 27.5h-10v30h120q53 0 71.5 -28t18.5 -102v-167q0 -77 22 -107.5t63 -30.5q23 0 39.5 10t27.5 22q7 7 12.5 15t10.5 18v370h130v-470h-85l-35 45h-5q-14 -15 -33 -28q-16 -11 -39 -19t-53 -8zM455 426
v43q36 0 58 16t32 40t10 48h80q0 -34 -19 -68t-59 -56.5t-102 -22.5zM283 521q1 24 9 38t16 26t8 30q0 12 -9.5 20t-23.5 8q-17 0 -27.5 -10t-15.5 -42l-55 1q0 54 22 83.5t76 29.5q50 0 74.5 -24t24.5 -57q0 -23 -11 -37.5t-22.5 -28.5t-13.5 -37h-52z" />
    <glyph glyph-name="uni1EEE" unicode="&#x1eee;" horiz-adv-x="694" 
d="M362 -10q-270 0 -270 298v242q0 45 -12.5 72.5t-57.5 27.5v30h110q53 0 71.5 -28t18.5 -102l1 -272q1 -104 40.5 -163.5t118.5 -59.5q102 0 148.5 61t46.5 192v372h50v-372q0 -94 -25.5 -160.5t-83.5 -102t-156 -35.5zM584 616v43q36 0 58 16t32 40t10 48h80
q0 -34 -19 -68t-59 -56.5t-102 -22.5zM229 740q0 60 19 80t49 20q23 0 38.5 -10t28 -20t25.5 -10q17 0 26 12.5t9 27.5h40q0 -60 -18.5 -80t-48.5 -20q-22 0 -38 10t-28.5 20t-26.5 10q-17 0 -26 -12.5t-9 -27.5h-40z" />
    <glyph glyph-name="uni1EEF" unicode="&#x1eef;" horiz-adv-x="565" 
d="M255 -10q-94 0 -139.5 43.5t-45.5 140.5v166q0 45 -12.5 72.5t-57.5 27.5h-10v30h120q53 0 71.5 -28t18.5 -102v-167q0 -77 22 -107.5t63 -30.5q23 0 39.5 10t27.5 22q7 7 12.5 15t10.5 18v370h130v-470h-85l-35 45h-5q-14 -15 -33 -28q-16 -11 -39 -19t-53 -8zM455 426
v43q36 0 58 16t32 40t10 48h80q0 -34 -19 -68t-59 -56.5t-102 -22.5zM165 550q0 60 19 80t49 20q23 0 38.5 -10t28 -20t25.5 -10q17 0 26 12.5t9 27.5h40q0 -60 -18.5 -80t-48.5 -20q-22 0 -38 10t-28.5 20t-26.5 10q-17 0 -26 -12.5t-9 -27.5h-40z" />
    <glyph glyph-name="uni1EF0" unicode="&#x1ef0;" horiz-adv-x="694" 
d="M362 -10q-270 0 -270 298v242q0 45 -12.5 72.5t-57.5 27.5v30h110q53 0 71.5 -28t18.5 -102l1 -272q1 -104 40.5 -163.5t118.5 -59.5q102 0 148.5 61t46.5 192v372h50v-372q0 -94 -25.5 -160.5t-83.5 -102t-156 -35.5zM584 616v43q36 0 58 16t32 40t10 48h80
q0 -34 -19 -68t-59 -56.5t-102 -22.5zM347 -173q-24 0 -37 14t-13 37q0 22 13 36t37 14q25 0 38 -14t13 -36q0 -23 -13 -37t-38 -14z" />
    <glyph glyph-name="uni1EF1" unicode="&#x1ef1;" horiz-adv-x="565" 
d="M255 -10q-94 0 -139.5 43.5t-45.5 140.5v166q0 45 -12.5 72.5t-57.5 27.5h-10v30h120q53 0 71.5 -28t18.5 -102v-167q0 -77 22 -107.5t63 -30.5q23 0 39.5 10t27.5 22q7 7 12.5 15t10.5 18v370h130v-470h-85l-35 45h-5q-14 -15 -33 -28q-16 -11 -39 -19t-53 -8zM455 426
v43q36 0 58 16t32 40t10 48h80q0 -34 -19 -68t-59 -56.5t-102 -22.5zM283 -173q-24 0 -37 14t-13 37q0 22 13 36t37 14q25 0 38 -14t13 -36q0 -23 -13 -37t-38 -14z" />
    <glyph glyph-name="Ygrave" unicode="&#x1ef2;" horiz-adv-x="638" 
d="M279 0v264l-177 266q-17 26 -39.5 50t-46.5 41t-47 19v20h109q38 0 68.5 -17t54.5 -42t40 -51l136 -205l194 315h65l-227 -369v-291h-130zM314 705l-106 140h119l42 -140h-55z" />
    <glyph glyph-name="ygrave" unicode="&#x1ef3;" horiz-adv-x="509" 
d="M92 -200v35q52 0 87 20t57 77l21 54l-180 394q-33 72 -93 80v20h88q45 0 79 -21.5t51 -58.5l115 -252l122 322h53l-202 -535q-20 -54 -43.5 -83.5t-51.5 -40.5t-63 -11h-40zM250 515l-106 140h119l42 -140h-55z" />
    <glyph glyph-name="uni1EF4" unicode="&#x1ef4;" horiz-adv-x="638" 
d="M279 0v264l-177 266q-17 26 -39.5 50t-46.5 41t-47 19v20h109q38 0 68.5 -17t54.5 -42t40 -51l136 -205l194 315h65l-227 -369v-291h-130zM319 -173q-24 0 -37 14t-13 37q0 22 13 36t37 14q25 0 38 -14t13 -36q0 -23 -13 -37t-38 -14z" />
    <glyph glyph-name="uni1EF5" unicode="&#x1ef5;" horiz-adv-x="509" 
d="M92 -200v35q52 0 87 20t57 77l21 54l-180 394q-33 72 -93 80v20h88q45 0 79 -21.5t51 -58.5l115 -252l122 322h53l-202 -535q-20 -54 -43.5 -83.5t-51.5 -40.5t-63 -11h-40zM357 -173q-24 0 -37 14t-13 37q0 22 13 36t37 14q25 0 38 -14t13 -36q0 -23 -13 -37t-38 -14z
" />
    <glyph glyph-name="uni1EF6" unicode="&#x1ef6;" horiz-adv-x="638" 
d="M279 0v264l-177 266q-17 26 -39.5 50t-46.5 41t-47 19v20h109q38 0 68.5 -17t54.5 -42t40 -51l136 -205l194 315h65l-227 -369v-291h-130zM319 711q1 24 9 38t16 26t8 30q0 12 -9.5 20t-23.5 8q-17 0 -27.5 -10t-15.5 -42l-55 1q0 54 22 83.5t76 29.5q50 0 74.5 -24
t24.5 -57q0 -23 -11 -37.5t-22.5 -28.5t-13.5 -37h-52z" />
    <glyph glyph-name="uni1EF7" unicode="&#x1ef7;" horiz-adv-x="509" 
d="M92 -200v35q52 0 87 20t57 77l21 54l-180 394q-33 72 -93 80v20h88q45 0 79 -21.5t51 -58.5l115 -252l122 322h53l-202 -535q-20 -54 -43.5 -83.5t-51.5 -40.5t-63 -11h-40zM255 521q1 24 9 38t16 26t8 30q0 12 -9.5 20t-23.5 8q-17 0 -27.5 -10t-15.5 -42l-55 1
q0 54 22 83.5t76 29.5q50 0 74.5 -24t24.5 -57q0 -23 -11 -37.5t-22.5 -28.5t-13.5 -37h-52z" />
    <glyph glyph-name="uni1EF8" unicode="&#x1ef8;" horiz-adv-x="638" 
d="M279 0v264l-177 266q-17 26 -39.5 50t-46.5 41t-47 19v20h109q38 0 68.5 -17t54.5 -42t40 -51l136 -205l194 315h65l-227 -369v-291h-130zM201 740q0 60 19 80t49 20q23 0 38.5 -10t28 -20t25.5 -10q17 0 26 12.5t9 27.5h40q0 -60 -18.5 -80t-48.5 -20q-22 0 -38 10
t-28.5 20t-26.5 10q-17 0 -26 -12.5t-9 -27.5h-40z" />
    <glyph glyph-name="uni1EF9" unicode="&#x1ef9;" horiz-adv-x="509" 
d="M92 -200v35q52 0 87 20t57 77l21 54l-180 394q-33 72 -93 80v20h88q45 0 79 -21.5t51 -58.5l115 -252l122 322h53l-202 -535q-20 -54 -43.5 -83.5t-51.5 -40.5t-63 -11h-40zM137 550q0 60 19 80t49 20q23 0 38.5 -10t28 -20t25.5 -10q17 0 26 12.5t9 27.5h40
q0 -60 -18.5 -80t-48.5 -20q-22 0 -38 10t-28.5 20t-26.5 10q-17 0 -26 -12.5t-9 -27.5h-40z" />
    <glyph glyph-name="endash" unicode="&#x2013;" horiz-adv-x="622" 
d="M64 227v65h494v-65h-494z" />
    <glyph glyph-name="emdash" unicode="&#x2014;" horiz-adv-x="892" 
d="M64 227v65h764v-65h-764z" />
    <glyph glyph-name="quoteleft" unicode="&#x2018;" horiz-adv-x="216" 
d="M109 420q-33 0 -49.5 24t-16.5 54q0 57 25.5 102.5t89.5 87.5l18 -24q-16 -11 -35.5 -29t-33 -42t-13.5 -54l15 3q29 0 45 -17t16 -44t-16 -44t-45 -17z" />
    <glyph glyph-name="quoteright" unicode="&#x2019;" horiz-adv-x="218" 
d="M66 412l-18 24q17 11 36 29t32.5 42t13.5 54l-15 -3q-29 0 -45 17t-16 44t16 44t45 17q33 0 49.5 -24t16.5 -54q0 -57 -25.5 -102.5t-89.5 -87.5z" />
    <glyph glyph-name="quotesinglbase" unicode="&#x201a;" horiz-adv-x="228" 
d="M63 -160l-18 24q17 11 36 29t32.5 42t13.5 54l-15 -3q-29 0 -45 17t-16 44t16 44t45 17q33 0 49.5 -24t16.5 -54q0 -57 -25.5 -102.5t-89.5 -87.5z" />
    <glyph glyph-name="quotedblleft" unicode="&#x201c;" horiz-adv-x="398" 
d="M291 420q-33 0 -49.5 24t-16.5 54q0 57 25.5 102.5t89.5 87.5l18 -24q-16 -11 -35.5 -29t-33 -42t-13.5 -54l15 3q29 0 45 -17t16 -44t-16 -44t-45 -17zM109 420q-33 0 -49.5 24t-16.5 54q0 57 25.5 102.5t89.5 87.5l18 -24q-16 -11 -35.5 -29t-33 -42t-13.5 -54l15 3
q29 0 45 -17t16 -44t-16 -44t-45 -17z" />
    <glyph glyph-name="quotedblright" unicode="&#x201d;" horiz-adv-x="400" 
d="M248 412l-18 24q17 11 36 29t32.5 42t13.5 54l-15 -3q-29 0 -45 17t-16 44t16 44t45 17q33 0 49.5 -24t16.5 -54q0 -57 -25.5 -102.5t-89.5 -87.5zM66 412l-18 24q17 11 36 29t32.5 42t13.5 54l-15 -3q-29 0 -45 17t-16 44t16 44t45 17q33 0 49.5 -24t16.5 -54
q0 -57 -25.5 -102.5t-89.5 -87.5z" />
    <glyph glyph-name="quotedblbase" unicode="&#x201e;" horiz-adv-x="410" 
d="M245 -160l-18 24q17 11 36 29t32.5 42t13.5 54l-15 -3q-29 0 -45 17t-16 44t16 44t45 17q33 0 49.5 -24t16.5 -54q0 -57 -25.5 -102.5t-89.5 -87.5zM63 -160l-18 24q17 11 36 29t32.5 42t13.5 54l-15 -3q-29 0 -45 17t-16 44t16 44t45 17q33 0 49.5 -24t16.5 -54
q0 -57 -25.5 -102.5t-89.5 -87.5z" />
    <glyph glyph-name="dagger" unicode="&#x2020;" horiz-adv-x="539" 
d="M204 -190v595h-179v70h179v205h130v-205h180v-70h-180v-595h-130z" />
    <glyph glyph-name="daggerdbl" unicode="&#x2021;" horiz-adv-x="561" 
d="M215 -190v205h-179v70h179v320h-179v70h179v205h130v-205h180v-70h-180v-320h180v-70h-180v-205h-130z" />
    <glyph glyph-name="bullet" unicode="&#x2022;" horiz-adv-x="350" 
d="M175 207q-59 0 -97 34.5t-38 88.5t38 88.5t97 34.5t97 -34.5t38 -88.5t-38 -88.5t-97 -34.5z" />
    <glyph glyph-name="ellipsis" unicode="&#x2026;" horiz-adv-x="644" 
d="M532 -14q-29 0 -45 17t-16 44t16 44t45 17t45 -17t16 -44t-16 -44t-45 -17zM112 -14q-29 0 -45 17t-16 44t16 44t45 17t45 -17t16 -44t-16 -44t-45 -17zM322 -14q-29 0 -45 17t-16 44t16 44t45 17t45 -17t16 -44t-16 -44t-45 -17z" />
    <glyph glyph-name="perthousand" unicode="&#x2030;" horiz-adv-x="1070" 
d="M193 389q-75 0 -117.5 36t-42.5 102t42.5 102t117.5 36q73 0 115.5 -36t42.5 -102t-42.5 -102t-115.5 -36zM86 0l484 660h106l-484 -660h-106zM192 429q79 0 79 98t-80 98q-78 0 -78 -98t79 -98zM551 -5q-75 0 -117.5 36t-42.5 102t42.5 102t117.5 36q73 0 115.5 -36
t42.5 -102t-42.5 -102t-115.5 -36zM885 -5q-75 0 -117.5 36t-42.5 102t42.5 102t117.5 36q73 0 115.5 -36t42.5 -102t-42.5 -102t-115.5 -36zM550 35q79 0 79 98t-80 98q-78 0 -78 -98t79 -98zM884 35q79 0 79 98t-80 98q-78 0 -78 -98t79 -98z" />
    <glyph glyph-name="guilsinglleft" unicode="&#x2039;" horiz-adv-x="294" 
d="M189 30l-158 195l158 195h64l-97 -194l97 -196h-64z" />
    <glyph glyph-name="guilsinglright" unicode="&#x203a;" horiz-adv-x="294" 
d="M41 30l97 196l-97 194h64l158 -195l-158 -195h-64z" />
    <glyph glyph-name="fraction" unicode="&#x2044;" horiz-adv-x="450" 
d="M-50 0l455 660h95l-455 -660h-95z" />
    <glyph glyph-name="uni2074" unicode="&#x2074;" horiz-adv-x="331" 
d="M175 356v73h-145v24l150 207h67v-204h34v-27h-34v-73h-72zM69 456h106v146z" />
    <glyph glyph-name="Euro" unicode="&#x20ac;" horiz-adv-x="741" 
d="M416 -20q-92 0 -160 35t-109.5 96t-55.5 139h-65l12 45h48v25v17.5t1 17.5h-46l12 45h40q16 81 61.5 144.5t113 99.5t148.5 36q94 0 151.5 -24.5t85.5 -56.5q20 -26 23 -67t3 -85h-30q-19 91 -69.5 139.5t-133.5 48.5q-54 0 -99.5 -21.5t-76 -72.5t-40.5 -141h195
l-12 -45h-187v-60h184l-12 -45h-168q8 -62 33.5 -113t71 -81.5t111.5 -30.5q69 0 128 36.5t95 106.5l35 -27q-47 -83 -115 -122t-173 -39z" />
    <glyph glyph-name="uni20AE" unicode="&#x20ae;" horiz-adv-x="575" 
d="M232 0v242l-114 -22v40l114 22v60l-114 -22v40l114 22v233h-71q-53 0 -84 -26.5t-31 -93.5h-30v85q0 20 7 38.5t25.5 30t52.5 11.5h470v-45h-209v-208l116 23v-40l-116 -23v-60l116 23v-40l-116 -23v-267h-130z" />
    <glyph glyph-name="uni20B4" unicode="&#x20b4;" horiz-adv-x="533" 
d="M61 253v45h117q12 9 25 19t27 21h-169v45h226q46 40 62.5 74.5t16.5 73.5q0 47 -24 74t-73 27q-67 0 -106 -49.5t-54 -141.5h-28v100q0 40 26 70.5t70 48.5t99 18q59 0 105.5 -20t73 -55t26.5 -79q0 -41 -14.5 -72.5t-52.5 -68.5h57v-45h-107q-9 -8 -20 -17t-23 -19
l-6 -4h156v-45h-221q-45 -34 -61.5 -64.5t-16.5 -70.5q0 -43 29 -66.5t93 -23.5q71 0 113.5 43t60.5 149h28v-115q0 -33 -29.5 -61t-78.5 -44.5t-108 -16.5q-119 0 -176 32.5t-57 96.5q0 40 19.5 73.5t57.5 67.5h-63z" />
    <glyph glyph-name="uni20B8" unicode="&#x20b8;" horiz-adv-x="578" 
d="M16 615v45h558v-45h-558zM232 0v525h-71q-53 0 -84 -26.5t-31 -93.5h-30v85q0 20 7 38.5t25.5 30t52.5 11.5h470v-45h-209v-525h-130z" />
    <glyph glyph-name="uni20BD" unicode="&#x20bd;" horiz-adv-x="577" 
d="M95 0v168h-69v45h69v54h-69v40h69v223q0 45 -12.5 72.5t-57.5 27.5h-10v30h275q27 0 62 -3.5t71.5 -14.5t67.5 -33t50 -58.5t19 -91.5q0 -52 -19 -86.5t-48.5 -55.5t-62.5 -32t-62.5 -14.5t-47.5 -3.5h-95v-54h100v-45h-100v-168h-130zM225 307h60q34 0 65 13.5
t50.5 47.5t19.5 96t-19.5 95.5t-49 47t-61.5 13.5q-12 0 -24 -1t-21 -3l-20 -3v-306z" />
    <glyph glyph-name="uni2116" unicode="&#x2116;" horiz-adv-x="1039" 
d="M834 360q-82 0 -126 46.5t-44 113.5q0 68 44 114t126 46q83 0 126.5 -46t43.5 -114q0 -67 -43.5 -113.5t-126.5 -46.5zM578 -3l-424 498v-495h-50v540q0 38 -18.5 64t-71.5 26h-5v30h70q57 0 92.5 -15t58.5 -45l344 -400v460h50v-663h-46zM834 410q38 0 64 28.5t26 81.5
t-26 81.5t-64 28.5t-64 -28.5t-26 -81.5t26 -81.5t64 -28.5zM674 247v65h320v-65h-320z" />
    <glyph glyph-name="trademark" unicode="&#x2122;" horiz-adv-x="940" 
d="M897 290q-72 0 -108 32.5t-36 115.5v118l-116 -259h-25l-145 275v-275h-38v363h88l128 -243l109 243h95v-222q0 -71 12 -100.5t36 -35.5v-12zM189 297v331h-46q-34 0 -55 -21t-21 -64h-16v51q0 25 14 45.5t58 20.5h283v-32h-121v-331h-96z" />
    <glyph glyph-name="uni2215" unicode="&#x2215;" horiz-adv-x="475" 
d="M21 0l321 660h112l-321 -660h-112z" />
    <glyph glyph-name="uni0306.case" horiz-adv-x="0" 
d="M161 698q-49 0 -85.5 26t-55.5 68l28 21q15 -19 43 -34.5t70 -15.5t70 15.5t43 34.5l28 -21q-19 -42 -55.5 -68t-85.5 -26z" />
    <glyph glyph-name="dieresis.alt2" horiz-adv-x="332" 
d="M256 730q-26 0 -41 16.5t-15 39.5t15 39.5t41 16.5t41 -16.5t15 -39.5t-15 -39.5t-41 -16.5zM76 730q-26 0 -41 16.5t-15 39.5t15 39.5t41 16.5t41 -16.5t15 -39.5t-15 -39.5t-41 -16.5z" />
    <glyph glyph-name="descendercy" horiz-adv-x="245" 
d="M150 -160q-5 66 -19.5 100.5t-37.5 47t-55 12.5h-38v45h160q15 0 25 -10t10 -25v-170h-45z" />
    <glyph glyph-name="verticalbarcy" horiz-adv-x="255" 
d="M100 92v279h55v-279h-55z" />
    <glyph glyph-name="descendercy.case" horiz-adv-x="250" 
d="M150 -185q-8 73 -23.5 113t-40.5 56t-61 16h-25v45h165q15 0 25 -10t10 -25v-195h-50z" />
    <glyph glyph-name="verticalbarcy.case" horiz-adv-x="255" 
d="M100 144v279h55v-279h-55z" />
    <glyph glyph-name="uni03060301" horiz-adv-x="0" 
d="M241 510q-49 0 -85.5 26t-55.5 68l28 21q15 -19 43 -34.5t70 -15.5t70 15.5t43 34.5l28 -21q-19 -42 -55.5 -68t-85.5 -26zM210 670l42 140h119l-106 -140h-55z" />
    <glyph glyph-name="uni03060300" horiz-adv-x="0" 
d="M241 510q-49 0 -85.5 26t-55.5 68l28 21q15 -19 43 -34.5t70 -15.5t70 15.5t43 34.5l28 -21q-19 -42 -55.5 -68t-85.5 -26zM236 670l-106 140h119l42 -140h-55z" />
    <glyph glyph-name="uni03060309" horiz-adv-x="0" 
d="M241 510q-49 0 -85.5 26t-55.5 68l28 21q15 -19 43 -34.5t70 -15.5t70 15.5t43 34.5l28 -21q-19 -42 -55.5 -68t-85.5 -26zM223 632q1 24 9 38t16 26t8 30q0 12 -9.5 20t-23.5 8q-17 0 -27.5 -10t-15.5 -42l-55 1q0 54 22 83.5t76 29.5q50 0 74.5 -24t24.5 -57
q0 -23 -11 -37.5t-22.5 -28.5t-13.5 -37h-52z" />
    <glyph glyph-name="uni03060303" horiz-adv-x="0" 
d="M241 510q-49 0 -85.5 26t-55.5 68l28 21q15 -19 43 -34.5t70 -15.5t70 15.5t43 34.5l28 -21q-19 -42 -55.5 -68t-85.5 -26zM123 670q0 60 19 80t49 20q23 0 38.5 -10t28 -20t25.5 -10q17 0 26 12.5t9 27.5h40q0 -60 -18.5 -80t-48.5 -20q-22 0 -38 10t-28.5 20t-26.5 10
q-17 0 -26 -12.5t-9 -27.5h-40z" />
    <glyph glyph-name="uni03020301" horiz-adv-x="0" 
d="M100 535l80 125h130l80 -125h-60l-85 80l-85 -80h-60zM373 602l42 140h119l-106 -140h-55z" />
    <glyph glyph-name="uni03020300" horiz-adv-x="0" 
d="M100 535l80 125h130l80 -125h-60l-85 80l-85 -80h-60zM385 622l-106 140h119l42 -140h-55z" />
    <glyph glyph-name="uni03020309" horiz-adv-x="0" 
d="M100 535l80 125h130l80 -125h-60l-85 80l-85 -80h-60zM376 628q1 24 9 38t16 26t8 30q0 12 -9.5 20t-23.5 8q-17 0 -27.5 -10t-15.5 -42l-55 1q0 54 22 83.5t76 29.5q50 0 74.5 -24t24.5 -57q0 -23 -11 -37.5t-22.5 -28.5t-13.5 -37h-52z" />
    <glyph glyph-name="uni03020303" horiz-adv-x="0" 
d="M100 535l80 125h130l80 -125h-60l-85 80l-85 -80h-60zM127 686q0 60 19 80t49 20q23 0 38.5 -10t28 -20t25.5 -10q17 0 26 12.5t9 27.5h40q0 -60 -18.5 -80t-48.5 -20q-22 0 -38 10t-28.5 20t-26.5 10q-17 0 -26 -12.5t-9 -27.5h-40z" />
    </font>
</defs>
</svg>
